<svg id="svg" version="1.1" xmlns="http://www.w3.org/2000/svg" xmlns:xlink="http://www.w3.org/1999/xlink" width="400" height="370" viewBox="0, 0, 400,370"><g id="svgg"><path id="path0" d="M49.214 183.540 L 49.214 223.508 59.482 223.410 L 69.750 223.312 69.935 210.669 C 70.037 203.715,70.258 197.887,70.427 197.718 C 70.596 197.548,72.927 197.291,75.608 197.145 C 85.683 196.597,89.942 195.053,94.948 190.138 C 97.659 187.476,101.011 181.220,101.022 178.803 C 101.024 178.251,101.272 176.883,101.573 175.763 C 102.278 173.134,102.278 168.356,101.573 165.647 C 101.267 164.475,101.012 163.066,101.006 162.517 C 100.999 161.967,100.750 161.194,100.451 160.799 C 100.152 160.404,99.907 159.850,99.907 159.568 C 99.907 157.627,93.004 149.048,90.617 148.023 C 90.130 147.814,89.482 147.495,89.177 147.315 C 87.418 146.275,83.886 145.079,81.406 144.683 C 80.287 144.504,78.622 144.188,77.706 143.980 C 76.748 143.763,70.347 143.596,62.627 143.587 L 49.214 143.571 49.214 183.540 M113.475 143.817 C 112.939 144.353,113.194 222.638,113.733 223.085 C 114.097 223.387,119.326 223.477,132.512 223.408 L 150.786 223.312 150.786 214.061 L 150.786 204.810 142.646 204.625 L 134.505 204.440 134.410 174.006 L 134.316 143.571 124.019 143.571 C 118.355 143.571,113.611 143.682,113.475 143.817 M179.693 145.509 C 179.390 146.580,178.894 148.455,178.591 149.676 C 178.287 150.897,177.764 152.979,177.428 154.302 C 177.092 155.624,176.593 157.623,176.318 158.742 C 176.044 159.861,175.557 161.818,175.236 163.090 C 174.915 164.362,174.391 166.443,174.070 167.715 C 173.749 168.987,173.262 170.944,172.988 172.063 C 172.714 173.182,172.214 175.180,171.878 176.503 C 171.542 177.826,171.046 179.824,170.776 180.944 C 170.506 182.063,170.080 183.811,169.830 184.829 C 169.580 185.846,169.254 187.345,169.105 188.159 C 168.956 188.973,168.645 190.108,168.413 190.681 C 168.182 191.254,167.993 192.138,167.993 192.647 C 167.993 193.155,167.760 194.351,167.475 195.305 C 167.190 196.259,166.677 198.372,166.335 200.000 C 165.992 201.628,165.528 203.543,165.304 204.255 C 165.079 204.968,164.772 206.300,164.621 207.216 C 164.470 208.131,164.152 209.630,163.914 210.546 C 163.675 211.462,163.263 213.127,162.997 214.246 C 162.732 215.365,162.300 217.114,162.038 218.131 C 161.776 219.149,161.552 220.731,161.540 221.647 L 161.517 223.312 171.657 223.410 C 183.337 223.524,183.164 223.567,183.164 220.526 C 183.164 219.565,183.414 218.072,183.719 217.206 C 184.024 216.341,184.274 215.244,184.274 214.768 C 184.274 213.348,185.306 213.136,192.205 213.136 C 199.654 213.136,200.185 213.328,200.185 216.029 C 200.185 216.806,200.424 218.263,200.716 219.267 C 201.009 220.270,201.300 221.591,201.364 222.202 L 201.480 223.312 212.211 223.312 C 222.721 223.312,222.940 223.297,222.864 222.572 C 222.743 221.416,221.998 217.887,221.597 216.567 C 221.398 215.910,221.081 214.578,220.894 213.607 C 219.766 207.766,219.440 206.287,218.092 200.901 C 217.808 199.768,217.576 198.383,217.576 197.824 C 217.576 197.264,217.393 196.463,217.168 196.043 C 216.943 195.623,216.615 194.427,216.439 193.385 C 215.782 189.511,215.088 186.217,214.843 185.822 C 214.704 185.598,214.442 184.367,214.260 183.086 C 214.078 181.806,213.761 180.093,213.555 179.278 C 213.134 177.616,212.372 174.068,211.490 169.658 C 211.164 168.030,210.660 165.615,210.370 164.292 C 210.079 162.969,209.757 161.388,209.655 160.777 C 209.111 157.548,208.584 155.038,208.113 153.427 C 207.823 152.436,207.586 151.052,207.586 150.349 C 207.586 149.647,207.397 148.721,207.167 148.291 C 206.937 147.860,206.645 146.664,206.520 145.632 L 206.290 143.756 193.267 143.659 L 180.244 143.561 179.693 145.509 M220.167 143.976 C 220.167 144.199,220.391 144.824,220.665 145.364 C 221.288 146.590,222.398 149.101,224.003 152.914 C 224.281 153.575,225.031 155.237,225.668 156.606 C 226.305 157.976,226.827 159.192,226.827 159.309 C 226.827 159.427,227.169 160.304,227.587 161.260 C 228.005 162.215,228.490 163.330,228.664 163.737 C 228.838 164.144,229.306 165.227,229.705 166.142 C 230.377 167.688,231.252 169.734,231.999 171.508 C 232.171 171.915,232.637 172.997,233.035 173.913 C 233.707 175.459,234.582 177.504,235.329 179.278 C 235.501 179.685,235.967 180.768,236.365 181.684 C 237.089 183.348,238.005 185.491,238.736 187.234 C 238.950 187.743,239.313 188.492,239.544 188.899 C 239.831 189.407,240.021 194.933,240.148 206.475 L 240.333 223.312 250.601 223.410 L 260.870 223.508 260.870 206.631 C 260.870 193.351,260.974 189.544,261.360 188.771 C 261.630 188.231,262.130 187.234,262.470 186.557 C 262.811 185.879,263.090 185.072,263.090 184.763 C 263.090 184.455,263.322 183.761,263.605 183.221 C 263.888 182.681,264.403 181.489,264.749 180.574 C 265.095 179.658,265.592 178.409,265.852 177.798 C 266.113 177.188,266.613 175.939,266.963 175.023 C 267.312 174.107,267.812 172.858,268.073 172.248 C 268.334 171.637,268.831 170.389,269.178 169.473 C 269.525 168.557,270.046 167.336,270.335 166.760 C 270.624 166.184,270.860 165.460,270.860 165.152 C 270.860 164.844,271.081 164.150,271.351 163.609 C 271.621 163.069,272.121 162.073,272.461 161.395 C 272.802 160.717,273.080 159.910,273.080 159.602 C 273.080 159.293,273.301 158.599,273.571 158.059 C 273.841 157.519,274.341 156.522,274.681 155.844 C 275.022 155.166,275.301 154.442,275.301 154.235 C 275.301 153.827,276.134 151.789,276.988 150.109 C 277.281 149.533,277.521 148.892,277.521 148.685 C 277.521 148.477,277.747 147.783,278.024 147.142 C 279.125 144.590,279.312 144.006,279.100 143.793 C 278.977 143.671,274.179 143.571,268.436 143.571 L 257.994 143.571 257.396 144.829 C 257.068 145.521,256.799 146.418,256.799 146.822 C 256.799 147.226,256.551 148.033,256.246 148.616 C 255.942 149.199,255.693 150.041,255.691 150.487 C 255.690 150.933,255.535 151.393,255.348 151.509 C 255.160 151.625,254.895 152.259,254.758 152.918 C 254.515 154.094,253.621 157.097,253.079 158.557 C 252.298 160.658,251.249 164.237,251.249 164.796 C 251.249 165.485,249.809 167.623,249.346 167.623 C 249.190 167.623,248.965 166.998,248.845 166.235 C 248.538 164.269,247.546 160.615,246.947 159.241 C 246.667 158.600,246.433 157.684,246.427 157.206 C 246.420 156.728,246.170 156.014,245.872 155.618 C 245.573 155.223,245.328 154.466,245.328 153.935 C 245.328 153.404,245.142 152.783,244.914 152.555 C 244.686 152.327,244.370 151.503,244.210 150.724 C 243.930 149.350,243.637 148.448,242.401 145.145 L 241.813 143.574 230.990 143.572 C 223.390 143.571,220.167 143.692,220.167 143.976 M76.472 161.787 C 81.477 164.740,82.055 174.324,77.442 177.865 C 74.488 180.133,70.962 180.636,70.296 178.884 C 69.665 177.224,69.833 161.857,70.490 161.200 C 71.228 160.462,74.824 160.815,76.472 161.787 M193.512 167.993 C 193.533 169.315,193.792 171.397,194.087 172.618 C 194.382 173.839,194.626 175.773,194.629 176.915 C 194.632 178.058,194.817 179.889,195.041 180.986 C 195.264 182.082,195.582 184.561,195.747 186.494 C 195.912 188.427,196.257 191.271,196.515 192.812 C 197.211 196.979,197.301 196.898,192.144 196.774 L 187.789 196.670 187.675 194.663 C 187.611 193.530,187.812 191.888,188.138 190.893 C 188.455 189.923,188.714 188.365,188.714 187.430 C 188.714 186.495,188.964 185.132,189.269 184.402 C 189.574 183.671,189.824 182.267,189.824 181.281 C 189.824 180.296,190.057 178.776,190.342 177.904 C 190.626 177.032,190.942 174.820,191.044 172.988 C 191.222 169.766,191.740 166.949,192.505 165.032 C 193.046 163.677,193.461 164.898,193.512 167.993 " stroke="none" fill="#fbfbfb" fill-rule="evenodd"></path><path id="path1" d="M48.698 143.786 C 48.287 144.857,48.442 222.746,48.857 223.521 C 49.336 224.417,68.866 224.650,70.048 223.774 C 70.608 223.359,70.681 222.033,70.766 210.731 L 70.860 198.150 75.301 197.910 C 79.708 197.672,85.218 196.814,86.483 196.169 C 86.845 195.984,87.947 195.438,88.931 194.956 C 94.317 192.317,96.839 189.868,99.293 184.893 C 100.951 181.530,102.161 177.349,102.096 175.208 C 102.052 173.801,101.036 177.213,101.025 178.803 C 101.007 181.227,97.656 187.479,94.948 190.138 C 89.942 195.053,85.683 196.597,75.608 197.145 C 72.927 197.291,70.596 197.548,70.427 197.718 C 70.258 197.887,70.037 203.715,69.935 210.669 L 69.750 223.312 59.482 223.410 L 49.214 223.508 49.214 183.540 L 49.214 143.571 62.627 143.587 C 70.347 143.596,76.748 143.763,77.706 143.980 C 78.622 144.188,80.287 144.504,81.406 144.683 C 83.886 145.079,87.418 146.275,89.177 147.315 C 89.482 147.495,90.130 147.814,90.617 148.023 C 93.004 149.048,99.907 157.627,99.907 159.568 C 99.907 159.850,100.152 160.404,100.451 160.799 C 100.750 161.194,100.999 162.047,101.006 162.696 C 101.012 163.344,101.204 164.343,101.432 164.916 C 101.660 165.489,101.968 167.789,102.115 170.028 L 102.384 174.098 102.410 170.953 C 102.488 161.298,97.516 151.010,91.230 147.823 C 90.610 147.508,89.852 147.115,89.547 146.948 C 83.713 143.771,79.615 143.204,62.482 143.202 C 50.458 143.201,48.897 143.267,48.698 143.786 M112.938 143.639 C 112.086 144.491,112.308 222.849,113.165 223.624 C 114.298 224.650,150.407 224.551,150.958 223.521 C 151.281 222.918,151.559 204.800,151.249 204.551 C 151.198 204.510,147.493 204.385,143.016 204.274 L 134.875 204.070 134.690 173.728 L 134.505 143.386 123.946 143.288 C 116.044 143.214,113.274 143.303,112.938 143.639 M179.526 144.029 C 179.285 144.489,178.928 145.615,178.732 146.531 C 178.536 147.447,178.123 149.195,177.814 150.416 C 177.506 151.637,176.987 153.719,176.660 155.042 C 176.334 156.364,175.835 158.363,175.550 159.482 C 175.266 160.601,174.784 162.516,174.478 163.737 C 174.173 164.958,173.674 166.957,173.368 168.178 C 173.063 169.399,172.546 171.480,172.220 172.803 C 171.894 174.126,171.377 176.207,171.072 177.428 C 170.215 180.856,169.580 183.487,168.951 186.218 C 168.634 187.592,168.125 189.799,167.820 191.122 C 167.515 192.445,167.015 194.609,166.710 195.932 C 166.405 197.255,165.919 199.378,165.630 200.649 C 163.974 207.933,163.102 211.697,162.651 213.506 C 162.372 214.625,161.958 216.290,161.730 217.206 C 160.687 221.399,160.451 223.550,160.994 223.895 C 161.865 224.446,181.792 224.325,182.559 223.764 C 182.940 223.485,183.341 222.460,183.536 221.266 C 183.718 220.153,184.083 218.076,184.348 216.651 L 184.829 214.061 191.885 213.961 C 200.055 213.845,199.567 213.605,200.016 217.946 C 200.153 219.269,200.538 221.184,200.873 222.202 L 201.480 224.052 212.068 224.150 C 224.267 224.263,223.942 224.345,223.158 221.353 C 222.907 220.395,222.572 218.779,222.413 217.761 C 222.113 215.837,221.580 213.538,220.689 210.328 C 220.402 209.293,220.167 208.023,220.167 207.507 C 220.167 206.991,219.917 205.861,219.611 204.995 C 219.306 204.130,219.056 203.046,219.056 202.586 C 219.056 202.126,218.822 200.940,218.536 199.950 C 218.025 198.182,217.476 195.714,216.861 192.414 C 216.691 191.499,216.180 189.167,215.726 187.234 C 215.273 185.301,214.777 182.969,214.625 182.054 C 214.473 181.138,214.170 179.639,213.950 178.723 C 213.731 177.808,213.283 175.726,212.955 174.098 C 212.627 172.470,212.125 170.056,211.840 168.733 C 211.555 167.410,211.253 165.828,211.170 165.217 C 211.086 164.607,210.832 163.358,210.604 162.442 C 210.376 161.526,209.924 159.445,209.600 157.817 C 208.794 153.774,207.991 150.006,207.511 148.011 C 207.291 147.095,207.010 145.680,206.886 144.866 L 206.660 143.386 193.312 143.289 L 179.963 143.192 179.526 144.029 M219.940 143.730 C 219.829 144.021,219.988 144.812,220.295 145.488 C 221.567 148.287,222.387 150.201,222.387 150.370 C 222.387 150.469,222.897 151.685,223.520 153.073 C 224.144 154.461,224.802 155.930,224.984 156.337 C 225.165 156.744,225.757 158.159,226.298 159.482 C 226.839 160.805,227.586 162.553,227.956 163.367 C 228.327 164.181,229.076 165.930,229.621 167.253 C 230.166 168.575,230.916 170.324,231.286 171.138 C 231.657 171.952,232.406 173.700,232.952 175.023 C 233.497 176.346,234.247 178.094,234.618 178.908 C 234.990 179.722,236.178 182.470,237.258 185.014 L 239.223 189.639 239.322 206.475 C 239.411 221.716,239.480 223.356,240.040 223.774 C 241.213 224.650,260.747 224.417,261.227 223.521 C 261.474 223.058,261.610 216.980,261.610 206.332 C 261.610 194.994,261.739 189.536,262.026 188.824 C 262.255 188.255,262.579 187.456,262.746 187.049 C 262.913 186.642,263.409 185.393,263.848 184.274 C 264.761 181.946,266.302 178.084,267.872 174.191 C 268.467 172.715,269.490 170.093,270.146 168.363 C 271.288 165.350,271.554 164.695,272.868 161.646 C 273.188 160.903,273.451 160.126,273.451 159.919 C 273.451 159.711,273.729 158.987,274.070 158.309 C 274.410 157.631,274.910 156.635,275.180 156.095 C 275.450 155.554,275.671 154.860,275.671 154.552 C 275.671 154.244,275.949 153.437,276.290 152.759 C 276.631 152.081,277.130 151.084,277.400 150.544 C 277.670 150.004,277.891 149.310,277.891 149.002 C 277.891 148.693,278.170 147.886,278.510 147.209 C 278.851 146.531,279.360 145.518,279.642 144.958 C 280.512 143.227,280.345 143.201,268.660 143.201 L 257.624 143.201 257.026 144.459 C 256.698 145.151,256.429 145.904,256.429 146.132 C 256.429 146.360,255.782 148.500,254.992 150.887 C 254.202 153.274,253.184 156.475,252.731 158.002 C 252.278 159.528,251.771 161.048,251.604 161.379 C 251.436 161.710,251.181 162.626,251.036 163.414 C 250.513 166.252,249.029 167.092,249.029 164.550 C 249.029 163.809,247.329 157.940,246.274 155.042 C 245.118 151.863,244.261 149.145,243.500 146.245 C 243.325 145.579,242.912 144.622,242.582 144.117 L 241.981 143.201 231.062 143.201 C 221.935 143.201,220.110 143.288,219.940 143.730 M134.410 174.006 L 134.505 204.440 142.646 204.625 L 150.786 204.810 150.786 214.061 L 150.786 223.312 132.512 223.408 C 119.326 223.477,114.097 223.387,113.733 223.085 C 113.194 222.638,112.939 144.353,113.475 143.817 C 113.611 143.682,118.355 143.571,124.019 143.571 L 134.316 143.571 134.410 174.006 M206.520 145.632 C 206.645 146.664,206.937 147.860,207.167 148.291 C 207.397 148.721,207.586 149.647,207.586 150.349 C 207.586 151.052,207.823 152.436,208.113 153.427 C 208.584 155.038,209.111 157.548,209.655 160.777 C 209.757 161.388,210.079 162.969,210.370 164.292 C 210.660 165.615,211.164 168.030,211.490 169.658 C 212.372 174.068,213.134 177.616,213.555 179.278 C 213.761 180.093,214.078 181.806,214.260 183.086 C 214.442 184.367,214.704 185.598,214.843 185.822 C 215.088 186.217,215.782 189.511,216.439 193.385 C 216.615 194.427,216.943 195.623,217.168 196.043 C 217.393 196.463,217.576 197.264,217.576 197.824 C 217.576 198.383,217.808 199.768,218.092 200.901 C 219.440 206.287,219.766 207.766,220.894 213.607 C 221.081 214.578,221.398 215.910,221.597 216.567 C 221.998 217.887,222.743 221.416,222.864 222.572 C 222.940 223.297,222.721 223.312,212.211 223.312 L 201.480 223.312 201.364 222.202 C 201.300 221.591,201.009 220.270,200.716 219.267 C 200.424 218.263,200.185 216.806,200.185 216.029 C 200.185 213.328,199.654 213.136,192.205 213.136 C 185.306 213.136,184.274 213.348,184.274 214.768 C 184.274 215.244,184.024 216.341,183.719 217.206 C 183.414 218.072,183.164 219.565,183.164 220.526 C 183.164 223.567,183.337 223.524,171.657 223.410 L 161.517 223.312 161.540 221.647 C 161.552 220.731,161.776 219.149,162.038 218.131 C 162.300 217.114,162.732 215.365,162.997 214.246 C 163.263 213.127,163.675 211.462,163.914 210.546 C 164.152 209.630,164.470 208.131,164.621 207.216 C 164.772 206.300,165.079 204.968,165.304 204.255 C 165.528 203.543,165.992 201.628,166.335 200.000 C 166.677 198.372,167.190 196.259,167.475 195.305 C 167.760 194.351,167.993 193.155,167.993 192.647 C 167.993 192.138,168.182 191.254,168.413 190.681 C 168.645 190.108,168.956 188.973,169.105 188.159 C 169.254 187.345,169.580 185.846,169.830 184.829 C 170.080 183.811,170.506 182.063,170.776 180.944 C 171.046 179.824,171.542 177.826,171.878 176.503 C 172.214 175.180,172.714 173.182,172.988 172.063 C 173.262 170.944,173.749 168.987,174.070 167.715 C 174.391 166.443,174.915 164.362,175.236 163.090 C 175.557 161.818,176.044 159.861,176.318 158.742 C 176.593 157.623,177.092 155.624,177.428 154.302 C 177.764 152.979,178.287 150.897,178.591 149.676 C 178.894 148.455,179.390 146.580,179.693 145.509 L 180.244 143.561 193.267 143.659 L 206.290 143.756 206.520 145.632 M242.401 145.145 C 243.637 148.448,243.930 149.350,244.210 150.724 C 244.370 151.503,244.686 152.327,244.914 152.555 C 245.142 152.783,245.328 153.404,245.328 153.935 C 245.328 154.466,245.573 155.223,245.872 155.618 C 246.170 156.014,246.420 156.728,246.427 157.206 C 246.433 157.684,246.667 158.600,246.947 159.241 C 247.546 160.615,248.538 164.269,248.845 166.235 C 248.965 166.998,249.190 167.623,249.346 167.623 C 249.809 167.623,251.249 165.485,251.249 164.796 C 251.249 164.237,252.298 160.658,253.079 158.557 C 253.621 157.097,254.515 154.094,254.758 152.918 C 254.895 152.259,255.160 151.625,255.348 151.509 C 255.535 151.393,255.690 150.933,255.691 150.487 C 255.693 150.041,255.942 149.199,256.246 148.616 C 256.551 148.033,256.799 147.226,256.799 146.822 C 256.799 146.418,257.068 145.521,257.396 144.829 L 257.994 143.571 268.436 143.571 C 274.179 143.571,278.977 143.671,279.100 143.793 C 279.312 144.006,279.125 144.590,278.024 147.142 C 277.747 147.783,277.521 148.477,277.521 148.685 C 277.521 148.892,277.281 149.533,276.988 150.109 C 276.134 151.789,275.301 153.827,275.301 154.235 C 275.301 154.442,275.022 155.166,274.681 155.844 C 274.341 156.522,273.841 157.519,273.571 158.059 C 273.301 158.599,273.080 159.293,273.080 159.602 C 273.080 159.910,272.802 160.717,272.461 161.395 C 272.121 162.073,271.621 163.069,271.351 163.609 C 271.081 164.150,270.860 164.844,270.860 165.152 C 270.860 165.460,270.624 166.184,270.335 166.760 C 270.046 167.336,269.525 168.557,269.178 169.473 C 268.831 170.389,268.334 171.637,268.073 172.248 C 267.812 172.858,267.312 174.107,266.963 175.023 C 266.613 175.939,266.113 177.188,265.852 177.798 C 265.592 178.409,265.095 179.658,264.749 180.574 C 264.403 181.489,263.888 182.681,263.605 183.221 C 263.322 183.761,263.090 184.455,263.090 184.763 C 263.090 185.072,262.811 185.879,262.470 186.557 C 262.130 187.234,261.630 188.231,261.360 188.771 C 260.974 189.544,260.870 193.351,260.870 206.631 L 260.870 223.508 250.601 223.410 L 240.333 223.312 240.148 206.475 C 240.021 194.933,239.831 189.407,239.544 188.899 C 239.313 188.492,238.950 187.743,238.736 187.234 C 238.005 185.491,237.089 183.348,236.365 181.684 C 235.967 180.768,235.501 179.685,235.329 179.278 C 234.582 177.504,233.707 175.459,233.035 173.913 C 232.637 172.997,232.171 171.915,231.999 171.508 C 231.252 169.734,230.377 167.688,229.705 166.142 C 229.306 165.227,228.838 164.144,228.664 163.737 C 228.490 163.330,228.005 162.215,227.587 161.260 C 227.169 160.304,226.827 159.427,226.827 159.309 C 226.827 159.192,226.305 157.976,225.668 156.606 C 225.031 155.237,224.281 153.575,224.003 152.914 C 222.398 149.101,221.288 146.590,220.665 145.364 C 219.735 143.533,219.516 143.571,230.990 143.572 L 241.813 143.574 242.401 145.145 M70.490 161.200 C 69.833 161.857,69.665 177.224,70.296 178.884 C 70.962 180.636,74.488 180.133,77.442 177.865 C 82.055 174.324,81.477 164.740,76.472 161.787 C 74.824 160.815,71.228 160.462,70.490 161.200 M75.778 162.035 C 80.924 164.670,81.618 173.929,76.946 177.629 C 75.229 178.989,72.241 179.562,71.232 178.725 C 70.649 178.241,70.358 162.143,70.922 161.579 C 71.428 161.072,74.453 161.357,75.778 162.035 M192.505 165.032 C 191.740 166.949,191.222 169.766,191.044 172.988 C 190.942 174.820,190.626 177.032,190.342 177.904 C 190.057 178.776,189.824 180.296,189.824 181.281 C 189.824 182.267,189.574 183.671,189.269 184.402 C 188.964 185.132,188.714 186.495,188.714 187.430 C 188.714 188.365,188.455 189.923,188.138 190.893 C 187.812 191.888,187.611 193.530,187.675 194.663 L 187.789 196.670 192.144 196.774 C 197.301 196.898,197.211 196.979,196.515 192.812 C 196.257 191.271,195.912 188.427,195.747 186.494 C 195.582 184.561,195.264 182.082,195.041 180.986 C 194.817 179.889,194.632 178.058,194.629 176.915 C 194.626 175.773,194.382 173.839,194.087 172.618 C 193.792 171.397,193.533 169.315,193.512 167.993 C 193.461 164.898,193.046 163.677,192.505 165.032 M193.568 172.618 C 194.040 175.637,194.878 182.910,195.346 188.063 C 195.527 190.045,195.883 192.479,196.137 193.473 C 196.894 196.425,196.755 196.526,192.144 196.405 L 188.159 196.300 188.196 194.635 C 188.216 193.719,188.604 190.971,189.057 188.529 C 190.083 182.998,190.379 181.205,190.920 177.243 C 192.161 168.154,192.919 164.888,193.066 167.993 C 193.120 169.112,193.346 171.193,193.568 172.618 " stroke="none" fill="#d4e4b4" fill-rule="evenodd"></path><path id="path2" d="M48.540 143.214 L 47.734 144.080 47.734 183.252 C 47.734 217.640,47.803 222.557,48.298 223.515 L 48.863 224.607 59.491 224.601 C 65.534 224.598,70.360 224.444,70.675 224.245 C 71.350 223.819,71.900 197.864,71.230 198.088 C 70.996 198.166,70.826 202.809,70.766 210.762 C 70.681 222.035,70.608 223.359,70.048 223.774 C 68.866 224.650,49.336 224.417,48.857 223.521 C 48.442 222.746,48.287 144.857,48.698 143.786 C 49.326 142.149,79.176 143.156,84.978 145.010 C 87.027 145.664,87.762 145.976,89.547 146.948 C 89.852 147.115,90.610 147.508,91.230 147.823 C 94.369 149.414,99.280 155.936,101.125 160.962 C 101.266 161.344,101.338 161.274,101.358 160.737 C 101.387 159.979,99.934 156.982,98.231 154.283 C 96.475 151.502,92.436 147.870,89.547 146.474 C 82.823 143.227,81.000 142.963,62.879 142.611 L 49.347 142.348 48.540 143.214 M112.766 142.860 C 111.940 143.342,111.739 223.340,112.562 224.163 C 112.896 224.497,117.720 224.607,131.998 224.607 L 150.990 224.607 151.351 223.658 C 151.558 223.113,151.677 218.893,151.631 213.759 L 151.551 204.810 151.354 214.061 C 151.245 219.149,151.022 223.520,150.857 223.774 C 150.302 224.632,113.884 224.426,113.101 223.560 C 112.250 222.620,112.147 144.315,112.996 143.610 C 113.355 143.312,116.566 143.218,124.004 143.287 L 134.505 143.386 134.690 173.697 C 134.810 193.411,135.004 204.052,135.245 204.132 C 135.966 204.372,135.538 143.933,134.813 143.133 C 134.107 142.352,114.064 142.104,112.766 142.860 M179.556 143.080 C 178.974 143.486,178.735 144.010,178.760 144.818 C 178.789 145.713,178.852 145.808,179.038 145.236 C 179.750 143.047,178.819 143.173,193.452 143.284 C 200.819 143.340,206.846 143.279,206.846 143.148 C 206.845 142.192,180.922 142.127,179.556 143.080 M219.638 143.042 C 218.870 143.810,218.822 143.568,220.299 146.403 C 220.633 147.045,220.907 147.752,220.907 147.975 C 220.907 148.386,222.743 152.572,223.707 154.359 C 223.998 154.899,224.237 155.527,224.237 155.754 C 224.237 155.981,224.758 157.288,225.396 158.657 C 226.505 161.040,227.040 162.261,227.865 164.292 C 228.071 164.801,228.605 166.050,229.049 167.068 C 230.349 170.041,230.796 171.079,231.195 172.063 C 231.402 172.572,231.935 173.821,232.380 174.838 C 233.680 177.811,234.126 178.850,234.525 179.833 C 234.949 180.876,236.244 183.896,236.986 185.569 C 238.768 189.591,238.668 188.353,238.668 206.278 C 238.668 217.218,238.803 223.428,239.051 223.891 C 239.647 225.005,261.001 225.005,261.597 223.891 C 261.844 223.429,261.980 217.510,261.980 207.219 C 261.980 191.441,262.116 189.293,263.280 186.679 C 264.529 183.877,264.940 182.839,264.940 182.490 C 264.940 182.283,265.179 181.642,265.472 181.066 C 266.326 179.385,267.160 177.347,267.160 176.940 C 267.160 176.733,267.400 176.092,267.692 175.516 C 268.547 173.835,269.380 171.797,269.380 171.389 C 269.380 171.182,269.620 170.541,269.913 169.965 C 270.767 168.285,271.600 166.247,271.600 165.839 C 271.600 165.632,271.840 164.991,272.133 164.415 C 272.987 162.734,273.821 160.696,273.821 160.289 C 273.821 160.081,274.060 159.441,274.353 158.864 C 275.207 157.184,276.041 155.146,276.041 154.738 C 276.041 154.531,276.280 153.890,276.573 153.314 C 277.427 151.633,278.261 149.595,278.261 149.188 C 278.261 148.981,278.500 148.340,278.793 147.764 C 281.612 142.218,282.061 142.461,268.984 142.461 C 257.152 142.461,256.420 142.587,256.438 144.631 C 256.446 145.592,256.455 145.589,257.039 144.403 L 257.632 143.201 268.665 143.201 C 280.345 143.201,280.512 143.227,279.642 144.958 C 279.360 145.518,278.851 146.531,278.510 147.209 C 278.170 147.886,277.891 148.693,277.891 149.002 C 277.891 149.310,277.670 150.004,277.400 150.544 C 277.130 151.084,276.631 152.081,276.290 152.759 C 275.949 153.437,275.671 154.244,275.671 154.552 C 275.671 154.860,275.450 155.554,275.180 156.095 C 274.910 156.635,274.410 157.631,274.070 158.309 C 273.729 158.987,273.451 159.711,273.451 159.919 C 273.451 160.126,273.188 160.903,272.868 161.646 C 271.554 164.695,271.288 165.350,270.146 168.363 C 269.490 170.093,268.467 172.715,267.872 174.191 C 266.302 178.084,264.761 181.946,263.848 184.274 C 263.409 185.393,262.913 186.642,262.746 187.049 C 262.579 187.456,262.255 188.255,262.026 188.824 C 261.739 189.536,261.610 194.994,261.610 206.332 C 261.610 216.980,261.474 223.058,261.227 223.521 C 260.747 224.417,241.213 224.650,240.040 223.774 C 239.480 223.356,239.411 221.716,239.322 206.475 L 239.223 189.639 237.258 185.014 C 236.178 182.470,234.990 179.722,234.618 178.908 C 234.247 178.094,233.497 176.346,232.952 175.023 C 232.406 173.700,231.657 171.952,231.286 171.138 C 230.916 170.324,230.166 168.575,229.621 167.253 C 229.076 165.930,228.327 164.181,227.956 163.367 C 227.586 162.553,226.839 160.805,226.298 159.482 C 225.757 158.159,225.165 156.744,224.984 156.337 C 224.802 155.930,224.144 154.461,223.520 153.073 C 222.897 151.685,222.387 150.469,222.387 150.370 C 222.387 150.201,221.567 148.287,220.295 145.488 C 219.235 143.153,219.011 143.201,231.062 143.201 L 241.981 143.201 242.582 144.117 C 242.912 144.622,243.325 145.579,243.500 146.245 C 244.261 149.145,245.118 151.863,246.274 155.042 C 247.329 157.940,249.029 163.809,249.029 164.550 C 249.029 166.223,249.419 166.587,250.178 165.621 C 251.094 164.457,251.092 163.453,250.176 164.550 L 249.497 165.363 249.276 163.493 C 249.154 162.465,248.901 161.433,248.713 161.200 C 248.526 160.968,248.256 160.070,248.113 159.206 C 247.971 158.343,247.702 157.542,247.516 157.427 C 247.331 157.312,247.178 156.853,247.176 156.407 C 247.175 155.961,246.925 155.120,246.621 154.537 C 246.317 153.954,246.067 153.205,246.066 152.872 C 246.065 152.539,245.815 151.789,245.511 151.207 C 245.207 150.624,244.957 149.874,244.956 149.541 C 244.955 149.209,244.705 148.459,244.401 147.876 C 244.097 147.293,243.848 146.458,243.848 146.020 C 243.848 145.581,243.426 144.601,242.910 143.842 L 241.971 142.461 231.095 142.461 C 221.701 142.461,220.140 142.540,219.638 143.042 M206.924 144.866 C 206.912 145.476,207.126 146.559,207.401 147.271 L 207.899 148.566 207.927 147.438 C 207.943 146.817,207.803 146.151,207.617 145.957 C 207.431 145.764,207.204 145.190,207.112 144.681 C 206.966 143.863,206.944 143.885,206.924 144.866 M255.751 146.785 C 255.514 147.229,255.326 147.978,255.334 148.449 C 255.346 149.171,255.435 149.106,255.898 148.039 C 256.526 146.592,256.405 145.563,255.751 146.785 M178.076 147.542 C 177.821 148.085,177.621 148.953,177.631 149.472 C 177.645 150.216,177.768 150.077,178.208 148.818 C 178.854 146.976,178.761 146.080,178.076 147.542 M208.017 149.676 C 207.989 150.287,208.203 151.536,208.492 152.451 L 209.016 154.117 209.041 152.803 C 209.055 152.080,208.912 151.331,208.724 151.138 C 208.536 150.944,208.311 150.287,208.225 149.676 L 208.066 148.566 208.017 149.676 M254.641 150.115 C 254.403 150.559,254.216 151.308,254.224 151.780 C 254.236 152.501,254.325 152.436,254.788 151.369 C 255.416 149.922,255.295 148.893,254.641 150.115 M176.966 151.982 C 176.711 152.525,176.511 153.394,176.521 153.913 C 176.535 154.656,176.658 154.517,177.098 153.259 C 177.744 151.416,177.651 150.520,176.966 151.982 M253.537 153.642 C 253.296 153.883,253.106 154.587,253.115 155.208 C 253.131 156.315,253.141 156.309,253.654 154.871 C 254.227 153.261,254.200 152.978,253.537 153.642 M209.132 155.042 C 209.114 155.550,209.330 156.799,209.612 157.817 L 210.126 159.667 210.151 158.168 C 210.165 157.344,210.023 156.512,209.837 156.318 C 209.651 156.125,209.424 155.550,209.332 155.042 L 209.166 154.117 209.132 155.042 M175.856 156.423 C 175.601 156.965,175.401 157.834,175.411 158.353 C 175.425 159.096,175.547 158.957,175.988 157.699 C 176.634 155.856,176.541 154.961,175.856 156.423 M252.447 156.952 C 252.195 157.204,251.995 157.918,252.003 158.538 L 252.018 159.667 252.568 158.400 C 253.189 156.967,253.131 156.268,252.447 156.952 M174.775 160.867 C 174.538 161.428,174.228 162.636,174.087 163.552 C 173.945 164.468,173.703 165.384,173.548 165.587 C 173.393 165.791,173.146 166.790,173.000 167.808 C 172.854 168.825,172.604 169.824,172.445 170.028 C 172.286 170.231,172.036 171.230,171.890 172.248 C 171.743 173.265,171.494 174.265,171.335 174.468 C 171.176 174.672,170.926 175.671,170.778 176.688 C 170.631 177.706,170.402 178.705,170.269 178.908 C 170.136 179.112,169.831 180.194,169.591 181.314 C 169.351 182.433,168.896 184.473,168.580 185.848 C 168.264 187.222,167.746 189.470,167.430 190.843 C 167.114 192.216,166.689 194.172,166.486 195.190 C 166.283 196.207,165.965 197.373,165.780 197.780 C 165.595 198.187,165.336 199.394,165.203 200.462 C 165.071 201.530,164.812 202.498,164.628 202.612 C 164.443 202.726,164.292 203.289,164.292 203.865 C 164.292 204.440,164.056 205.720,163.767 206.711 C 162.520 210.985,161.541 216.504,162.627 213.136 C 163.104 211.658,163.541 209.838,165.630 200.649 C 166.154 198.344,166.786 195.598,167.801 191.213 C 168.096 189.940,168.605 187.734,168.932 186.309 C 169.840 182.355,171.356 176.166,173.374 168.178 C 173.682 166.957,174.097 165.208,174.294 164.292 C 174.492 163.377,174.837 162.178,175.060 161.628 C 175.284 161.079,175.409 160.453,175.337 160.238 C 175.265 160.023,175.012 160.306,174.775 160.867 M210.254 160.777 C 210.242 161.388,210.456 162.470,210.731 163.182 L 211.230 164.477 211.258 163.349 C 211.273 162.728,211.133 162.062,210.947 161.869 C 210.761 161.675,210.534 161.101,210.443 160.592 C 210.296 159.774,210.274 159.796,210.254 160.777 M251.279 160.906 C 251.059 161.317,250.892 162.039,250.908 162.510 C 250.926 163.025,251.010 163.145,251.120 162.812 C 251.221 162.507,251.485 161.883,251.708 161.425 C 252.219 160.377,251.820 159.895,251.279 160.906 M70.922 161.579 C 70.786 161.714,70.675 165.524,70.675 170.044 C 70.675 179.308,70.654 179.235,73.331 178.996 L 74.931 178.853 73.173 178.788 L 71.415 178.723 71.415 170.213 L 71.415 161.702 72.665 161.702 C 79.518 161.702,82.395 172.844,76.678 177.239 C 75.807 177.908,75.175 178.536,75.273 178.634 C 75.371 178.732,76.132 178.274,76.963 177.616 C 81.618 173.929,80.914 164.665,75.778 162.035 C 74.453 161.357,71.428 161.072,70.922 161.579 M101.587 162.812 C 101.727 163.321,101.965 164.570,102.117 165.587 L 102.393 167.438 102.446 165.381 C 102.481 163.996,102.307 163.089,101.915 162.605 C 101.354 161.914,101.342 161.922,101.587 162.812 M211.365 165.957 C 211.353 166.568,211.562 167.734,211.831 168.548 L 212.318 170.028 212.357 168.714 C 212.378 167.992,212.244 167.242,212.057 167.049 C 211.871 166.856,211.644 166.281,211.553 165.772 C 211.406 164.955,211.384 164.977,211.365 165.957 M192.714 166.698 C 192.416 167.568,191.528 172.788,190.920 177.243 C 190.379 181.205,190.083 182.998,189.057 188.529 C 188.604 190.971,188.216 193.719,188.196 194.635 L 188.159 196.300 192.229 196.300 L 196.300 196.300 196.250 195.005 C 196.223 194.292,196.024 192.877,195.808 191.859 L 195.416 190.009 195.488 192.784 L 195.560 195.560 191.901 195.666 L 188.243 195.773 188.508 194.371 C 189.267 190.362,189.878 186.779,190.198 184.459 C 190.394 183.034,190.714 181.286,190.909 180.574 C 191.104 179.861,191.549 177.031,191.898 174.283 C 192.247 171.536,192.684 169.187,192.869 169.065 C 193.054 168.943,193.152 168.193,193.086 167.400 C 192.997 166.320,192.903 166.144,192.714 166.698 M212.452 171.323 C 212.427 171.832,212.643 172.997,212.932 173.913 L 213.457 175.578 213.481 174.265 C 213.495 173.542,213.354 172.793,213.167 172.599 C 212.981 172.406,212.754 171.832,212.663 171.323 L 212.497 170.398 212.452 171.323 M193.308 174.157 C 193.386 175.817,193.628 177.482,193.846 177.857 C 194.420 178.844,194.349 177.031,193.686 173.728 L 193.166 171.138 193.308 174.157 M102.195 175.023 C 101.877 181.293,97.439 189.836,93.070 192.588 C 92.463 192.970,92.166 193.349,92.409 193.430 C 92.652 193.511,93.114 193.358,93.435 193.089 C 95.050 191.734,97.763 188.857,98.224 188.009 C 99.586 185.504,101.388 181.618,101.388 181.186 C 101.388 180.922,101.647 179.944,101.964 179.012 C 102.295 178.043,102.481 176.552,102.401 175.524 C 102.296 174.174,102.245 174.050,102.195 175.023 M213.590 176.873 C 213.575 177.586,213.787 178.751,214.061 179.463 L 214.560 180.759 214.588 179.630 C 214.603 179.009,214.462 178.343,214.275 178.150 C 214.087 177.957,213.862 177.299,213.775 176.688 C 213.626 175.640,213.615 175.650,213.590 176.873 M194.478 183.534 C 194.568 185.467,194.801 187.549,194.995 188.159 C 195.440 189.558,195.226 185.605,194.676 182.239 C 194.338 180.177,194.324 180.270,194.478 183.534 M214.677 181.869 C 214.650 182.479,214.863 183.728,215.152 184.644 L 215.677 186.309 215.701 184.995 C 215.715 184.273,215.572 183.524,215.385 183.330 C 215.197 183.137,214.972 182.479,214.885 181.869 L 214.727 180.759 214.677 181.869 M215.798 187.234 C 215.790 187.743,216.003 188.825,216.271 189.639 L 216.759 191.119 216.797 189.806 C 216.819 189.083,216.686 188.334,216.502 188.141 C 216.318 187.947,216.088 187.456,215.990 187.049 C 215.847 186.455,215.809 186.492,215.798 187.234 M216.897 192.229 C 216.870 192.840,217.087 194.006,217.381 194.820 C 217.902 196.267,217.914 196.275,217.930 195.171 C 217.939 194.550,217.793 193.884,217.605 193.691 C 217.417 193.498,217.192 192.840,217.105 192.229 L 216.947 191.119 216.897 192.229 M90.855 193.873 C 90.657 194.194,89.659 194.706,86.216 196.255 C 85.497 196.579,85.212 196.842,85.574 196.846 C 85.933 196.851,86.516 196.699,86.869 196.508 C 87.222 196.317,88.310 195.785,89.285 195.324 C 91.078 194.479,92.233 193.525,91.464 193.525 C 91.248 193.525,90.974 193.681,90.855 193.873 M217.990 197.410 C 217.972 198.020,218.209 199.186,218.518 200.000 L 219.078 201.480 218.911 200.185 C 218.820 199.473,218.583 198.307,218.384 197.595 L 218.022 196.300 217.990 197.410 M80.666 197.410 L 78.631 197.882 80.346 197.923 C 81.289 197.946,82.621 197.722,83.306 197.424 C 84.930 196.719,83.673 196.712,80.666 197.410 M219.135 202.590 C 219.123 203.201,219.337 204.283,219.611 204.995 L 220.110 206.290 220.138 205.162 C 220.154 204.541,220.014 203.875,219.828 203.682 C 219.642 203.488,219.414 202.914,219.323 202.405 C 219.176 201.588,219.155 201.609,219.135 202.590 M220.233 207.586 C 220.227 208.298,220.459 209.463,220.748 210.176 L 221.274 211.471 221.119 210.176 C 221.035 209.463,220.803 208.298,220.604 207.586 L 220.242 206.290 220.233 207.586 M221.355 212.581 C 221.343 213.191,221.557 214.274,221.832 214.986 L 222.330 216.281 222.359 215.153 C 222.374 214.532,222.234 213.866,222.048 213.673 C 221.862 213.479,221.635 212.905,221.543 212.396 C 221.397 211.578,221.375 211.600,221.355 212.581 M184.826 214.339 C 184.659 214.807,184.145 217.571,183.538 221.266 C 183.342 222.459,182.939 223.486,182.559 223.764 C 181.802 224.318,161.870 224.449,161.014 223.906 C 160.430 223.537,160.712 220.598,161.564 218.185 C 161.843 217.392,162.049 216.306,162.022 215.772 L 161.971 214.801 161.801 215.726 C 161.708 216.235,161.499 216.818,161.338 217.021 C 161.177 217.225,160.924 218.307,160.777 219.426 C 160.630 220.546,160.349 221.660,160.154 221.902 C 159.958 222.144,159.852 222.810,159.918 223.382 L 160.037 224.422 171.278 224.520 C 183.785 224.629,183.378 224.709,183.726 222.079 C 183.852 221.129,184.096 220.019,184.270 219.611 C 184.443 219.204,184.677 217.975,184.788 216.879 C 185.054 214.264,184.551 214.447,191.825 214.315 C 198.726 214.190,198.621 214.163,199.366 216.281 L 199.757 217.391 199.774 216.281 C 199.811 213.958,199.542 213.876,191.899 213.876 C 186.707 213.876,184.950 213.991,184.826 214.339 M222.430 217.761 C 222.412 218.372,222.650 219.537,222.958 220.352 L 223.518 221.832 223.352 220.537 C 223.260 219.824,223.023 218.659,222.824 217.946 L 222.462 216.651 222.430 217.761 M199.864 219.796 C 199.846 220.720,200.150 222.165,200.548 223.040 L 201.264 224.618 212.473 224.520 L 223.682 224.422 223.739 223.127 C 223.770 222.414,223.719 222.194,223.624 222.637 C 223.289 224.208,222.946 224.253,211.982 224.150 L 201.483 224.052 200.991 222.572 C 200.720 221.758,200.363 220.426,200.197 219.611 L 199.896 218.131 199.864 219.796 " stroke="none" fill="#bfd89a" fill-rule="evenodd"></path><path id="path3" d="M45.143 2.405 C 45.143 2.837,44.650 2.960,42.923 2.960 C 41.196 2.960,40.703 3.084,40.703 3.515 C 40.703 3.926,40.271 4.070,39.038 4.070 C 37.805 4.070,37.373 4.214,37.373 4.625 C 37.373 4.995,37.003 5.180,36.263 5.180 C 35.523 5.180,35.153 5.365,35.153 5.735 C 35.153 6.041,34.903 6.290,34.598 6.290 C 34.292 6.290,34.043 6.540,34.043 6.846 C 34.043 7.216,33.673 7.401,32.932 7.401 C 32.192 7.401,31.822 7.586,31.822 7.956 C 31.822 8.261,31.573 8.511,31.267 8.511 C 30.962 8.511,30.712 8.760,30.712 9.066 C 30.712 9.371,30.463 9.621,30.157 9.621 C 29.852 9.621,29.602 9.870,29.602 10.176 C 29.602 10.481,29.352 10.731,29.047 10.731 C 28.742 10.731,28.492 10.981,28.492 11.286 C 28.492 11.591,28.242 11.841,27.937 11.841 C 27.632 11.841,27.382 12.091,27.382 12.396 C 27.382 12.701,27.132 12.951,26.827 12.951 C 26.457 12.951,26.272 13.321,26.272 14.061 C 26.272 14.801,26.087 15.171,25.717 15.171 C 25.412 15.171,25.162 15.421,25.162 15.726 C 25.162 16.031,24.912 16.281,24.607 16.281 C 24.237 16.281,24.052 16.651,24.052 17.391 C 24.052 18.131,23.867 18.501,23.497 18.501 C 23.127 18.501,22.942 18.871,22.942 19.611 C 22.942 20.352,22.757 20.722,22.387 20.722 C 22.017 20.722,21.832 21.092,21.832 21.832 C 21.832 22.572,21.647 22.942,21.277 22.942 C 20.907 22.942,20.722 23.312,20.722 24.052 C 20.722 24.792,20.537 25.162,20.167 25.162 C 19.735 25.162,19.611 25.655,19.611 27.382 C 19.611 29.109,19.488 29.602,19.056 29.602 C 18.564 29.602,18.501 46.747,18.501 181.684 C 18.501 316.620,18.564 333.765,19.056 333.765 C 19.525 333.765,19.611 334.628,19.611 339.315 C 19.611 344.002,19.698 344.866,20.167 344.866 C 20.578 344.866,20.722 345.298,20.722 346.531 C 20.722 347.764,20.865 348.196,21.277 348.196 C 21.688 348.196,21.832 348.628,21.832 349.861 C 21.832 351.095,21.976 351.526,22.387 351.526 C 22.757 351.526,22.942 351.896,22.942 352.636 C 22.942 353.377,23.127 353.747,23.497 353.747 C 23.802 353.747,24.052 353.996,24.052 354.302 C 24.052 354.607,24.302 354.857,24.607 354.857 C 24.912 354.857,25.162 355.106,25.162 355.412 C 25.162 355.717,25.412 355.967,25.717 355.967 C 26.022 355.967,26.272 356.216,26.272 356.522 C 26.272 356.827,26.522 357.077,26.827 357.077 C 27.132 357.077,27.382 357.327,27.382 357.632 C 27.382 357.937,27.632 358.187,27.937 358.187 C 28.242 358.187,28.492 358.437,28.492 358.742 C 28.492 359.047,28.742 359.297,29.047 359.297 C 29.352 359.297,29.602 359.547,29.602 359.852 C 29.602 360.157,29.852 360.407,30.157 360.407 C 30.463 360.407,30.712 360.657,30.712 360.962 C 30.712 361.332,31.082 361.517,31.822 361.517 C 32.562 361.517,32.932 361.702,32.932 362.072 C 32.932 362.442,33.302 362.627,34.043 362.627 C 34.783 362.627,35.153 362.812,35.153 363.182 C 35.153 363.552,35.523 363.737,36.263 363.737 C 37.003 363.737,37.373 363.922,37.373 364.292 C 37.373 364.724,37.866 364.847,39.593 364.847 C 41.320 364.847,41.813 364.971,41.813 365.402 C 41.813 365.846,42.368 365.957,44.588 365.957 C 46.809 365.957,47.364 366.068,47.364 366.512 C 47.364 366.975,48.104 367.068,51.804 367.068 C 55.504 367.068,56.244 366.975,56.244 366.512 C 56.244 366.068,56.799 365.957,59.019 365.957 C 61.240 365.957,61.795 365.846,61.795 365.402 C 61.795 364.991,62.226 364.847,63.460 364.847 C 64.693 364.847,65.125 364.703,65.125 364.292 C 65.125 363.922,65.495 363.737,66.235 363.737 C 66.975 363.737,67.345 363.552,67.345 363.182 C 67.345 362.812,67.715 362.627,68.455 362.627 C 69.195 362.627,69.565 362.442,69.565 362.072 C 69.565 361.702,69.935 361.517,70.675 361.517 C 71.415 361.517,71.785 361.332,71.785 360.962 C 71.785 360.592,72.155 360.407,72.895 360.407 C 73.636 360.407,74.006 360.222,74.006 359.852 C 74.006 359.482,74.376 359.297,75.116 359.297 C 75.856 359.297,76.226 359.112,76.226 358.742 C 76.226 358.372,76.596 358.187,77.336 358.187 C 78.076 358.187,78.446 358.002,78.446 357.632 C 78.446 357.262,78.816 357.077,79.556 357.077 C 80.296 357.077,80.666 356.892,80.666 356.522 C 80.666 356.175,81.017 355.967,81.603 355.967 C 82.118 355.967,82.635 355.717,82.752 355.412 C 82.870 355.106,83.197 354.857,83.481 354.857 C 83.764 354.857,83.996 354.607,83.996 354.302 C 83.996 353.932,84.366 353.747,85.106 353.747 C 85.846 353.747,86.216 353.562,86.216 353.191 C 86.216 352.844,86.567 352.636,87.153 352.636 C 87.668 352.636,88.186 352.387,88.303 352.081 C 88.420 351.776,88.748 351.526,89.031 351.526 C 89.315 351.526,89.547 351.277,89.547 350.971 C 89.547 350.601,89.917 350.416,90.657 350.416 C 91.397 350.416,91.767 350.231,91.767 349.861 C 91.767 349.491,92.137 349.306,92.877 349.306 C 93.617 349.306,93.987 349.121,93.987 348.751 C 93.987 348.381,94.357 348.196,95.097 348.196 C 95.837 348.196,96.207 348.011,96.207 347.641 C 96.207 347.294,96.558 347.086,97.144 347.086 C 97.659 347.086,98.176 346.836,98.294 346.531 C 98.411 346.226,98.910 345.976,99.404 345.976 C 99.897 345.976,100.397 345.726,100.514 345.421 C 100.631 345.116,101.130 344.866,101.624 344.866 C 102.117 344.866,102.617 344.616,102.734 344.311 C 102.851 344.006,103.179 343.756,103.462 343.756 C 103.746 343.756,103.978 343.506,103.978 343.201 C 103.978 342.831,104.348 342.646,105.088 342.646 C 105.828 342.646,106.198 342.461,106.198 342.091 C 106.198 341.721,106.568 341.536,107.308 341.536 C 108.048 341.536,108.418 341.351,108.418 340.981 C 108.418 340.633,108.769 340.426,109.355 340.426 C 109.870 340.426,110.387 340.176,110.504 339.870 C 110.622 339.565,110.949 339.315,111.233 339.315 C 111.516 339.315,111.748 339.066,111.748 338.760 C 111.748 338.390,112.118 338.205,112.858 338.205 C 113.599 338.205,113.969 338.020,113.969 337.650 C 113.969 337.280,114.339 337.095,115.079 337.095 C 115.819 337.095,116.189 336.910,116.189 336.540 C 116.189 336.193,116.539 335.985,117.125 335.985 C 117.641 335.985,118.158 335.735,118.275 335.430 C 118.392 335.125,118.720 334.875,119.004 334.875 C 119.287 334.875,119.519 334.625,119.519 334.320 C 119.519 333.950,119.889 333.765,120.629 333.765 C 121.369 333.765,121.739 333.580,121.739 333.210 C 121.739 332.840,122.109 332.655,122.849 332.655 C 123.589 332.655,123.959 332.470,123.959 332.100 C 123.959 331.753,124.310 331.545,124.896 331.545 C 125.411 331.545,125.929 331.295,126.046 330.990 C 126.163 330.685,126.491 330.435,126.774 330.435 C 127.058 330.435,127.290 330.185,127.290 329.880 C 127.290 329.510,127.660 329.325,128.400 329.325 C 129.140 329.325,129.510 329.140,129.510 328.770 C 129.510 328.400,129.880 328.215,130.620 328.215 C 131.360 328.215,131.730 328.030,131.730 327.660 C 131.730 327.312,132.081 327.105,132.667 327.105 C 133.182 327.105,133.699 326.855,133.816 326.549 C 133.933 326.244,134.261 325.994,134.545 325.994 C 134.828 325.994,135.060 325.745,135.060 325.439 C 135.060 325.069,135.430 324.884,136.170 324.884 C 136.910 324.884,137.280 324.699,137.280 324.329 C 137.280 323.959,137.650 323.774,138.390 323.774 C 139.130 323.774,139.500 323.589,139.500 323.219 C 139.500 322.849,139.870 322.664,140.611 322.664 C 141.351 322.664,141.721 322.479,141.721 322.109 C 141.721 321.804,141.970 321.554,142.276 321.554 C 142.581 321.554,142.831 321.304,142.831 320.999 C 142.831 320.629,143.201 320.444,143.941 320.444 C 144.681 320.444,145.051 320.259,145.051 319.889 C 145.051 319.519,145.421 319.334,146.161 319.334 C 146.901 319.334,147.271 319.149,147.271 318.779 C 147.271 318.409,147.641 318.224,148.381 318.224 C 149.121 318.224,149.491 318.039,149.491 317.669 C 149.491 317.364,149.741 317.114,150.046 317.114 C 150.352 317.114,150.601 316.864,150.601 316.559 C 150.601 316.189,150.971 316.004,151.711 316.004 C 152.451 316.004,152.821 315.819,152.821 315.449 C 152.821 315.079,153.191 314.894,153.932 314.894 C 154.672 314.894,155.042 314.709,155.042 314.339 C 155.042 313.969,155.412 313.784,156.152 313.784 C 156.892 313.784,157.262 313.599,157.262 313.228 C 157.262 312.923,157.512 312.673,157.817 312.673 C 158.122 312.673,158.372 312.424,158.372 312.118 C 158.372 311.748,158.742 311.563,159.482 311.563 C 160.222 311.563,160.592 311.378,160.592 311.008 C 160.592 310.638,160.962 310.453,161.702 310.453 C 162.442 310.453,162.812 310.268,162.812 309.898 C 162.812 309.528,163.182 309.343,163.922 309.343 C 164.662 309.343,165.032 309.158,165.032 308.788 C 165.032 308.483,165.282 308.233,165.587 308.233 C 165.893 308.233,166.142 307.983,166.142 307.678 C 166.142 307.308,166.512 307.123,167.253 307.123 C 167.993 307.123,168.363 306.938,168.363 306.568 C 168.363 306.198,168.733 306.013,169.473 306.013 C 170.213 306.013,170.583 305.828,170.583 305.458 C 170.583 305.088,170.953 304.903,171.693 304.903 C 172.433 304.903,172.803 304.718,172.803 304.348 C 172.803 304.043,173.053 303.793,173.358 303.793 C 173.663 303.793,173.913 303.543,173.913 303.238 C 173.913 302.868,174.283 302.683,175.023 302.683 C 175.763 302.683,176.133 302.498,176.133 302.128 C 176.133 301.758,176.503 301.573,177.243 301.573 C 177.983 301.573,178.353 301.388,178.353 301.018 C 178.353 300.648,178.723 300.463,179.463 300.463 C 180.204 300.463,180.574 300.278,180.574 299.907 C 180.574 299.602,180.823 299.352,181.129 299.352 C 181.434 299.352,181.684 299.103,181.684 298.797 C 181.684 298.427,182.054 298.242,182.794 298.242 C 183.534 298.242,183.904 298.057,183.904 297.687 C 183.904 297.317,184.274 297.132,185.014 297.132 C 185.754 297.132,186.124 296.947,186.124 296.577 C 186.124 296.207,186.494 296.022,187.234 296.022 C 187.974 296.022,188.344 295.837,188.344 295.467 C 188.344 295.162,188.594 294.912,188.899 294.912 C 189.204 294.912,189.454 294.662,189.454 294.357 C 189.454 293.987,189.824 293.802,190.564 293.802 C 191.304 293.802,191.674 293.617,191.674 293.247 C 191.674 292.877,192.044 292.692,192.784 292.692 C 193.525 292.692,193.895 292.507,193.895 292.137 C 193.895 291.767,194.265 291.582,195.005 291.582 C 195.745 291.582,196.115 291.397,196.115 291.027 C 196.115 290.722,196.364 290.472,196.670 290.472 C 196.975 290.472,197.225 290.222,197.225 289.917 C 197.225 289.547,197.595 289.362,198.335 289.362 C 199.075 289.362,199.445 289.177,199.445 288.807 C 199.445 288.437,199.815 288.252,200.555 288.252 C 201.295 288.252,201.665 288.067,201.665 287.697 C 201.665 287.327,202.035 287.142,202.775 287.142 C 203.515 287.142,203.885 286.957,203.885 286.586 C 203.885 286.281,204.135 286.031,204.440 286.031 C 204.746 286.031,204.995 285.782,204.995 285.476 C 204.995 285.106,205.365 284.921,206.105 284.921 C 206.846 284.921,207.216 284.736,207.216 284.366 C 207.216 283.996,207.586 283.811,208.326 283.811 C 209.066 283.811,209.436 283.626,209.436 283.256 C 209.436 282.886,209.806 282.701,210.546 282.701 C 211.286 282.701,211.656 282.516,211.656 282.146 C 211.656 281.841,211.906 281.591,212.211 281.591 C 212.516 281.591,212.766 281.341,212.766 281.036 C 212.766 280.666,213.136 280.481,213.876 280.481 C 214.616 280.481,214.986 280.296,214.986 279.926 C 214.986 279.556,215.356 279.371,216.096 279.371 C 216.836 279.371,217.206 279.186,217.206 278.816 C 217.206 278.446,217.576 278.261,218.316 278.261 C 219.056 278.261,219.426 278.076,219.426 277.706 C 219.426 277.401,219.676 277.151,219.981 277.151 C 220.287 277.151,220.537 276.901,220.537 276.596 C 220.537 276.226,220.907 276.041,221.647 276.041 C 222.387 276.041,222.757 275.856,222.757 275.486 C 222.757 275.116,223.127 274.931,223.867 274.931 C 224.607 274.931,224.977 274.746,224.977 274.376 C 224.977 274.006,225.347 273.821,226.087 273.821 C 226.827 273.821,227.197 273.636,227.197 273.265 C 227.197 272.960,227.447 272.710,227.752 272.710 C 228.057 272.710,228.307 272.461,228.307 272.155 C 228.307 271.785,228.677 271.600,229.417 271.600 C 230.157 271.600,230.527 271.415,230.527 271.045 C 230.527 270.675,230.897 270.490,231.637 270.490 C 232.377 270.490,232.747 270.305,232.747 269.935 C 232.747 269.565,233.117 269.380,233.858 269.380 C 234.598 269.380,234.968 269.195,234.968 268.825 C 234.968 268.520,235.217 268.270,235.523 268.270 C 235.828 268.270,236.078 268.020,236.078 267.715 C 236.078 267.345,236.448 267.160,237.188 267.160 C 237.928 267.160,238.298 266.975,238.298 266.605 C 238.298 266.235,238.668 266.050,239.408 266.050 C 240.148 266.050,240.518 265.865,240.518 265.495 C 240.518 265.125,240.888 264.940,241.628 264.940 C 242.368 264.940,242.738 264.755,242.738 264.385 C 242.738 264.080,242.988 263.830,243.293 263.830 C 243.599 263.830,243.848 263.580,243.848 263.275 C 243.848 262.905,244.218 262.720,244.958 262.720 C 245.698 262.720,246.068 262.535,246.068 262.165 C 246.068 261.795,246.438 261.610,247.179 261.610 C 247.919 261.610,248.289 261.425,248.289 261.055 C 248.289 260.685,248.659 260.500,249.399 260.500 C 250.139 260.500,250.509 260.315,250.509 259.944 C 250.509 259.639,250.759 259.389,251.064 259.389 C 251.369 259.389,251.619 259.140,251.619 258.834 C 251.619 258.464,251.989 258.279,252.729 258.279 C 253.469 258.279,253.839 258.094,253.839 257.724 C 253.839 257.354,254.209 257.169,254.949 257.169 C 255.689 257.169,256.059 256.984,256.059 256.614 C 256.059 256.244,256.429 256.059,257.169 256.059 C 257.909 256.059,258.279 255.874,258.279 255.504 C 258.279 255.199,258.529 254.949,258.834 254.949 C 259.140 254.949,259.389 254.699,259.389 254.394 C 259.389 254.024,259.759 253.839,260.500 253.839 C 261.240 253.839,261.610 253.654,261.610 253.284 C 261.610 252.914,261.980 252.729,262.720 252.729 C 263.460 252.729,263.830 252.544,263.830 252.174 C 263.830 251.804,264.200 251.619,264.940 251.619 C 265.680 251.619,266.050 251.434,266.050 251.064 C 266.050 250.759,266.300 250.509,266.605 250.509 C 266.910 250.509,267.160 250.259,267.160 249.954 C 267.160 249.584,267.530 249.399,268.270 249.399 C 269.010 249.399,269.380 249.214,269.380 248.844 C 269.380 248.474,269.750 248.289,270.490 248.289 C 271.230 248.289,271.600 248.104,271.600 247.734 C 271.600 247.364,271.970 247.179,272.710 247.179 C 273.451 247.179,273.821 246.994,273.821 246.623 C 273.821 246.318,274.070 246.068,274.376 246.068 C 274.681 246.068,274.931 245.819,274.931 245.513 C 274.931 245.143,275.301 244.958,276.041 244.958 C 276.781 244.958,277.151 244.773,277.151 244.403 C 277.151 244.033,277.521 243.848,278.261 243.848 C 279.001 243.848,279.371 243.663,279.371 243.293 C 279.371 242.923,279.741 242.738,280.481 242.738 C 281.221 242.738,281.591 242.553,281.591 242.183 C 281.591 241.878,281.841 241.628,282.146 241.628 C 282.451 241.628,282.701 241.378,282.701 241.073 C 282.701 240.703,283.071 240.518,283.811 240.518 C 284.551 240.518,284.921 240.333,284.921 239.963 C 284.921 239.593,285.291 239.408,286.031 239.408 C 286.772 239.408,287.142 239.223,287.142 238.853 C 287.142 238.483,287.512 238.298,288.252 238.298 C 288.992 238.298,289.362 238.113,289.362 237.743 C 289.362 237.438,289.611 237.188,289.917 237.188 C 290.222 237.188,290.472 236.938,290.472 236.633 C 290.472 236.263,290.842 236.078,291.582 236.078 C 292.322 236.078,292.692 235.893,292.692 235.523 C 292.692 235.153,293.062 234.968,293.802 234.968 C 294.542 234.968,294.912 234.783,294.912 234.413 C 294.912 234.043,295.282 233.858,296.022 233.858 C 296.762 233.858,297.132 233.673,297.132 233.302 C 297.132 232.997,297.382 232.747,297.687 232.747 C 297.993 232.747,298.242 232.498,298.242 232.192 C 298.242 231.822,298.612 231.637,299.352 231.637 C 300.093 231.637,300.463 231.452,300.463 231.082 C 300.463 230.712,300.833 230.527,301.573 230.527 C 302.313 230.527,302.683 230.342,302.683 229.972 C 302.683 229.667,302.932 229.417,303.238 229.417 C 303.543 229.417,303.793 229.167,303.793 228.862 C 303.793 228.492,304.163 228.307,304.903 228.307 C 305.643 228.307,306.013 228.122,306.013 227.752 C 306.013 227.382,306.383 227.197,307.123 227.197 C 307.863 227.197,308.233 227.012,308.233 226.642 C 308.233 226.272,308.603 226.087,309.343 226.087 C 310.083 226.087,310.453 225.902,310.453 225.532 C 310.453 225.227,310.703 224.977,311.008 224.977 C 311.314 224.977,311.563 224.727,311.563 224.422 C 311.563 224.052,311.933 223.867,312.673 223.867 C 313.414 223.867,313.784 223.682,313.784 223.312 C 313.784 222.942,314.154 222.757,314.894 222.757 C 315.634 222.757,316.004 222.572,316.004 222.202 C 316.004 221.896,316.253 221.647,316.559 221.647 C 316.864 221.647,317.114 221.397,317.114 221.092 C 317.114 220.722,317.484 220.537,318.224 220.537 C 318.964 220.537,319.334 220.352,319.334 219.981 C 319.334 219.676,319.584 219.426,319.889 219.426 C 320.194 219.426,320.444 219.177,320.444 218.871 C 320.444 218.501,320.814 218.316,321.554 218.316 C 322.294 218.316,322.664 218.131,322.664 217.761 C 322.664 217.391,323.034 217.206,323.774 217.206 C 324.514 217.206,324.884 217.021,324.884 216.651 C 324.884 216.346,325.134 216.096,325.439 216.096 C 325.745 216.096,325.994 215.846,325.994 215.541 C 325.994 215.171,326.364 214.986,327.105 214.986 C 327.845 214.986,328.215 214.801,328.215 214.431 C 328.215 214.126,328.464 213.876,328.770 213.876 C 329.075 213.876,329.325 213.626,329.325 213.321 C 329.325 213.016,329.574 212.766,329.880 212.766 C 330.185 212.766,330.435 212.516,330.435 212.211 C 330.435 211.841,330.805 211.656,331.545 211.656 C 332.285 211.656,332.655 211.471,332.655 211.101 C 332.655 210.796,332.905 210.546,333.210 210.546 C 333.515 210.546,333.765 210.296,333.765 209.991 C 333.765 209.685,334.015 209.436,334.320 209.436 C 334.625 209.436,334.875 209.186,334.875 208.881 C 334.875 208.575,335.125 208.326,335.430 208.326 C 335.735 208.326,335.985 208.076,335.985 207.771 C 335.985 207.465,336.235 207.216,336.540 207.216 C 336.846 207.216,337.095 206.966,337.095 206.660 C 337.095 206.355,337.345 206.105,337.650 206.105 C 337.956 206.105,338.205 205.856,338.205 205.550 C 338.205 205.245,338.455 204.995,338.760 204.995 C 339.066 204.995,339.315 204.746,339.315 204.440 C 339.315 204.135,339.565 203.885,339.870 203.885 C 340.241 203.885,340.426 203.515,340.426 202.775 C 340.426 202.035,340.611 201.665,340.981 201.665 C 341.286 201.665,341.536 201.415,341.536 201.110 C 341.536 200.805,341.785 200.555,342.091 200.555 C 342.461 200.555,342.646 200.185,342.646 199.445 C 342.646 198.705,342.831 198.335,343.201 198.335 C 343.612 198.335,343.756 197.903,343.756 196.670 C 343.756 195.436,343.900 195.005,344.311 195.005 C 344.681 195.005,344.866 194.635,344.866 193.895 C 344.866 193.154,345.051 192.784,345.421 192.784 C 345.873 192.784,345.976 192.168,345.976 189.454 C 345.976 186.741,346.079 186.124,346.531 186.124 C 346.989 186.124,347.086 185.446,347.086 182.239 C 347.086 179.032,346.989 178.353,346.531 178.353 C 346.087 178.353,345.976 177.798,345.976 175.578 C 345.976 173.358,345.865 172.803,345.421 172.803 C 345.010 172.803,344.866 172.371,344.866 171.138 C 344.866 169.904,344.722 169.473,344.311 169.473 C 343.879 169.473,343.756 168.979,343.756 167.253 C 343.756 165.526,343.632 165.032,343.201 165.032 C 342.790 165.032,342.646 164.601,342.646 163.367 C 342.646 162.134,342.502 161.702,342.091 161.702 C 341.785 161.702,341.536 161.452,341.536 161.147 C 341.536 160.777,341.166 160.592,340.426 160.592 C 339.685 160.592,339.315 160.407,339.315 160.037 C 339.315 159.732,339.066 159.482,338.760 159.482 C 338.455 159.482,338.205 159.232,338.205 158.927 C 338.205 158.622,337.956 158.372,337.650 158.372 C 337.345 158.372,337.095 158.122,337.095 157.817 C 337.095 157.512,336.846 157.262,336.540 157.262 C 336.235 157.262,335.985 157.012,335.985 156.707 C 335.985 156.401,335.735 156.152,335.430 156.152 C 335.125 156.152,334.875 155.902,334.875 155.597 C 334.875 155.227,334.505 155.042,333.765 155.042 C 333.025 155.042,332.655 154.857,332.655 154.487 C 332.655 154.181,332.405 153.932,332.100 153.932 C 331.795 153.932,331.545 153.682,331.545 153.377 C 331.545 153.071,331.295 152.821,330.990 152.821 C 330.685 152.821,330.435 152.572,330.435 152.266 C 330.435 151.896,330.065 151.711,329.325 151.711 C 328.585 151.711,328.215 151.526,328.215 151.156 C 328.215 150.851,327.965 150.601,327.660 150.601 C 327.354 150.601,327.105 150.352,327.105 150.046 C 327.105 149.676,326.735 149.491,325.994 149.491 C 325.254 149.491,324.884 149.306,324.884 148.936 C 324.884 148.631,324.635 148.381,324.329 148.381 C 324.024 148.381,323.774 148.131,323.774 147.826 C 323.774 147.456,323.404 147.271,322.664 147.271 C 321.924 147.271,321.554 147.086,321.554 146.716 C 321.554 146.346,321.184 146.161,320.444 146.161 C 319.704 146.161,319.334 145.976,319.334 145.606 C 319.334 145.236,318.964 145.051,318.224 145.051 C 317.484 145.051,317.114 144.866,317.114 144.496 C 317.114 144.191,316.864 143.941,316.559 143.941 C 316.253 143.941,316.004 143.691,316.004 143.386 C 316.004 143.016,315.634 142.831,314.894 142.831 C 314.154 142.831,313.784 142.646,313.784 142.276 C 313.784 141.906,313.414 141.721,312.673 141.721 C 311.933 141.721,311.563 141.536,311.563 141.166 C 311.563 140.796,311.193 140.611,310.453 140.611 C 309.713 140.611,309.343 140.426,309.343 140.056 C 309.343 139.685,308.973 139.500,308.233 139.500 C 307.493 139.500,307.123 139.315,307.123 138.945 C 307.123 138.640,306.873 138.390,306.568 138.390 C 306.263 138.390,306.013 138.141,306.013 137.835 C 306.013 137.465,305.643 137.280,304.903 137.280 C 304.163 137.280,303.793 137.095,303.793 136.725 C 303.793 136.355,303.423 136.170,302.683 136.170 C 301.943 136.170,301.573 135.985,301.573 135.615 C 301.573 135.245,301.203 135.060,300.463 135.060 C 299.722 135.060,299.352 134.875,299.352 134.505 C 299.352 134.200,299.103 133.950,298.797 133.950 C 298.492 133.950,298.242 133.700,298.242 133.395 C 298.242 133.025,297.872 132.840,297.132 132.840 C 296.392 132.840,296.022 132.655,296.022 132.285 C 296.022 131.915,295.652 131.730,294.912 131.730 C 294.172 131.730,293.802 131.545,293.802 131.175 C 293.802 130.805,293.432 130.620,292.692 130.620 C 291.952 130.620,291.582 130.435,291.582 130.065 C 291.582 129.759,291.332 129.510,291.027 129.510 C 290.722 129.510,290.472 129.260,290.472 128.955 C 290.472 128.585,290.102 128.400,289.362 128.400 C 288.622 128.400,288.252 128.215,288.252 127.845 C 288.252 127.475,287.882 127.290,287.142 127.290 C 286.401 127.290,286.031 127.105,286.031 126.735 C 286.031 126.364,285.661 126.179,284.921 126.179 C 284.181 126.179,283.811 125.994,283.811 125.624 C 283.811 125.319,283.562 125.069,283.256 125.069 C 282.951 125.069,282.701 124.820,282.701 124.514 C 282.701 124.144,282.331 123.959,281.591 123.959 C 280.851 123.959,280.481 123.774,280.481 123.404 C 280.481 123.034,280.111 122.849,279.371 122.849 C 278.631 122.849,278.261 122.664,278.261 122.294 C 278.261 121.924,277.891 121.739,277.151 121.739 C 276.411 121.739,276.041 121.554,276.041 121.184 C 276.041 120.879,275.791 120.629,275.486 120.629 C 275.180 120.629,274.931 120.379,274.931 120.074 C 274.931 119.704,274.561 119.519,273.821 119.519 C 273.080 119.519,272.710 119.334,272.710 118.964 C 272.710 118.594,272.340 118.409,271.600 118.409 C 270.860 118.409,270.490 118.224,270.490 117.854 C 270.490 117.484,270.120 117.299,269.380 117.299 C 268.640 117.299,268.270 117.114,268.270 116.744 C 268.270 116.374,267.900 116.189,267.160 116.189 C 266.420 116.189,266.050 116.004,266.050 115.634 C 266.050 115.328,265.800 115.079,265.495 115.079 C 265.190 115.079,264.940 114.829,264.940 114.524 C 264.940 114.154,264.570 113.969,263.830 113.969 C 263.090 113.969,262.720 113.784,262.720 113.414 C 262.720 113.043,262.350 112.858,261.610 112.858 C 260.870 112.858,260.500 112.673,260.500 112.303 C 260.500 111.933,260.130 111.748,259.389 111.748 C 258.649 111.748,258.279 111.563,258.279 111.193 C 258.279 110.888,258.030 110.638,257.724 110.638 C 257.419 110.638,257.169 110.389,257.169 110.083 C 257.169 109.713,256.799 109.528,256.059 109.528 C 255.319 109.528,254.949 109.343,254.949 108.973 C 254.949 108.603,254.579 108.418,253.839 108.418 C 253.099 108.418,252.729 108.233,252.729 107.863 C 252.729 107.493,252.359 107.308,251.619 107.308 C 250.879 107.308,250.509 107.123,250.509 106.753 C 250.509 106.448,250.259 106.198,249.954 106.198 C 249.648 106.198,249.399 105.948,249.399 105.643 C 249.399 105.273,249.029 105.088,248.289 105.088 C 247.549 105.088,247.179 104.903,247.179 104.533 C 247.179 104.163,246.809 103.978,246.068 103.978 C 245.328 103.978,244.958 103.793,244.958 103.423 C 244.958 103.053,244.588 102.868,243.848 102.868 C 243.108 102.868,242.738 102.683,242.738 102.313 C 242.738 102.007,242.488 101.758,242.183 101.758 C 241.878 101.758,241.628 101.508,241.628 101.203 C 241.628 100.833,241.258 100.648,240.518 100.648 C 239.778 100.648,239.408 100.463,239.408 100.093 C 239.408 99.722,239.038 99.537,238.298 99.537 C 237.558 99.537,237.188 99.352,237.188 98.982 C 237.188 98.612,236.818 98.427,236.078 98.427 C 235.338 98.427,234.968 98.242,234.968 97.872 C 234.968 97.567,234.718 97.317,234.413 97.317 C 234.107 97.317,233.858 97.068,233.858 96.762 C 233.858 96.392,233.488 96.207,232.747 96.207 C 232.007 96.207,231.637 96.022,231.637 95.652 C 231.637 95.282,231.267 95.097,230.527 95.097 C 229.787 95.097,229.417 94.912,229.417 94.542 C 229.417 94.172,229.047 93.987,228.307 93.987 C 227.567 93.987,227.197 93.802,227.197 93.432 C 227.197 93.127,226.947 92.877,226.642 92.877 C 226.337 92.877,226.087 92.627,226.087 92.322 C 226.087 91.952,225.717 91.767,224.977 91.767 C 224.237 91.767,223.867 91.582,223.867 91.212 C 223.867 90.842,223.497 90.657,222.757 90.657 C 222.017 90.657,221.647 90.472,221.647 90.102 C 221.647 89.732,221.277 89.547,220.537 89.547 C 219.796 89.547,219.426 89.362,219.426 88.992 C 219.426 88.622,219.056 88.437,218.316 88.437 C 217.576 88.437,217.206 88.252,217.206 87.882 C 217.206 87.576,216.957 87.327,216.651 87.327 C 216.346 87.327,216.096 87.077,216.096 86.772 C 216.096 86.401,215.726 86.216,214.986 86.216 C 214.246 86.216,213.876 86.031,213.876 85.661 C 213.876 85.291,213.506 85.106,212.766 85.106 C 212.026 85.106,211.656 84.921,211.656 84.551 C 211.656 84.181,211.286 83.996,210.546 83.996 C 209.806 83.996,209.436 83.811,209.436 83.441 C 209.436 83.136,209.186 82.886,208.881 82.886 C 208.575 82.886,208.326 82.636,208.326 82.331 C 208.326 81.961,207.956 81.776,207.216 81.776 C 206.475 81.776,206.105 81.591,206.105 81.221 C 206.105 80.851,205.735 80.666,204.995 80.666 C 204.255 80.666,203.885 80.481,203.885 80.111 C 203.885 79.741,203.515 79.556,202.775 79.556 C 202.035 79.556,201.665 79.371,201.665 79.001 C 201.665 78.696,201.415 78.446,201.110 78.446 C 200.805 78.446,200.555 78.196,200.555 77.891 C 200.555 77.521,200.185 77.336,199.445 77.336 C 198.705 77.336,198.335 77.151,198.335 76.781 C 198.335 76.411,197.965 76.226,197.225 76.226 C 196.485 76.226,196.115 76.041,196.115 75.671 C 196.115 75.301,195.745 75.116,195.005 75.116 C 194.265 75.116,193.895 74.931,193.895 74.561 C 193.895 74.255,193.645 74.006,193.340 74.006 C 193.034 74.006,192.784 73.756,192.784 73.451 C 192.784 73.080,192.414 72.895,191.674 72.895 C 190.934 72.895,190.564 72.710,190.564 72.340 C 190.564 71.970,190.194 71.785,189.454 71.785 C 188.714 71.785,188.344 71.600,188.344 71.230 C 188.344 70.860,187.974 70.675,187.234 70.675 C 186.494 70.675,186.124 70.490,186.124 70.120 C 186.124 69.815,185.874 69.565,185.569 69.565 C 185.264 69.565,185.014 69.315,185.014 69.010 C 185.014 68.640,184.644 68.455,183.904 68.455 C 183.164 68.455,182.794 68.270,182.794 67.900 C 182.794 67.530,182.424 67.345,181.684 67.345 C 180.944 67.345,180.574 67.160,180.574 66.790 C 180.574 66.420,180.204 66.235,179.463 66.235 C 178.723 66.235,178.353 66.050,178.353 65.680 C 178.353 65.310,177.983 65.125,177.243 65.125 C 176.503 65.125,176.133 64.940,176.133 64.570 C 176.133 64.265,175.883 64.015,175.578 64.015 C 175.273 64.015,175.023 63.765,175.023 63.460 C 175.023 63.090,174.653 62.905,173.913 62.905 C 173.173 62.905,172.803 62.720,172.803 62.350 C 172.803 61.980,172.433 61.795,171.693 61.795 C 170.953 61.795,170.583 61.610,170.583 61.240 C 170.583 60.870,170.213 60.685,169.473 60.685 C 168.733 60.685,168.363 60.500,168.363 60.130 C 168.363 59.824,168.113 59.574,167.808 59.574 C 167.502 59.574,167.253 59.325,167.253 59.019 C 167.253 58.649,166.883 58.464,166.142 58.464 C 165.402 58.464,165.032 58.279,165.032 57.909 C 165.032 57.539,164.662 57.354,163.922 57.354 C 163.182 57.354,162.812 57.169,162.812 56.799 C 162.812 56.429,162.442 56.244,161.702 56.244 C 160.962 56.244,160.592 56.059,160.592 55.689 C 160.592 55.384,160.342 55.134,160.037 55.134 C 159.732 55.134,159.482 54.884,159.482 54.579 C 159.482 54.209,159.112 54.024,158.372 54.024 C 157.632 54.024,157.262 53.839,157.262 53.469 C 157.262 53.099,156.892 52.914,156.152 52.914 C 155.412 52.914,155.042 52.729,155.042 52.359 C 155.042 51.989,154.672 51.804,153.932 51.804 C 153.191 51.804,152.821 51.619,152.821 51.249 C 152.821 50.944,152.572 50.694,152.266 50.694 C 151.961 50.694,151.711 50.444,151.711 50.139 C 151.711 49.769,151.341 49.584,150.601 49.584 C 149.861 49.584,149.491 49.399,149.491 49.029 C 149.491 48.659,149.121 48.474,148.381 48.474 C 147.641 48.474,147.271 48.289,147.271 47.919 C 147.271 47.549,146.901 47.364,146.161 47.364 C 145.421 47.364,145.051 47.179,145.051 46.809 C 145.051 46.503,144.801 46.253,144.496 46.253 C 144.191 46.253,143.941 46.004,143.941 45.698 C 143.941 45.328,143.571 45.143,142.831 45.143 C 142.091 45.143,141.721 44.958,141.721 44.588 C 141.721 44.218,141.351 44.033,140.611 44.033 C 139.870 44.033,139.500 43.848,139.500 43.478 C 139.500 43.108,139.130 42.923,138.390 42.923 C 137.650 42.923,137.280 42.738,137.280 42.368 C 137.280 42.063,137.031 41.813,136.725 41.813 C 136.420 41.813,136.170 41.563,136.170 41.258 C 136.170 40.888,135.800 40.703,135.060 40.703 C 134.320 40.703,133.950 40.518,133.950 40.148 C 133.950 39.778,133.580 39.593,132.840 39.593 C 132.100 39.593,131.730 39.408,131.730 39.038 C 131.730 38.668,131.360 38.483,130.620 38.483 C 129.880 38.483,129.510 38.298,129.510 37.928 C 129.510 37.558,129.140 37.373,128.400 37.373 C 127.660 37.373,127.290 37.188,127.290 36.818 C 127.290 36.512,127.058 36.263,126.774 36.263 C 126.491 36.263,126.163 36.013,126.046 35.708 C 125.929 35.402,125.411 35.153,124.896 35.153 C 124.310 35.153,123.959 34.945,123.959 34.598 C 123.959 34.228,123.589 34.043,122.849 34.043 C 122.109 34.043,121.739 33.858,121.739 33.488 C 121.739 33.117,121.369 32.932,120.629 32.932 C 119.889 32.932,119.519 32.747,119.519 32.377 C 119.519 32.072,119.287 31.822,119.004 31.822 C 118.720 31.822,118.392 31.573,118.275 31.267 C 118.158 30.962,117.641 30.712,117.125 30.712 C 116.539 30.712,116.189 30.504,116.189 30.157 C 116.189 29.787,115.819 29.602,115.079 29.602 C 114.339 29.602,113.969 29.417,113.969 29.047 C 113.969 28.677,113.599 28.492,112.858 28.492 C 112.118 28.492,111.748 28.307,111.748 27.937 C 111.748 27.632,111.516 27.382,111.233 27.382 C 110.949 27.382,110.622 27.132,110.504 26.827 C 110.387 26.522,109.870 26.272,109.355 26.272 C 108.769 26.272,108.418 26.064,108.418 25.717 C 108.418 25.347,108.048 25.162,107.308 25.162 C 106.568 25.162,106.198 24.977,106.198 24.607 C 106.198 24.237,105.828 24.052,105.088 24.052 C 104.348 24.052,103.978 23.867,103.978 23.497 C 103.978 23.191,103.746 22.942,103.462 22.942 C 103.179 22.942,102.851 22.692,102.734 22.387 C 102.617 22.081,102.099 21.832,101.584 21.832 C 100.998 21.832,100.648 21.624,100.648 21.277 C 100.648 20.907,100.278 20.722,99.537 20.722 C 98.797 20.722,98.427 20.537,98.427 20.167 C 98.427 19.796,98.057 19.611,97.317 19.611 C 96.577 19.611,96.207 19.426,96.207 19.056 C 96.207 18.751,95.975 18.501,95.692 18.501 C 95.408 18.501,95.080 18.252,94.963 17.946 C 94.846 17.641,94.329 17.391,93.814 17.391 C 93.228 17.391,92.877 17.183,92.877 16.836 C 92.877 16.466,92.507 16.281,91.767 16.281 C 91.027 16.281,90.657 16.096,90.657 15.726 C 90.657 15.356,90.287 15.171,89.547 15.171 C 88.807 15.171,88.437 14.986,88.437 14.616 C 88.437 14.246,88.067 14.061,87.327 14.061 C 86.586 14.061,86.216 13.876,86.216 13.506 C 86.216 13.201,85.985 12.951,85.701 12.951 C 85.418 12.951,85.090 12.701,84.973 12.396 C 84.855 12.091,84.338 11.841,83.823 11.841 C 83.237 11.841,82.886 11.633,82.886 11.286 C 82.886 10.916,82.516 10.731,81.776 10.731 C 81.036 10.731,80.666 10.546,80.666 10.176 C 80.666 9.806,80.296 9.621,79.556 9.621 C 78.816 9.621,78.446 9.436,78.446 9.066 C 78.446 8.760,78.214 8.511,77.930 8.511 C 77.647 8.511,77.319 8.261,77.202 7.956 C 77.063 7.593,76.486 7.401,75.537 7.401 C 74.587 7.401,74.011 7.208,73.872 6.846 C 73.731 6.479,73.152 6.290,72.167 6.290 C 71.088 6.290,70.675 6.137,70.675 5.735 C 70.675 5.368,70.308 5.180,69.590 5.180 C 68.681 5.180,68.485 5.015,68.387 4.163 C 68.273 3.169,68.208 3.143,65.587 3.037 C 63.535 2.953,62.905 2.801,62.905 2.389 C 62.905 1.932,61.553 1.850,54.024 1.850 C 46.377 1.850,45.143 1.927,45.143 2.405 M78.816 143.199 C 87.497 144.375,94.500 148.373,98.231 154.283 C 99.964 157.029,101.388 159.987,101.388 160.842 C 101.388 161.329,101.647 162.124,101.964 162.608 C 102.452 163.352,102.518 164.648,102.392 171.013 C 102.215 179.969,101.901 181.250,98.224 188.009 C 97.433 189.464,93.249 193.525,92.541 193.525 C 92.339 193.525,91.434 194.024,90.529 194.635 C 89.625 195.245,88.767 195.745,88.624 195.745 C 88.481 195.745,87.839 195.970,87.197 196.245 C 84.596 197.361,82.443 197.723,77.151 197.931 L 71.600 198.150 71.415 211.022 C 71.259 221.923,71.145 223.948,70.675 224.245 C 70.360 224.444,65.535 224.598,59.491 224.601 L 48.863 224.607 48.298 223.515 C 47.803 222.557,47.734 217.640,47.734 183.252 L 47.734 144.080 48.540 143.214 L 49.347 142.348 62.879 142.611 C 70.321 142.755,77.493 143.020,78.816 143.199 M134.816 143.135 C 135.370 143.748,135.434 146.548,135.520 173.940 L 135.615 204.070 143.369 204.171 C 149.005 204.243,151.201 204.395,151.411 204.726 C 151.832 205.388,151.777 222.536,151.351 223.658 L 150.990 224.607 131.998 224.607 C 117.720 224.607,112.896 224.497,112.562 224.163 C 111.739 223.340,111.940 143.342,112.766 142.860 C 114.067 142.103,134.107 142.352,134.816 143.135 M206.250 142.681 C 206.567 142.803,206.935 143.511,207.069 144.254 C 207.203 144.998,207.436 145.772,207.588 145.976 C 207.740 146.179,207.984 147.345,208.131 148.566 C 208.277 149.787,208.525 150.953,208.681 151.156 C 208.837 151.360,209.076 152.514,209.212 153.722 C 209.347 154.930,209.597 156.095,209.766 156.312 C 209.936 156.529,210.180 157.772,210.310 159.074 C 210.440 160.376,210.690 161.625,210.865 161.849 C 211.041 162.074,211.296 163.245,211.432 164.453 C 211.567 165.661,211.817 166.826,211.986 167.043 C 212.156 167.260,212.400 168.503,212.530 169.805 C 212.660 171.107,212.912 172.356,213.091 172.580 C 213.270 172.804,213.533 174.110,213.675 175.482 C 213.818 176.853,214.066 178.057,214.226 178.156 C 214.387 178.256,214.637 179.380,214.781 180.654 C 214.925 181.929,215.174 183.140,215.334 183.345 C 215.494 183.551,215.725 184.611,215.848 185.701 C 215.970 186.791,216.221 187.873,216.405 188.106 C 216.589 188.339,216.857 189.606,217.000 190.921 C 217.144 192.237,217.374 193.486,217.511 193.697 C 217.745 194.055,218.189 196.115,219.071 200.925 C 219.276 202.044,219.552 203.210,219.685 203.515 C 219.934 204.087,220.637 207.335,221.287 210.916 C 221.491 212.035,221.802 213.284,221.980 213.691 C 222.158 214.098,222.492 215.513,222.723 216.836 C 222.954 218.159,223.319 220.211,223.534 221.395 C 224.162 224.849,225.000 224.607,212.417 224.607 L 201.314 224.607 200.689 223.404 C 200.345 222.743,199.953 220.951,199.817 219.423 C 199.681 217.894,199.331 216.146,199.039 215.537 L 198.508 214.431 191.976 214.431 C 184.544 214.431,185.055 214.257,184.788 216.879 C 184.677 217.975,184.443 219.204,184.270 219.611 C 184.096 220.019,183.852 221.129,183.726 222.079 C 183.378 224.709,183.785 224.629,171.278 224.520 L 160.037 224.422 159.918 223.382 C 159.852 222.810,159.958 222.144,160.154 221.902 C 160.349 221.660,160.630 220.546,160.777 219.426 C 160.924 218.307,161.176 217.225,161.337 217.021 C 161.498 216.818,161.802 215.652,162.013 214.431 C 162.493 211.657,163.088 209.039,163.767 206.711 C 164.056 205.720,164.292 204.440,164.292 203.865 C 164.292 203.289,164.443 202.726,164.628 202.612 C 164.812 202.498,165.071 201.530,165.203 200.462 C 165.336 199.394,165.595 198.187,165.780 197.780 C 165.965 197.373,166.283 196.207,166.486 195.190 C 166.689 194.172,167.114 192.216,167.430 190.843 C 167.746 189.470,168.264 187.222,168.580 185.848 C 168.896 184.473,169.351 182.433,169.591 181.314 C 169.831 180.194,170.136 179.112,170.269 178.908 C 170.402 178.705,170.631 177.706,170.778 176.688 C 170.926 175.671,171.176 174.672,171.335 174.468 C 171.494 174.265,171.743 173.265,171.890 172.248 C 172.036 171.230,172.286 170.231,172.445 170.028 C 172.604 169.824,172.854 168.825,173.000 167.808 C 173.146 166.790,173.396 165.791,173.555 165.587 C 173.714 165.384,173.965 164.402,174.114 163.405 C 174.262 162.409,174.610 161.160,174.886 160.630 C 175.162 160.100,175.390 159.145,175.391 158.507 C 175.392 157.869,175.642 156.869,175.946 156.287 C 176.250 155.704,176.500 154.705,176.501 154.066 C 176.502 153.428,176.752 152.429,177.056 151.846 C 177.360 151.263,177.610 150.264,177.611 149.626 C 177.612 148.988,177.862 147.989,178.166 147.406 C 178.470 146.823,178.720 145.742,178.721 145.004 C 178.725 142.510,178.769 142.502,193.032 142.480 C 199.985 142.469,205.934 142.560,206.250 142.681 M242.910 143.842 C 243.426 144.601,243.848 145.581,243.848 146.020 C 243.848 146.458,244.097 147.293,244.401 147.876 C 244.705 148.459,244.955 149.209,244.956 149.541 C 244.957 149.874,245.207 150.624,245.511 151.207 C 245.815 151.789,246.065 152.539,246.066 152.872 C 246.067 153.205,246.317 153.954,246.621 154.537 C 246.925 155.120,247.175 155.961,247.176 156.407 C 247.178 156.853,247.331 157.312,247.516 157.427 C 247.702 157.542,247.971 158.343,248.113 159.206 C 248.256 160.070,248.526 160.968,248.713 161.200 C 248.901 161.433,249.154 162.468,249.276 163.500 L 249.499 165.375 250.189 164.498 C 250.568 164.015,250.879 163.137,250.879 162.547 C 250.879 161.957,251.123 161.150,251.422 160.755 C 251.721 160.360,251.971 159.433,251.977 158.695 C 251.984 157.956,252.239 157.145,252.544 156.892 C 252.849 156.638,253.099 155.889,253.099 155.227 C 253.099 154.564,253.349 153.815,253.654 153.562 C 253.959 153.308,254.209 152.570,254.209 151.922 C 254.209 151.273,254.454 150.420,254.752 150.024 C 255.051 149.629,255.301 148.880,255.307 148.359 C 255.314 147.839,255.564 147.089,255.862 146.694 C 256.161 146.299,256.411 145.454,256.417 144.816 C 256.440 142.557,256.953 142.461,268.984 142.461 C 282.061 142.461,281.612 142.218,278.793 147.764 C 278.500 148.340,278.261 148.981,278.261 149.188 C 278.261 149.595,277.427 151.633,276.573 153.314 C 276.280 153.890,276.041 154.531,276.041 154.738 C 276.041 155.146,275.207 157.184,274.353 158.864 C 274.060 159.441,273.821 160.081,273.821 160.289 C 273.821 160.696,272.987 162.734,272.133 164.415 C 271.840 164.991,271.600 165.632,271.600 165.839 C 271.600 166.247,270.767 168.285,269.913 169.965 C 269.620 170.541,269.380 171.182,269.380 171.389 C 269.380 171.797,268.547 173.835,267.692 175.516 C 267.400 176.092,267.160 176.733,267.160 176.940 C 267.160 177.347,266.326 179.385,265.472 181.066 C 265.179 181.642,264.940 182.283,264.940 182.490 C 264.940 182.839,264.529 183.877,263.280 186.679 C 262.116 189.293,261.980 191.441,261.980 207.219 C 261.980 217.510,261.844 223.429,261.597 223.891 C 261.001 225.005,239.647 225.005,239.051 223.891 C 238.803 223.428,238.668 217.218,238.668 206.278 C 238.668 188.353,238.768 189.591,236.986 185.569 C 236.244 183.896,234.949 180.876,234.525 179.833 C 234.126 178.850,233.680 177.811,232.380 174.838 C 231.935 173.821,231.402 172.572,231.195 172.063 C 230.796 171.079,230.349 170.041,229.049 167.068 C 228.605 166.050,228.071 164.801,227.865 164.292 C 227.040 162.261,226.505 161.040,225.396 158.657 C 224.758 157.288,224.237 155.981,224.237 155.754 C 224.237 155.527,223.998 154.899,223.707 154.359 C 222.743 152.572,220.907 148.386,220.907 147.975 C 220.907 147.752,220.633 147.045,220.299 146.403 C 218.166 142.308,217.749 142.461,231.095 142.461 L 241.971 142.461 242.910 143.842 M71.415 170.213 L 71.415 178.723 73.115 178.723 C 74.513 178.723,75.120 178.482,76.540 177.362 C 82.369 172.764,79.632 161.702,72.665 161.702 L 71.415 161.702 71.415 170.213 M191.910 174.191 C 191.557 176.989,191.108 179.861,190.912 180.574 C 190.716 181.286,190.394 183.034,190.198 184.459 C 189.878 186.779,189.267 190.362,188.508 194.371 L 188.243 195.773 191.901 195.666 L 195.560 195.560 195.438 192.599 C 195.371 190.971,195.156 189.011,194.959 188.244 C 194.763 187.476,194.460 184.895,194.287 182.508 C 194.115 180.121,193.793 177.502,193.573 176.688 C 193.352 175.874,193.168 173.834,193.163 172.155 C 193.150 167.613,192.633 168.453,191.910 174.191 " stroke="none" fill="#a4cc6c" fill-rule="evenodd"></path></g></svg>