<svg id="svg" version="1.1" xmlns="http://www.w3.org/2000/svg" xmlns:xlink="http://www.w3.org/1999/xlink" width="400" height="48.03695150115474" viewBox="0, 0, 400,48.03695150115474"><g id="svgg"><path id="path0" d="M38.953 18.481 C 38.606 18.537,38.325 18.640,38.328 18.708 C 38.331 18.777,38.333 21.308,38.333 24.333 L 38.333 29.833 38.764 29.833 C 39.301 29.833,39.221 30.202,38.654 30.338 L 38.250 30.435 38.667 30.576 C 39.034 30.699,38.984 30.730,38.250 30.832 C 37.792 30.896,44.148 30.959,52.375 30.974 C 62.868 30.992,67.333 30.947,67.333 30.822 C 67.333 30.725,67.258 30.505,67.167 30.334 C 67.034 30.085,67.067 30.001,67.333 29.917 C 67.658 29.814,67.667 29.664,67.667 24.076 L 67.667 18.341 53.625 18.360 C 45.902 18.370,39.300 18.425,38.953 18.481 " stroke="none" fill="#dad07b" fill-rule="evenodd"></path><path id="path1" d="M67.667 24.072 C 67.667 29.564,67.653 29.815,67.350 29.911 C 67.073 29.999,67.057 30.074,67.220 30.506 L 67.406 31.000 82.912 30.964 C 91.439 30.944,97.029 30.885,95.333 30.833 C 93.638 30.781,92.625 30.711,93.083 30.678 L 93.917 30.617 93.200 30.517 L 92.483 30.417 92.950 30.228 C 93.207 30.124,93.550 29.994,93.714 29.939 C 93.992 29.846,94.010 29.466,93.994 24.086 L 93.976 18.333 80.821 18.333 L 67.667 18.333 67.667 24.072 " stroke="none" fill="#52b4d7" fill-rule="evenodd"></path><path id="path2" d="M370.076 18.488 C 370.292 18.837,368.507 18.959,362.629 18.996 L 362.009 19.000 361.963 24.417 L 361.917 29.833 362.792 29.833 C 363.452 29.833,363.667 29.894,363.667 30.079 C 363.667 30.283,363.228 30.333,361.083 30.371 C 359.502 30.399,358.499 30.481,358.499 30.583 C 358.499 30.685,359.502 30.768,361.083 30.796 C 363.308 30.835,363.667 30.806,363.667 30.588 C 363.667 30.176,370.486 30.182,370.716 30.594 C 370.936 30.986,372.000 30.908,372.000 30.500 C 372.000 30.317,371.925 30.167,371.833 30.167 C 371.742 30.167,371.667 30.092,371.667 30.000 C 371.667 29.908,371.817 29.833,372.000 29.833 C 372.326 29.833,372.333 29.722,372.333 24.508 C 372.333 18.175,372.369 18.333,370.963 18.333 C 370.399 18.333,370.021 18.399,370.076 18.488 M282.542 18.627 L 276.000 18.671 276.000 24.163 C 276.000 30.357,276.081 30.000,274.683 30.000 C 273.303 30.000,274.073 30.451,275.635 30.557 C 279.800 30.840,307.917 30.754,307.868 30.458 C 307.821 30.182,308.740 30.167,325.234 30.167 C 338.987 30.167,342.678 30.123,342.783 29.958 C 342.888 29.794,344.574 29.768,350.667 29.833 C 354.929 29.879,358.829 29.895,359.333 29.868 L 360.250 29.819 360.203 24.451 L 360.157 19.083 359.712 18.875 C 359.145 18.610,344.746 18.570,344.583 18.833 C 344.454 19.043,342.955 19.053,342.742 18.846 C 342.589 18.697,296.928 18.531,282.542 18.627 M372.574 24.333 C 372.574 27.313,372.597 28.531,372.625 27.042 C 372.652 25.552,372.652 23.115,372.625 21.625 C 372.597 20.135,372.574 21.354,372.574 24.333 M266.456 29.933 C 266.001 30.388,266.608 30.500,269.530 30.500 C 272.454 30.500,273.655 30.287,272.732 29.933 C 272.393 29.803,266.586 29.803,266.456 29.933 " stroke="none" fill="#884cfb" fill-rule="evenodd"></path><path id="path3" d="M25.167 34.583 C 25.167 35.306,25.096 35.833,25.000 35.833 C 24.906 35.833,24.833 36.306,24.833 36.917 C 24.833 37.968,25.444 38.584,25.707 37.796 C 25.879 37.279,26.667 38.475,26.667 39.254 C 26.667 40.254,26.406 40.500,25.345 40.500 L 24.500 40.500 24.500 41.250 L 24.500 42.000 25.917 42.000 C 26.705 42.000,27.333 41.929,27.333 41.841 C 27.333 41.753,27.502 41.506,27.708 41.290 C 27.915 41.075,28.177 40.735,28.292 40.535 C 28.540 40.102,28.574 38.000,28.333 38.000 C 28.242 38.000,28.167 37.826,28.167 37.613 C 28.167 37.097,27.451 36.500,26.832 36.500 C 26.389 36.500,26.333 36.444,26.333 36.000 C 26.333 35.725,26.408 35.500,26.500 35.500 C 26.592 35.500,26.667 35.391,26.667 35.259 C 26.667 35.085,26.912 35.003,27.542 34.967 L 28.417 34.917 28.467 34.125 L 28.518 33.333 26.842 33.333 L 25.167 33.333 25.167 34.583 M30.708 33.754 C 30.502 33.975,30.333 34.345,30.333 34.577 C 30.333 34.810,30.258 35.000,30.167 35.000 C 30.062 35.000,30.000 36.028,30.000 37.750 C 30.000 39.472,30.062 40.500,30.167 40.500 C 30.258 40.500,30.333 40.653,30.333 40.841 C 30.333 41.545,31.055 42.000,32.171 42.000 C 33.219 42.000,33.667 41.779,33.667 41.262 C 33.667 41.118,33.742 41.000,33.833 41.000 C 33.925 41.000,34.000 40.587,34.000 40.083 C 34.000 39.579,34.075 39.167,34.167 39.167 C 34.265 39.167,34.333 38.556,34.333 37.667 C 34.333 36.778,34.265 36.167,34.167 36.167 C 34.075 36.167,34.000 35.754,34.000 35.250 C 34.000 34.746,33.925 34.333,33.833 34.333 C 33.742 34.333,33.667 34.183,33.667 34.000 C 33.667 33.815,33.556 33.667,33.417 33.667 C 33.279 33.667,33.167 33.592,33.167 33.500 C 33.167 33.118,31.104 33.332,30.708 33.754 M61.733 33.567 C 61.495 34.188,61.741 34.916,62.208 34.969 L 62.667 35.022 62.667 38.511 L 62.667 42.000 63.417 42.000 L 64.167 42.000 64.167 37.667 L 64.167 33.333 62.995 33.333 C 62.142 33.333,61.798 33.397,61.733 33.567 M67.697 33.751 C 67.497 33.981,67.333 34.356,67.333 34.585 C 67.333 34.813,67.258 35.000,67.167 35.000 C 67.062 35.000,67.000 36.028,67.000 37.750 C 67.000 39.472,67.062 40.500,67.167 40.500 C 67.258 40.500,67.333 40.688,67.333 40.917 C 67.333 41.146,67.403 41.333,67.489 41.333 C 67.574 41.333,67.692 41.483,67.750 41.667 C 67.987 42.414,70.667 42.042,70.667 41.262 C 70.667 41.118,70.742 41.000,70.833 41.000 C 70.925 41.000,71.000 40.587,71.000 40.083 C 71.000 39.579,71.075 39.167,71.167 39.167 C 71.265 39.167,71.333 38.556,71.333 37.667 C 71.333 36.778,71.265 36.167,71.167 36.167 C 71.075 36.167,71.000 35.754,71.000 35.250 C 71.000 34.746,70.925 34.333,70.833 34.333 C 70.742 34.333,70.667 34.183,70.667 34.000 C 70.667 33.778,70.556 33.667,70.333 33.667 C 70.150 33.667,70.000 33.592,70.000 33.500 C 70.000 33.105,68.076 33.315,67.697 33.751 M73.375 33.583 C 73.260 33.713,73.167 34.010,73.167 34.243 C 73.167 34.476,73.092 34.667,73.000 34.667 C 72.908 34.667,72.833 35.004,72.833 35.417 C 72.833 35.829,72.758 36.167,72.667 36.167 C 72.568 36.167,72.500 36.778,72.500 37.667 C 72.500 38.556,72.568 39.167,72.667 39.167 C 72.758 39.167,72.833 39.579,72.833 40.083 C 72.833 40.587,72.908 41.000,73.000 41.000 C 73.092 41.000,73.167 41.118,73.167 41.262 C 73.167 41.779,73.614 42.000,74.662 42.000 C 75.778 42.000,76.500 41.545,76.500 40.841 C 76.500 40.653,76.575 40.500,76.667 40.500 C 76.771 40.500,76.833 39.472,76.833 37.750 C 76.833 36.028,76.771 35.000,76.667 35.000 C 76.575 35.000,76.500 34.809,76.500 34.576 C 76.500 33.538,74.089 32.772,73.375 33.583 M102.400 33.567 C 102.161 34.188,102.408 34.916,102.875 34.969 L 103.333 35.022 103.333 38.511 L 103.333 42.000 104.083 42.000 L 104.833 42.000 104.833 37.667 L 104.833 33.333 103.661 33.333 C 102.809 33.333,102.465 33.397,102.400 33.567 M108.500 33.800 C 108.500 34.057,108.434 34.338,108.354 34.425 C 107.956 34.855,108.013 38.000,108.419 38.000 C 108.631 38.000,108.849 37.906,108.903 37.792 C 108.981 37.625,109.019 37.625,109.097 37.792 C 109.151 37.906,109.338 38.000,109.514 38.000 C 109.722 38.000,109.833 38.116,109.833 38.333 C 109.833 38.517,109.908 38.667,110.000 38.667 C 110.092 38.667,110.167 38.895,110.167 39.174 C 110.167 39.926,109.520 40.500,108.674 40.500 C 108.186 40.500,108.000 40.569,108.000 40.750 C 108.000 40.887,107.925 41.000,107.833 41.000 C 107.742 41.000,107.667 41.225,107.667 41.500 L 107.667 42.000 109.091 42.000 C 110.605 42.000,110.887 41.865,111.458 40.868 C 111.712 40.426,111.748 37.333,111.500 37.333 C 111.408 37.333,111.333 37.221,111.333 37.083 C 111.333 36.944,111.185 36.833,111.000 36.833 C 110.817 36.833,110.667 36.758,110.667 36.667 C 110.667 36.575,110.479 36.500,110.250 36.500 C 109.867 36.500,109.833 36.439,109.833 35.750 L 109.833 35.000 110.750 35.000 L 111.667 35.000 111.667 34.167 L 111.667 33.333 110.083 33.333 L 108.500 33.333 108.500 33.800 M114.042 33.583 C 113.927 33.713,113.833 34.010,113.833 34.243 C 113.833 34.476,113.758 34.667,113.667 34.667 C 113.575 34.667,113.500 35.004,113.500 35.417 C 113.500 35.829,113.425 36.167,113.333 36.167 C 113.235 36.167,113.167 36.778,113.167 37.667 C 113.167 38.556,113.235 39.167,113.333 39.167 C 113.425 39.167,113.500 39.579,113.500 40.083 C 113.500 40.587,113.575 41.000,113.667 41.000 C 113.758 41.000,113.833 41.118,113.833 41.262 C 113.833 41.779,114.281 42.000,115.329 42.000 C 116.445 42.000,117.167 41.545,117.167 40.841 C 117.167 40.653,117.242 40.500,117.333 40.500 C 117.438 40.500,117.500 39.472,117.500 37.750 C 117.500 36.028,117.438 35.000,117.333 35.000 C 117.242 35.000,117.167 34.809,117.167 34.576 C 117.167 33.538,114.755 32.772,114.042 33.583 M146.375 33.583 C 146.260 33.713,146.167 33.935,146.167 34.076 C 146.167 34.218,146.092 34.333,146.000 34.333 C 145.906 34.333,145.833 34.806,145.833 35.417 L 145.833 36.500 146.583 36.500 L 147.333 36.500 147.333 35.851 C 147.333 35.180,147.596 34.919,148.083 35.106 C 148.360 35.213,148.431 35.833,148.167 35.833 C 148.075 35.833,148.000 36.058,148.000 36.333 C 148.000 36.608,147.944 36.834,147.875 36.835 C 147.706 36.836,147.333 37.661,147.333 38.033 C 147.333 38.198,147.258 38.333,147.167 38.333 C 147.075 38.333,147.000 38.483,147.000 38.667 C 147.000 38.850,146.928 39.000,146.841 39.000 C 146.753 39.000,146.633 39.262,146.572 39.583 C 146.512 39.904,146.396 40.167,146.315 40.167 C 146.233 40.167,146.167 40.317,146.167 40.500 C 146.167 40.683,146.092 40.833,146.000 40.833 C 145.908 40.833,145.833 41.096,145.833 41.417 L 145.833 42.000 147.833 42.000 L 149.833 42.000 149.833 41.250 L 149.833 40.500 149.023 40.500 L 148.213 40.500 148.391 39.833 C 148.489 39.467,148.628 39.167,148.701 39.167 C 148.774 39.167,148.833 39.054,148.833 38.917 C 148.833 38.779,148.908 38.667,149.000 38.667 C 149.092 38.667,149.167 38.517,149.167 38.333 C 149.167 38.150,149.242 38.000,149.333 38.000 C 149.425 38.000,149.500 37.775,149.500 37.500 C 149.500 37.225,149.575 37.000,149.667 37.000 C 150.069 37.000,149.859 34.177,149.424 33.742 C 148.934 33.252,146.766 33.139,146.375 33.583 M152.042 33.754 C 151.835 33.975,151.667 34.345,151.667 34.577 C 151.667 34.810,151.592 35.000,151.500 35.000 C 151.396 35.000,151.333 36.028,151.333 37.750 C 151.333 39.472,151.396 40.500,151.500 40.500 C 151.592 40.500,151.667 40.653,151.667 40.841 C 151.667 41.545,152.388 42.000,153.504 42.000 C 154.553 42.000,155.000 41.779,155.000 41.262 C 155.000 41.118,155.075 41.000,155.167 41.000 C 155.258 41.000,155.333 40.587,155.333 40.083 C 155.333 39.579,155.408 39.167,155.500 39.167 C 155.599 39.167,155.667 38.556,155.667 37.667 C 155.667 36.778,155.599 36.167,155.500 36.167 C 155.408 36.167,155.333 35.754,155.333 35.250 C 155.333 34.746,155.258 34.333,155.167 34.333 C 155.075 34.333,154.999 34.202,154.999 34.042 C 154.995 33.280,152.695 33.057,152.042 33.754 M157.708 33.583 C 157.594 33.713,157.500 34.010,157.500 34.243 C 157.500 34.476,157.425 34.667,157.333 34.667 C 157.242 34.667,157.167 35.004,157.167 35.417 C 157.167 35.829,157.092 36.167,157.000 36.167 C 156.901 36.167,156.833 36.778,156.833 37.667 C 156.833 38.556,156.901 39.167,157.000 39.167 C 157.092 39.167,157.167 39.579,157.167 40.083 C 157.167 40.587,157.242 41.000,157.333 41.000 C 157.425 41.000,157.500 41.118,157.500 41.262 C 157.500 41.794,157.945 42.000,159.094 42.000 C 160.324 42.000,160.833 41.675,160.833 40.891 C 160.833 40.676,160.908 40.500,161.000 40.500 C 161.104 40.500,161.167 39.472,161.167 37.750 C 161.167 36.028,161.104 35.000,161.000 35.000 C 160.908 35.000,160.833 34.778,160.833 34.506 C 160.833 33.481,158.424 32.769,157.708 33.583 M190.708 33.583 C 190.594 33.713,190.500 33.935,190.500 34.076 C 190.500 34.218,190.425 34.333,190.333 34.333 C 190.239 34.333,190.167 34.806,190.167 35.417 L 190.167 36.500 190.917 36.500 L 191.667 36.500 191.667 35.851 C 191.667 35.180,191.929 34.919,192.417 35.106 C 192.693 35.213,192.764 35.833,192.500 35.833 C 192.408 35.833,192.333 36.058,192.333 36.333 C 192.333 36.608,192.277 36.834,192.208 36.835 C 192.039 36.836,191.667 37.661,191.667 38.033 C 191.667 38.198,191.592 38.333,191.500 38.333 C 191.408 38.333,191.333 38.483,191.333 38.667 C 191.333 38.850,191.262 39.000,191.174 39.000 C 191.087 39.000,190.966 39.262,190.906 39.583 C 190.845 39.904,190.730 40.167,190.648 40.167 C 190.567 40.167,190.500 40.317,190.500 40.500 C 190.500 40.683,190.425 40.833,190.333 40.833 C 190.242 40.833,190.167 41.096,190.167 41.417 L 190.167 42.000 192.167 42.000 L 194.167 42.000 194.167 41.259 L 194.167 40.517 193.344 40.467 L 192.522 40.417 192.879 39.583 C 193.076 39.125,193.296 38.725,193.368 38.694 C 193.441 38.664,193.500 38.495,193.500 38.319 C 193.500 38.144,193.575 38.000,193.667 38.000 C 193.758 38.000,193.833 37.775,193.833 37.500 C 193.833 37.225,193.908 37.000,194.000 37.000 C 194.403 37.000,194.192 34.177,193.758 33.742 C 193.267 33.252,191.099 33.139,190.708 33.583 M196.667 33.833 C 196.667 34.108,196.592 34.333,196.500 34.333 C 196.403 34.333,196.333 34.886,196.333 35.657 C 196.333 36.385,196.258 37.027,196.167 37.083 C 195.749 37.341,195.989 38.000,196.500 38.000 C 196.775 38.000,197.000 37.932,197.000 37.849 C 197.000 37.561,197.772 38.064,197.969 38.481 C 198.459 39.519,197.851 40.499,196.716 40.501 C 196.060 40.503,195.667 40.952,195.667 41.700 C 195.667 42.238,198.487 42.137,198.970 41.582 C 199.170 41.352,199.333 41.090,199.333 40.999 C 199.333 40.908,199.408 40.833,199.500 40.833 C 199.601 40.833,199.667 40.139,199.667 39.083 C 199.667 38.028,199.601 37.333,199.500 37.333 C 199.408 37.333,199.333 37.221,199.333 37.083 C 199.333 36.946,199.221 36.833,199.083 36.833 C 198.946 36.833,198.833 36.758,198.833 36.667 C 198.833 36.575,198.608 36.500,198.333 36.500 C 197.852 36.500,197.833 36.472,197.833 35.750 L 197.833 35.000 198.750 35.000 L 199.667 35.000 199.667 34.167 L 199.667 33.333 198.167 33.333 L 196.667 33.333 196.667 33.833 M202.125 33.565 C 201.965 33.687,201.833 33.985,201.833 34.227 C 201.833 34.469,201.758 34.667,201.667 34.667 C 201.575 34.667,201.500 35.004,201.500 35.417 C 201.500 35.829,201.425 36.167,201.333 36.167 C 201.235 36.167,201.167 36.778,201.167 37.667 C 201.167 38.556,201.235 39.167,201.333 39.167 C 201.425 39.167,201.500 39.579,201.500 40.083 C 201.500 40.587,201.575 41.000,201.667 41.000 C 201.758 41.000,201.833 41.118,201.833 41.262 C 201.833 41.794,202.278 42.000,203.427 42.000 C 204.657 42.000,205.167 41.675,205.167 40.891 C 205.167 40.676,205.242 40.500,205.333 40.500 C 205.438 40.500,205.500 39.472,205.500 37.750 C 205.500 36.028,205.438 35.000,205.333 35.000 C 205.242 35.000,205.167 34.786,205.167 34.526 C 205.167 33.466,203.111 32.817,202.125 33.565 M236.208 33.583 C 236.094 33.713,236.000 33.935,236.000 34.076 C 236.000 34.218,235.925 34.333,235.833 34.333 C 235.742 34.333,235.667 34.746,235.667 35.250 L 235.667 36.167 236.489 36.167 C 237.292 36.167,237.314 36.153,237.364 35.638 C 237.417 35.104,237.833 34.747,237.833 35.236 C 237.833 35.381,237.908 35.500,238.000 35.500 C 238.092 35.500,238.167 35.650,238.167 35.833 C 238.167 36.017,238.092 36.167,238.000 36.167 C 237.908 36.167,237.833 36.317,237.833 36.500 C 237.833 36.770,237.722 36.833,237.250 36.833 C 236.670 36.833,236.667 36.837,236.667 37.583 C 236.667 38.319,236.677 38.333,237.209 38.333 C 237.788 38.333,238.494 39.308,238.028 39.463 C 237.921 39.499,237.833 39.747,237.833 40.014 C 237.833 40.649,237.375 40.673,237.303 40.042 C 237.254 39.622,237.183 39.579,236.458 39.533 L 235.667 39.482 235.667 40.408 C 235.667 40.917,235.742 41.333,235.833 41.333 C 235.925 41.333,236.000 41.483,236.000 41.667 C 236.000 41.974,236.111 42.000,237.417 42.000 C 238.250 42.000,238.833 41.931,238.833 41.833 C 238.833 41.742,238.946 41.667,239.083 41.667 C 239.239 41.667,239.333 41.509,239.333 41.250 C 239.333 41.021,239.408 40.833,239.500 40.833 C 239.596 40.833,239.667 40.306,239.667 39.583 C 239.667 38.896,239.600 38.333,239.519 38.333 C 239.248 38.333,239.189 37.422,239.429 36.933 C 239.699 36.383,239.753 34.667,239.500 34.667 C 239.408 34.667,239.333 34.528,239.333 34.359 C 239.333 33.446,236.868 32.834,236.208 33.583 M241.882 33.794 C 241.091 34.769,241.080 40.762,241.867 41.549 C 242.653 42.335,245.000 42.145,245.000 41.295 C 245.000 41.170,245.092 40.974,245.205 40.862 C 245.896 40.171,245.327 33.667,244.576 33.667 C 244.442 33.667,244.333 33.592,244.333 33.500 C 244.333 33.076,242.263 33.324,241.882 33.794 M247.700 33.533 C 247.590 33.643,247.500 33.943,247.500 34.200 C 247.500 34.457,247.425 34.667,247.333 34.667 C 247.242 34.667,247.167 35.004,247.167 35.417 C 247.167 35.829,247.092 36.167,247.000 36.167 C 246.901 36.167,246.833 36.778,246.833 37.667 C 246.833 38.556,246.901 39.167,247.000 39.167 C 247.092 39.167,247.167 39.579,247.167 40.083 C 247.167 40.587,247.232 41.000,247.313 41.000 C 247.393 41.000,247.503 41.225,247.558 41.500 C 247.781 42.615,250.833 42.010,250.833 40.851 C 250.833 40.669,250.908 40.473,251.000 40.417 C 251.100 40.355,251.167 39.248,251.167 37.657 C 251.167 35.997,251.104 35.000,251.000 35.000 C 250.908 35.000,250.833 34.809,250.833 34.576 C 250.833 33.567,248.457 32.777,247.700 33.533 M280.542 33.583 C 280.427 33.713,280.333 33.935,280.333 34.076 C 280.333 34.218,280.258 34.333,280.167 34.333 C 280.075 34.333,280.000 34.746,280.000 35.250 L 280.000 36.167 280.823 36.167 C 281.625 36.167,281.647 36.153,281.698 35.638 C 281.751 35.104,282.167 34.747,282.167 35.236 C 282.167 35.381,282.242 35.500,282.333 35.500 C 282.425 35.500,282.500 35.650,282.500 35.833 C 282.500 36.017,282.425 36.167,282.333 36.167 C 282.242 36.167,282.167 36.317,282.167 36.500 C 282.167 36.770,282.056 36.833,281.583 36.833 C 281.003 36.833,281.000 36.837,281.000 37.583 C 281.000 38.319,281.011 38.333,281.543 38.333 C 282.122 38.333,282.770 39.230,282.370 39.477 C 282.275 39.536,282.171 39.809,282.140 40.084 C 282.064 40.751,281.763 40.722,281.698 40.042 C 281.647 39.511,281.629 39.500,280.823 39.500 L 280.000 39.500 280.000 40.417 C 280.000 40.921,280.075 41.333,280.167 41.333 C 280.258 41.333,280.333 41.483,280.333 41.667 C 280.333 41.974,280.444 42.000,281.750 42.000 C 282.583 42.000,283.167 41.931,283.167 41.833 C 283.167 41.742,283.273 41.667,283.404 41.667 C 284.012 41.667,284.237 38.028,283.652 37.651 C 283.451 37.522,283.453 37.476,283.667 37.339 C 284.163 37.021,284.011 34.329,283.466 33.784 C 282.938 33.256,280.950 33.119,280.542 33.583 M286.500 33.833 C 286.500 34.108,286.425 34.333,286.333 34.333 C 286.237 34.333,286.166 34.877,286.164 35.625 C 286.163 36.335,286.097 37.019,286.018 37.143 C 285.778 37.523,286.003 38.000,286.422 38.000 C 286.633 38.000,286.849 37.906,286.903 37.792 C 286.981 37.625,287.019 37.625,287.097 37.792 C 287.151 37.906,287.329 38.000,287.493 38.000 C 287.694 38.000,287.826 38.170,287.896 38.521 C 288.173 39.907,287.793 40.500,286.625 40.500 C 285.829 40.500,285.675 40.682,285.669 41.625 C 285.667 41.985,285.724 42.000,287.091 42.000 C 288.605 42.000,288.887 41.865,289.458 40.868 C 289.712 40.426,289.748 37.333,289.500 37.333 C 289.408 37.333,289.333 37.221,289.333 37.083 C 289.333 36.944,289.185 36.833,289.000 36.833 C 288.817 36.833,288.667 36.758,288.667 36.667 C 288.667 36.575,288.479 36.500,288.250 36.500 C 287.868 36.500,287.833 36.438,287.833 35.759 L 287.833 35.017 288.708 34.967 L 289.583 34.917 289.634 34.125 L 289.685 33.333 288.092 33.333 L 286.500 33.333 286.500 33.833 M292.042 33.583 C 291.927 33.713,291.833 34.010,291.833 34.243 C 291.833 34.476,291.758 34.667,291.667 34.667 C 291.575 34.667,291.500 35.004,291.500 35.417 C 291.500 35.829,291.425 36.167,291.333 36.167 C 291.235 36.167,291.167 36.778,291.167 37.667 C 291.167 38.556,291.235 39.167,291.333 39.167 C 291.425 39.167,291.500 39.579,291.500 40.083 C 291.500 40.587,291.575 41.000,291.667 41.000 C 291.758 41.000,291.833 41.135,291.833 41.300 C 291.833 41.825,292.197 42.000,293.291 42.000 C 294.447 42.000,295.167 41.555,295.167 40.841 C 295.167 40.653,295.242 40.500,295.333 40.500 C 295.438 40.500,295.500 39.472,295.500 37.750 C 295.500 36.028,295.438 35.000,295.333 35.000 C 295.242 35.000,295.167 34.809,295.167 34.576 C 295.167 33.538,292.755 32.772,292.042 33.583 M322.000 33.667 C 322.000 33.850,321.925 34.000,321.833 34.000 C 321.742 34.000,321.667 34.150,321.667 34.333 C 321.667 34.517,321.592 34.667,321.500 34.667 C 321.408 34.667,321.333 34.854,321.333 35.083 C 321.333 35.313,321.258 35.500,321.167 35.500 C 321.075 35.500,321.000 35.650,321.000 35.833 C 321.000 36.017,320.925 36.167,320.833 36.167 C 320.742 36.167,320.667 36.317,320.667 36.500 C 320.667 36.683,320.595 36.833,320.508 36.833 C 320.420 36.833,320.299 37.096,320.239 37.417 C 320.179 37.737,320.063 38.000,319.981 38.000 C 319.900 38.000,319.833 38.412,319.833 38.917 L 319.833 39.833 320.917 39.833 L 322.000 39.833 322.000 40.917 L 322.000 42.000 322.750 42.000 L 323.500 42.000 323.500 40.917 C 323.500 39.944,323.534 39.833,323.833 39.833 C 324.117 39.833,324.167 39.722,324.167 39.083 C 324.167 38.444,324.117 38.333,323.833 38.333 C 323.515 38.333,323.500 38.222,323.500 35.833 L 323.500 33.333 322.750 33.333 C 322.111 33.333,322.000 33.383,322.000 33.667 M326.417 33.667 C 326.358 33.850,326.241 34.000,326.155 34.000 C 326.070 34.000,326.000 34.225,326.000 34.500 C 326.000 34.775,325.925 35.000,325.833 35.000 C 325.729 35.000,325.667 36.028,325.667 37.750 C 325.667 39.472,325.729 40.500,325.833 40.500 C 325.925 40.500,326.000 40.688,326.000 40.917 C 326.000 41.146,326.070 41.333,326.155 41.333 C 326.241 41.333,326.358 41.483,326.417 41.667 C 326.654 42.414,329.333 42.042,329.333 41.262 C 329.333 41.118,329.408 41.000,329.500 41.000 C 329.592 41.000,329.667 40.587,329.667 40.083 C 329.667 39.579,329.742 39.167,329.833 39.167 C 329.932 39.167,330.000 38.556,330.000 37.667 C 330.000 36.778,329.932 36.167,329.833 36.167 C 329.742 36.167,329.667 35.754,329.667 35.250 C 329.667 34.746,329.592 34.333,329.500 34.333 C 329.408 34.333,329.333 34.183,329.333 34.000 C 329.333 33.778,329.222 33.667,329.000 33.667 C 328.817 33.667,328.667 33.592,328.667 33.500 C 328.667 33.144,326.532 33.303,326.417 33.667 M332.042 33.583 C 331.927 33.713,331.833 34.010,331.833 34.243 C 331.833 34.476,331.758 34.667,331.667 34.667 C 331.575 34.667,331.500 35.004,331.500 35.417 C 331.500 35.829,331.425 36.167,331.333 36.167 C 331.235 36.167,331.167 36.778,331.167 37.667 C 331.167 38.556,331.235 39.167,331.333 39.167 C 331.425 39.167,331.500 39.579,331.500 40.083 C 331.500 40.587,331.575 41.000,331.667 41.000 C 331.758 41.000,331.833 41.118,331.833 41.262 C 331.833 41.779,332.281 42.000,333.329 42.000 C 334.445 42.000,335.167 41.545,335.167 40.841 C 335.167 40.653,335.242 40.500,335.333 40.500 C 335.438 40.500,335.500 39.472,335.500 37.750 C 335.500 36.028,335.438 35.000,335.333 35.000 C 335.242 35.000,335.167 34.809,335.167 34.576 C 335.167 33.538,332.755 32.772,332.042 33.583 M358.333 33.667 C 358.333 33.850,358.258 34.000,358.167 34.000 C 358.075 34.000,358.000 34.150,358.000 34.333 C 358.000 34.517,357.925 34.667,357.833 34.667 C 357.742 34.667,357.667 34.854,357.667 35.083 C 357.667 35.313,357.592 35.500,357.500 35.500 C 357.408 35.500,357.333 35.650,357.333 35.833 C 357.333 36.017,357.258 36.167,357.167 36.167 C 357.075 36.167,357.000 36.317,357.000 36.500 C 357.000 36.683,356.928 36.833,356.841 36.833 C 356.753 36.833,356.633 37.096,356.572 37.417 C 356.512 37.737,356.396 38.000,356.315 38.000 C 356.233 38.000,356.167 38.412,356.167 38.917 L 356.167 39.833 357.250 39.833 L 358.333 39.833 358.333 40.917 L 358.333 42.000 359.083 42.000 L 359.833 42.000 359.833 40.917 C 359.833 39.944,359.868 39.833,360.167 39.833 C 360.451 39.833,360.500 39.722,360.500 39.083 C 360.500 38.444,360.451 38.333,360.167 38.333 C 359.848 38.333,359.833 38.222,359.833 35.833 L 359.833 33.333 359.083 33.333 C 358.444 33.333,358.333 33.383,358.333 33.667 M362.773 34.107 C 362.714 34.532,362.667 35.352,362.667 35.930 C 362.667 36.508,362.592 37.027,362.500 37.083 C 362.408 37.140,362.333 37.369,362.333 37.593 C 362.333 38.040,363.047 38.197,363.236 37.792 C 363.314 37.625,363.353 37.625,363.431 37.792 C 363.484 37.906,363.672 38.000,363.847 38.000 C 364.056 38.000,364.167 38.116,364.167 38.333 C 364.167 38.517,364.242 38.667,364.333 38.667 C 364.425 38.667,364.500 38.895,364.500 39.174 C 364.500 39.926,363.853 40.500,363.008 40.500 C 362.519 40.500,362.333 40.569,362.333 40.750 C 362.333 40.887,362.258 41.000,362.167 41.000 C 362.075 41.000,362.000 41.225,362.000 41.500 L 362.000 42.000 363.424 42.000 C 364.856 42.000,365.667 41.641,365.667 41.008 C 365.667 40.912,365.742 40.833,365.833 40.833 C 365.934 40.833,366.000 40.139,366.000 39.083 C 366.000 38.028,365.934 37.333,365.833 37.333 C 365.742 37.333,365.667 37.221,365.667 37.083 C 365.667 36.944,365.519 36.833,365.333 36.833 C 365.150 36.833,365.000 36.758,365.000 36.667 C 365.000 36.575,364.813 36.500,364.583 36.500 C 364.201 36.500,364.167 36.439,364.167 35.750 L 364.167 35.000 365.083 35.000 L 366.000 35.000 366.000 34.167 L 366.000 33.333 364.439 33.333 L 362.879 33.333 362.773 34.107 M368.375 33.583 C 368.260 33.713,368.167 34.010,368.167 34.243 C 368.167 34.476,368.092 34.667,368.000 34.667 C 367.908 34.667,367.833 35.004,367.833 35.417 C 367.833 35.829,367.758 36.167,367.667 36.167 C 367.568 36.167,367.500 36.778,367.500 37.667 C 367.500 38.556,367.568 39.167,367.667 39.167 C 367.758 39.167,367.833 39.579,367.833 40.083 C 367.833 40.587,367.908 41.000,368.000 41.000 C 368.092 41.000,368.167 41.118,368.167 41.262 C 368.167 41.779,368.614 42.000,369.662 42.000 C 370.778 42.000,371.500 41.545,371.500 40.841 C 371.500 40.653,371.575 40.500,371.667 40.500 C 371.771 40.500,371.833 39.472,371.833 37.750 C 371.833 36.028,371.771 35.000,371.667 35.000 C 371.575 35.000,371.500 34.809,371.500 34.576 C 371.500 33.538,369.089 32.772,368.375 33.583 M32.236 35.101 C 32.607 35.244,32.630 39.893,32.262 40.262 C 31.939 40.585,31.833 40.561,31.833 40.167 C 31.833 39.983,31.758 39.833,31.667 39.833 C 31.565 39.833,31.500 39.056,31.500 37.833 C 31.500 36.611,31.565 35.833,31.667 35.833 C 31.758 35.833,31.833 35.646,31.833 35.417 C 31.833 34.963,31.847 34.952,32.236 35.101 M69.236 35.101 C 69.607 35.244,69.630 39.893,69.262 40.262 C 68.939 40.585,68.833 40.561,68.833 40.167 C 68.833 39.983,68.758 39.833,68.667 39.833 C 68.565 39.833,68.500 39.056,68.500 37.833 C 68.500 36.611,68.565 35.833,68.667 35.833 C 68.758 35.833,68.833 35.646,68.833 35.417 C 68.833 34.963,68.847 34.952,69.236 35.101 M75.000 35.750 C 75.000 36.162,75.075 36.500,75.167 36.500 C 75.263 36.500,75.333 37.028,75.333 37.750 C 75.333 38.472,75.263 39.000,75.167 39.000 C 75.075 39.000,75.000 39.337,75.000 39.750 C 75.000 40.389,74.951 40.500,74.667 40.500 C 74.256 40.500,74.134 35.275,74.542 35.110 C 74.953 34.945,75.000 35.010,75.000 35.750 M115.667 35.750 C 115.667 36.162,115.742 36.500,115.833 36.500 C 115.930 36.500,116.000 37.028,116.000 37.750 C 116.000 38.472,115.930 39.000,115.833 39.000 C 115.742 39.000,115.667 39.337,115.667 39.750 C 115.667 40.389,115.617 40.500,115.333 40.500 C 114.922 40.500,114.801 35.275,115.208 35.110 C 115.619 34.945,115.667 35.010,115.667 35.750 M153.570 35.101 C 153.941 35.244,153.964 39.893,153.595 40.262 C 153.272 40.585,153.167 40.561,153.167 40.167 C 153.167 39.983,153.092 39.833,153.000 39.833 C 152.898 39.833,152.833 39.056,152.833 37.833 C 152.833 36.611,152.898 35.833,153.000 35.833 C 153.092 35.833,153.167 35.646,153.167 35.417 C 153.167 34.963,153.181 34.952,153.570 35.101 M159.333 35.750 C 159.333 36.162,159.408 36.500,159.500 36.500 C 159.596 36.500,159.667 37.028,159.667 37.750 C 159.667 38.472,159.596 39.000,159.500 39.000 C 159.408 39.000,159.333 39.337,159.333 39.750 C 159.333 40.389,159.284 40.500,159.000 40.500 C 158.589 40.500,158.468 35.275,158.875 35.110 C 159.286 34.945,159.333 35.010,159.333 35.750 M203.667 35.750 C 203.667 36.162,203.742 36.500,203.833 36.500 C 203.930 36.500,204.000 37.028,204.000 37.750 C 204.000 38.472,203.930 39.000,203.833 39.000 C 203.742 39.000,203.667 39.337,203.667 39.750 C 203.667 40.389,203.617 40.500,203.333 40.500 C 202.922 40.500,202.801 35.275,203.208 35.110 C 203.619 34.945,203.667 35.010,203.667 35.750 M243.630 37.473 C 243.655 38.772,243.607 40.078,243.522 40.376 L 243.368 40.917 243.247 40.375 C 243.180 40.077,243.059 39.833,242.979 39.833 C 242.774 39.833,242.794 35.877,243.000 35.750 C 243.092 35.693,243.167 35.495,243.167 35.310 C 243.167 35.114,243.254 35.001,243.375 35.041 C 243.526 35.091,243.596 35.765,243.630 37.473 M249.410 36.396 C 249.586 38.505,249.376 40.500,248.978 40.500 C 248.687 40.500,248.667 40.328,248.667 37.847 C 248.667 35.260,248.701 35.074,249.189 35.013 C 249.247 35.006,249.346 35.628,249.410 36.396 M293.667 35.750 C 293.667 36.162,293.742 36.500,293.833 36.500 C 293.930 36.500,294.000 37.028,294.000 37.750 C 294.000 38.472,293.930 39.000,293.833 39.000 C 293.742 39.000,293.667 39.337,293.667 39.750 C 293.667 40.389,293.617 40.500,293.333 40.500 C 292.922 40.500,292.801 35.275,293.208 35.110 C 293.619 34.945,293.667 35.010,293.667 35.750 M327.903 35.101 C 328.274 35.244,328.297 39.893,327.929 40.262 C 327.606 40.585,327.500 40.561,327.500 40.167 C 327.500 39.983,327.425 39.833,327.333 39.833 C 327.231 39.833,327.167 39.056,327.167 37.833 C 327.167 36.611,327.231 35.833,327.333 35.833 C 327.425 35.833,327.500 35.646,327.500 35.417 C 327.500 34.963,327.514 34.952,327.903 35.101 M333.667 35.750 C 333.667 36.162,333.742 36.500,333.833 36.500 C 333.930 36.500,334.000 37.028,334.000 37.750 C 334.000 38.472,333.930 39.000,333.833 39.000 C 333.742 39.000,333.667 39.337,333.667 39.750 C 333.667 40.389,333.617 40.500,333.333 40.500 C 332.922 40.500,332.801 35.275,333.208 35.110 C 333.619 34.945,333.667 35.010,333.667 35.750 M370.000 35.750 C 370.000 36.162,370.075 36.500,370.167 36.500 C 370.263 36.500,370.333 37.028,370.333 37.750 C 370.333 38.472,370.263 39.000,370.167 39.000 C 370.075 39.000,370.000 39.337,370.000 39.750 C 370.000 40.389,369.951 40.500,369.667 40.500 C 369.256 40.500,369.134 35.275,369.542 35.110 C 369.953 34.945,370.000 35.010,370.000 35.750 M322.000 37.917 C 322.000 38.146,321.925 38.333,321.833 38.333 C 321.647 38.333,321.605 37.784,321.778 37.611 C 321.962 37.427,322.000 37.480,322.000 37.917 M358.333 37.917 C 358.333 38.146,358.258 38.333,358.167 38.333 C 357.980 38.333,357.938 37.784,358.111 37.611 C 358.295 37.427,358.333 37.480,358.333 37.917 " stroke="none" fill="#040404" fill-rule="evenodd"></path><path id="path4" d="M93.994 18.542 C 93.990 18.656,93.993 21.245,94.000 24.295 C 94.011 29.477,93.993 29.846,93.714 29.937 C 93.551 29.991,93.192 30.137,92.917 30.263 L 92.417 30.492 93.167 30.522 L 93.917 30.552 93.083 30.653 C 90.665 30.944,115.569 31.111,121.167 30.842 C 122.496 30.778,123.283 30.704,122.917 30.679 C 122.168 30.628,121.282 30.384,121.667 30.335 C 121.804 30.318,121.671 30.232,121.371 30.146 L 120.825 29.988 120.842 24.369 L 120.858 18.750 120.471 18.544 C 119.902 18.242,94.003 18.239,93.994 18.542 M121.333 18.500 C 121.333 18.698,121.623 18.698,122.083 18.500 C 122.363 18.380,122.329 18.355,121.875 18.345 C 121.577 18.339,121.333 18.408,121.333 18.500 " stroke="none" fill="#2e5feb" fill-rule="evenodd"></path><path id="path5" d="M24.944 18.444 C 24.612 18.777,24.830 30.653,25.172 30.836 C 25.402 30.959,27.406 31.006,31.380 30.983 C 37.437 30.947,39.455 30.833,38.667 30.573 L 38.250 30.435 38.654 30.338 C 39.221 30.202,39.301 29.833,38.764 29.833 L 38.333 29.833 38.333 24.333 C 38.333 21.308,38.331 18.777,38.328 18.708 C 38.325 18.640,38.606 18.538,38.953 18.482 C 39.300 18.426,36.315 18.370,32.319 18.357 C 28.324 18.344,25.006 18.383,24.944 18.444 " stroke="none" fill="#a36c1e" fill-rule="evenodd"></path><path id="path6" d="M150.083 18.430 C 149.974 18.475,149.946 20.495,150.000 24.250 C 150.046 27.413,150.024 30.000,149.951 30.000 C 149.267 29.999,150.069 30.606,150.917 30.730 C 152.139 30.909,303.276 31.054,303.098 30.876 C 303.029 30.807,296.526 30.712,288.647 30.667 C 276.154 30.594,274.301 30.551,274.165 30.333 C 274.037 30.128,274.150 30.068,274.796 29.997 C 276.080 29.856,276.000 30.246,276.000 24.157 L 276.000 18.667 282.500 18.667 C 286.722 18.667,289.000 18.608,289.000 18.500 C 289.000 18.338,150.467 18.268,150.083 18.430 M272.833 30.000 C 273.000 30.108,273.014 30.162,272.875 30.164 C 272.760 30.166,272.667 30.279,272.667 30.417 C 272.667 30.855,266.569 30.783,266.454 30.343 C 266.408 30.165,266.411 29.977,266.463 29.926 C 266.626 29.763,272.573 29.832,272.833 30.000 " stroke="none" fill="#7242fb" fill-rule="evenodd"></path><path id="path7" d="M120.471 18.544 L 120.858 18.750 120.842 24.369 L 120.825 29.988 121.371 30.146 C 121.671 30.232,121.804 30.318,121.667 30.335 C 121.288 30.383,122.160 30.627,122.917 30.684 C 123.283 30.712,122.608 30.779,121.417 30.833 C 120.225 30.888,126.750 30.938,135.917 30.946 C 145.083 30.954,152.358 30.903,152.083 30.833 C 151.808 30.763,151.206 30.697,150.744 30.686 C 150.031 30.670,149.900 30.616,149.879 30.333 C 149.865 30.150,149.906 30.000,149.969 30.000 C 150.032 30.000,150.046 27.413,150.000 24.250 C 149.946 20.495,149.974 18.475,150.083 18.430 C 150.523 18.245,122.523 18.343,121.992 18.528 C 121.568 18.676,121.420 18.676,121.370 18.528 C 121.335 18.421,121.031 18.334,120.694 18.336 C 120.111 18.338,120.101 18.348,120.471 18.544 " stroke="none" fill="#5034ec" fill-rule="evenodd"></path><path id="path8" d="M291.833 18.501 C 293.438 18.563,305.511 18.627,318.663 18.645 C 333.857 18.665,342.635 18.735,342.738 18.838 C 342.951 19.051,344.451 19.047,344.583 18.833 C 344.746 18.570,359.145 18.610,359.712 18.875 L 360.157 19.083 360.203 24.451 L 360.250 29.819 359.333 29.868 C 358.829 29.895,354.929 29.879,350.667 29.833 C 344.574 29.768,342.888 29.794,342.783 29.958 C 342.678 30.123,338.987 30.167,325.234 30.167 C 308.740 30.167,307.821 30.182,307.868 30.458 C 307.912 30.722,307.681 30.759,305.500 30.840 C 304.171 30.890,318.627 30.946,337.625 30.965 C 359.819 30.988,372.167 30.942,372.167 30.839 C 372.167 30.750,372.260 30.713,372.375 30.757 C 372.540 30.820,372.575 29.539,372.545 24.627 C 372.510 18.986,372.481 18.411,372.229 18.358 C 372.011 18.312,371.983 18.365,372.101 18.608 C 372.460 19.351,372.370 29.833,372.004 29.833 C 371.819 29.833,371.667 29.908,371.667 30.000 C 371.667 30.092,371.742 30.167,371.833 30.167 C 371.925 30.167,372.000 30.317,372.000 30.500 C 372.000 30.921,370.935 30.985,370.707 30.578 C 370.586 30.361,370.042 30.323,367.115 30.326 C 364.173 30.328,363.667 30.293,363.667 30.081 C 363.667 29.893,363.455 29.833,362.792 29.833 L 361.917 29.833 361.963 24.417 L 362.009 19.000 362.629 18.996 C 368.507 18.959,370.292 18.837,370.076 18.488 C 370.017 18.393,354.317 18.344,329.448 18.362 C 307.156 18.377,290.229 18.440,291.833 18.501 M363.667 30.583 C 363.667 30.866,358.603 30.969,358.431 30.690 C 358.243 30.386,358.638 30.333,361.111 30.333 C 363.272 30.333,363.667 30.372,363.667 30.583 M268.050 30.624 C 268.949 30.654,270.374 30.654,271.217 30.624 C 272.060 30.594,271.325 30.569,269.583 30.569 C 267.842 30.570,267.152 30.594,268.050 30.624 " stroke="none" fill="#8c44fc" fill-rule="evenodd"></path></g></svg>