<svg id="svg" version="1.1" xmlns="http://www.w3.org/2000/svg" xmlns:xlink="http://www.w3.org/1999/xlink" width="400" height="48.03695150115474" viewBox="0, 0, 400,48.03695150115474"><g id="svgg"><path id="path0" d="M68.178 18.495 C 65.751 18.569,64.753 18.656,64.706 18.799 C 64.669 18.910,64.420 19.000,64.153 19.000 L 63.667 19.000 63.667 24.637 L 63.667 30.274 65.042 30.488 C 66.075 30.649,71.986 30.734,88.833 30.833 C 115.768 30.990,147.926 30.985,142.250 30.825 C 140.050 30.763,137.931 30.702,137.542 30.689 L 136.833 30.667 136.833 24.764 L 136.833 18.862 138.101 18.743 C 138.907 18.667,139.286 18.572,139.142 18.481 C 138.889 18.321,73.477 18.333,68.178 18.495 " stroke="none" fill="#3a6494" fill-rule="evenodd"></path><path id="path1" d="M27.375 30.958 C 28.544 30.987,30.456 30.987,31.625 30.958 C 32.794 30.929,31.837 30.906,29.500 30.906 C 27.162 30.906,26.206 30.929,27.375 30.958 M26.708 33.754 C 26.502 33.975,26.333 34.270,26.333 34.411 C 26.333 34.551,26.258 34.667,26.167 34.667 C 25.911 34.667,25.948 40.322,26.208 40.882 C 26.323 41.129,26.473 41.331,26.542 41.332 C 26.610 41.333,26.667 41.483,26.667 41.667 C 26.667 41.972,26.778 42.000,28.000 42.000 C 29.222 42.000,29.333 41.972,29.333 41.667 C 29.333 41.483,29.408 41.333,29.500 41.333 C 29.592 41.333,29.667 41.221,29.667 41.083 C 29.667 40.946,29.742 40.833,29.833 40.833 C 29.938 40.833,30.000 39.694,30.000 37.750 C 30.000 35.806,29.938 34.667,29.833 34.667 C 29.742 34.667,29.667 34.555,29.667 34.418 C 29.667 33.376,27.514 32.893,26.708 33.754 M32.042 33.583 C 31.927 33.713,31.833 33.935,31.833 34.076 C 31.833 34.218,31.758 34.333,31.667 34.333 C 31.426 34.333,31.460 36.435,31.708 36.871 C 32.084 37.532,32.301 37.667,32.988 37.667 C 33.653 37.667,33.975 38.123,33.513 38.409 C 33.428 38.461,33.310 38.728,33.250 39.002 C 33.189 39.276,33.071 39.500,32.987 39.500 C 32.902 39.500,32.833 39.650,32.833 39.833 C 32.833 40.017,32.758 40.167,32.667 40.167 C 32.575 40.167,32.500 40.317,32.500 40.500 C 32.500 40.683,32.444 40.834,32.375 40.835 C 32.247 40.836,31.833 41.625,31.833 41.867 C 31.833 41.940,32.171 42.000,32.583 42.000 C 33.222 42.000,33.333 41.951,33.333 41.667 C 33.333 41.483,33.408 41.333,33.500 41.333 C 33.592 41.333,33.667 41.221,33.667 41.083 C 33.667 40.946,33.742 40.833,33.833 40.833 C 33.925 40.833,34.000 40.683,34.000 40.500 C 34.000 40.317,34.075 40.167,34.167 40.167 C 34.258 40.167,34.333 40.017,34.333 39.833 C 34.333 39.650,34.408 39.500,34.500 39.500 C 34.592 39.500,34.667 39.837,34.667 40.250 C 34.667 40.662,34.742 41.000,34.833 41.000 C 34.925 41.000,35.000 41.150,35.000 41.333 C 35.000 41.517,35.070 41.667,35.155 41.667 C 35.241 41.667,35.358 41.817,35.417 42.000 C 35.667 42.790,37.333 42.188,37.333 41.308 C 37.333 41.139,37.408 41.000,37.500 41.000 C 37.593 41.000,37.667 40.556,37.667 40.000 C 37.667 39.450,37.601 39.000,37.521 39.000 C 37.441 39.000,37.330 38.775,37.275 38.500 C 37.178 38.017,37.144 38.000,36.251 38.000 L 35.327 38.000 35.439 37.542 C 35.501 37.290,35.615 37.058,35.692 37.028 C 35.770 36.997,35.833 36.866,35.833 36.736 C 35.833 36.606,35.908 36.500,36.000 36.500 C 36.092 36.500,36.167 36.350,36.167 36.167 C 36.167 35.983,36.242 35.833,36.333 35.833 C 36.425 35.833,36.500 35.683,36.500 35.500 C 36.500 35.317,36.556 35.166,36.625 35.165 C 36.827 35.163,37.167 34.307,37.167 33.800 C 37.167 33.367,37.119 33.333,36.500 33.333 C 35.944 33.333,35.833 33.389,35.833 33.667 C 35.833 33.850,35.767 34.000,35.685 34.000 C 35.604 34.000,35.488 34.262,35.428 34.583 C 35.367 34.904,35.247 35.167,35.159 35.167 C 35.072 35.167,35.000 35.317,35.000 35.500 C 35.000 35.683,34.925 35.833,34.833 35.833 C 34.742 35.833,34.667 35.983,34.667 36.167 C 34.667 36.350,34.592 36.500,34.500 36.500 C 34.403 36.500,34.333 35.940,34.333 35.155 C 34.333 34.211,34.262 33.738,34.095 33.571 C 33.782 33.258,32.320 33.266,32.042 33.583 M53.167 34.167 C 53.167 34.796,53.228 35.000,53.417 35.000 C 53.631 35.000,53.667 35.500,53.667 38.500 L 53.667 42.000 54.500 42.000 L 55.333 42.000 55.333 37.667 L 55.333 33.333 54.250 33.333 L 53.167 33.333 53.167 34.167 M58.708 33.754 C 58.502 33.975,58.333 34.345,58.333 34.577 C 58.333 34.810,58.258 35.000,58.167 35.000 C 58.062 35.000,58.000 36.028,58.000 37.750 C 58.000 39.472,58.062 40.500,58.167 40.500 C 58.258 40.500,58.333 40.653,58.333 40.841 C 58.333 41.555,59.053 42.000,60.209 42.000 C 61.303 42.000,61.667 41.825,61.667 41.300 C 61.667 41.135,61.742 41.000,61.833 41.000 C 61.925 41.000,62.000 40.587,62.000 40.083 C 62.000 39.579,62.075 39.167,62.167 39.167 C 62.265 39.167,62.333 38.556,62.333 37.667 C 62.333 36.778,62.265 36.167,62.167 36.167 C 62.075 36.167,62.000 35.754,62.000 35.250 C 62.000 34.746,61.925 34.333,61.833 34.333 C 61.742 34.333,61.667 34.183,61.667 34.000 C 61.667 33.815,61.556 33.667,61.417 33.667 C 61.279 33.667,61.167 33.592,61.167 33.500 C 61.167 33.118,59.104 33.332,58.708 33.754 M64.004 33.623 C 63.823 33.827,63.756 34.329,63.754 35.504 C 63.749 37.450,63.890 37.667,65.155 37.667 C 65.620 37.667,66.000 37.742,66.000 37.833 C 66.000 37.925,65.933 38.000,65.852 38.000 C 65.770 38.000,65.655 38.262,65.594 38.583 C 65.534 38.904,65.413 39.167,65.326 39.167 C 65.238 39.167,65.167 39.317,65.167 39.500 C 65.167 39.683,65.092 39.833,65.000 39.833 C 64.908 39.833,64.833 39.983,64.833 40.167 C 64.833 40.350,64.777 40.501,64.708 40.501 C 64.539 40.503,64.167 41.327,64.167 41.700 C 64.167 42.355,65.445 42.097,65.572 41.417 C 65.633 41.096,65.753 40.833,65.841 40.833 C 65.928 40.833,66.000 40.683,66.000 40.500 C 66.000 40.317,66.075 40.167,66.167 40.167 C 66.258 40.167,66.333 40.017,66.333 39.833 C 66.333 39.650,66.408 39.500,66.500 39.500 C 66.592 39.500,66.667 39.387,66.667 39.250 C 66.667 39.112,66.742 39.000,66.833 39.000 C 66.930 39.000,67.000 39.530,67.000 40.258 C 67.000 41.748,67.389 42.337,68.367 42.328 C 69.359 42.318,69.556 42.014,69.631 40.375 C 69.728 38.247,69.593 38.000,68.337 38.000 C 67.779 38.000,67.333 37.926,67.333 37.833 C 67.333 37.742,67.400 37.667,67.481 37.667 C 67.563 37.667,67.679 37.404,67.739 37.083 C 67.799 36.762,67.920 36.500,68.008 36.500 C 68.095 36.500,68.167 36.350,68.167 36.167 C 68.167 35.983,68.242 35.833,68.333 35.833 C 68.425 35.833,68.500 35.683,68.500 35.500 C 68.500 35.317,68.575 35.167,68.667 35.167 C 68.758 35.167,68.833 35.054,68.833 34.917 C 68.833 34.779,68.908 34.667,69.000 34.667 C 69.092 34.667,69.167 34.523,69.167 34.347 C 69.167 34.172,69.255 33.998,69.363 33.962 C 69.896 33.785,69.320 33.315,68.632 33.365 C 67.984 33.413,67.914 33.464,67.766 34.000 C 67.677 34.321,67.556 34.621,67.497 34.667 C 67.438 34.712,67.284 34.994,67.154 35.292 C 66.848 35.995,66.667 35.979,66.667 35.250 C 66.667 34.929,66.592 34.667,66.500 34.667 C 66.408 34.667,66.333 34.474,66.333 34.238 C 66.333 33.368,64.630 32.919,64.004 33.623 M85.042 33.583 C 84.927 33.713,84.833 34.010,84.833 34.243 C 84.833 34.476,84.758 34.667,84.667 34.667 C 84.575 34.667,84.500 35.079,84.500 35.583 L 84.500 36.500 85.250 36.500 C 85.972 36.500,86.000 36.481,86.000 36.000 C 86.000 35.725,86.075 35.500,86.167 35.500 C 86.258 35.500,86.333 35.387,86.333 35.250 C 86.333 35.111,86.481 35.000,86.667 35.000 C 86.937 35.000,87.000 35.111,87.000 35.583 C 87.000 35.904,86.925 36.167,86.833 36.167 C 86.742 36.167,86.667 36.304,86.667 36.472 C 86.667 36.640,86.479 37.146,86.251 37.597 C 86.022 38.048,85.834 38.548,85.834 38.708 C 85.834 38.869,85.758 39.000,85.667 39.000 C 85.575 39.000,85.500 39.188,85.500 39.417 C 85.500 39.646,85.425 39.833,85.333 39.833 C 85.242 39.833,85.167 39.983,85.167 40.167 C 85.167 40.350,85.110 40.501,85.042 40.501 C 84.873 40.503,84.500 41.327,84.500 41.700 C 84.500 41.972,84.685 42.000,86.500 42.000 L 88.500 42.000 88.500 41.250 L 88.500 40.500 87.750 40.500 C 87.111 40.500,87.000 40.451,87.000 40.167 C 87.000 39.983,87.075 39.833,87.167 39.833 C 87.258 39.833,87.333 39.683,87.333 39.500 C 87.333 39.317,87.405 39.167,87.492 39.167 C 87.580 39.167,87.701 38.904,87.761 38.583 C 87.821 38.262,87.937 38.000,88.019 38.000 C 88.100 38.000,88.167 37.775,88.167 37.500 C 88.167 37.225,88.242 37.000,88.333 37.000 C 88.736 37.000,88.526 34.177,88.091 33.742 C 87.601 33.252,85.433 33.139,85.042 33.583 M90.708 33.754 C 90.502 33.975,90.333 34.341,90.333 34.568 C 90.333 34.795,90.258 35.027,90.167 35.083 C 90.067 35.145,90.000 36.221,90.000 37.750 C 90.000 39.279,90.067 40.355,90.167 40.417 C 90.258 40.473,90.333 40.669,90.333 40.851 C 90.333 42.076,93.193 42.566,93.731 41.433 C 93.879 41.121,94.000 40.484,94.000 40.016 C 94.000 39.549,94.075 39.167,94.167 39.167 C 94.265 39.167,94.333 38.556,94.333 37.667 C 94.333 36.778,94.265 36.167,94.167 36.167 C 94.075 36.167,94.000 35.797,94.000 35.344 C 94.000 34.349,93.765 33.667,93.421 33.667 C 93.281 33.667,93.167 33.592,93.167 33.500 C 93.167 33.118,91.104 33.332,90.708 33.754 M96.200 33.533 C 96.090 33.643,96.000 33.943,96.000 34.200 C 96.000 34.457,95.925 34.667,95.833 34.667 C 95.742 34.667,95.667 35.079,95.667 35.583 C 95.667 36.087,95.742 36.500,95.833 36.500 C 95.925 36.500,96.000 36.644,96.000 36.820 C 96.000 37.537,96.169 37.667,97.104 37.667 C 97.959 37.667,98.343 38.362,97.641 38.639 C 97.563 38.669,97.500 38.801,97.500 38.931 C 97.500 39.060,97.425 39.167,97.333 39.167 C 97.242 39.167,97.167 39.317,97.167 39.500 C 97.167 39.683,97.092 39.833,97.000 39.833 C 96.908 39.833,96.833 39.983,96.833 40.167 C 96.833 40.350,96.777 40.501,96.708 40.501 C 96.539 40.503,96.167 41.327,96.167 41.700 C 96.167 41.939,96.302 42.000,96.833 42.000 C 97.389 42.000,97.500 41.944,97.500 41.667 C 97.500 41.483,97.572 41.333,97.659 41.333 C 97.747 41.333,97.867 41.071,97.928 40.750 C 97.988 40.429,98.104 40.167,98.185 40.167 C 98.267 40.167,98.333 40.017,98.333 39.833 C 98.333 39.650,98.408 39.500,98.500 39.500 C 98.592 39.500,98.667 39.387,98.667 39.250 C 98.667 39.112,98.742 39.000,98.833 39.000 C 98.930 39.000,99.000 39.530,99.000 40.258 C 99.000 41.371,99.047 41.562,99.409 41.924 C 100.099 42.614,101.500 42.394,101.500 41.595 C 101.500 41.451,101.575 41.333,101.667 41.333 C 101.764 41.333,101.833 40.778,101.833 40.000 C 101.833 39.222,101.764 38.667,101.667 38.667 C 101.575 38.667,101.500 38.517,101.500 38.333 C 101.500 38.034,101.389 38.000,100.417 38.000 C 99.806 38.000,99.333 37.927,99.333 37.833 C 99.333 37.742,99.408 37.667,99.500 37.667 C 99.592 37.667,99.667 37.517,99.667 37.333 C 99.667 37.150,99.738 37.000,99.826 37.000 C 99.913 37.000,100.034 36.737,100.094 36.417 C 100.155 36.096,100.270 35.833,100.352 35.833 C 100.433 35.833,100.500 35.683,100.500 35.500 C 100.500 35.317,100.575 35.167,100.667 35.167 C 100.758 35.167,100.833 35.054,100.833 34.917 C 100.833 34.779,100.908 34.667,101.000 34.667 C 101.092 34.667,101.167 34.523,101.167 34.347 C 101.167 34.172,101.255 33.998,101.363 33.962 C 101.473 33.926,101.512 33.772,101.452 33.615 C 101.282 33.172,100.000 33.218,100.000 33.667 C 100.000 33.850,99.925 34.000,99.833 34.000 C 99.742 34.000,99.667 34.150,99.667 34.333 C 99.667 34.517,99.606 34.667,99.531 34.667 C 99.457 34.667,99.293 34.929,99.167 35.250 C 99.041 35.571,98.877 35.833,98.802 35.833 C 98.728 35.833,98.667 35.571,98.667 35.250 C 98.667 34.929,98.592 34.667,98.500 34.667 C 98.408 34.667,98.333 34.474,98.333 34.238 C 98.333 33.435,96.804 32.930,96.200 33.533 M119.667 33.667 C 119.667 33.850,119.592 34.000,119.500 34.000 C 119.408 34.000,119.333 34.225,119.333 34.500 C 119.333 34.775,119.258 35.000,119.167 35.000 C 119.075 35.000,119.000 35.262,119.000 35.583 C 119.000 36.164,119.004 36.167,119.750 36.167 C 120.466 36.167,120.500 36.145,120.500 35.684 C 120.500 35.181,120.814 34.939,121.250 35.106 C 121.951 35.375,121.390 36.833,120.586 36.833 C 119.900 36.833,120.016 38.223,120.708 38.303 C 120.971 38.333,121.167 38.458,121.167 38.594 C 121.167 38.726,121.242 38.833,121.333 38.833 C 121.589 38.833,121.531 39.993,121.262 40.262 C 120.850 40.673,120.500 40.553,120.500 40.000 C 120.500 39.519,120.472 39.500,119.750 39.500 L 119.000 39.500 119.000 40.341 C 119.000 41.623,119.455 42.000,121.004 42.000 C 122.224 42.000,122.667 41.803,122.667 41.262 C 122.667 41.118,122.742 41.000,122.833 41.000 C 122.932 41.000,123.000 40.389,123.000 39.500 C 123.000 38.611,122.932 38.000,122.833 38.000 C 122.742 38.000,122.667 37.775,122.667 37.500 C 122.667 37.225,122.742 37.000,122.833 37.000 C 122.931 37.000,123.000 36.444,123.000 35.667 C 123.000 34.889,122.931 34.333,122.833 34.333 C 122.742 34.333,122.667 34.215,122.667 34.071 C 122.667 33.520,122.226 33.333,120.929 33.333 C 119.778 33.333,119.667 33.363,119.667 33.667 M125.208 33.754 C 125.002 33.975,124.833 34.345,124.833 34.577 C 124.833 34.810,124.758 35.000,124.667 35.000 C 124.563 35.000,124.500 35.997,124.500 37.657 C 124.500 39.248,124.567 40.355,124.667 40.417 C 124.758 40.473,124.833 40.669,124.833 40.851 C 124.833 41.577,125.555 42.000,126.795 42.000 L 127.938 42.000 128.219 41.411 C 128.374 41.087,128.500 40.450,128.500 39.994 C 128.500 39.539,128.575 39.167,128.667 39.167 C 128.765 39.167,128.833 38.556,128.833 37.667 C 128.833 36.778,128.765 36.167,128.667 36.167 C 128.575 36.167,128.500 35.795,128.500 35.341 C 128.500 34.416,128.227 33.667,127.890 33.667 C 127.767 33.667,127.667 33.592,127.667 33.500 C 127.667 33.118,125.604 33.332,125.208 33.754 M130.486 33.776 C 130.334 34.060,130.250 34.734,130.250 35.663 C 130.251 37.435,130.414 37.667,131.658 37.667 C 132.464 37.667,132.814 38.373,132.141 38.639 C 132.063 38.669,132.000 38.801,132.000 38.931 C 132.000 39.060,131.925 39.167,131.833 39.167 C 131.742 39.167,131.667 39.317,131.667 39.500 C 131.667 39.683,131.592 39.833,131.500 39.833 C 131.408 39.833,131.333 39.983,131.333 40.167 C 131.333 40.350,131.277 40.501,131.208 40.501 C 131.039 40.503,130.667 41.327,130.667 41.700 C 130.667 41.939,130.802 42.000,131.333 42.000 C 131.889 42.000,132.000 41.944,132.000 41.667 C 132.000 41.483,132.072 41.333,132.159 41.333 C 132.247 41.333,132.367 41.071,132.428 40.750 C 132.488 40.429,132.604 40.167,132.685 40.167 C 132.767 40.167,132.833 40.017,132.833 39.833 C 132.833 39.650,132.908 39.500,133.000 39.500 C 133.092 39.500,133.167 39.387,133.167 39.250 C 133.167 39.112,133.242 39.000,133.333 39.000 C 133.430 39.000,133.500 39.530,133.500 40.258 C 133.500 41.371,133.547 41.562,133.909 41.924 C 134.594 42.609,136.000 42.395,136.000 41.605 C 136.000 41.466,136.075 41.307,136.167 41.250 C 136.433 41.085,136.364 39.113,136.071 38.526 C 135.821 38.025,135.763 38.000,134.821 38.000 C 134.274 38.000,133.833 37.926,133.833 37.833 C 133.833 37.742,133.900 37.667,133.981 37.667 C 134.063 37.667,134.179 37.404,134.239 37.083 C 134.299 36.762,134.420 36.500,134.508 36.500 C 134.595 36.500,134.667 36.350,134.667 36.167 C 134.667 35.983,134.742 35.833,134.833 35.833 C 134.925 35.833,135.000 35.683,135.000 35.500 C 135.000 35.317,135.075 35.167,135.167 35.167 C 135.258 35.167,135.333 35.054,135.333 34.917 C 135.333 34.779,135.408 34.667,135.500 34.667 C 135.592 34.667,135.667 34.523,135.667 34.347 C 135.667 34.172,135.755 33.998,135.863 33.962 C 136.332 33.806,135.832 33.333,135.199 33.333 C 134.548 33.333,134.167 33.736,134.167 34.425 C 134.167 34.558,134.106 34.667,134.031 34.667 C 133.957 34.667,133.793 34.929,133.667 35.250 C 133.541 35.571,133.377 35.833,133.302 35.833 C 133.228 35.833,133.167 35.571,133.167 35.250 C 133.167 34.929,133.092 34.667,133.000 34.667 C 132.908 34.667,132.833 34.474,132.833 34.238 C 132.833 33.249,130.965 32.881,130.486 33.776 M153.611 33.444 C 153.550 33.506,153.500 33.731,153.500 33.944 C 153.500 34.158,153.425 34.333,153.333 34.333 C 153.242 34.333,153.167 34.477,153.167 34.653 C 153.167 34.828,153.110 34.997,153.042 35.028 C 152.847 35.114,152.333 36.307,152.333 36.672 C 152.333 36.853,152.258 37.000,152.167 37.000 C 152.075 37.000,152.000 37.150,152.000 37.333 C 152.000 37.517,151.925 37.667,151.833 37.667 C 151.742 37.667,151.667 37.817,151.667 38.000 C 151.667 38.183,151.592 38.333,151.500 38.333 C 151.408 38.333,151.333 38.671,151.333 39.083 L 151.333 39.833 152.583 39.833 L 153.833 39.833 153.833 40.917 L 153.833 42.000 154.583 42.000 L 155.333 42.000 155.333 40.917 C 155.333 40.306,155.406 39.833,155.500 39.833 C 155.592 39.833,155.667 39.496,155.667 39.083 C 155.667 38.671,155.592 38.333,155.500 38.333 C 155.396 38.333,155.333 37.389,155.333 35.833 L 155.333 33.333 154.528 33.333 C 154.085 33.333,153.672 33.383,153.611 33.444 M157.875 33.754 C 157.669 33.975,157.500 34.345,157.500 34.577 C 157.500 34.810,157.425 35.000,157.333 35.000 C 157.229 35.000,157.167 36.028,157.167 37.750 C 157.167 39.472,157.229 40.500,157.333 40.500 C 157.425 40.500,157.500 40.653,157.500 40.841 C 157.500 41.555,158.220 42.000,159.376 42.000 C 160.470 42.000,160.833 41.825,160.833 41.300 C 160.833 41.135,160.908 41.000,161.000 41.000 C 161.092 41.000,161.167 40.587,161.167 40.083 C 161.167 39.579,161.242 39.167,161.333 39.167 C 161.432 39.167,161.500 38.556,161.500 37.667 C 161.500 36.778,161.432 36.167,161.333 36.167 C 161.242 36.167,161.167 35.754,161.167 35.250 C 161.167 34.746,161.092 34.333,161.000 34.333 C 160.908 34.333,160.833 34.183,160.833 34.000 C 160.833 33.815,160.722 33.667,160.583 33.667 C 160.446 33.667,160.333 33.592,160.333 33.500 C 160.333 33.118,158.271 33.332,157.875 33.754 M163.208 33.583 C 163.094 33.713,163.000 34.010,163.000 34.243 C 163.000 34.476,162.925 34.667,162.833 34.667 C 162.742 34.667,162.667 35.037,162.667 35.490 C 162.667 35.943,162.742 36.360,162.833 36.417 C 162.925 36.473,163.000 36.671,163.000 36.855 C 163.000 37.414,163.411 37.667,164.321 37.667 C 164.786 37.667,165.167 37.742,165.167 37.833 C 165.167 37.925,165.100 38.000,165.019 38.000 C 164.937 38.000,164.821 38.262,164.761 38.583 C 164.701 38.904,164.580 39.167,164.492 39.167 C 164.405 39.167,164.333 39.317,164.333 39.500 C 164.333 39.683,164.258 39.833,164.167 39.833 C 164.075 39.833,164.000 39.983,164.000 40.167 C 164.000 40.350,163.944 40.501,163.875 40.501 C 163.706 40.503,163.333 41.327,163.333 41.700 C 163.333 42.355,164.611 42.097,164.739 41.417 C 164.799 41.096,164.920 40.833,165.008 40.833 C 165.095 40.833,165.167 40.683,165.167 40.500 C 165.167 40.317,165.242 40.167,165.333 40.167 C 165.425 40.167,165.500 40.017,165.500 39.833 C 165.500 39.650,165.575 39.500,165.667 39.500 C 165.758 39.500,165.833 39.387,165.833 39.250 C 165.833 39.112,165.908 39.000,166.000 39.000 C 166.096 39.000,166.167 39.527,166.167 40.249 C 166.167 41.788,166.517 42.333,167.504 42.333 C 168.456 42.333,168.737 41.898,168.809 40.311 C 168.899 38.321,168.715 38.000,167.477 38.000 L 166.494 38.000 166.606 37.542 C 166.668 37.290,166.782 37.058,166.859 37.028 C 166.937 36.997,167.000 36.866,167.000 36.736 C 167.000 36.606,167.075 36.500,167.167 36.500 C 167.258 36.500,167.333 36.350,167.333 36.167 C 167.333 35.983,167.408 35.833,167.500 35.833 C 167.592 35.833,167.667 35.683,167.667 35.500 C 167.667 35.317,167.742 35.167,167.833 35.167 C 167.925 35.167,168.000 35.054,168.000 34.917 C 168.000 34.779,168.075 34.667,168.167 34.667 C 168.258 34.667,168.333 34.532,168.333 34.367 C 168.333 34.202,168.417 33.983,168.519 33.881 C 168.825 33.575,168.521 33.333,167.831 33.333 C 167.128 33.333,167.249 33.174,166.286 35.375 C 166.012 36.000,165.833 35.951,165.833 35.250 C 165.833 34.929,165.758 34.667,165.667 34.667 C 165.575 34.667,165.500 34.474,165.500 34.238 C 165.500 33.403,163.796 32.915,163.208 33.583 M188.208 33.583 C 188.079 33.730,188.000 34.325,188.000 35.160 C 188.000 35.942,187.931 36.500,187.833 36.500 C 187.742 36.500,187.667 36.837,187.667 37.250 C 187.667 38.014,188.448 38.410,188.736 37.792 C 188.814 37.625,188.853 37.625,188.931 37.792 C 188.984 37.906,189.134 38.000,189.264 38.000 C 189.394 38.000,189.500 38.144,189.500 38.319 C 189.500 38.495,189.594 38.673,189.708 38.714 C 189.875 38.775,189.875 38.860,189.708 39.143 C 189.594 39.337,189.500 39.614,189.500 39.760 C 189.500 40.198,189.059 40.500,188.417 40.500 C 187.675 40.500,187.333 40.812,187.333 41.488 L 187.333 42.000 188.750 42.000 C 189.529 42.000,190.167 41.934,190.167 41.853 C 190.167 41.772,190.309 41.668,190.482 41.623 C 190.669 41.574,190.845 41.328,190.912 41.020 C 190.975 40.734,191.096 40.500,191.180 40.500 C 191.264 40.500,191.333 39.819,191.333 38.987 C 191.333 37.184,190.901 36.500,189.763 36.500 C 189.435 36.500,189.167 36.425,189.167 36.333 C 189.167 36.242,189.242 36.167,189.333 36.167 C 189.425 36.167,189.500 35.904,189.500 35.583 L 189.500 35.000 190.417 35.000 L 191.333 35.000 191.333 34.167 L 191.333 33.333 189.875 33.340 C 188.831 33.344,188.358 33.413,188.208 33.583 M193.500 33.796 C 193.083 34.239,193.083 34.240,193.083 37.669 L 193.083 41.098 193.534 41.549 C 194.320 42.335,196.667 42.145,196.667 41.295 C 196.667 41.170,196.759 40.974,196.872 40.862 C 197.538 40.195,196.972 33.667,196.248 33.667 C 196.111 33.667,196.000 33.592,196.000 33.500 C 196.000 33.091,193.933 33.336,193.500 33.796 M199.033 33.533 C 198.923 33.643,198.833 33.943,198.833 34.200 C 198.833 34.457,198.758 34.667,198.667 34.667 C 198.575 34.667,198.500 35.079,198.500 35.583 C 198.500 36.087,198.575 36.500,198.667 36.500 C 198.758 36.500,198.833 36.644,198.833 36.820 C 198.833 37.550,198.997 37.667,200.018 37.667 C 200.561 37.667,201.000 37.741,201.000 37.833 C 201.000 37.925,200.925 38.000,200.833 38.000 C 200.742 38.000,200.667 38.150,200.667 38.333 C 200.667 38.517,200.592 38.667,200.500 38.667 C 200.408 38.667,200.333 38.779,200.333 38.917 C 200.333 39.054,200.258 39.167,200.167 39.167 C 200.075 39.167,200.000 39.317,200.000 39.500 C 200.000 39.683,199.925 39.833,199.833 39.833 C 199.742 39.833,199.667 39.983,199.667 40.167 C 199.667 40.350,199.610 40.501,199.542 40.501 C 199.373 40.503,199.000 41.327,199.000 41.700 C 199.000 41.939,199.136 42.000,199.667 42.000 C 200.222 42.000,200.333 41.944,200.333 41.667 C 200.333 41.483,200.391 41.333,200.461 41.333 C 200.615 41.333,201.167 40.096,201.167 39.749 C 201.167 39.612,201.242 39.500,201.333 39.500 C 201.425 39.500,201.500 39.387,201.500 39.250 C 201.500 39.112,201.575 39.000,201.667 39.000 C 201.763 39.000,201.833 39.530,201.833 40.258 C 201.833 41.371,201.880 41.562,202.242 41.924 C 202.933 42.614,204.333 42.394,204.333 41.595 C 204.333 41.451,204.408 41.333,204.500 41.333 C 204.597 41.333,204.667 40.778,204.667 40.000 C 204.667 39.222,204.597 38.667,204.500 38.667 C 204.408 38.667,204.333 38.517,204.333 38.333 C 204.333 38.034,204.222 38.000,203.250 38.000 C 202.639 38.000,202.167 37.927,202.167 37.833 C 202.167 37.742,202.242 37.667,202.333 37.667 C 202.425 37.667,202.500 37.517,202.500 37.333 C 202.500 37.150,202.572 37.000,202.659 37.000 C 202.747 37.000,202.867 36.737,202.928 36.417 C 202.988 36.096,203.104 35.833,203.185 35.833 C 203.267 35.833,203.333 35.683,203.333 35.500 C 203.333 35.317,203.408 35.167,203.500 35.167 C 203.592 35.167,203.667 35.054,203.667 34.917 C 203.667 34.779,203.742 34.667,203.833 34.667 C 203.925 34.667,204.000 34.517,204.000 34.333 C 204.000 34.150,204.075 34.000,204.167 34.000 C 204.258 34.000,204.333 33.850,204.333 33.667 C 204.333 33.383,204.222 33.333,203.583 33.333 C 202.944 33.333,202.833 33.383,202.833 33.667 C 202.833 33.850,202.758 34.000,202.667 34.000 C 202.575 34.000,202.500 34.150,202.500 34.333 C 202.500 34.517,202.443 34.667,202.373 34.667 C 202.303 34.667,202.097 34.985,201.916 35.375 L 201.587 36.083 201.534 35.375 C 201.505 34.985,201.410 34.667,201.324 34.667 C 201.237 34.667,201.167 34.457,201.167 34.200 C 201.167 33.544,200.883 33.333,200.000 33.333 C 199.578 33.333,199.143 33.423,199.033 33.533 M222.167 33.667 C 222.167 33.850,222.092 34.000,222.000 34.000 C 221.908 34.000,221.833 34.150,221.833 34.333 C 221.833 34.517,221.772 34.667,221.697 34.667 C 221.532 34.667,221.000 36.301,221.000 36.806 C 221.000 37.005,220.925 37.167,220.833 37.167 C 220.732 37.167,220.667 37.917,220.667 39.083 C 220.667 40.250,220.732 41.000,220.833 41.000 C 220.925 41.000,221.000 41.118,221.000 41.262 C 221.000 41.804,221.443 42.000,222.667 42.000 C 223.891 42.000,224.333 41.804,224.333 41.262 C 224.333 41.118,224.408 41.000,224.500 41.000 C 224.746 41.000,224.711 37.828,224.458 37.285 C 224.344 37.038,224.119 36.835,223.958 36.835 C 223.798 36.834,223.667 36.758,223.667 36.667 C 223.667 36.575,223.479 36.500,223.250 36.500 C 223.021 36.500,222.833 36.425,222.833 36.333 C 222.833 36.242,222.902 36.167,222.985 36.167 C 223.069 36.167,223.188 35.867,223.250 35.500 C 223.312 35.133,223.431 34.833,223.515 34.833 C 223.598 34.833,223.667 34.721,223.667 34.583 C 223.667 34.446,223.742 34.333,223.833 34.333 C 223.925 34.333,224.000 34.108,224.000 33.833 C 224.000 33.338,223.991 33.333,223.083 33.333 C 222.278 33.333,222.167 33.374,222.167 33.667 M226.875 33.754 C 226.669 33.975,226.500 34.345,226.500 34.577 C 226.500 34.810,226.425 35.000,226.333 35.000 C 226.229 35.000,226.167 36.028,226.167 37.750 C 226.167 39.472,226.229 40.500,226.333 40.500 C 226.425 40.500,226.500 40.653,226.500 40.841 C 226.500 41.545,227.222 42.000,228.338 42.000 C 229.386 42.000,229.833 41.779,229.833 41.262 C 229.833 41.118,229.908 41.000,230.000 41.000 C 230.092 41.000,230.167 40.587,230.167 40.083 C 230.167 39.579,230.242 39.167,230.333 39.167 C 230.432 39.167,230.500 38.556,230.500 37.667 C 230.500 36.778,230.432 36.167,230.333 36.167 C 230.242 36.167,230.167 35.754,230.167 35.250 C 230.167 34.746,230.092 34.333,230.000 34.333 C 229.908 34.333,229.833 34.202,229.832 34.042 C 229.829 33.280,227.528 33.057,226.875 33.754 M232.208 33.583 C 232.094 33.713,232.000 34.010,232.000 34.243 C 232.000 34.476,231.925 34.667,231.833 34.667 C 231.742 34.667,231.667 35.079,231.667 35.583 C 231.667 36.087,231.742 36.500,231.833 36.500 C 231.925 36.500,232.000 36.655,232.000 36.845 C 232.000 37.414,232.406 37.667,233.321 37.667 C 233.786 37.667,234.167 37.742,234.167 37.833 C 234.167 37.925,234.092 38.000,234.000 38.000 C 233.908 38.000,233.833 38.150,233.833 38.333 C 233.833 38.517,233.762 38.667,233.674 38.667 C 233.587 38.667,233.466 38.929,233.406 39.250 C 233.345 39.571,233.230 39.833,233.148 39.833 C 233.067 39.833,233.000 39.983,233.000 40.167 C 233.000 40.350,232.925 40.500,232.833 40.500 C 232.742 40.500,232.667 40.612,232.667 40.750 C 232.667 40.887,232.592 41.000,232.500 41.000 C 232.408 41.000,232.333 41.225,232.333 41.500 C 232.333 41.960,232.380 42.000,232.917 42.000 C 233.389 42.000,233.500 41.937,233.500 41.667 C 233.500 41.483,233.575 41.333,233.667 41.333 C 233.758 41.333,233.833 41.221,233.833 41.083 C 233.833 40.946,233.908 40.833,234.000 40.833 C 234.092 40.833,234.167 40.683,234.167 40.500 C 234.167 40.317,234.242 40.167,234.333 40.167 C 234.425 40.167,234.500 40.017,234.500 39.833 C 234.500 39.650,234.566 39.500,234.647 39.500 C 234.728 39.500,234.853 39.331,234.925 39.125 C 235.015 38.868,235.086 39.226,235.153 40.263 C 235.265 42.003,235.466 42.333,236.417 42.333 C 237.058 42.333,237.500 42.032,237.500 41.595 C 237.500 41.451,237.575 41.333,237.667 41.333 C 237.764 41.333,237.833 40.778,237.833 40.000 C 237.833 39.222,237.764 38.667,237.667 38.667 C 237.575 38.667,237.500 38.510,237.500 38.319 C 237.500 37.997,237.422 37.976,236.416 38.027 C 235.631 38.068,235.333 38.026,235.333 37.875 C 235.333 37.760,235.408 37.667,235.500 37.667 C 235.592 37.667,235.667 37.517,235.667 37.333 C 235.667 37.150,235.742 37.000,235.833 37.000 C 235.925 37.000,236.000 36.887,236.000 36.750 C 236.000 36.612,236.075 36.500,236.167 36.500 C 236.258 36.500,236.333 36.350,236.333 36.167 C 236.333 35.983,236.408 35.833,236.500 35.833 C 236.592 35.833,236.667 35.683,236.667 35.500 C 236.667 35.317,236.724 35.167,236.794 35.167 C 236.949 35.167,237.500 33.930,237.500 33.582 C 237.500 33.403,237.314 33.333,236.840 33.333 C 236.216 33.333,235.167 34.804,235.167 35.678 C 235.167 35.764,235.092 35.833,235.000 35.833 C 234.908 35.833,234.833 35.571,234.833 35.250 C 234.833 34.929,234.758 34.667,234.667 34.667 C 234.575 34.667,234.500 34.474,234.500 34.238 C 234.500 33.403,232.796 32.915,232.208 33.583 M254.533 34.125 L 254.583 34.917 255.667 35.013 C 256.262 35.066,256.656 35.122,256.542 35.138 C 256.427 35.154,256.333 35.392,256.333 35.667 C 256.333 35.942,256.258 36.167,256.167 36.167 C 256.075 36.167,256.000 36.387,256.000 36.657 C 256.000 36.926,255.934 37.188,255.853 37.238 C 255.772 37.288,255.654 37.742,255.591 38.248 C 255.528 38.753,255.406 39.167,255.321 39.167 C 255.236 39.167,255.167 39.392,255.167 39.667 C 255.167 39.942,255.092 40.167,255.000 40.167 C 254.908 40.167,254.833 40.392,254.833 40.667 C 254.833 40.942,254.758 41.167,254.667 41.167 C 254.575 41.167,254.500 41.354,254.500 41.583 C 254.500 41.977,254.550 42.000,255.417 42.000 C 256.324 42.000,256.333 41.995,256.333 41.500 C 256.333 41.225,256.408 41.000,256.500 41.000 C 256.592 41.000,256.667 40.813,256.667 40.583 C 256.667 40.354,256.742 40.167,256.833 40.167 C 256.925 40.167,257.000 39.942,257.000 39.667 C 257.000 39.392,257.066 39.167,257.147 39.167 C 257.228 39.167,257.347 38.679,257.411 38.083 C 257.474 37.487,257.596 37.000,257.680 37.000 C 257.764 37.000,257.833 36.813,257.833 36.583 C 257.833 36.354,257.908 36.167,258.000 36.167 C 258.092 36.167,258.167 35.904,258.167 35.583 C 258.167 35.262,258.242 35.000,258.333 35.000 C 258.425 35.000,258.500 34.775,258.500 34.500 C 258.500 34.225,258.575 34.000,258.667 34.000 C 258.758 34.000,258.833 33.850,258.833 33.667 C 258.833 33.350,258.722 33.333,256.658 33.333 L 254.482 33.333 254.533 34.125 M260.708 33.754 C 260.502 33.975,260.333 34.345,260.333 34.577 C 260.333 34.810,260.258 35.000,260.167 35.000 C 260.062 35.000,260.000 36.028,260.000 37.750 C 260.000 39.472,260.062 40.500,260.167 40.500 C 260.258 40.500,260.333 40.653,260.333 40.841 C 260.333 41.555,261.053 42.000,262.209 42.000 C 263.303 42.000,263.667 41.825,263.667 41.300 C 263.667 41.135,263.742 41.000,263.833 41.000 C 263.925 41.000,264.000 40.587,264.000 40.083 C 264.000 39.579,264.075 39.167,264.167 39.167 C 264.265 39.167,264.333 38.556,264.333 37.667 C 264.333 36.778,264.265 36.167,264.167 36.167 C 264.075 36.167,264.000 35.754,264.000 35.250 C 264.000 34.746,263.925 34.333,263.833 34.333 C 263.742 34.333,263.667 34.183,263.667 34.000 C 263.667 33.815,263.556 33.667,263.417 33.667 C 263.279 33.667,263.167 33.592,263.167 33.500 C 263.167 33.118,261.104 33.332,260.708 33.754 M266.004 33.623 C 265.823 33.827,265.756 34.329,265.754 35.504 C 265.749 37.450,265.890 37.667,267.155 37.667 C 267.931 37.667,268.226 37.841,267.846 38.075 C 267.762 38.128,267.643 38.395,267.583 38.669 C 267.523 38.943,267.404 39.167,267.320 39.167 C 267.236 39.167,267.167 39.317,267.167 39.500 C 267.167 39.683,267.092 39.833,267.000 39.833 C 266.908 39.833,266.833 39.983,266.833 40.167 C 266.833 40.350,266.777 40.501,266.708 40.501 C 266.539 40.503,266.167 41.327,266.167 41.700 C 266.167 42.355,267.445 42.097,267.572 41.417 C 267.633 41.096,267.753 40.833,267.841 40.833 C 267.928 40.833,268.000 40.683,268.000 40.500 C 268.000 40.317,268.075 40.167,268.167 40.167 C 268.258 40.167,268.333 40.017,268.333 39.833 C 268.333 39.650,268.408 39.500,268.500 39.500 C 268.592 39.500,268.667 39.387,268.667 39.250 C 268.667 39.112,268.742 39.000,268.833 39.000 C 268.930 39.000,269.000 39.530,269.000 40.258 C 269.000 41.748,269.389 42.337,270.367 42.328 C 271.359 42.318,271.556 42.014,271.631 40.375 C 271.728 38.247,271.593 38.000,270.337 38.000 C 269.779 38.000,269.333 37.926,269.333 37.833 C 269.333 37.742,269.400 37.667,269.481 37.667 C 269.563 37.667,269.679 37.404,269.739 37.083 C 269.799 36.762,269.920 36.500,270.008 36.500 C 270.095 36.500,270.167 36.350,270.167 36.167 C 270.167 35.983,270.242 35.833,270.333 35.833 C 270.425 35.833,270.500 35.683,270.500 35.500 C 270.500 35.317,270.575 35.167,270.667 35.167 C 270.758 35.167,270.833 35.054,270.833 34.917 C 270.833 34.779,270.908 34.667,271.000 34.667 C 271.092 34.667,271.167 34.523,271.167 34.347 C 271.167 34.172,271.255 33.998,271.363 33.962 C 271.896 33.785,271.320 33.315,270.632 33.365 C 269.984 33.413,269.914 33.464,269.766 34.000 C 269.677 34.321,269.556 34.621,269.497 34.667 C 269.438 34.712,269.284 34.994,269.154 35.292 C 268.848 35.995,268.667 35.979,268.667 35.250 C 268.667 34.929,268.592 34.667,268.500 34.667 C 268.408 34.667,268.333 34.474,268.333 34.238 C 268.333 33.368,266.630 32.919,266.004 33.623 M288.000 33.500 C 288.000 33.592,287.887 33.667,287.750 33.667 C 287.611 33.667,287.500 33.815,287.500 34.000 C 287.500 34.183,287.425 34.333,287.333 34.333 C 287.237 34.333,287.167 34.861,287.167 35.583 C 287.167 36.306,287.237 36.833,287.333 36.833 C 287.425 36.833,287.500 37.096,287.500 37.417 C 287.500 37.737,287.425 38.000,287.333 38.000 C 287.235 38.000,287.167 38.611,287.167 39.500 C 287.167 40.389,287.235 41.000,287.333 41.000 C 287.425 41.000,287.500 41.118,287.500 41.262 C 287.500 41.804,287.943 42.000,289.167 42.000 C 290.391 42.000,290.833 41.804,290.833 41.262 C 290.833 41.118,290.908 41.000,291.000 41.000 C 291.099 41.000,291.167 40.389,291.167 39.500 C 291.167 38.611,291.099 38.000,291.000 38.000 C 290.908 38.000,290.833 37.737,290.833 37.417 C 290.833 37.096,290.908 36.833,291.000 36.833 C 291.096 36.833,291.167 36.306,291.167 35.583 C 291.167 34.861,291.096 34.333,291.000 34.333 C 290.908 34.333,290.833 34.215,290.833 34.071 C 290.833 33.531,290.390 33.333,289.179 33.333 C 288.504 33.333,288.000 33.405,288.000 33.500 M293.375 33.754 C 293.169 33.975,293.000 34.345,293.000 34.577 C 293.000 34.810,292.925 35.000,292.833 35.000 C 292.729 35.000,292.667 36.028,292.667 37.750 C 292.667 39.472,292.729 40.500,292.833 40.500 C 292.925 40.500,293.000 40.653,293.000 40.841 C 293.000 41.545,293.722 42.000,294.838 42.000 C 295.886 42.000,296.333 41.779,296.333 41.262 C 296.333 41.118,296.408 41.000,296.500 41.000 C 296.592 41.000,296.667 40.587,296.667 40.083 C 296.667 39.579,296.742 39.167,296.833 39.167 C 296.932 39.167,297.000 38.556,297.000 37.667 C 297.000 36.778,296.932 36.167,296.833 36.167 C 296.742 36.167,296.667 35.754,296.667 35.250 C 296.667 34.746,296.592 34.333,296.500 34.333 C 296.408 34.333,296.333 34.183,296.333 34.000 C 296.333 33.815,296.222 33.667,296.083 33.667 C 295.946 33.667,295.833 33.592,295.833 33.500 C 295.833 33.118,293.771 33.332,293.375 33.754 M298.708 33.583 C 298.594 33.713,298.500 34.010,298.500 34.243 C 298.500 34.476,298.425 34.667,298.333 34.667 C 298.242 34.667,298.167 35.037,298.167 35.490 C 298.167 35.943,298.242 36.360,298.333 36.417 C 298.425 36.473,298.500 36.671,298.500 36.855 C 298.500 37.414,298.911 37.667,299.821 37.667 C 300.286 37.667,300.667 37.742,300.667 37.833 C 300.667 37.925,300.592 38.000,300.500 38.000 C 300.408 38.000,300.333 38.150,300.333 38.333 C 300.333 38.517,300.262 38.667,300.174 38.667 C 300.087 38.667,299.966 38.929,299.906 39.250 C 299.845 39.571,299.730 39.833,299.648 39.833 C 299.567 39.833,299.500 39.983,299.500 40.167 C 299.500 40.350,299.444 40.501,299.375 40.501 C 299.206 40.503,298.833 41.327,298.833 41.700 C 298.833 41.932,298.966 42.000,299.417 42.000 C 299.889 42.000,300.000 41.937,300.000 41.667 C 300.000 41.483,300.075 41.333,300.167 41.333 C 300.258 41.333,300.333 41.221,300.333 41.083 C 300.333 40.946,300.408 40.833,300.500 40.833 C 300.592 40.833,300.667 40.683,300.667 40.500 C 300.667 40.317,300.742 40.167,300.833 40.167 C 300.925 40.167,301.000 40.017,301.000 39.833 C 301.000 39.650,301.066 39.500,301.147 39.500 C 301.228 39.500,301.355 39.331,301.430 39.125 C 301.524 38.864,301.583 39.171,301.623 40.132 C 301.693 41.808,302.020 42.333,302.997 42.333 C 303.659 42.333,304.000 42.095,304.000 41.633 C 304.000 41.468,304.075 41.333,304.167 41.333 C 304.264 41.333,304.333 40.778,304.333 40.000 C 304.333 39.222,304.264 38.667,304.167 38.667 C 304.075 38.667,304.000 38.517,304.000 38.333 C 304.000 38.037,303.889 38.000,302.997 38.000 L 301.994 38.000 302.106 37.542 C 302.168 37.290,302.282 37.058,302.359 37.028 C 302.437 36.997,302.500 36.866,302.500 36.736 C 302.500 36.606,302.575 36.500,302.667 36.500 C 302.758 36.500,302.833 36.350,302.833 36.167 C 302.833 35.983,302.908 35.833,303.000 35.833 C 303.092 35.833,303.167 35.683,303.167 35.500 C 303.167 35.317,303.224 35.167,303.294 35.167 C 303.449 35.167,304.000 33.930,304.000 33.582 C 304.000 33.403,303.814 33.333,303.337 33.333 C 302.623 33.333,302.686 33.253,301.816 35.292 C 301.516 35.995,301.333 35.980,301.333 35.250 C 301.333 34.929,301.258 34.667,301.167 34.667 C 301.075 34.667,301.000 34.474,301.000 34.238 C 301.000 33.403,299.296 32.915,298.708 33.583 M319.708 33.583 C 319.594 33.713,319.500 34.010,319.500 34.243 C 319.500 34.476,319.425 34.667,319.333 34.667 C 319.233 34.667,319.167 35.333,319.167 36.333 C 319.167 37.333,319.233 38.000,319.333 38.000 C 319.425 38.000,319.500 38.118,319.500 38.262 C 319.500 38.685,319.936 39.000,320.521 39.000 C 320.946 39.000,321.022 39.044,320.867 39.200 C 320.757 39.310,320.667 39.573,320.667 39.783 C 320.667 39.994,320.600 40.167,320.519 40.167 C 320.437 40.167,320.321 40.429,320.261 40.750 C 320.201 41.071,320.080 41.333,319.992 41.333 C 319.905 41.333,319.833 41.483,319.833 41.667 C 319.833 41.960,319.944 42.000,320.750 42.000 C 321.556 42.000,321.667 41.960,321.667 41.667 C 321.667 41.483,321.738 41.333,321.826 41.333 C 321.913 41.333,322.034 41.071,322.094 40.750 C 322.155 40.429,322.270 40.167,322.352 40.167 C 322.433 40.167,322.500 39.942,322.500 39.667 C 322.500 39.392,322.575 39.167,322.667 39.167 C 322.758 39.167,322.833 38.979,322.833 38.750 C 322.833 38.521,322.908 38.333,323.000 38.333 C 323.101 38.333,323.167 37.611,323.167 36.500 C 323.167 35.389,323.101 34.667,323.000 34.667 C 322.908 34.667,322.833 34.474,322.833 34.238 C 322.833 33.376,320.349 32.855,319.708 33.583 M325.375 33.754 C 325.169 33.975,325.000 34.345,325.000 34.577 C 325.000 34.810,324.925 35.000,324.833 35.000 C 324.729 35.000,324.667 36.028,324.667 37.750 C 324.667 39.472,324.729 40.500,324.833 40.500 C 324.925 40.500,325.000 40.653,325.000 40.841 C 325.000 41.555,325.720 42.000,326.876 42.000 C 327.970 42.000,328.333 41.825,328.333 41.300 C 328.333 41.135,328.408 41.000,328.500 41.000 C 328.592 41.000,328.667 40.587,328.667 40.083 C 328.667 39.579,328.742 39.167,328.833 39.167 C 328.932 39.167,329.000 38.556,329.000 37.667 C 329.000 36.778,328.932 36.167,328.833 36.167 C 328.742 36.167,328.667 35.754,328.667 35.250 C 328.667 34.746,328.592 34.333,328.500 34.333 C 328.408 34.333,328.333 34.183,328.333 34.000 C 328.333 33.815,328.222 33.667,328.083 33.667 C 327.946 33.667,327.833 33.592,327.833 33.500 C 327.833 33.118,325.771 33.332,325.375 33.754 M330.670 33.623 C 330.490 33.827,330.423 34.329,330.420 35.504 C 330.416 37.450,330.556 37.667,331.821 37.667 C 332.286 37.667,332.667 37.742,332.667 37.833 C 332.667 37.925,332.600 38.000,332.519 38.000 C 332.437 38.000,332.321 38.262,332.261 38.583 C 332.201 38.904,332.080 39.167,331.992 39.167 C 331.905 39.167,331.833 39.317,331.833 39.500 C 331.833 39.683,331.758 39.833,331.667 39.833 C 331.575 39.833,331.500 39.983,331.500 40.167 C 331.500 40.350,331.444 40.501,331.375 40.501 C 331.206 40.503,330.833 41.327,330.833 41.700 C 330.833 42.355,332.111 42.097,332.239 41.417 C 332.299 41.096,332.420 40.833,332.508 40.833 C 332.595 40.833,332.667 40.683,332.667 40.500 C 332.667 40.317,332.742 40.167,332.833 40.167 C 332.925 40.167,333.000 40.017,333.000 39.833 C 333.000 39.650,333.075 39.500,333.167 39.500 C 333.258 39.500,333.333 39.387,333.333 39.250 C 333.333 39.112,333.408 39.000,333.500 39.000 C 333.596 39.000,333.667 39.530,333.667 40.258 C 333.667 41.748,334.056 42.337,335.034 42.328 C 336.026 42.318,336.222 42.014,336.297 40.375 C 336.394 38.247,336.260 38.000,335.004 38.000 C 334.446 38.000,334.000 37.926,334.000 37.833 C 334.000 37.742,334.067 37.667,334.148 37.667 C 334.230 37.667,334.345 37.404,334.406 37.083 C 334.466 36.762,334.587 36.500,334.674 36.500 C 334.762 36.500,334.833 36.350,334.833 36.167 C 334.833 35.983,334.908 35.833,335.000 35.833 C 335.092 35.833,335.167 35.683,335.167 35.500 C 335.167 35.317,335.242 35.167,335.333 35.167 C 335.425 35.167,335.500 35.054,335.500 34.917 C 335.500 34.779,335.575 34.667,335.667 34.667 C 335.758 34.667,335.833 34.523,335.833 34.347 C 335.833 34.172,335.922 33.998,336.030 33.962 C 336.562 33.785,335.987 33.315,335.299 33.365 C 334.651 33.413,334.581 33.464,334.432 34.000 C 334.343 34.321,334.222 34.621,334.164 34.667 C 334.105 34.712,333.951 34.994,333.821 35.292 C 333.515 35.995,333.333 35.979,333.333 35.250 C 333.333 34.929,333.258 34.667,333.167 34.667 C 333.075 34.667,333.000 34.474,333.000 34.238 C 333.000 33.368,331.296 32.919,330.670 33.623 M347.533 34.125 C 347.579 34.850,347.622 34.921,348.042 34.969 L 348.500 35.022 348.500 38.511 L 348.500 42.000 349.250 42.000 L 350.000 42.000 350.000 37.667 L 350.000 33.333 348.741 33.333 L 347.482 33.333 347.533 34.125 M353.375 33.754 C 353.169 33.975,353.000 34.341,353.000 34.568 C 353.000 34.795,352.925 35.027,352.833 35.083 C 352.734 35.145,352.667 36.221,352.667 37.750 C 352.667 39.279,352.734 40.355,352.833 40.417 C 352.925 40.473,353.000 40.669,353.000 40.851 C 353.000 41.577,353.721 42.000,354.962 42.000 L 356.105 42.000 356.386 41.411 C 356.540 41.087,356.667 40.450,356.667 39.994 C 356.667 39.539,356.742 39.167,356.833 39.167 C 356.932 39.167,357.000 38.556,357.000 37.667 C 357.000 36.778,356.932 36.167,356.833 36.167 C 356.742 36.167,356.667 35.795,356.667 35.341 C 356.667 34.416,356.394 33.667,356.057 33.667 C 355.934 33.667,355.833 33.592,355.833 33.500 C 355.833 33.118,353.771 33.332,353.375 33.754 M359.034 33.591 C 358.915 33.726,358.773 34.211,358.719 34.668 C 358.665 35.126,358.556 35.500,358.477 35.500 C 358.398 35.500,358.333 36.475,358.333 37.667 C 358.333 38.858,358.398 39.833,358.477 39.833 C 358.556 39.833,358.665 40.210,358.719 40.671 C 358.856 41.824,359.081 42.000,360.417 42.000 C 361.555 42.000,362.000 41.793,362.000 41.262 C 362.000 41.118,362.075 41.000,362.167 41.000 C 362.258 41.000,362.333 40.737,362.333 40.417 C 362.333 40.096,362.412 39.833,362.509 39.833 C 362.627 39.833,362.661 39.107,362.614 37.625 C 362.540 35.326,362.399 34.333,362.148 34.333 C 362.066 34.333,362.000 34.210,362.000 34.060 C 362.000 33.375,359.564 32.990,359.034 33.591 M364.500 33.667 C 364.500 33.850,364.425 34.000,364.333 34.000 C 364.234 34.000,364.167 34.643,364.167 35.595 C 364.167 37.498,364.274 37.667,365.488 37.667 C 365.953 37.667,366.333 37.742,366.333 37.833 C 366.333 37.925,366.258 38.000,366.167 38.000 C 366.075 38.000,366.000 38.150,366.000 38.333 C 366.000 38.517,365.939 38.667,365.864 38.667 C 365.790 38.667,365.626 38.929,365.500 39.250 C 365.374 39.571,365.210 39.833,365.136 39.833 C 365.061 39.833,365.000 39.937,365.000 40.064 C 365.000 40.191,364.888 40.510,364.751 40.773 C 364.328 41.584,364.416 42.000,365.012 42.000 C 365.568 42.000,366.000 41.677,366.000 41.262 C 366.000 41.118,366.057 41.000,366.127 41.000 C 366.282 41.000,366.833 39.763,366.833 39.416 C 366.833 39.279,366.908 39.167,367.000 39.167 C 367.095 39.167,367.167 39.669,367.167 40.341 C 367.167 41.766,367.570 42.333,368.583 42.333 C 369.674 42.333,370.000 41.795,370.000 39.996 C 370.000 38.176,369.883 38.000,368.679 38.000 C 367.944 38.000,367.833 37.956,367.833 37.667 C 367.833 37.483,367.891 37.333,367.961 37.333 C 368.115 37.333,368.667 36.096,368.667 35.749 C 368.667 35.612,368.742 35.500,368.833 35.500 C 368.925 35.500,369.000 35.350,369.000 35.167 C 369.000 34.983,369.075 34.833,369.167 34.833 C 369.258 34.833,369.333 34.721,369.333 34.583 C 369.333 34.446,369.408 34.333,369.500 34.333 C 369.592 34.333,369.667 34.108,369.667 33.833 C 369.667 33.386,369.612 33.333,369.155 33.333 C 368.599 33.333,368.167 33.656,368.167 34.071 C 368.167 34.215,368.092 34.333,368.000 34.333 C 367.908 34.333,367.833 34.483,367.833 34.667 C 367.833 34.850,367.758 35.000,367.667 35.000 C 367.575 35.000,367.500 35.112,367.500 35.250 C 367.500 35.387,367.425 35.500,367.333 35.500 C 367.242 35.500,367.167 35.650,367.167 35.833 C 367.167 36.017,367.092 36.167,367.000 36.167 C 366.906 36.167,366.833 35.703,366.833 35.109 C 366.833 33.690,366.536 33.333,365.355 33.333 C 364.611 33.333,364.500 33.377,364.500 33.667 M365.667 35.583 C 365.667 36.087,365.592 36.500,365.500 36.500 C 365.408 36.500,365.333 36.087,365.333 35.583 C 365.333 35.079,365.408 34.667,365.500 34.667 C 365.592 34.667,365.667 35.079,365.667 35.583 M33.167 35.500 C 33.167 35.867,33.092 36.167,33.000 36.167 C 32.816 36.167,32.768 35.121,32.944 34.944 C 33.139 34.750,33.167 34.819,33.167 35.500 M200.333 35.593 C 200.333 35.909,200.258 36.167,200.167 36.167 C 200.075 36.167,200.000 35.862,200.000 35.490 C 200.000 35.082,200.066 34.854,200.167 34.917 C 200.258 34.973,200.333 35.278,200.333 35.593 M28.167 35.417 C 28.167 35.646,28.242 35.833,28.333 35.833 C 28.435 35.833,28.500 36.611,28.500 37.833 C 28.500 39.056,28.435 39.833,28.333 39.833 C 28.242 39.833,28.167 39.983,28.167 40.167 C 28.167 40.561,28.061 40.585,27.738 40.262 C 27.415 39.939,27.388 35.240,27.708 35.110 C 28.098 34.953,28.167 35.000,28.167 35.417 M60.236 35.101 C 60.623 35.250,60.629 39.895,60.242 40.282 C 60.100 40.424,59.933 40.489,59.871 40.426 C 59.602 40.158,59.644 35.000,59.915 35.000 C 59.947 35.000,60.091 35.046,60.236 35.101 M65.500 35.583 C 65.500 35.904,65.425 36.167,65.333 36.167 C 65.242 36.167,65.167 35.904,65.167 35.583 C 65.167 35.262,65.242 35.000,65.333 35.000 C 65.425 35.000,65.500 35.262,65.500 35.583 M92.500 37.608 C 92.500 40.170,92.318 40.884,91.880 40.039 C 91.377 39.070,91.714 34.901,92.278 35.117 C 92.449 35.183,92.500 35.757,92.500 37.608 M97.500 35.583 C 97.500 35.904,97.425 36.167,97.333 36.167 C 97.242 36.167,97.167 35.904,97.167 35.583 C 97.167 35.262,97.242 35.000,97.333 35.000 C 97.425 35.000,97.500 35.262,97.500 35.583 M126.736 35.101 C 127.123 35.250,127.129 39.895,126.742 40.282 C 126.600 40.424,126.433 40.489,126.371 40.426 C 126.102 40.158,126.144 35.000,126.415 35.000 C 126.447 35.000,126.591 35.046,126.736 35.101 M132.000 35.583 C 132.000 35.904,131.925 36.167,131.833 36.167 C 131.742 36.167,131.667 35.904,131.667 35.583 C 131.667 35.262,131.742 35.000,131.833 35.000 C 131.925 35.000,132.000 35.262,132.000 35.583 M159.403 35.101 C 159.774 35.244,159.797 39.893,159.429 40.262 C 159.106 40.585,159.000 40.561,159.000 40.167 C 159.000 39.983,158.925 39.833,158.833 39.833 C 158.731 39.833,158.667 39.056,158.667 37.833 C 158.667 36.611,158.731 35.833,158.833 35.833 C 158.925 35.833,159.000 35.646,159.000 35.417 C 159.000 34.963,159.014 34.952,159.403 35.101 M164.667 35.583 C 164.667 35.904,164.592 36.167,164.500 36.167 C 164.408 36.167,164.333 35.904,164.333 35.583 C 164.333 35.262,164.408 35.000,164.500 35.000 C 164.592 35.000,164.667 35.262,164.667 35.583 M195.333 37.664 C 195.333 39.649,195.285 40.166,195.083 40.333 C 194.874 40.507,194.833 40.483,194.833 40.187 C 194.833 39.993,194.758 39.833,194.667 39.833 C 194.565 39.833,194.500 39.059,194.500 37.843 C 194.500 36.696,194.571 35.809,194.667 35.750 C 194.758 35.693,194.833 35.504,194.833 35.329 C 194.833 35.114,194.915 35.042,195.083 35.106 C 195.290 35.186,195.333 35.630,195.333 37.664 M228.403 35.101 C 228.774 35.244,228.797 39.893,228.429 40.262 C 228.106 40.585,228.000 40.561,228.000 40.167 C 228.000 39.983,227.925 39.833,227.833 39.833 C 227.731 39.833,227.667 39.056,227.667 37.833 C 227.667 36.611,227.731 35.833,227.833 35.833 C 227.925 35.833,228.000 35.646,228.000 35.417 C 228.000 34.963,228.014 34.952,228.403 35.101 M233.451 35.873 C 233.411 36.080,233.377 35.950,233.375 35.583 C 233.374 35.217,233.406 35.047,233.448 35.206 C 233.490 35.366,233.491 35.666,233.451 35.873 M262.236 35.101 C 262.623 35.250,262.629 39.895,262.242 40.282 C 262.100 40.424,261.933 40.489,261.871 40.426 C 261.602 40.158,261.644 35.000,261.915 35.000 C 261.947 35.000,262.091 35.046,262.236 35.101 M267.500 35.583 C 267.500 35.904,267.425 36.167,267.333 36.167 C 267.242 36.167,267.167 35.904,267.167 35.583 C 267.167 35.262,267.242 35.000,267.333 35.000 C 267.425 35.000,267.500 35.262,267.500 35.583 M289.403 35.101 C 289.689 35.211,289.772 35.833,289.500 35.833 C 289.408 35.833,289.333 36.058,289.333 36.333 C 289.333 36.608,289.258 36.833,289.167 36.833 C 289.075 36.833,289.000 36.608,289.000 36.333 C 289.000 36.058,288.925 35.833,288.833 35.833 C 288.592 35.833,288.628 35.210,288.875 35.110 C 288.990 35.064,289.096 35.020,289.111 35.013 C 289.127 35.006,289.258 35.046,289.403 35.101 M294.903 35.101 C 295.274 35.244,295.297 39.893,294.929 40.262 C 294.606 40.585,294.500 40.561,294.500 40.167 C 294.500 39.983,294.425 39.833,294.333 39.833 C 294.231 39.833,294.167 39.056,294.167 37.833 C 294.167 36.611,294.231 35.833,294.333 35.833 C 294.425 35.833,294.500 35.646,294.500 35.417 C 294.500 34.963,294.514 34.952,294.903 35.101 M299.951 35.873 C 299.911 36.080,299.877 35.950,299.875 35.583 C 299.874 35.217,299.906 35.047,299.948 35.206 C 299.990 35.366,299.991 35.666,299.951 35.873 M321.403 35.101 C 321.597 35.176,321.667 35.433,321.667 36.081 C 321.667 37.079,321.355 37.530,320.917 37.167 C 320.601 36.905,320.567 35.235,320.875 35.110 C 320.990 35.064,321.096 35.020,321.111 35.013 C 321.127 35.006,321.258 35.046,321.403 35.101 M326.903 35.101 C 327.290 35.250,327.295 39.895,326.909 40.282 C 326.767 40.424,326.600 40.489,326.538 40.426 C 326.269 40.158,326.311 35.000,326.582 35.000 C 326.613 35.000,326.758 35.046,326.903 35.101 M332.167 35.583 C 332.167 35.904,332.092 36.167,332.000 36.167 C 331.908 36.167,331.833 35.904,331.833 35.583 C 331.833 35.262,331.908 35.000,332.000 35.000 C 332.092 35.000,332.167 35.262,332.167 35.583 M354.903 35.101 C 355.290 35.250,355.295 39.895,354.909 40.282 C 354.767 40.424,354.600 40.489,354.538 40.426 C 354.269 40.158,354.311 35.000,354.582 35.000 C 354.613 35.000,354.758 35.046,354.903 35.101 M360.629 37.805 C 360.669 40.129,360.640 40.500,360.421 40.500 C 360.231 40.500,360.167 40.311,360.167 39.750 C 360.167 39.337,360.092 39.000,360.000 39.000 C 359.904 39.000,359.833 38.472,359.833 37.750 C 359.833 37.028,359.904 36.500,360.000 36.500 C 360.092 36.500,360.167 36.156,360.167 35.736 C 360.167 35.199,360.229 34.993,360.375 35.041 C 360.528 35.092,360.596 35.831,360.629 37.805 M153.833 37.667 C 153.833 38.222,153.778 38.333,153.500 38.333 C 153.278 38.333,153.167 38.222,153.167 38.000 C 153.167 37.817,153.242 37.667,153.333 37.667 C 153.425 37.667,153.500 37.517,153.500 37.333 C 153.500 37.150,153.575 37.000,153.667 37.000 C 153.758 37.000,153.833 37.300,153.833 37.667 M222.833 38.333 C 222.833 38.517,222.908 38.667,223.000 38.667 C 223.092 38.667,223.167 39.004,223.167 39.417 C 223.167 39.829,223.092 40.167,223.000 40.167 C 222.908 40.167,222.833 40.317,222.833 40.500 C 222.833 40.683,222.758 40.833,222.667 40.833 C 222.575 40.833,222.500 40.683,222.500 40.500 C 222.500 40.317,222.425 40.167,222.333 40.167 C 222.242 40.167,222.167 39.829,222.167 39.417 C 222.167 39.004,222.242 38.667,222.333 38.667 C 222.425 38.667,222.500 38.517,222.500 38.333 C 222.500 38.150,222.575 38.000,222.667 38.000 C 222.758 38.000,222.833 38.150,222.833 38.333 M289.458 38.785 C 289.708 39.322,289.733 40.167,289.500 40.167 C 289.408 40.167,289.333 40.317,289.333 40.500 C 289.333 40.683,289.258 40.833,289.167 40.833 C 289.075 40.833,289.000 40.683,289.000 40.500 C 289.000 40.317,288.925 40.167,288.833 40.167 C 288.593 40.167,288.628 38.864,288.875 38.583 C 289.164 38.254,289.221 38.274,289.458 38.785 M203.333 40.000 C 203.333 40.448,203.258 40.860,203.167 40.917 C 203.062 40.981,203.000 40.637,203.000 40.000 C 203.000 39.363,203.062 39.019,203.167 39.083 C 203.258 39.140,203.333 39.552,203.333 40.000 M68.500 40.000 C 68.500 40.458,68.425 40.833,68.333 40.833 C 68.242 40.833,68.167 40.458,68.167 40.000 C 68.167 39.542,68.242 39.167,68.333 39.167 C 68.425 39.167,68.500 39.542,68.500 40.000 M100.500 40.000 C 100.500 40.458,100.425 40.833,100.333 40.833 C 100.242 40.833,100.167 40.458,100.167 40.000 C 100.167 39.542,100.242 39.167,100.333 39.167 C 100.425 39.167,100.500 39.542,100.500 40.000 M135.000 40.000 C 135.000 40.458,134.925 40.833,134.833 40.833 C 134.742 40.833,134.667 40.458,134.667 40.000 C 134.667 39.542,134.742 39.167,134.833 39.167 C 134.925 39.167,135.000 39.542,135.000 40.000 M167.667 40.000 C 167.667 40.458,167.592 40.833,167.500 40.833 C 167.408 40.833,167.333 40.458,167.333 40.000 C 167.333 39.542,167.408 39.167,167.500 39.167 C 167.592 39.167,167.667 39.542,167.667 40.000 M236.667 40.000 C 236.667 40.458,236.592 40.833,236.500 40.833 C 236.408 40.833,236.333 40.458,236.333 40.000 C 236.333 39.542,236.408 39.167,236.500 39.167 C 236.592 39.167,236.667 39.542,236.667 40.000 M270.500 40.000 C 270.500 40.458,270.425 40.833,270.333 40.833 C 270.242 40.833,270.167 40.458,270.167 40.000 C 270.167 39.542,270.242 39.167,270.333 39.167 C 270.425 39.167,270.500 39.542,270.500 40.000 M303.167 40.000 C 303.167 40.458,303.092 40.833,303.000 40.833 C 302.908 40.833,302.833 40.458,302.833 40.000 C 302.833 39.542,302.908 39.167,303.000 39.167 C 303.092 39.167,303.167 39.542,303.167 40.000 M335.167 40.000 C 335.167 40.458,335.092 40.833,335.000 40.833 C 334.908 40.833,334.833 40.458,334.833 40.000 C 334.833 39.542,334.908 39.167,335.000 39.167 C 335.092 39.167,335.167 39.542,335.167 40.000 M368.619 40.458 C 368.581 40.710,368.550 40.504,368.550 40.000 C 368.550 39.496,368.581 39.290,368.619 39.542 C 368.658 39.794,368.658 40.206,368.619 40.458 M36.500 40.000 C 36.500 40.275,36.425 40.500,36.333 40.500 C 36.242 40.500,36.167 40.275,36.167 40.000 C 36.167 39.725,36.242 39.500,36.333 39.500 C 36.425 39.500,36.500 39.725,36.500 40.000 " stroke="none" fill="#040404" fill-rule="evenodd"></path><path id="path2" d="M295.250 18.500 C 295.311 18.599,296.360 18.667,297.833 18.667 C 299.307 18.667,300.355 18.734,300.417 18.833 C 300.477 18.931,300.307 19.000,300.010 19.000 L 299.500 19.000 299.500 24.667 L 299.500 30.333 300.042 30.363 C 300.340 30.380,300.021 30.441,299.333 30.500 L 298.083 30.607 299.417 30.677 C 300.150 30.716,291.563 30.786,280.333 30.833 C 267.624 30.886,281.199 30.934,316.292 30.959 L 372.667 31.000 372.667 24.667 L 372.667 18.333 333.907 18.333 C 308.109 18.333,295.181 18.389,295.250 18.500 " stroke="none" fill="#dce4ec" fill-rule="evenodd"></path><path id="path3" d="M242.417 18.500 L 239.583 18.596 241.750 18.661 C 242.942 18.697,243.579 18.754,243.167 18.787 L 242.417 18.848 242.463 24.591 L 242.508 30.333 243.796 30.357 C 244.868 30.377,244.972 30.401,244.417 30.500 L 243.750 30.619 244.500 30.684 C 244.912 30.719,237.300 30.790,227.583 30.841 C 213.801 30.914,216.109 30.928,238.083 30.906 C 261.002 30.882,266.561 30.834,267.917 30.647 C 269.068 30.488,269.391 30.401,268.961 30.365 L 268.338 30.313 268.294 24.615 L 268.250 18.917 267.500 18.833 C 267.022 18.780,266.765 18.675,266.792 18.542 C 266.835 18.323,248.601 18.291,242.417 18.500 " stroke="none" fill="#adbfd3" fill-rule="evenodd"></path><path id="path4" d="M213.750 18.500 C 212.283 18.553,211.383 18.624,211.750 18.658 C 212.399 18.718,212.402 18.722,211.875 18.787 L 211.333 18.854 211.333 24.584 L 211.333 30.313 211.958 30.379 L 212.583 30.444 211.865 30.472 C 211.435 30.489,211.188 30.567,211.250 30.667 C 211.318 30.776,217.155 30.825,228.302 30.808 C 237.623 30.795,244.912 30.734,244.500 30.673 L 243.750 30.563 244.417 30.476 C 244.887 30.415,244.705 30.381,243.796 30.361 L 242.508 30.333 242.463 24.591 L 242.417 18.848 243.167 18.787 C 243.579 18.754,242.942 18.697,241.750 18.661 L 239.583 18.596 242.417 18.500 C 243.975 18.447,238.762 18.404,230.833 18.404 C 222.904 18.404,215.217 18.447,213.750 18.500 M198.720 30.958 C 200.811 30.985,204.186 30.985,206.220 30.958 C 208.253 30.932,206.542 30.910,202.417 30.910 C 198.292 30.910,196.628 30.932,198.720 30.958 " stroke="none" fill="#96acc6" fill-rule="evenodd"></path><path id="path5" d="M186.083 18.492 L 188.083 18.583 186.792 18.723 L 185.500 18.862 185.500 24.598 L 185.500 30.333 186.125 30.360 C 186.683 30.383,186.661 30.396,185.917 30.486 C 184.333 30.677,191.276 30.832,201.385 30.833 C 207.988 30.833,211.318 30.777,211.250 30.667 C 211.188 30.567,211.435 30.489,211.865 30.472 L 212.583 30.444 211.958 30.379 L 211.333 30.313 211.333 24.584 L 211.333 18.854 211.875 18.787 C 212.402 18.722,212.399 18.718,211.750 18.658 C 211.383 18.624,212.283 18.553,213.750 18.500 C 215.217 18.447,209.142 18.403,200.250 18.402 C 191.358 18.401,184.983 18.442,186.083 18.492 " stroke="none" fill="#809cbc" fill-rule="evenodd"></path><path id="path6" d="M24.944 18.444 C 24.723 18.666,24.817 30.613,25.042 30.788 C 25.175 30.891,39.711 30.948,65.417 30.945 C 97.569 30.942,101.693 30.920,86.083 30.835 C 70.813 30.752,66.267 30.680,65.125 30.501 L 63.667 30.273 63.667 24.636 L 63.667 19.000 64.153 19.000 C 64.420 19.000,64.669 18.910,64.706 18.799 C 64.753 18.656,65.751 18.569,68.178 18.495 C 70.051 18.438,61.115 18.378,48.319 18.362 C 35.524 18.346,25.006 18.383,24.944 18.444 " stroke="none" fill="#093c7c" fill-rule="evenodd"></path><path id="path7" d="M139.142 18.481 C 139.286 18.572,138.907 18.667,138.101 18.743 L 136.833 18.862 136.833 24.751 L 136.833 30.640 138.125 30.734 C 138.835 30.786,151.942 30.857,167.250 30.892 C 191.272 30.947,195.389 30.899,186.833 30.663 C 185.373 30.622,185.221 30.595,185.917 30.500 C 186.681 30.395,186.699 30.384,186.125 30.360 L 185.500 30.333 185.500 24.598 L 185.500 18.862 186.792 18.724 L 188.083 18.586 185.833 18.479 C 182.387 18.316,138.884 18.318,139.142 18.481 " stroke="none" fill="#718fb1" fill-rule="evenodd"></path><path id="path8" d="M266.749 18.501 C 266.625 18.702,266.880 18.804,267.667 18.869 L 268.250 18.917 268.294 24.615 L 268.338 30.313 268.961 30.368 C 269.417 30.408,269.206 30.471,268.167 30.605 C 267.082 30.744,270.737 30.785,283.750 30.780 C 293.100 30.776,300.150 30.725,299.417 30.667 L 298.083 30.561 299.333 30.504 C 300.021 30.472,300.340 30.416,300.042 30.379 L 299.500 30.312 299.500 24.656 L 299.500 19.000 300.010 19.000 C 300.307 19.000,300.477 18.931,300.417 18.833 C 300.355 18.734,299.307 18.667,297.833 18.667 C 296.360 18.667,295.311 18.599,295.250 18.500 C 295.107 18.269,266.892 18.270,266.749 18.501 " stroke="none" fill="#bcc4dc" fill-rule="evenodd"></path></g></svg>