<svg id="svg" version="1.1" xmlns="http://www.w3.org/2000/svg" xmlns:xlink="http://www.w3.org/1999/xlink" width="400" height="1743.3962264150944" viewBox="0, 0, 400,1743.3962264150944"><g id="svgg"><path id="path0" d="M168.553 111.950 L 168.553 125.786 110.692 125.786 L 52.830 125.786 52.830 134.591 L 52.830 143.396 118.239 143.396 L 183.648 143.396 183.648 120.755 L 183.648 98.113 176.101 98.113 C 168.630 98.113,168.553 98.253,168.553 111.950 M120.755 188.465 C 46.370 204.818,52.830 202.673,52.830 211.014 L 52.830 218.158 113.571 231.422 C 146.978 238.717,176.412 245.235,178.979 245.907 C 182.955 246.947,183.648 245.627,183.648 237.007 L 183.648 226.887 171.069 225.157 L 158.491 223.427 158.491 211.357 L 158.491 199.286 170.440 197.117 C 181.978 195.022,182.417 194.622,183.171 185.524 C 184.143 173.789,188.429 173.587,120.755 188.465 M236.478 213.836 L 236.478 231.447 281.761 231.447 L 327.044 231.447 327.044 213.836 C 327.044 196.730,326.864 196.226,320.755 196.226 C 315.094 196.226,314.465 197.233,314.465 206.289 L 314.465 216.352 300.629 216.352 L 286.792 216.352 286.792 207.547 C 286.792 199.832,286.014 198.742,280.503 198.742 C 274.993 198.742,274.214 199.832,274.214 207.547 L 274.214 216.352 261.635 216.352 L 249.057 216.352 249.057 206.289 C 249.057 197.233,248.428 196.226,242.767 196.226 C 236.658 196.226,236.478 196.730,236.478 213.836 M142.480 218.107 C 141.131 219.456,107.014 214.520,100.629 212.053 C 98.553 211.251,107.044 208.777,119.497 206.555 L 142.138 202.516 142.945 209.676 C 143.388 213.614,143.179 217.408,142.480 218.107 M236.478 281.761 C 236.478 301.551,236.583 301.887,242.767 301.887 C 247.799 301.887,249.057 300.629,249.057 295.597 L 249.057 289.308 288.050 289.308 L 327.044 289.308 327.044 281.761 L 327.044 274.214 288.050 274.214 L 249.057 274.214 249.057 267.925 C 249.057 262.893,247.799 261.635,242.767 261.635 C 236.583 261.635,236.478 261.971,236.478 281.761 M149.686 282.847 L 122.013 293.718 118.927 288.006 C 115.072 280.868,103.556 276.730,87.550 276.730 C 63.396 276.730,52.830 288.571,52.830 315.642 L 52.830 329.560 118.239 329.560 L 183.648 329.560 183.648 320.755 L 183.648 311.950 155.346 311.849 L 127.044 311.748 154.717 301.151 L 182.390 290.554 183.171 281.126 C 184.151 269.295,184.189 269.293,149.686 282.847 M108.088 301.721 C 113.018 310.934,111.278 311.950,90.566 311.950 C 69.692 311.950,64.821 308.512,73.459 299.874 C 78.724 294.610,105.033 296.013,108.088 301.721 M276.730 338.521 C 255.283 343.190,237.453 347.045,237.107 347.090 C 236.761 347.134,236.478 349.725,236.478 352.849 C 236.478 357.802,308.558 377.718,325.324 377.398 C 332.434 377.262,325.175 363.463,317.610 362.734 C 304.776 361.496,305.285 345.992,318.239 343.562 C 325.462 342.207,327.044 340.801,327.044 335.735 C 327.044 327.794,325.663 327.870,276.730 338.521 M299.371 352.971 C 299.371 358.714,299.200 358.747,282.390 356.163 L 265.409 353.553 280.503 350.636 C 288.805 349.031,296.447 347.595,297.484 347.444 C 298.522 347.293,299.371 349.780,299.371 352.971 M52.830 379.874 L 52.830 389.937 108.088 389.937 C 160.078 389.937,163.498 390.224,165.940 394.786 C 173.933 409.720,164.073 412.579,104.568 412.579 L 52.830 412.579 52.830 421.384 L 52.830 430.189 109.559 430.189 C 180.093 430.189,186.164 427.816,186.164 400.254 C 186.164 373.598,177.794 370.384,107.547 370.062 L 52.830 369.811 52.830 379.874 M269.182 411.467 C 251.887 413.256,237.453 414.804,237.107 414.907 C 236.761 415.010,236.478 417.770,236.478 421.039 C 236.478 426.982,264.197 435.228,284.151 435.222 C 296.331 435.218,285.168 439.507,261.006 444.113 C 238.603 448.385,236.478 449.282,236.478 454.470 C 236.478 461.162,237.963 461.495,284.953 465.314 C 328.565 468.858,327.044 468.979,327.044 461.960 C 327.044 456.255,326.030 455.910,303.774 454.038 C 278.809 451.938,278.486 452.258,312.579 445.344 C 324.272 442.973,327.044 441.465,327.044 437.479 C 327.044 431.693,326.492 431.471,301.887 427.367 C 280.603 423.817,284.953 420.992,312.579 420.423 C 326.252 420.142,327.044 419.781,327.044 413.836 C 327.044 406.338,321.106 406.094,269.182 411.467 M52.830 490.566 L 52.830 520.755 61.635 520.755 C 70.231 520.755,70.440 520.515,70.440 510.692 L 70.440 500.629 127.044 500.629 L 183.648 500.629 183.648 490.566 L 183.648 480.503 127.044 480.503 L 70.440 480.503 70.440 470.440 C 70.440 460.617,70.231 460.377,61.635 460.377 L 52.830 460.377 52.830 490.566 M236.478 510.692 L 236.478 518.239 281.761 518.239 L 327.044 518.239 327.044 510.692 L 327.044 503.145 281.761 503.145 L 236.478 503.145 236.478 510.692 M120.755 553.245 C 46.370 569.598,52.830 567.453,52.830 575.793 L 52.830 582.938 113.571 596.202 C 146.978 603.497,176.412 610.015,178.979 610.687 C 182.955 611.727,183.648 610.407,183.648 601.787 L 183.648 591.667 171.069 589.937 L 158.491 588.207 158.491 576.137 L 158.491 564.066 170.440 561.897 C 181.978 559.802,182.417 559.402,183.171 550.304 C 184.143 538.569,188.429 538.367,120.755 553.245 M314.465 559.748 L 314.465 568.553 275.472 568.553 L 236.478 568.553 236.478 576.101 L 236.478 583.648 281.761 583.648 L 327.044 583.648 327.044 567.296 C 327.044 551.530,326.818 550.943,320.755 550.943 C 315.244 550.943,314.465 552.034,314.465 559.748 M142.480 582.887 C 141.131 584.236,107.014 579.300,100.629 576.833 C 98.553 576.031,107.044 573.557,119.497 571.335 L 142.138 567.296 142.945 574.456 C 143.388 578.394,143.179 582.188,142.480 582.887 M236.478 629.096 C 236.478 650.056,248.079 656.604,285.213 656.604 C 317.930 656.604,333.187 645.243,328.287 624.528 C 326.016 614.927,312.472 616.492,313.896 626.192 C 315.583 637.687,305.633 642.783,281.658 642.703 C 257.708 642.622,247.953 637.593,249.626 626.192 C 250.597 619.578,250.012 618.868,243.589 618.868 C 236.951 618.868,236.478 619.548,236.478 629.096 M52.830 651.501 L 52.830 661.493 86.925 662.193 L 121.020 662.893 87.554 674.508 L 54.088 686.124 53.307 695.263 L 52.526 704.403 118.087 704.403 L 183.648 704.403 183.648 694.213 L 183.648 684.024 145.283 685.407 L 106.918 686.789 145.283 673.644 L 183.648 660.499 183.648 651.004 L 183.648 641.509 118.239 641.509 L 52.830 641.509 52.830 651.501 M236.478 752.201 L 236.478 759.748 258.491 759.947 L 280.503 760.146 258.491 767.704 C 238.975 774.405,236.478 775.952,236.478 781.342 L 236.478 787.421 281.761 787.421 L 327.044 787.421 327.044 780.847 L 327.044 774.272 300.281 775.263 L 273.517 776.254 300.281 767.458 C 325.773 759.080,327.044 758.329,327.044 751.658 L 327.044 744.654 281.761 744.654 L 236.478 744.654 236.478 752.201 M75.472 805.237 C 59.051 812.595,55.094 819.379,53.479 842.943 L 52.111 862.893 117.880 862.893 L 183.648 862.893 183.644 845.912 C 183.639 823.612,178.421 813.125,163.618 805.660 C 147.756 797.662,92.965 797.398,75.472 805.237 M161.234 827.323 C 173.073 841.960,170.825 842.767,118.239 842.767 C 66.104 842.767,61.911 841.341,76.101 828.432 C 84.680 820.627,86.756 820.290,122.870 820.857 C 154.796 821.358,156.665 821.673,161.234 827.323 M255.472 827.833 C 238.435 832.095,231.725 845.063,238.041 861.523 C 245.692 881.463,322.134 876.703,327.997 855.921 C 334.650 832.338,296.510 817.567,255.472 827.833 M311.447 843.270 C 321.408 853.232,307.871 860.580,280.503 860.066 C 252.360 859.537,240.740 852.555,253.037 843.563 C 259.017 839.190,307.126 838.950,311.447 843.270 M52.830 913.137 L 52.830 923.128 86.925 923.828 L 121.020 924.528 87.554 936.144 L 54.088 947.759 53.307 956.898 L 52.526 966.038 118.087 966.038 L 183.648 966.038 183.648 955.849 L 183.648 945.659 145.283 947.042 L 106.918 948.425 145.283 935.279 L 183.648 922.134 183.648 912.639 L 183.648 903.145 118.239 903.145 L 52.830 903.145 52.830 913.137 M236.478 976.101 L 236.478 993.711 281.761 993.711 L 327.044 993.711 327.044 976.101 C 327.044 958.994,326.864 958.491,320.755 958.491 C 315.094 958.491,314.465 959.497,314.465 968.553 L 314.465 978.616 300.629 978.616 L 286.792 978.616 286.792 969.811 C 286.792 962.096,286.014 961.006,280.503 961.006 C 274.993 961.006,274.214 962.096,274.214 969.811 L 274.214 978.616 261.635 978.616 L 249.057 978.616 249.057 968.553 C 249.057 959.497,248.428 958.491,242.767 958.491 C 236.658 958.491,236.478 958.994,236.478 976.101 M133.333 1006.477 C 109.119 1011.862,81.101 1018.063,71.069 1020.256 C 51.243 1024.590,43.788 1036.205,58.491 1039.853 C 75.226 1044.005,178.996 1066.667,181.272 1066.667 C 191.619 1066.667,181.855 1047.723,170.440 1045.651 L 158.491 1043.481 158.491 1031.410 L 158.491 1019.340 171.069 1017.610 L 183.648 1015.880 183.648 1006.053 C 183.648 994.300,188.260 994.261,133.333 1006.477 M143.396 1032.117 L 143.396 1040.334 119.667 1036.559 C 92.371 1032.215,92.110 1031.700,115.091 1027.539 C 142.690 1022.541,143.396 1022.656,143.396 1032.117 M236.478 1039.813 C 236.478 1071.329,313.680 1079.677,326.279 1049.524 C 331.574 1036.850,328.891 1028.931,319.300 1028.931 C 314.568 1028.931,312.279 1029.944,313.296 1031.590 C 320.305 1042.930,306.293 1051.587,281.014 1051.535 C 257.948 1051.488,250.306 1047.866,250.339 1036.999 C 250.360 1029.862,249.562 1028.931,243.421 1028.931 C 236.911 1028.931,236.478 1029.609,236.478 1039.813 M236.478 1110.597 C 236.478 1116.682,236.894 1116.805,259.748 1117.516 L 283.019 1118.239 260.377 1126.054 C 240.159 1133.032,237.651 1134.580,236.940 1140.519 L 236.144 1147.170 281.594 1147.170 L 327.044 1147.170 327.044 1140.881 C 327.044 1134.598,327.017 1134.591,301.258 1134.333 L 275.472 1134.075 300.629 1126.023 C 323.695 1118.640,325.852 1117.407,326.582 1111.187 L 327.378 1104.403 281.928 1104.403 L 236.478 1104.403 236.478 1110.597 M52.830 1164.780 L 52.830 1174.843 88.679 1174.981 L 124.528 1175.118 88.679 1187.830 L 52.830 1200.542 52.830 1209.076 L 52.830 1217.610 118.239 1217.610 L 183.648 1217.610 183.648 1208.805 L 183.648 1200.000 146.541 1199.801 L 109.434 1199.603 146.541 1187.013 L 183.648 1174.423 183.648 1164.570 L 183.648 1154.717 118.239 1154.717 L 52.830 1154.717 52.830 1164.780 M236.478 1200.000 L 236.478 1217.610 281.761 1217.610 L 327.044 1217.610 327.044 1200.000 C 327.044 1182.893,326.864 1182.390,320.755 1182.390 C 315.094 1182.390,314.465 1183.396,314.465 1192.453 L 314.465 1202.516 300.629 1202.516 L 286.792 1202.516 286.792 1193.711 C 286.792 1185.996,286.014 1184.906,280.503 1184.906 C 274.993 1184.906,274.214 1185.996,274.214 1193.711 L 274.214 1202.516 261.635 1202.516 L 249.057 1202.516 249.057 1192.453 C 249.057 1183.396,248.428 1182.390,242.767 1182.390 C 236.658 1182.390,236.478 1182.893,236.478 1200.000 M154.717 1254.072 C 140.881 1257.215,112.296 1263.480,91.195 1267.995 C 52.858 1276.197,52.830 1276.208,52.830 1283.215 C 52.830 1291.610,47.271 1289.727,118.856 1305.573 C 187.536 1320.775,183.648 1320.534,183.648 1309.603 C 183.648 1300.556,183.112 1300.155,166.538 1296.815 C 158.425 1295.180,158.251 1294.872,158.991 1283.432 L 159.748 1271.723 171.698 1269.552 C 183.535 1267.401,183.648 1267.288,183.648 1257.589 C 183.648 1252.205,182.799 1247.924,181.761 1248.077 C 180.723 1248.231,168.553 1250.928,154.717 1254.072 M236.478 1261.635 L 236.478 1267.925 266.038 1267.952 C 306.588 1267.990,314.465 1269.471,314.465 1277.059 L 314.465 1283.019 275.472 1283.019 L 236.478 1283.019 236.478 1290.566 L 236.478 1298.113 276.170 1298.113 C 326.359 1298.113,335.564 1292.483,327.134 1266.941 C 323.498 1255.922,321.234 1255.422,274.843 1255.380 L 236.478 1255.346 236.478 1261.635 M143.396 1284.546 C 143.396 1291.715,142.576 1293.305,139.490 1292.121 C 137.342 1291.297,125.172 1289.223,112.446 1287.512 L 89.308 1284.401 113.208 1280.231 C 126.352 1277.937,138.522 1275.928,140.252 1275.766 C 142.241 1275.580,143.396 1278.807,143.396 1284.546 M314.465 1340.881 L 314.465 1350.943 275.472 1350.943 L 236.478 1350.943 236.478 1357.233 L 236.478 1363.522 281.761 1363.522 L 327.044 1363.522 327.044 1347.170 C 327.044 1331.405,326.818 1330.818,320.755 1330.818 C 315.094 1330.818,314.465 1331.824,314.465 1340.881 M108.176 1351.076 C 82.579 1353.550,59.654 1355.665,57.233 1355.775 C 53.951 1355.924,52.830 1358.132,52.830 1364.450 L 52.830 1372.925 88.679 1379.746 C 138.292 1389.186,137.639 1388.786,111.935 1393.976 C 99.490 1396.488,81.101 1400.363,71.069 1402.588 L 52.830 1406.633 52.830 1415.266 C 52.830 1422.741,53.654 1423.899,58.968 1423.899 C 65.657 1423.899,149.115 1430.447,170.440 1432.645 L 183.648 1434.006 183.648 1423.921 L 183.648 1413.836 164.151 1413.819 C 153.428 1413.809,136.730 1413.051,127.044 1412.134 L 109.434 1410.467 133.333 1405.907 C 185.951 1395.867,183.648 1396.652,183.648 1388.761 L 183.648 1381.651 146.541 1374.885 C 100.074 1366.411,100.235 1366.476,124.778 1366.236 C 135.984 1366.127,153.814 1365.306,164.400 1364.411 L 183.648 1362.784 183.648 1354.348 L 183.648 1345.912 169.182 1346.245 C 161.226 1346.428,133.774 1348.602,108.176 1351.076 M236.478 1415.094 L 236.478 1431.447 281.761 1431.447 L 327.044 1431.447 327.044 1425.157 C 327.044 1418.973,326.709 1418.868,306.918 1418.868 L 286.792 1418.868 286.792 1410.063 C 286.792 1402.348,286.014 1401.258,280.503 1401.258 C 274.993 1401.258,274.214 1402.348,274.214 1410.063 L 274.214 1418.868 261.635 1418.868 L 249.057 1418.868 249.057 1408.805 C 249.057 1399.748,248.428 1398.742,242.767 1398.742 C 236.704 1398.742,236.478 1399.329,236.478 1415.094 M52.830 1477.706 L 52.830 1486.230 107.145 1487.173 C 162.768 1488.138,168.553 1489.287,168.553 1499.371 C 168.553 1509.541,162.806 1510.672,107.125 1511.459 L 52.830 1512.227 52.830 1520.893 L 52.830 1529.560 109.316 1529.560 C 178.598 1529.560,186.164 1526.588,186.164 1499.371 C 186.164 1472.363,177.908 1469.182,107.801 1469.182 L 52.830 1469.182 52.830 1477.706 M236.478 1477.893 C 236.478 1483.977,236.894 1484.101,259.748 1484.811 L 283.019 1485.535 260.377 1493.349 C 240.159 1500.328,237.651 1501.875,236.940 1507.815 L 236.144 1514.465 281.594 1514.465 L 327.044 1514.465 327.044 1508.176 C 327.044 1501.893,327.017 1501.887,301.258 1501.629 L 275.472 1501.370 300.629 1493.318 C 323.695 1485.936,325.852 1484.703,326.582 1478.482 L 327.378 1471.698 281.928 1471.698 L 236.478 1471.698 236.478 1477.893 M236.478 1559.748 L 236.478 1567.296 281.761 1567.296 L 327.044 1567.296 327.044 1559.748 L 327.044 1552.201 281.761 1552.201 L 236.478 1552.201 236.478 1559.748 M52.830 1579.874 L 52.830 1589.937 77.987 1589.937 L 103.145 1589.937 103.145 1601.258 L 103.145 1612.579 77.987 1612.579 L 52.830 1612.579 52.830 1622.642 L 52.830 1632.704 118.239 1632.704 L 183.648 1632.704 183.648 1622.642 L 183.648 1612.579 152.201 1612.579 L 120.755 1612.579 120.755 1601.258 L 120.755 1589.937 152.201 1589.937 L 183.648 1589.937 183.648 1579.874 L 183.648 1569.811 118.239 1569.811 L 52.830 1569.811 52.830 1579.874 " stroke="none" fill="#000000" fill-rule="evenodd"></path></g></svg>