<svg id="svg" version="1.1" xmlns="http://www.w3.org/2000/svg" xmlns:xlink="http://www.w3.org/1999/xlink" width="400" height="1743.3962264150944" viewBox="0, 0, 400,1743.3962264150944"><g id="svgg"><path id="path0" d="M236.478 213.836 L 236.478 231.447 281.761 231.447 L 327.044 231.447 327.044 213.836 C 327.044 196.730,326.864 196.226,320.755 196.226 C 315.094 196.226,314.465 197.233,314.465 206.289 L 314.465 216.352 300.629 216.352 L 286.792 216.352 286.792 207.547 C 286.792 199.832,286.014 198.742,280.503 198.742 C 274.993 198.742,274.214 199.832,274.214 207.547 L 274.214 216.352 261.635 216.352 L 249.057 216.352 249.057 206.289 C 249.057 197.233,248.428 196.226,242.767 196.226 C 236.658 196.226,236.478 196.730,236.478 213.836 M236.478 281.761 C 236.478 301.551,236.583 301.887,242.767 301.887 C 247.799 301.887,249.057 300.629,249.057 295.597 L 249.057 289.308 288.050 289.308 L 327.044 289.308 327.044 281.761 L 327.044 274.214 288.050 274.214 L 249.057 274.214 249.057 267.925 C 249.057 262.893,247.799 261.635,242.767 261.635 C 236.583 261.635,236.478 261.971,236.478 281.761 M276.730 338.521 C 255.283 343.190,237.453 347.045,237.107 347.090 C 236.761 347.134,236.478 349.725,236.478 352.849 C 236.478 357.802,308.558 377.718,325.324 377.398 C 332.434 377.262,325.175 363.463,317.610 362.734 C 304.776 361.496,305.285 345.992,318.239 343.562 C 325.462 342.207,327.044 340.801,327.044 335.735 C 327.044 327.794,325.663 327.870,276.730 338.521 M299.371 352.971 C 299.371 358.714,299.200 358.747,282.390 356.163 L 265.409 353.553 280.503 350.636 C 288.805 349.031,296.447 347.595,297.484 347.444 C 298.522 347.293,299.371 349.780,299.371 352.971 M269.182 411.467 C 251.887 413.256,237.453 414.804,237.107 414.907 C 236.761 415.010,236.478 417.770,236.478 421.039 C 236.478 426.982,264.197 435.228,284.151 435.222 C 296.331 435.218,285.168 439.507,261.006 444.113 C 238.603 448.385,236.478 449.282,236.478 454.470 C 236.478 461.162,237.963 461.495,284.953 465.314 C 328.565 468.858,327.044 468.979,327.044 461.960 C 327.044 456.255,326.030 455.910,303.774 454.038 C 278.809 451.938,278.486 452.258,312.579 445.344 C 324.272 442.973,327.044 441.465,327.044 437.479 C 327.044 431.693,326.492 431.471,301.887 427.367 C 280.603 423.817,284.953 420.992,312.579 420.423 C 326.252 420.142,327.044 419.781,327.044 413.836 C 327.044 406.338,321.106 406.094,269.182 411.467 M236.478 510.692 L 236.478 518.239 281.761 518.239 L 327.044 518.239 327.044 510.692 L 327.044 503.145 281.761 503.145 L 236.478 503.145 236.478 510.692 M314.465 559.748 L 314.465 568.553 275.472 568.553 L 236.478 568.553 236.478 576.101 L 236.478 583.648 281.761 583.648 L 327.044 583.648 327.044 567.296 C 327.044 551.530,326.818 550.943,320.755 550.943 C 315.244 550.943,314.465 552.034,314.465 559.748 M236.478 629.096 C 236.478 650.056,248.079 656.604,285.213 656.604 C 317.930 656.604,333.187 645.243,328.287 624.528 C 326.016 614.927,312.472 616.492,313.896 626.192 C 315.583 637.687,305.633 642.783,281.658 642.703 C 257.708 642.622,247.953 637.593,249.626 626.192 C 250.597 619.578,250.012 618.868,243.589 618.868 C 236.951 618.868,236.478 619.548,236.478 629.096 M52.830 641.821 L 52.830 652.195 91.094 651.108 L 129.358 650.021 91.094 662.685 L 52.830 675.350 52.830 683.587 L 52.830 691.824 118.239 691.824 L 183.648 691.824 183.648 682.713 L 183.648 673.602 144.907 674.643 L 106.166 675.684 144.278 662.932 L 182.390 650.181 183.171 640.814 L 183.952 631.447 118.391 631.447 L 52.830 631.447 52.830 641.821 M120.755 736.892 C 46.370 753.245,52.830 751.101,52.830 759.441 L 52.830 766.585 113.571 779.850 C 146.978 787.145,176.412 793.663,178.979 794.335 C 182.955 795.374,183.648 794.055,183.648 785.435 L 183.648 775.315 171.069 773.585 L 158.491 771.855 158.491 759.785 L 158.491 747.714 170.440 745.544 C 181.978 743.450,182.417 743.050,183.171 733.952 C 184.143 722.216,188.429 722.014,120.755 736.892 M236.478 752.201 L 236.478 759.748 258.491 759.947 L 280.503 760.146 258.491 767.704 C 238.975 774.405,236.478 775.952,236.478 781.342 L 236.478 787.421 281.761 787.421 L 327.044 787.421 327.044 780.847 L 327.044 774.272 300.281 775.263 L 273.517 776.254 300.281 767.458 C 325.773 759.080,327.044 758.329,327.044 751.658 L 327.044 744.654 281.761 744.654 L 236.478 744.654 236.478 752.201 M142.480 766.535 C 141.131 767.883,107.014 762.948,100.629 760.480 C 98.553 759.678,107.044 757.204,119.497 754.983 L 142.138 750.943 142.945 758.103 C 143.388 762.042,143.179 765.836,142.480 766.535 M111.321 826.002 L 52.830 831.219 52.830 839.339 C 52.830 844.912,54.211 847.858,57.233 848.729 C 63.092 850.418,125.379 862.455,133.172 863.405 C 136.543 863.815,119.844 868.062,96.065 872.843 L 52.830 881.535 52.830 889.670 C 52.830 899.378,49.884 898.763,123.383 904.403 C 189.032 909.441,183.648 909.890,183.648 899.371 C 183.648 890.932,183.255 890.552,174.214 890.235 C 169.025 890.053,151.761 889.204,135.849 888.348 L 106.918 886.792 144.654 879.153 L 182.390 871.514 182.390 864.158 L 182.390 856.803 148.428 850.308 C 111.391 843.226,113.496 840.304,155.697 840.217 C 180.332 840.166,183.648 838.793,183.648 828.637 C 183.648 818.550,191.617 818.840,111.321 826.002 M255.472 827.833 C 238.435 832.095,231.725 845.063,238.041 861.523 C 245.692 881.463,322.134 876.703,327.997 855.921 C 334.650 832.338,296.510 817.567,255.472 827.833 M311.447 843.270 C 321.408 853.232,307.871 860.580,280.503 860.066 C 252.360 859.537,240.740 852.555,253.037 843.563 C 259.017 839.190,307.126 838.950,311.447 843.270 M52.830 953.139 L 52.830 963.522 108.088 963.522 C 160.144 963.522,163.496 963.804,165.949 968.388 C 174.487 984.341,168.416 986.164,106.739 986.164 L 52.830 986.164 52.830 996.226 L 52.830 1006.289 105.031 1006.275 C 175.305 1006.256,183.195 1003.589,185.553 979.058 C 188.480 948.590,181.335 945.260,110.063 943.871 L 52.830 942.755 52.830 953.139 M236.478 976.101 L 236.478 993.711 281.761 993.711 L 327.044 993.711 327.044 976.101 C 327.044 958.994,326.864 958.491,320.755 958.491 C 315.094 958.491,314.465 959.497,314.465 968.553 L 314.465 978.616 300.629 978.616 L 286.792 978.616 286.792 969.811 C 286.792 962.096,286.014 961.006,280.503 961.006 C 274.993 961.006,274.214 962.096,274.214 969.811 L 274.214 978.616 261.635 978.616 L 249.057 978.616 249.057 968.553 C 249.057 959.497,248.428 958.491,242.767 958.491 C 236.658 958.491,236.478 958.994,236.478 976.101 M236.478 1039.813 C 236.478 1071.329,313.680 1079.677,326.279 1049.524 C 331.574 1036.850,328.891 1028.931,319.300 1028.931 C 314.568 1028.931,312.279 1029.944,313.296 1031.590 C 320.305 1042.930,306.293 1051.587,281.014 1051.535 C 257.948 1051.488,250.306 1047.866,250.339 1036.999 C 250.360 1029.862,249.562 1028.931,243.421 1028.931 C 236.911 1028.931,236.478 1029.609,236.478 1039.813 M52.830 1055.346 L 52.830 1064.151 77.987 1064.151 L 103.145 1064.151 103.145 1076.730 L 103.145 1089.308 77.987 1089.308 L 52.830 1089.308 52.830 1098.113 L 52.830 1106.918 118.239 1106.918 L 183.648 1106.918 183.648 1098.113 L 183.648 1089.308 152.201 1089.308 L 120.755 1089.308 120.755 1076.730 L 120.755 1064.151 152.201 1064.151 L 183.648 1064.151 183.648 1055.346 L 183.648 1046.541 118.239 1046.541 L 52.830 1046.541 52.830 1055.346 M236.478 1110.597 C 236.478 1116.682,236.894 1116.805,259.748 1117.516 L 283.019 1118.239 260.377 1126.054 C 240.159 1133.032,237.651 1134.580,236.940 1140.519 L 236.144 1147.170 281.594 1147.170 L 327.044 1147.170 327.044 1140.881 C 327.044 1134.598,327.017 1134.591,301.258 1134.333 L 275.472 1134.075 300.629 1126.023 C 323.695 1118.640,325.852 1117.407,326.582 1111.187 L 327.378 1104.403 281.928 1104.403 L 236.478 1104.403 236.478 1110.597 M236.478 1200.000 L 236.478 1217.610 281.761 1217.610 L 327.044 1217.610 327.044 1200.000 C 327.044 1182.893,326.864 1182.390,320.755 1182.390 C 315.094 1182.390,314.465 1183.396,314.465 1192.453 L 314.465 1202.516 300.629 1202.516 L 286.792 1202.516 286.792 1193.711 C 286.792 1185.996,286.014 1184.906,280.503 1184.906 C 274.993 1184.906,274.214 1185.996,274.214 1193.711 L 274.214 1202.516 261.635 1202.516 L 249.057 1202.516 249.057 1192.453 C 249.057 1183.396,248.428 1182.390,242.767 1182.390 C 236.658 1182.390,236.478 1182.893,236.478 1200.000 M236.478 1261.635 L 236.478 1267.925 266.038 1267.952 C 306.588 1267.990,314.465 1269.471,314.465 1277.059 L 314.465 1283.019 275.472 1283.019 L 236.478 1283.019 236.478 1290.566 L 236.478 1298.113 276.170 1298.113 C 326.359 1298.113,335.564 1292.483,327.134 1266.941 C 323.498 1255.922,321.234 1255.422,274.843 1255.380 L 236.478 1255.346 236.478 1261.635 M314.465 1340.881 L 314.465 1350.943 275.472 1350.943 L 236.478 1350.943 236.478 1357.233 L 236.478 1363.522 281.761 1363.522 L 327.044 1363.522 327.044 1347.170 C 327.044 1331.405,326.818 1330.818,320.755 1330.818 C 315.094 1330.818,314.465 1331.824,314.465 1340.881 M236.478 1415.094 L 236.478 1431.447 281.761 1431.447 L 327.044 1431.447 327.044 1425.157 C 327.044 1418.973,326.709 1418.868,306.918 1418.868 L 286.792 1418.868 286.792 1410.063 C 286.792 1402.348,286.014 1401.258,280.503 1401.258 C 274.993 1401.258,274.214 1402.348,274.214 1410.063 L 274.214 1418.868 261.635 1418.868 L 249.057 1418.868 249.057 1408.805 C 249.057 1399.748,248.428 1398.742,242.767 1398.742 C 236.704 1398.742,236.478 1399.329,236.478 1415.094 M236.478 1477.893 C 236.478 1483.977,236.894 1484.101,259.748 1484.811 L 283.019 1485.535 260.377 1493.349 C 240.159 1500.328,237.651 1501.875,236.940 1507.815 L 236.144 1514.465 281.594 1514.465 L 327.044 1514.465 327.044 1508.176 C 327.044 1501.893,327.017 1501.887,301.258 1501.629 L 275.472 1501.370 300.629 1493.318 C 323.695 1485.936,325.852 1484.703,326.582 1478.482 L 327.378 1471.698 281.928 1471.698 L 236.478 1471.698 236.478 1477.893 M236.478 1559.748 L 236.478 1567.296 281.761 1567.296 L 327.044 1567.296 327.044 1559.748 L 327.044 1552.201 281.761 1552.201 L 236.478 1552.201 236.478 1559.748 " stroke="none" fill="#000000" fill-rule="evenodd"></path></g></svg>