<svg id="svg" version="1.1" xmlns="http://www.w3.org/2000/svg" xmlns:xlink="http://www.w3.org/1999/xlink" width="400" height="370" viewBox="0, 0, 400,370"><g id="svgg"><path id="path0" d="M98.797 140.104 C 81.379 143.473,72.398 166.674,82.990 180.944 C 85.498 184.322,87.783 186.614,91.212 189.189 C 95.562 192.456,98.695 195.748,99.000 197.373 C 100.694 206.404,87.545 206.171,80.364 197.042 C 78.904 195.186,78.800 196.023,78.903 208.849 L 79.001 220.981 82.701 222.194 C 98.687 227.432,112.096 222.811,118.624 209.815 C 122.433 202.232,122.114 189.894,117.941 183.375 C 116.179 180.623,111.030 175.608,108.233 173.920 C 107.419 173.429,106.670 172.935,106.568 172.821 C 106.466 172.708,105.695 172.149,104.853 171.579 C 100.254 168.461,99.138 164.951,101.789 161.939 L 103.301 160.222 106.217 160.222 C 108.835 160.222,111.337 160.858,112.118 161.722 C 112.220 161.834,112.946 162.409,113.732 162.999 C 114.517 163.589,115.872 164.946,116.742 166.014 C 117.611 167.081,118.426 167.853,118.551 167.727 C 118.676 167.602,118.779 162.142,118.779 155.594 L 118.779 143.690 117.761 143.218 C 112.287 140.683,103.374 139.219,98.797 140.104 M216.651 140.087 C 210.137 141.646,206.481 143.406,202.863 146.725 C 198.883 150.375,195.596 154.934,193.889 159.167 C 193.450 160.256,192.941 161.433,192.757 161.782 C 192.443 162.380,192.234 163.114,191.357 166.698 C 190.110 171.789,190.009 172.913,190.009 181.684 C 190.009 187.836,190.167 191.463,190.499 192.969 C 190.768 194.191,191.234 196.355,191.536 197.780 C 197.930 228.035,233.604 234.155,246.539 207.216 C 248.454 203.226,248.859 202.161,249.557 199.260 C 249.900 197.835,250.338 196.157,250.531 195.531 C 252.696 188.483,251.368 167.549,248.327 160.777 C 248.145 160.370,247.633 159.147,247.192 158.060 C 246.750 156.972,245.733 155.013,244.933 153.705 C 244.133 152.398,243.473 151.206,243.468 151.057 C 243.420 149.839,236.618 144.065,233.463 142.565 C 229.143 140.511,220.317 139.210,216.651 140.087 M132.377 141.380 C 131.560 141.856,131.370 159.714,132.174 160.518 C 132.477 160.821,134.271 160.962,137.835 160.962 C 141.400 160.962,143.193 161.103,143.497 161.406 C 143.835 161.744,143.941 169.012,143.941 191.859 C 143.941 214.707,144.047 221.975,144.385 222.313 C 145.141 223.069,165.255 222.935,165.548 222.171 C 165.671 221.849,165.772 208.047,165.772 191.499 C 165.772 164.404,165.831 161.389,166.358 161.187 C 166.680 161.063,169.330 160.962,172.248 160.962 C 175.166 160.962,177.816 160.861,178.138 160.737 C 178.651 160.541,178.723 159.331,178.723 150.978 L 178.723 141.443 177.567 141.212 C 175.547 140.808,133.088 140.966,132.377 141.380 M269.843 141.332 L 269.010 141.697 269.010 181.783 C 269.010 212.467,269.114 221.973,269.454 222.313 C 269.835 222.694,290.600 223.034,290.922 222.664 C 290.967 222.613,291.092 216.660,291.200 209.436 L 291.397 196.300 297.209 196.062 C 303.720 195.795,308.781 194.622,310.852 192.900 C 311.174 192.633,311.540 192.414,311.666 192.414 C 313.451 192.414,318.727 186.695,320.371 182.979 C 327.520 166.820,320.816 148.050,306.238 143.410 C 300.279 141.513,272.987 139.955,269.843 141.332 M295.699 159.633 C 297.243 160.278,298.982 161.618,298.982 162.162 C 298.982 162.386,299.203 162.832,299.474 163.153 C 303.537 167.986,299.478 177.613,293.376 177.613 L 291.212 177.613 291.212 168.363 L 291.212 159.112 292.832 159.112 C 293.723 159.112,295.013 159.347,295.699 159.633 M223.905 161.425 C 229.546 165.160,230.937 188.545,226.166 199.445 C 224.285 203.744,219.701 205.076,217.143 202.068 C 209.897 193.549,211.284 163.669,219.056 160.852 C 220.427 160.355,222.693 160.622,223.905 161.425 " stroke="none" fill="#fcfbf9" fill-rule="evenodd"></path><path id="path1" d="M64.015 7.956 C 64.015 8.414,63.336 8.511,60.130 8.511 C 56.923 8.511,56.244 8.608,56.244 9.066 C 56.244 9.497,55.751 9.621,54.024 9.621 C 52.297 9.621,51.804 9.744,51.804 10.176 C 51.804 10.587,51.372 10.731,50.139 10.731 C 48.905 10.731,48.474 10.875,48.474 11.286 C 48.474 11.697,48.042 11.841,46.809 11.841 C 45.575 11.841,45.143 11.985,45.143 12.396 C 45.143 12.766,44.773 12.951,44.033 12.951 C 43.293 12.951,42.923 13.136,42.923 13.506 C 42.923 13.876,42.553 14.061,41.813 14.061 C 41.073 14.061,40.703 14.246,40.703 14.616 C 40.703 14.921,40.453 15.171,40.148 15.171 C 39.843 15.171,39.593 15.421,39.593 15.726 C 39.593 16.096,39.223 16.281,38.483 16.281 C 37.743 16.281,37.373 16.466,37.373 16.836 C 37.373 17.142,37.123 17.391,36.818 17.391 C 36.512 17.391,36.263 17.641,36.263 17.946 C 36.263 18.252,36.013 18.501,35.708 18.501 C 35.402 18.501,35.153 18.751,35.153 19.056 C 35.153 19.362,34.903 19.611,34.598 19.611 C 34.292 19.611,34.043 19.861,34.043 20.167 C 34.043 20.472,33.793 20.722,33.488 20.722 C 33.182 20.722,32.932 20.971,32.932 21.277 C 32.932 21.582,32.683 21.832,32.377 21.832 C 32.072 21.832,31.822 22.081,31.822 22.387 C 31.822 22.692,31.573 22.942,31.267 22.942 C 30.897 22.942,30.712 23.312,30.712 24.052 C 30.712 24.792,30.527 25.162,30.157 25.162 C 29.852 25.162,29.602 25.412,29.602 25.717 C 29.602 26.022,29.352 26.272,29.047 26.272 C 28.677 26.272,28.492 26.642,28.492 27.382 C 28.492 28.122,28.307 28.492,27.937 28.492 C 27.567 28.492,27.382 28.862,27.382 29.602 C 27.382 30.342,27.197 30.712,26.827 30.712 C 26.457 30.712,26.272 31.082,26.272 31.822 C 26.272 32.562,26.087 32.932,25.717 32.932 C 25.306 32.932,25.162 33.364,25.162 34.598 C 25.162 35.831,25.018 36.263,24.607 36.263 C 24.196 36.263,24.052 36.694,24.052 37.928 C 24.052 39.161,23.908 39.593,23.497 39.593 C 23.053 39.593,22.942 40.148,22.942 42.368 C 22.942 44.588,22.831 45.143,22.387 45.143 C 21.894 45.143,21.832 60.870,21.832 184.459 C 21.832 308.048,21.894 323.774,22.387 323.774 C 22.839 323.774,22.942 324.391,22.942 327.105 C 22.942 329.818,23.045 330.435,23.497 330.435 C 23.908 330.435,24.052 330.866,24.052 332.100 C 24.052 333.333,24.196 333.765,24.607 333.765 C 25.018 333.765,25.162 334.197,25.162 335.430 C 25.162 336.664,25.306 337.095,25.717 337.095 C 26.087 337.095,26.272 337.465,26.272 338.205 C 26.272 338.945,26.457 339.315,26.827 339.315 C 27.197 339.315,27.382 339.685,27.382 340.426 C 27.382 341.166,27.567 341.536,27.937 341.536 C 28.307 341.536,28.492 341.906,28.492 342.646 C 28.492 343.386,28.677 343.756,29.047 343.756 C 29.417 343.756,29.602 344.126,29.602 344.866 C 29.602 345.606,29.787 345.976,30.157 345.976 C 30.463 345.976,30.712 346.226,30.712 346.531 C 30.712 346.836,30.962 347.086,31.267 347.086 C 31.573 347.086,31.822 347.336,31.822 347.641 C 31.822 347.946,32.072 348.196,32.377 348.196 C 32.683 348.196,32.932 348.446,32.932 348.751 C 32.932 349.056,33.182 349.306,33.488 349.306 C 33.793 349.306,34.043 349.556,34.043 349.861 C 34.043 350.167,34.292 350.416,34.598 350.416 C 34.903 350.416,35.153 350.666,35.153 350.971 C 35.153 351.277,35.402 351.526,35.708 351.526 C 36.013 351.526,36.263 351.776,36.263 352.081 C 36.263 352.387,36.512 352.636,36.818 352.636 C 37.123 352.636,37.373 352.886,37.373 353.191 C 37.373 353.497,37.623 353.747,37.928 353.747 C 38.233 353.747,38.483 353.996,38.483 354.302 C 38.483 354.672,38.853 354.857,39.593 354.857 C 40.333 354.857,40.703 355.042,40.703 355.412 C 40.703 355.717,40.953 355.967,41.258 355.967 C 41.563 355.967,41.813 356.216,41.813 356.522 C 41.813 356.892,42.183 357.077,42.923 357.077 C 43.663 357.077,44.033 357.262,44.033 357.632 C 44.033 358.002,44.403 358.187,45.143 358.187 C 45.883 358.187,46.253 358.372,46.253 358.742 C 46.253 359.153,46.685 359.297,47.919 359.297 C 49.152 359.297,49.584 359.441,49.584 359.852 C 49.584 360.284,50.077 360.407,51.804 360.407 C 53.531 360.407,54.024 360.530,54.024 360.962 C 54.024 361.394,54.517 361.517,56.244 361.517 C 57.971 361.517,58.464 361.640,58.464 362.072 C 58.464 362.565,74.314 362.627,198.890 362.627 C 323.466 362.627,339.315 362.565,339.315 362.072 C 339.315 361.628,339.870 361.517,342.091 361.517 C 344.311 361.517,344.866 361.406,344.866 360.962 C 344.866 360.530,345.359 360.407,347.086 360.407 C 348.813 360.407,349.306 360.284,349.306 359.852 C 349.306 359.441,349.738 359.297,350.971 359.297 C 352.205 359.297,352.636 359.153,352.636 358.742 C 352.636 358.372,353.006 358.187,353.747 358.187 C 354.487 358.187,354.857 358.002,354.857 357.632 C 354.857 357.262,355.227 357.077,355.967 357.077 C 356.707 357.077,357.077 356.892,357.077 356.522 C 357.077 356.216,357.327 355.967,357.632 355.967 C 357.937 355.967,358.187 355.717,358.187 355.412 C 358.187 355.042,358.557 354.857,359.297 354.857 C 360.037 354.857,360.407 354.672,360.407 354.302 C 360.407 353.996,360.657 353.747,360.962 353.747 C 361.267 353.747,361.517 353.497,361.517 353.191 C 361.517 352.886,361.767 352.636,362.072 352.636 C 362.377 352.636,362.627 352.387,362.627 352.081 C 362.627 351.776,362.877 351.526,363.182 351.526 C 363.488 351.526,363.737 351.277,363.737 350.971 C 363.737 350.666,363.987 350.416,364.292 350.416 C 364.598 350.416,364.847 350.167,364.847 349.861 C 364.847 349.556,365.097 349.306,365.402 349.306 C 365.708 349.306,365.957 349.056,365.957 348.751 C 365.957 348.446,366.207 348.196,366.512 348.196 C 366.818 348.196,367.068 347.946,367.068 347.641 C 367.068 347.336,367.317 347.086,367.623 347.086 C 367.928 347.086,368.178 346.836,368.178 346.531 C 368.178 346.226,368.427 345.976,368.733 345.976 C 369.103 345.976,369.288 345.606,369.288 344.866 C 369.288 344.126,369.473 343.756,369.843 343.756 C 370.213 343.756,370.398 343.386,370.398 342.646 C 370.398 341.906,370.583 341.536,370.953 341.536 C 371.323 341.536,371.508 341.166,371.508 340.426 C 371.508 339.685,371.693 339.315,372.063 339.315 C 372.433 339.315,372.618 338.945,372.618 338.205 C 372.618 337.465,372.803 337.095,373.173 337.095 C 373.584 337.095,373.728 336.664,373.728 335.430 C 373.728 334.197,373.872 333.765,374.283 333.765 C 374.694 333.765,374.838 333.333,374.838 332.100 C 374.838 330.866,374.982 330.435,375.393 330.435 C 375.845 330.435,375.948 329.818,375.948 327.105 C 375.948 324.391,376.051 323.774,376.503 323.774 C 376.996 323.774,377.058 308.048,377.058 184.459 C 377.058 60.870,376.996 45.143,376.503 45.143 C 376.059 45.143,375.948 44.588,375.948 42.368 C 375.948 40.148,375.837 39.593,375.393 39.593 C 374.982 39.593,374.838 39.161,374.838 37.928 C 374.838 36.694,374.694 36.263,374.283 36.263 C 373.872 36.263,373.728 35.831,373.728 34.598 C 373.728 33.364,373.584 32.932,373.173 32.932 C 372.803 32.932,372.618 32.562,372.618 31.822 C 372.618 31.082,372.433 30.712,372.063 30.712 C 371.693 30.712,371.508 30.342,371.508 29.602 C 371.508 28.862,371.323 28.492,370.953 28.492 C 370.583 28.492,370.398 28.122,370.398 27.382 C 370.398 26.642,370.213 26.272,369.843 26.272 C 369.537 26.272,369.288 26.022,369.288 25.717 C 369.288 25.412,369.038 25.162,368.733 25.162 C 368.363 25.162,368.178 24.792,368.178 24.052 C 368.178 23.312,367.993 22.942,367.623 22.942 C 367.317 22.942,367.068 22.692,367.068 22.387 C 367.068 22.081,366.818 21.832,366.512 21.832 C 366.207 21.832,365.957 21.582,365.957 21.277 C 365.957 20.971,365.708 20.722,365.402 20.722 C 365.097 20.722,364.847 20.472,364.847 20.167 C 364.847 19.861,364.598 19.611,364.292 19.611 C 363.987 19.611,363.737 19.362,363.737 19.056 C 363.737 18.751,363.488 18.501,363.182 18.501 C 362.877 18.501,362.627 18.252,362.627 17.946 C 362.627 17.641,362.377 17.391,362.072 17.391 C 361.767 17.391,361.517 17.142,361.517 16.836 C 361.517 16.466,361.147 16.281,360.407 16.281 C 359.667 16.281,359.297 16.096,359.297 15.726 C 359.297 15.356,358.927 15.171,358.187 15.171 C 357.447 15.171,357.077 14.986,357.077 14.616 C 357.077 14.311,356.827 14.061,356.522 14.061 C 356.216 14.061,355.967 13.811,355.967 13.506 C 355.967 13.136,355.597 12.951,354.857 12.951 C 354.117 12.951,353.747 12.766,353.747 12.396 C 353.747 11.985,353.315 11.841,352.081 11.841 C 350.848 11.841,350.416 11.697,350.416 11.286 C 350.416 10.875,349.985 10.731,348.751 10.731 C 347.518 10.731,347.086 10.587,347.086 10.176 C 347.086 9.744,346.593 9.621,344.866 9.621 C 343.139 9.621,342.646 9.497,342.646 9.066 C 342.646 8.608,341.967 8.511,338.760 8.511 C 335.553 8.511,334.875 8.414,334.875 7.956 C 334.875 7.463,319.581 7.401,199.445 7.401 C 79.309 7.401,64.015 7.463,64.015 7.956 M111.378 140.926 C 114.117 141.755,116.283 142.533,117.761 143.218 L 118.779 143.690 118.779 155.594 C 118.779 162.142,118.676 167.602,118.551 167.727 C 118.426 167.853,117.611 167.081,116.742 166.014 C 115.872 164.946,114.517 163.589,113.732 162.999 C 112.946 162.409,112.220 161.834,112.118 161.722 C 111.337 160.858,108.835 160.222,106.217 160.222 L 103.301 160.222 101.789 161.939 C 99.138 164.951,100.254 168.461,104.853 171.579 C 105.695 172.149,106.466 172.708,106.568 172.821 C 106.670 172.935,107.419 173.429,108.233 173.920 C 111.030 175.608,116.179 180.623,117.941 183.375 C 122.114 189.894,122.433 202.232,118.624 209.815 C 112.096 222.811,98.687 227.432,82.701 222.194 L 79.001 220.981 78.903 208.849 C 78.800 196.023,78.904 195.186,80.364 197.042 C 87.545 206.171,100.694 206.404,99.000 197.373 C 98.695 195.748,95.562 192.456,91.212 189.189 C 87.783 186.614,85.498 184.322,82.990 180.944 C 72.398 166.674,81.379 143.473,98.797 140.104 C 100.974 139.683,109.008 140.208,111.378 140.926 M228.837 140.797 C 232.077 141.700,235.624 143.498,237.925 145.403 C 240.122 147.223,243.450 150.618,243.468 151.057 C 243.473 151.206,244.133 152.398,244.933 153.705 C 245.733 155.013,246.750 156.972,247.192 158.060 C 247.633 159.147,248.145 160.370,248.327 160.777 C 251.368 167.549,252.696 188.483,250.531 195.531 C 250.338 196.157,249.900 197.835,249.557 199.260 C 247.052 209.661,239.060 219.703,230.917 222.680 C 213.774 228.948,195.708 217.525,191.536 197.780 C 191.234 196.355,190.768 194.191,190.499 192.969 C 190.167 191.463,190.009 187.836,190.009 181.684 C 190.009 172.913,190.110 171.789,191.357 166.698 C 192.234 163.114,192.443 162.380,192.757 161.782 C 192.941 161.433,193.450 160.256,193.889 159.167 C 195.596 154.934,198.883 150.375,202.863 146.725 C 206.481 143.406,210.137 141.646,216.651 140.087 C 218.231 139.709,226.705 140.203,228.837 140.797 M177.567 141.212 L 178.723 141.443 178.723 150.978 C 178.723 159.331,178.651 160.541,178.138 160.737 C 177.816 160.861,175.166 160.962,172.248 160.962 C 169.330 160.962,166.680 161.063,166.358 161.187 C 165.831 161.389,165.772 164.404,165.772 191.499 C 165.772 208.047,165.671 221.849,165.548 222.171 C 165.255 222.935,145.141 223.069,144.385 222.313 C 144.047 221.975,143.941 214.707,143.941 191.859 C 143.941 169.012,143.835 161.744,143.497 161.406 C 143.193 161.103,141.400 160.962,137.835 160.962 C 134.271 160.962,132.477 160.821,132.174 160.518 C 131.370 159.714,131.560 141.856,132.377 141.380 C 133.088 140.966,175.547 140.808,177.567 141.212 M299.907 141.894 C 315.001 144.432,323.034 153.794,323.034 168.847 C 323.034 177.522,320.827 184.197,316.423 188.835 C 315.158 190.167,312.172 192.414,311.666 192.414 C 311.540 192.414,311.174 192.633,310.852 192.900 C 308.781 194.622,303.720 195.795,297.209 196.062 L 291.397 196.300 291.200 209.436 C 291.092 216.660,290.967 222.613,290.922 222.664 C 290.600 223.034,269.835 222.694,269.454 222.313 C 269.114 221.973,269.010 212.467,269.010 181.783 L 269.010 141.697 269.843 141.332 C 271.170 140.751,295.850 141.212,299.907 141.894 M291.212 168.363 L 291.212 177.613 293.376 177.613 C 299.478 177.613,303.537 167.986,299.474 163.153 C 299.203 162.832,298.982 162.386,298.982 162.162 C 298.982 160.975,295.227 159.112,292.832 159.112 L 291.212 159.112 291.212 168.363 M219.056 160.852 C 211.284 163.669,209.897 193.549,217.143 202.068 C 219.701 205.076,224.285 203.744,226.166 199.445 C 230.937 188.545,229.546 165.160,223.905 161.425 C 222.693 160.622,220.427 160.355,219.056 160.852 " stroke="none" fill="#fca404" fill-rule="evenodd"></path></g></svg>