<svg id="svg" version="1.1" xmlns="http://www.w3.org/2000/svg" xmlns:xlink="http://www.w3.org/1999/xlink" width="400" height="48.03695150115474" viewBox="0, 0, 400,48.03695150115474"><g id="svgg"><path id="path0" d="M24.500 24.667 L 24.500 30.667 30.068 30.667 L 35.635 30.667 35.540 30.292 C 35.422 29.827,35.031 29.199,34.557 28.716 C 33.983 28.131,33.823 24.410,34.271 22.072 C 34.323 21.803,34.414 21.058,34.474 20.417 C 34.567 19.422,34.639 19.226,34.958 19.085 C 35.786 18.722,35.116 18.667,29.917 18.667 L 24.500 18.667 24.500 24.667 M31.691 26.591 C 31.550 27.691,31.542 27.645,31.541 25.667 C 31.540 23.863,31.560 23.708,31.690 24.507 C 31.778 25.051,31.778 25.909,31.691 26.591 M23.333 33.500 C 23.333 33.592,23.183 33.667,23.000 33.667 C 22.778 33.667,22.667 33.778,22.667 34.000 C 22.667 34.183,22.592 34.333,22.500 34.333 C 22.404 34.333,22.333 34.861,22.333 35.583 L 22.333 36.833 23.083 36.833 L 23.833 36.833 23.833 36.167 C 23.833 35.800,23.908 35.500,24.000 35.500 C 24.092 35.500,24.167 35.379,24.167 35.232 C 24.167 35.056,24.257 34.999,24.430 35.066 C 24.575 35.121,24.725 35.167,24.764 35.167 C 24.802 35.167,24.833 35.467,24.833 35.833 C 24.833 36.200,24.758 36.500,24.667 36.500 C 24.575 36.500,24.500 36.683,24.500 36.907 C 24.500 37.131,24.425 37.360,24.333 37.417 C 24.242 37.473,24.167 37.703,24.167 37.927 C 24.167 38.150,24.092 38.333,24.000 38.333 C 23.908 38.333,23.833 38.483,23.833 38.667 C 23.833 38.850,23.764 39.000,23.680 39.000 C 23.596 39.000,23.477 39.224,23.417 39.498 C 23.357 39.772,23.238 40.039,23.154 40.091 C 23.069 40.144,23.000 40.332,23.000 40.510 C 23.000 40.688,22.944 40.834,22.875 40.835 C 22.673 40.837,22.333 41.693,22.333 42.200 L 22.333 42.667 24.333 42.667 L 26.333 42.667 26.333 41.833 L 26.333 41.000 25.583 41.000 C 24.760 41.000,24.715 40.931,25.082 40.227 C 25.219 39.965,25.332 39.619,25.332 39.458 C 25.333 39.298,25.408 39.167,25.500 39.167 C 25.592 39.167,25.667 39.054,25.667 38.917 C 25.667 38.779,25.742 38.667,25.833 38.667 C 25.925 38.667,26.000 38.442,26.000 38.167 C 26.000 37.892,26.075 37.667,26.167 37.667 C 26.258 37.667,26.333 37.404,26.333 37.083 C 26.333 36.762,26.408 36.500,26.500 36.500 C 26.592 36.500,26.667 36.087,26.667 35.583 C 26.667 35.079,26.592 34.667,26.500 34.667 C 26.408 34.667,26.333 34.549,26.333 34.405 C 26.333 34.068,25.932 33.667,25.595 33.667 C 25.451 33.667,25.333 33.592,25.333 33.500 C 25.333 33.407,24.889 33.333,24.333 33.333 C 23.778 33.333,23.333 33.407,23.333 33.500 M55.833 33.500 C 55.833 33.592,55.753 33.667,55.655 33.667 C 55.389 33.667,55.000 34.105,55.000 34.405 C 55.000 34.549,54.925 34.667,54.833 34.667 C 54.742 34.667,54.667 34.929,54.667 35.250 C 54.667 35.571,54.592 35.833,54.500 35.833 C 54.397 35.833,54.333 36.722,54.333 38.167 C 54.333 39.611,54.397 40.500,54.500 40.500 C 54.592 40.500,54.667 40.722,54.667 40.994 C 54.667 42.405,56.908 43.274,57.924 42.258 C 58.149 42.033,58.333 41.733,58.333 41.591 C 58.333 41.449,58.408 41.333,58.500 41.333 C 58.605 41.333,58.667 40.167,58.667 38.167 C 58.667 36.167,58.605 35.000,58.500 35.000 C 58.408 35.000,58.333 34.807,58.333 34.571 C 58.333 34.125,58.154 33.892,57.537 33.542 C 57.101 33.293,55.833 33.262,55.833 33.500 M90.333 33.500 C 90.333 33.592,90.253 33.667,90.155 33.667 C 89.889 33.667,89.500 34.105,89.500 34.405 C 89.500 34.549,89.425 34.667,89.333 34.667 C 89.239 34.667,89.167 35.139,89.167 35.750 L 89.167 36.833 90.083 36.833 C 90.889 36.833,91.000 36.793,91.000 36.500 C 91.000 36.317,90.925 36.167,90.833 36.167 C 90.586 36.167,90.632 35.678,90.905 35.405 C 91.403 34.907,91.667 35.113,91.667 36.000 C 91.667 36.458,91.592 36.833,91.500 36.833 C 91.408 36.833,91.333 37.021,91.333 37.250 C 91.333 37.479,91.258 37.667,91.167 37.667 C 91.075 37.667,91.000 37.817,91.000 38.000 C 91.000 38.183,90.925 38.333,90.833 38.333 C 90.742 38.333,90.667 38.477,90.667 38.653 C 90.667 38.828,90.610 38.997,90.542 39.028 C 90.347 39.114,89.833 40.307,89.833 40.672 C 89.833 40.853,89.758 41.000,89.667 41.000 C 89.575 41.000,89.500 41.150,89.500 41.333 C 89.500 41.517,89.425 41.667,89.333 41.667 C 89.242 41.667,89.167 41.894,89.167 42.172 L 89.167 42.677 91.292 42.630 L 93.417 42.583 93.417 41.833 L 93.417 41.083 92.542 41.033 L 91.667 40.983 91.917 40.500 C 92.054 40.234,92.167 39.900,92.167 39.758 C 92.167 39.616,92.242 39.500,92.333 39.500 C 92.425 39.500,92.500 39.350,92.500 39.167 C 92.500 38.983,92.575 38.833,92.667 38.833 C 92.758 38.833,92.833 38.646,92.833 38.417 C 92.833 38.188,92.908 38.000,93.000 38.000 C 93.092 38.000,93.167 37.775,93.167 37.500 C 93.167 37.225,93.242 37.000,93.333 37.000 C 93.429 37.000,93.500 36.500,93.500 35.833 C 93.500 35.167,93.429 34.667,93.333 34.667 C 93.242 34.667,93.167 34.549,93.167 34.405 C 93.167 34.068,92.765 33.667,92.429 33.667 C 92.285 33.667,92.167 33.592,92.167 33.500 C 92.167 33.408,91.754 33.333,91.250 33.333 C 90.746 33.333,90.333 33.408,90.333 33.500 M108.030 33.751 C 107.830 33.981,107.667 34.281,107.667 34.418 C 107.667 34.555,107.592 34.667,107.500 34.667 C 107.408 34.667,107.333 35.079,107.333 35.583 L 107.333 36.500 108.083 36.500 C 108.806 36.500,108.833 36.481,108.833 36.000 C 108.833 35.725,108.908 35.500,109.000 35.500 C 109.092 35.500,109.167 35.379,109.167 35.232 C 109.167 35.056,109.257 34.999,109.430 35.066 C 109.575 35.121,109.725 35.167,109.764 35.167 C 110.149 35.167,109.780 36.839,109.375 36.927 C 108.520 37.115,108.500 37.138,108.500 37.911 C 108.500 38.639,108.518 38.667,109.000 38.667 C 109.333 38.667,109.500 38.750,109.500 38.917 C 109.500 39.054,109.575 39.167,109.667 39.167 C 109.959 39.167,109.869 40.784,109.570 40.899 C 109.000 41.118,108.833 41.008,108.833 40.417 C 108.833 39.836,108.829 39.833,108.083 39.833 L 107.333 39.833 107.333 40.841 C 107.333 42.307,107.728 42.667,109.338 42.667 C 110.557 42.667,111.000 42.470,111.000 41.929 C 111.000 41.785,111.075 41.667,111.167 41.667 C 111.258 41.667,111.333 41.479,111.333 41.250 C 111.333 41.021,111.408 40.833,111.500 40.833 C 111.592 40.833,111.667 40.421,111.667 39.917 C 111.667 39.412,111.592 39.000,111.500 39.000 C 111.408 39.000,111.333 38.781,111.333 38.514 C 111.333 38.247,111.240 37.984,111.125 37.931 C 110.958 37.853,110.958 37.814,111.125 37.736 C 111.384 37.615,111.424 34.333,111.167 34.333 C 111.075 34.333,111.000 34.183,111.000 34.000 C 111.000 33.778,110.889 33.667,110.667 33.667 C 110.483 33.667,110.333 33.592,110.333 33.500 C 110.333 33.105,108.409 33.315,108.030 33.751 M195.292 33.861 C 194.797 34.416,194.609 36.769,195.000 37.501 C 195.112 37.710,195.112 37.847,195.000 37.916 C 194.665 38.123,194.798 41.524,195.165 42.125 C 195.640 42.904,197.793 42.959,198.439 42.208 C 198.863 41.714,199.065 38.000,198.667 38.000 C 198.575 38.000,198.500 37.850,198.500 37.667 C 198.500 37.483,198.575 37.333,198.667 37.333 C 198.765 37.333,198.833 36.722,198.833 35.833 C 198.833 35.008,198.767 34.333,198.686 34.333 C 198.605 34.333,198.500 34.183,198.452 34.000 C 198.404 33.817,198.245 33.667,198.099 33.667 C 197.953 33.667,197.833 33.592,197.833 33.500 C 197.833 33.041,195.759 33.336,195.292 33.861 M211.875 33.923 L 211.333 34.491 211.333 36.517 C 211.333 38.819,211.503 39.167,212.627 39.167 C 213.203 39.167,213.204 39.168,213.088 39.792 C 213.024 40.135,212.903 40.442,212.819 40.472 C 212.735 40.503,212.667 40.634,212.667 40.764 C 212.667 40.894,212.592 41.000,212.500 41.000 C 212.408 41.000,212.333 41.150,212.333 41.333 C 212.333 41.517,212.258 41.667,212.167 41.667 C 212.075 41.667,212.000 41.892,212.000 42.167 C 212.000 42.662,212.009 42.667,212.917 42.667 C 213.824 42.667,213.833 42.662,213.833 42.167 C 213.833 41.892,213.908 41.667,214.000 41.667 C 214.092 41.667,214.167 41.517,214.167 41.333 C 214.167 41.150,214.242 41.000,214.333 41.000 C 214.425 41.000,214.500 40.887,214.500 40.750 C 214.500 40.612,214.575 40.500,214.667 40.500 C 214.758 40.500,214.833 40.365,214.833 40.200 C 214.833 40.035,214.927 39.806,215.042 39.692 C 215.191 39.543,215.250 38.736,215.250 36.855 C 215.250 34.098,215.139 33.667,214.429 33.667 C 214.285 33.667,214.167 33.592,214.167 33.500 C 214.167 33.031,212.419 33.354,211.875 33.923 M233.000 33.500 C 233.000 33.592,232.882 33.667,232.738 33.667 C 232.345 33.667,232.000 34.089,232.000 34.571 C 232.000 34.807,231.925 35.000,231.833 35.000 C 231.728 35.000,231.667 36.111,231.667 38.000 C 231.667 39.889,231.728 41.000,231.833 41.000 C 231.925 41.000,232.000 41.191,232.000 41.424 C 232.000 42.218,232.677 42.667,233.876 42.667 C 234.970 42.667,235.333 42.492,235.333 41.967 C 235.333 41.802,235.408 41.667,235.500 41.667 C 235.592 41.667,235.667 41.404,235.667 41.083 C 235.667 40.762,235.742 40.500,235.833 40.500 C 235.937 40.500,236.000 39.556,236.000 38.000 C 236.000 36.444,235.937 35.500,235.833 35.500 C 235.742 35.500,235.667 35.272,235.667 34.993 C 235.667 34.492,235.556 34.292,234.927 33.659 C 234.580 33.309,233.000 33.179,233.000 33.500 M267.500 33.500 C 267.500 33.592,267.350 33.667,267.167 33.667 C 266.944 33.667,266.833 33.778,266.833 34.000 C 266.833 34.183,266.758 34.333,266.667 34.333 C 266.570 34.333,266.500 34.861,266.500 35.583 L 266.500 36.833 267.250 36.833 L 268.000 36.833 268.000 36.018 C 268.000 35.177,268.224 34.904,268.750 35.106 C 269.033 35.215,269.110 36.500,268.833 36.500 C 268.742 36.500,268.667 36.688,268.667 36.917 C 268.667 37.146,268.592 37.333,268.500 37.333 C 268.408 37.333,268.333 37.432,268.333 37.552 C 268.333 37.672,268.146 38.160,267.917 38.635 C 267.688 39.110,267.500 39.574,267.500 39.666 C 267.500 39.758,267.425 39.833,267.333 39.833 C 267.242 39.833,267.167 40.058,267.167 40.333 C 267.167 40.608,267.092 40.833,267.000 40.833 C 266.908 40.833,266.833 40.946,266.833 41.083 C 266.833 41.221,266.758 41.333,266.667 41.333 C 266.575 41.333,266.500 41.477,266.500 41.653 C 266.500 41.828,266.412 42.002,266.303 42.038 C 266.194 42.074,266.154 42.228,266.215 42.385 C 266.308 42.629,266.604 42.667,268.411 42.667 L 270.500 42.667 270.500 41.833 L 270.500 41.000 269.571 41.000 C 268.734 41.000,268.668 40.975,268.900 40.743 C 269.228 40.415,269.833 39.055,269.833 38.645 C 269.833 38.474,269.908 38.333,270.000 38.333 C 270.092 38.333,270.167 38.183,270.167 38.000 C 270.167 37.817,270.242 37.667,270.333 37.667 C 270.433 37.667,270.500 37.000,270.500 36.000 C 270.500 35.000,270.433 34.333,270.333 34.333 C 270.242 34.333,270.167 34.183,270.167 34.000 C 270.167 33.778,270.056 33.667,269.833 33.667 C 269.650 33.667,269.500 33.592,269.500 33.500 C 269.500 33.407,269.056 33.333,268.500 33.333 C 267.944 33.333,267.500 33.407,267.500 33.500 M285.208 33.923 C 284.720 34.435,284.667 34.589,284.667 35.495 L 284.667 36.500 285.417 36.500 L 286.167 36.500 286.167 35.833 C 286.167 35.278,286.222 35.167,286.500 35.167 C 286.788 35.167,286.833 35.278,286.833 35.982 C 286.833 36.825,286.688 37.000,285.986 37.000 C 285.714 37.000,285.667 37.123,285.667 37.833 C 285.667 38.592,285.701 38.667,286.050 38.667 C 286.649 38.667,286.833 38.989,286.833 40.033 C 286.833 40.889,286.795 41.000,286.500 41.000 C 286.315 41.000,286.167 40.889,286.167 40.750 C 286.167 40.612,286.092 40.500,286.000 40.500 C 285.908 40.500,285.833 40.350,285.833 40.167 C 285.833 39.883,285.722 39.833,285.083 39.833 L 284.333 39.833 284.333 40.750 C 284.333 41.254,284.408 41.667,284.500 41.667 C 284.592 41.667,284.667 41.817,284.667 42.000 C 284.667 42.222,284.778 42.333,285.000 42.333 C 285.183 42.333,285.333 42.408,285.333 42.500 C 285.333 43.011,287.581 42.671,288.126 42.078 C 288.849 41.290,288.957 38.714,288.292 38.122 C 288.037 37.896,287.984 37.764,288.125 37.714 C 288.240 37.673,288.333 37.495,288.333 37.319 C 288.333 37.144,288.408 37.000,288.500 37.000 C 288.593 37.000,288.667 36.556,288.667 36.000 C 288.667 35.444,288.593 35.000,288.500 35.000 C 288.408 35.000,288.333 34.807,288.333 34.571 C 288.333 34.132,287.997 33.667,287.679 33.667 C 287.580 33.667,287.500 33.592,287.500 33.500 C 287.500 33.031,285.752 33.354,285.208 33.923 M372.917 33.667 C 372.858 33.850,372.666 34.000,372.489 34.000 C 372.092 34.000,371.984 37.220,372.375 37.403 C 372.542 37.481,372.542 37.519,372.375 37.597 C 372.260 37.651,372.167 37.913,372.167 38.181 C 372.167 38.448,372.092 38.667,372.000 38.667 C 371.905 38.667,371.833 39.167,371.833 39.833 C 371.833 40.500,371.905 41.000,372.000 41.000 C 372.092 41.000,372.167 41.191,372.167 41.424 C 372.167 41.658,372.351 42.033,372.576 42.258 C 373.437 43.119,375.833 42.628,375.833 41.591 C 375.833 41.449,375.908 41.333,376.000 41.333 C 376.099 41.333,376.167 40.722,376.167 39.833 C 376.167 38.944,376.099 38.333,376.000 38.333 C 375.908 38.333,375.833 38.000,375.833 37.593 C 375.833 37.186,375.908 36.807,376.000 36.750 C 376.092 36.693,376.167 36.276,376.167 35.823 C 376.167 35.371,376.092 35.000,376.000 35.000 C 375.908 35.000,375.833 34.809,375.833 34.576 C 375.833 33.499,373.228 32.687,372.917 33.667 M38.667 34.333 C 38.667 34.932,38.709 35.000,39.080 35.000 L 39.494 35.000 39.539 38.792 L 39.583 42.583 40.375 42.634 L 41.167 42.685 41.167 38.176 L 41.167 33.667 39.917 33.667 L 38.667 33.667 38.667 34.333 M72.198 34.292 C 72.243 34.834,72.310 34.924,72.708 34.969 L 73.167 35.022 73.167 38.844 L 73.167 42.667 73.917 42.667 L 74.667 42.667 74.667 38.167 L 74.667 33.667 73.407 33.667 L 72.147 33.667 72.198 34.292 M128.333 34.000 C 128.333 34.183,128.258 34.333,128.167 34.333 C 128.075 34.333,128.000 34.483,128.000 34.667 C 128.000 34.850,127.925 35.000,127.833 35.000 C 127.742 35.000,127.667 35.112,127.667 35.250 C 127.667 35.387,127.592 35.500,127.500 35.500 C 127.408 35.500,127.333 35.650,127.333 35.833 C 127.333 36.017,127.258 36.167,127.167 36.167 C 127.075 36.167,127.000 36.317,127.000 36.500 C 127.000 36.683,126.936 36.833,126.859 36.833 C 126.621 36.833,126.167 38.488,126.167 39.352 L 126.167 40.167 127.250 40.167 L 128.333 40.167 128.333 41.417 L 128.333 42.667 129.083 42.667 L 129.833 42.667 129.833 41.417 C 129.833 40.417,129.883 40.167,130.083 40.167 C 130.258 40.167,130.333 39.991,130.333 39.583 C 130.333 39.176,130.258 39.000,130.083 39.000 C 129.872 39.000,129.833 38.593,129.833 36.333 L 129.833 33.667 129.083 33.667 C 128.444 33.667,128.333 33.716,128.333 34.000 M145.167 34.333 C 145.167 34.700,145.092 35.000,145.000 35.000 C 144.905 35.000,144.833 35.489,144.833 36.133 C 144.833 36.757,144.751 37.349,144.650 37.450 C 144.198 37.902,144.651 38.333,145.577 38.333 C 146.593 38.333,146.667 38.424,146.667 39.668 C 146.667 40.781,146.359 41.068,145.312 40.930 L 144.517 40.824 144.401 41.439 C 144.220 42.408,144.430 42.576,145.891 42.632 L 147.164 42.681 147.790 42.054 L 148.417 41.428 148.417 39.562 C 148.417 37.395,148.136 36.833,147.054 36.833 C 146.540 36.833,146.500 36.795,146.502 36.292 C 146.507 35.129,146.617 35.000,147.603 35.000 L 148.500 35.000 148.500 34.333 L 148.500 33.667 146.833 33.667 L 145.167 33.667 145.167 34.333 M163.250 33.881 C 163.030 34.148,162.650 35.134,162.545 35.708 C 162.500 35.960,162.396 36.167,162.314 36.167 C 162.233 36.167,162.167 36.350,162.167 36.573 C 162.167 36.797,162.092 37.027,162.000 37.083 C 161.902 37.144,161.833 38.113,161.833 39.427 C 161.833 40.809,161.897 41.667,162.000 41.667 C 162.092 41.667,162.167 41.798,162.168 41.958 C 162.170 42.382,162.924 42.667,164.045 42.667 C 165.052 42.667,165.500 42.439,165.500 41.929 C 165.500 41.785,165.575 41.667,165.667 41.667 C 165.768 41.667,165.833 40.944,165.833 39.833 C 165.833 38.722,165.768 38.000,165.667 38.000 C 165.575 38.000,165.500 37.825,165.500 37.610 C 165.500 37.201,164.943 36.833,164.325 36.833 C 164.111 36.833,164.000 36.720,164.000 36.500 C 164.000 36.317,164.075 36.167,164.167 36.167 C 164.258 36.167,164.333 36.017,164.333 35.833 C 164.333 35.650,164.405 35.500,164.492 35.500 C 164.580 35.500,164.701 35.237,164.761 34.917 C 164.821 34.596,164.937 34.333,165.019 34.333 C 165.100 34.333,165.167 34.183,165.167 34.000 C 165.167 33.609,163.557 33.510,163.250 33.881 M178.833 34.333 L 178.833 35.000 179.835 35.000 L 180.837 35.000 180.727 35.708 C 180.666 36.098,180.552 36.442,180.475 36.472 C 180.397 36.503,180.333 36.709,180.333 36.931 C 180.333 37.152,180.258 37.333,180.167 37.333 C 180.075 37.333,180.000 37.558,180.000 37.833 C 180.000 38.108,179.925 38.333,179.833 38.333 C 179.742 38.333,179.667 38.516,179.667 38.740 C 179.667 38.964,179.592 39.193,179.500 39.250 C 179.408 39.307,179.333 39.521,179.333 39.727 C 179.333 39.932,179.257 40.177,179.163 40.270 C 179.070 40.364,178.946 40.946,178.888 41.563 L 178.783 42.686 179.683 42.635 L 180.583 42.583 180.723 41.542 C 180.800 40.969,180.931 40.500,181.015 40.500 C 181.098 40.500,181.167 40.275,181.167 40.000 C 181.167 39.725,181.242 39.500,181.333 39.500 C 181.425 39.500,181.500 39.237,181.500 38.917 C 181.500 38.596,181.575 38.333,181.667 38.333 C 181.758 38.333,181.833 38.108,181.833 37.833 C 181.833 37.558,181.908 37.333,182.000 37.333 C 182.092 37.333,182.167 37.150,182.167 36.927 C 182.167 36.703,182.242 36.473,182.333 36.417 C 182.425 36.360,182.500 36.062,182.500 35.754 C 182.500 35.446,182.566 35.169,182.647 35.139 C 182.728 35.108,182.847 34.765,182.912 34.375 L 183.029 33.667 180.931 33.667 L 178.833 33.667 178.833 34.333 M226.833 34.333 C 226.833 34.933,226.875 35.000,227.250 35.000 L 227.667 35.000 227.667 38.842 L 227.667 42.685 228.458 42.634 L 229.250 42.583 229.294 38.125 L 229.339 33.667 228.086 33.667 L 226.833 33.667 226.833 34.333 M244.032 34.292 C 244.077 34.834,244.144 34.924,244.542 34.969 L 245.000 35.022 245.000 38.844 L 245.000 42.667 245.750 42.667 L 246.500 42.667 246.500 38.167 L 246.500 33.667 245.240 33.667 L 243.980 33.667 244.032 34.292 M249.532 34.292 C 249.577 34.834,249.644 34.924,250.042 34.969 L 250.500 35.022 250.500 38.844 L 250.500 42.667 251.250 42.667 L 252.000 42.667 252.000 38.167 L 252.000 33.667 250.740 33.667 L 249.480 33.667 249.532 34.292 M261.333 34.333 C 261.333 34.933,261.375 35.000,261.750 35.000 L 262.167 35.000 262.167 38.833 L 262.167 42.667 262.917 42.667 L 263.667 42.667 263.667 38.167 L 263.667 33.667 262.500 33.667 L 261.333 33.667 261.333 34.333 M279.500 34.333 C 279.500 34.933,279.542 35.000,279.917 35.000 L 280.333 35.000 280.333 38.833 L 280.333 42.667 281.083 42.667 L 281.833 42.667 281.833 38.167 L 281.833 33.667 280.667 33.667 L 279.500 33.667 279.500 34.333 M298.500 34.333 C 298.500 34.889,298.556 35.000,298.833 35.000 C 299.157 35.000,299.167 35.111,299.167 38.833 L 299.167 42.667 300.083 42.667 L 301.000 42.667 301.000 38.167 L 301.000 33.667 299.750 33.667 L 298.500 33.667 298.500 34.333 M305.542 33.916 C 305.427 34.046,305.333 34.268,305.333 34.410 C 305.333 34.551,305.258 34.667,305.167 34.667 C 305.075 34.667,305.000 34.779,305.000 34.917 C 305.000 35.054,304.925 35.167,304.833 35.167 C 304.742 35.167,304.667 35.317,304.667 35.500 C 304.667 35.683,304.610 35.833,304.541 35.833 C 304.404 35.833,304.029 36.811,303.885 37.542 C 303.836 37.794,303.729 38.000,303.648 38.000 C 303.566 38.000,303.500 38.150,303.500 38.333 C 303.500 38.517,303.425 38.667,303.333 38.667 C 303.242 38.667,303.167 39.004,303.167 39.417 L 303.167 40.167 304.417 40.167 L 305.667 40.167 305.667 41.417 L 305.667 42.667 306.417 42.667 L 307.167 42.667 307.167 41.417 C 307.167 40.278,307.196 40.167,307.500 40.167 C 307.770 40.167,307.833 40.056,307.833 39.583 C 307.833 39.111,307.770 39.000,307.500 39.000 C 307.181 39.000,307.167 38.889,307.167 36.333 L 307.167 33.667 306.458 33.673 C 306.063 33.677,305.658 33.784,305.542 33.916 M318.232 33.905 C 318.027 34.438,318.240 34.916,318.708 34.969 L 319.167 35.022 319.167 38.844 L 319.167 42.667 319.917 42.667 L 320.667 42.667 320.667 38.167 L 320.667 33.667 319.495 33.667 C 318.633 33.667,318.299 33.730,318.232 33.905 M324.167 34.583 C 324.167 35.087,324.092 35.500,324.000 35.500 C 323.902 35.500,323.833 36.083,323.833 36.917 L 323.833 38.333 324.512 38.333 C 325.166 38.333,325.667 38.617,325.667 38.988 C 325.667 39.086,325.742 39.167,325.833 39.167 C 325.925 39.167,326.000 39.317,326.000 39.500 C 326.000 39.683,325.925 39.833,325.833 39.833 C 325.742 39.833,325.667 39.983,325.667 40.167 C 325.667 40.350,325.592 40.500,325.500 40.500 C 325.408 40.500,325.333 40.621,325.333 40.769 C 325.333 40.998,325.197 41.021,324.417 40.924 C 323.513 40.811,323.500 40.816,323.500 41.238 C 323.500 41.474,323.425 41.667,323.333 41.667 C 323.086 41.667,323.132 42.155,323.405 42.429 C 324.240 43.264,327.167 42.342,327.167 41.244 C 327.167 41.110,327.242 41.000,327.333 41.000 C 327.433 41.000,327.500 40.356,327.500 39.400 C 327.500 37.534,327.063 36.833,325.899 36.833 C 325.444 36.833,325.333 36.768,325.333 36.500 C 325.333 36.317,325.408 36.167,325.500 36.167 C 325.592 36.167,325.667 35.904,325.667 35.583 L 325.667 35.000 326.583 35.000 L 327.500 35.000 327.500 34.333 L 327.500 33.667 325.833 33.667 L 324.167 33.667 324.167 34.583 M334.000 34.333 C 334.000 34.933,334.042 35.000,334.417 35.000 L 334.833 35.000 334.833 38.833 L 334.833 42.667 335.583 42.667 L 336.333 42.667 336.333 38.167 L 336.333 33.667 335.167 33.667 L 334.000 33.667 334.000 34.333 M340.375 34.118 C 340.260 34.365,340.167 34.664,340.167 34.783 C 340.167 34.902,340.092 35.000,340.000 35.000 C 339.908 35.000,339.833 35.112,339.833 35.250 C 339.833 35.387,339.758 35.500,339.667 35.500 C 339.575 35.500,339.500 35.725,339.500 36.000 C 339.500 36.275,339.425 36.500,339.333 36.500 C 339.242 36.500,339.167 36.762,339.167 37.083 C 339.167 37.404,339.092 37.667,339.000 37.667 C 338.899 37.667,338.833 38.389,338.833 39.500 C 338.833 40.611,338.899 41.333,339.000 41.333 C 339.092 41.333,339.167 41.449,339.167 41.591 C 339.167 42.637,341.695 43.140,342.470 42.249 C 342.670 42.019,342.833 41.606,342.833 41.332 C 342.833 41.058,342.908 40.833,343.000 40.833 C 343.094 40.833,343.167 40.361,343.167 39.750 C 343.167 39.139,343.094 38.667,343.000 38.667 C 342.908 38.667,342.833 38.394,342.833 38.061 C 342.833 37.309,342.339 36.833,341.558 36.833 C 341.251 36.833,341.000 36.758,341.000 36.667 C 341.000 36.575,341.075 36.500,341.167 36.500 C 341.258 36.500,341.333 36.350,341.333 36.167 C 341.333 35.983,341.408 35.833,341.500 35.833 C 341.592 35.833,341.667 35.683,341.667 35.500 C 341.667 35.317,341.723 35.166,341.792 35.165 C 341.961 35.164,342.333 34.339,342.333 33.967 C 342.333 33.414,340.641 33.545,340.375 34.118 M350.865 34.292 C 350.910 34.834,350.977 34.924,351.375 34.969 L 351.833 35.022 351.833 38.844 L 351.833 42.667 352.583 42.667 L 353.333 42.667 353.333 38.167 L 353.333 33.667 352.073 33.667 L 350.813 33.667 350.865 34.292 M355.833 34.333 L 355.833 35.000 356.917 35.000 C 357.961 35.000,358.000 35.015,358.000 35.417 C 358.000 35.646,357.925 35.833,357.833 35.833 C 357.742 35.833,357.667 36.058,357.667 36.333 C 357.667 36.608,357.592 36.833,357.500 36.833 C 357.408 36.833,357.333 37.016,357.333 37.240 C 357.333 37.464,357.258 37.693,357.167 37.750 C 357.075 37.807,357.000 38.111,357.000 38.427 C 357.000 38.742,356.930 39.000,356.845 39.000 C 356.760 39.000,356.639 39.412,356.576 39.917 C 356.513 40.421,356.395 40.833,356.314 40.833 C 356.233 40.833,356.167 41.021,356.167 41.250 C 356.167 41.479,356.092 41.667,356.000 41.667 C 355.908 41.667,355.833 41.892,355.833 42.167 C 355.833 42.662,355.843 42.667,356.750 42.667 C 357.556 42.667,357.667 42.626,357.667 42.333 C 357.667 42.150,357.742 42.000,357.833 42.000 C 357.925 42.000,358.000 41.775,358.000 41.500 C 358.000 41.225,358.075 41.000,358.167 41.000 C 358.258 41.000,358.333 40.742,358.333 40.427 C 358.333 40.111,358.401 39.811,358.484 39.760 C 358.567 39.708,358.687 39.291,358.750 38.833 C 358.813 38.375,358.933 38.000,359.016 38.000 C 359.099 38.000,359.167 37.737,359.167 37.417 C 359.167 37.096,359.242 36.833,359.333 36.833 C 359.425 36.833,359.500 36.608,359.500 36.333 C 359.500 36.058,359.575 35.833,359.667 35.833 C 359.758 35.833,359.833 35.608,359.833 35.333 C 359.833 35.058,359.908 34.833,360.000 34.833 C 360.092 34.833,360.167 34.571,360.167 34.250 L 360.167 33.667 358.000 33.667 L 355.833 33.667 355.833 34.333 M366.865 34.292 C 366.910 34.834,366.977 34.924,367.375 34.969 L 367.833 35.022 367.833 38.844 L 367.833 42.667 368.583 42.667 L 369.333 42.667 369.333 38.167 L 369.333 33.667 368.073 33.667 L 366.813 33.667 366.865 34.292 M197.139 35.493 C 197.218 36.032,197.017 37.000,196.826 37.000 C 196.738 37.000,196.667 36.854,196.667 36.677 C 196.667 36.499,196.592 36.307,196.500 36.250 C 196.408 36.193,196.333 36.001,196.333 35.823 C 196.333 35.646,196.408 35.500,196.500 35.500 C 196.592 35.500,196.667 35.381,196.667 35.236 C 196.667 34.834,197.076 35.056,197.139 35.493 M56.833 35.500 C 56.833 35.683,56.908 35.833,57.000 35.833 C 57.103 35.833,57.167 36.667,57.167 38.000 C 57.167 39.333,57.103 40.167,57.000 40.167 C 56.908 40.167,56.833 40.354,56.833 40.583 C 56.833 41.037,56.819 41.048,56.430 40.899 C 56.084 40.766,56.034 35.804,56.375 35.416 C 56.669 35.082,56.833 35.112,56.833 35.500 M213.595 35.405 C 213.866 35.675,213.926 37.167,213.667 37.167 C 213.575 37.167,213.500 37.279,213.500 37.417 C 213.500 37.554,213.387 37.667,213.250 37.667 C 213.056 37.667,213.000 37.446,213.000 36.680 C 213.000 35.265,213.145 34.955,213.595 35.405 M234.167 37.982 C 234.167 40.759,234.024 41.413,233.525 40.914 C 233.065 40.454,233.358 35.167,233.844 35.167 C 234.151 35.167,234.167 35.307,234.167 37.982 M374.333 36.000 C 374.333 36.722,374.289 36.833,374.000 36.833 C 373.711 36.833,373.667 36.722,373.667 36.000 C 373.667 35.278,373.711 35.167,374.000 35.167 C 374.289 35.167,374.333 35.278,374.333 36.000 M305.667 38.167 C 305.667 38.936,305.636 39.000,305.266 39.000 C 304.947 39.000,304.882 38.932,304.952 38.667 C 305.000 38.483,305.105 38.333,305.186 38.333 C 305.267 38.333,305.333 38.108,305.333 37.833 C 305.333 37.558,305.408 37.333,305.500 37.333 C 305.592 37.333,305.667 37.708,305.667 38.167 M128.333 38.333 C 128.333 38.889,128.278 39.000,128.000 39.000 C 127.648 39.000,127.551 38.758,127.833 38.583 C 127.925 38.527,128.000 38.297,128.000 38.073 C 128.000 37.850,128.075 37.667,128.167 37.667 C 128.258 37.667,128.333 37.967,128.333 38.333 M19.000 39.417 L 19.000 40.167 20.167 40.167 L 21.333 40.167 21.333 39.417 L 21.333 38.667 20.167 38.667 L 19.000 38.667 19.000 39.417 M35.000 39.417 L 35.000 40.167 36.167 40.167 L 37.333 40.167 37.333 39.417 L 37.333 38.667 36.167 38.667 L 35.000 38.667 35.000 39.417 M164.133 38.867 C 164.374 39.108,164.403 40.500,164.167 40.500 C 164.075 40.500,164.000 40.621,164.000 40.768 C 164.000 40.944,163.909 41.001,163.736 40.934 C 163.591 40.879,163.441 40.833,163.403 40.833 C 163.365 40.833,163.333 40.346,163.333 39.750 C 163.333 38.626,163.599 38.332,164.133 38.867 M197.062 39.042 C 197.365 40.173,197.133 41.104,196.598 40.899 C 196.298 40.784,196.206 39.167,196.500 39.167 C 196.592 39.167,196.667 39.054,196.667 38.917 C 196.667 38.531,196.949 38.621,197.062 39.042 M341.333 39.833 C 341.333 40.889,341.302 41.000,341.000 41.000 C 340.756 41.000,340.667 40.889,340.667 40.583 C 340.667 40.354,340.592 40.167,340.500 40.167 C 340.408 40.167,340.333 40.017,340.333 39.833 C 340.333 39.650,340.408 39.500,340.500 39.500 C 340.592 39.500,340.667 39.313,340.667 39.083 C 340.667 38.778,340.756 38.667,341.000 38.667 C 341.302 38.667,341.333 38.778,341.333 39.833 M374.333 39.250 C 374.333 39.571,374.408 39.833,374.500 39.833 C 374.592 39.833,374.667 39.983,374.667 40.167 C 374.667 40.350,374.592 40.500,374.500 40.500 C 374.408 40.500,374.333 40.612,374.333 40.750 C 374.333 40.889,374.185 41.000,374.000 41.000 C 373.599 41.000,373.483 38.935,373.875 38.777 C 374.278 38.615,374.333 38.672,374.333 39.250 " stroke="none" fill="#141a33" fill-rule="evenodd"></path><path id="path1" d="M91.440 18.917 C 91.380 19.074,91.125 19.167,90.755 19.167 C 90.216 19.167,90.167 19.208,90.167 19.653 C 90.167 19.983,90.029 20.239,89.738 20.451 C 89.374 20.716,89.286 20.958,89.149 22.055 C 88.996 23.292,89.011 23.767,89.252 25.250 C 89.325 25.700,89.266 26.187,89.069 26.750 C 88.342 28.835,88.815 30.089,90.372 30.202 C 90.940 30.243,91.426 30.362,91.462 30.469 C 91.533 30.683,145.969 30.739,148.333 30.528 C 150.374 30.346,147.892 29.667,145.187 29.667 C 143.611 29.667,143.167 29.499,143.167 28.906 C 143.167 28.677,143.054 28.446,142.917 28.394 C 142.450 28.215,142.618 27.667,143.139 27.667 C 143.442 27.667,143.785 27.490,144.097 27.171 C 144.450 26.812,144.744 26.675,145.168 26.671 C 145.665 26.667,145.787 26.586,145.990 26.125 C 146.120 25.827,146.345 25.495,146.489 25.387 C 146.724 25.210,146.720 25.179,146.458 25.077 C 146.265 25.002,146.167 24.785,146.167 24.432 C 146.167 23.832,145.914 23.500,145.459 23.500 C 144.864 23.500,144.134 22.478,144.542 22.217 C 144.656 22.143,144.832 21.933,144.933 21.750 C 145.044 21.547,145.564 21.268,146.266 21.037 C 146.899 20.828,147.535 20.517,147.679 20.347 C 147.823 20.176,148.307 19.850,148.756 19.622 L 149.572 19.208 148.037 19.086 C 147.193 19.019,146.544 18.898,146.594 18.816 C 146.647 18.731,145.610 18.667,144.177 18.667 C 142.614 18.667,141.667 18.730,141.667 18.833 C 141.667 18.926,141.219 19.000,140.657 19.000 C 140.026 19.000,139.686 18.937,139.750 18.833 C 139.818 18.723,131.758 18.667,115.694 18.667 C 94.374 18.667,91.524 18.696,91.440 18.917 " stroke="none" fill="#eacb1f" fill-rule="evenodd"></path><path id="path2" d="M57.902 18.810 C 57.951 18.888,57.459 18.997,56.809 19.052 C 55.298 19.178,55.452 18.694,55.323 23.703 L 55.211 28.063 54.793 28.406 C 54.258 28.847,54.000 29.353,54.000 29.964 L 54.000 30.450 55.526 30.558 C 57.872 30.725,91.500 30.689,91.500 30.519 C 91.500 30.319,90.893 30.172,90.061 30.169 C 88.851 30.165,88.409 28.642,89.069 26.750 C 89.266 26.187,89.325 25.700,89.252 25.250 C 89.011 23.767,88.996 23.292,89.149 22.055 C 89.286 20.958,89.374 20.716,89.738 20.451 C 90.026 20.242,90.167 19.982,90.167 19.663 C 90.167 19.235,90.229 19.182,90.779 19.135 C 91.115 19.107,91.422 18.990,91.459 18.875 C 91.514 18.709,88.082 18.667,74.671 18.667 C 65.344 18.667,57.853 18.731,57.902 18.810 " stroke="none" fill="#b2b69a" fill-rule="evenodd"></path><path id="path3" d="M302.333 18.833 C 302.333 18.942,304.876 19.000,309.625 19.001 C 313.635 19.002,317.525 19.049,318.268 19.107 L 319.618 19.212 319.953 20.148 L 320.288 21.083 327.519 21.083 C 338.219 21.083,338.757 21.233,337.822 23.950 C 337.042 26.215,337.586 27.664,339.215 27.666 C 339.746 27.666,340.759 27.788,341.465 27.935 C 342.380 28.126,343.261 28.180,344.524 28.123 C 346.448 28.035,346.563 28.061,346.741 28.633 C 346.964 29.346,346.028 29.784,345.197 29.355 C 344.865 29.184,339.363 29.409,337.917 29.653 C 336.806 29.841,335.053 30.052,334.667 30.044 C 332.096 29.991,330.519 30.001,329.500 30.076 C 328.813 30.127,328.100 30.153,327.917 30.134 C 327.546 30.095,320.372 30.102,319.583 30.142 C 319.308 30.156,318.567 30.163,317.935 30.157 C 317.303 30.151,316.707 30.226,316.610 30.323 C 316.382 30.551,315.784 30.551,315.557 30.323 C 315.318 30.084,306.677 30.089,306.438 30.328 C 306.233 30.533,305.424 30.554,305.031 30.364 C 304.876 30.290,303.700 30.317,302.417 30.425 C 300.540 30.583,307.205 30.626,336.445 30.644 C 356.443 30.656,372.925 30.621,373.070 30.566 C 373.303 30.476,373.333 29.791,373.333 24.566 L 373.333 18.667 337.833 18.667 C 314.278 18.667,302.333 18.723,302.333 18.833 M351.500 28.583 C 351.500 28.994,351.522 29.000,352.958 29.029 C 354.197 29.053,354.064 29.075,352.083 29.172 C 349.487 29.298,347.531 29.203,348.137 28.978 C 348.336 28.905,348.500 28.767,348.500 28.672 C 348.500 28.577,348.650 28.500,348.833 28.500 C 349.017 28.500,349.167 28.425,349.167 28.333 C 349.167 28.238,349.667 28.167,350.333 28.167 C 351.467 28.167,351.500 28.179,351.500 28.583 M296.463 30.622 C 296.855 30.657,297.455 30.657,297.796 30.621 C 298.137 30.585,297.817 30.557,297.083 30.557 C 296.350 30.558,296.071 30.587,296.463 30.622 " stroke="none" fill="#870409" fill-rule="evenodd"></path><path id="path4" d="M139.750 18.833 C 139.686 18.937,140.026 19.000,140.657 19.000 C 141.219 19.000,141.667 18.926,141.667 18.833 C 141.667 18.742,141.259 18.667,140.760 18.667 C 140.261 18.667,139.807 18.742,139.750 18.833 M146.594 18.816 C 146.544 18.898,147.193 19.019,148.037 19.086 L 149.572 19.208 148.756 19.622 C 148.307 19.850,147.823 20.176,147.679 20.347 C 147.535 20.517,146.899 20.828,146.266 21.037 C 145.564 21.268,145.044 21.547,144.933 21.750 C 144.832 21.933,144.656 22.143,144.542 22.217 C 144.134 22.478,144.864 23.500,145.459 23.500 C 145.914 23.500,146.167 23.832,146.167 24.432 C 146.167 24.785,146.265 25.002,146.458 25.077 C 146.720 25.179,146.724 25.210,146.489 25.387 C 146.345 25.495,146.120 25.827,145.990 26.125 C 145.787 26.586,145.665 26.667,145.168 26.671 C 144.744 26.675,144.450 26.812,144.097 27.171 C 143.785 27.490,143.442 27.667,143.139 27.667 C 142.618 27.667,142.450 28.215,142.917 28.394 C 143.054 28.446,143.167 28.677,143.167 28.906 C 143.167 29.499,143.611 29.667,145.187 29.667 C 147.742 29.667,150.395 30.345,148.500 30.513 C 147.904 30.566,156.867 30.614,168.417 30.620 C 186.014 30.630,195.186 30.523,191.667 30.349 C 190.982 30.315,190.953 30.297,191.333 30.142 C 191.563 30.049,192.061 30.014,192.440 30.064 C 193.560 30.212,194.821 30.001,195.019 29.632 C 195.271 29.160,194.915 28.833,194.146 28.833 C 193.791 28.833,193.500 28.758,193.500 28.667 C 193.500 28.575,193.238 28.500,192.918 28.500 C 192.517 28.500,192.272 28.397,192.128 28.167 C 192.013 27.983,191.807 27.831,191.668 27.828 C 191.475 27.824,191.492 27.766,191.740 27.578 C 191.999 27.382,192.012 27.333,191.802 27.333 C 191.332 27.333,190.218 26.780,190.542 26.708 C 190.749 26.661,190.833 26.479,190.833 26.076 C 190.833 25.642,190.891 25.533,191.083 25.606 C 191.221 25.659,191.333 25.619,191.333 25.518 C 191.333 25.414,191.624 25.333,192.000 25.333 C 192.377 25.333,192.667 25.253,192.667 25.149 C 192.667 25.037,192.824 25.003,193.064 25.064 C 193.366 25.139,193.482 25.086,193.546 24.843 C 193.607 24.610,193.805 24.508,194.273 24.469 L 194.917 24.417 194.969 23.594 C 195.061 22.129,194.447 21.453,193.700 22.200 C 193.544 22.356,193.500 22.314,193.500 22.014 C 193.500 21.692,193.431 21.641,193.083 21.707 C 192.789 21.764,192.667 21.714,192.667 21.538 C 192.667 21.344,192.520 21.309,192.000 21.379 C 191.633 21.428,191.333 21.409,191.333 21.337 C 191.333 21.265,190.996 21.121,190.583 21.017 C 190.171 20.914,189.833 20.755,189.833 20.664 C 189.833 20.574,189.683 20.500,189.500 20.500 C 189.317 20.500,189.167 20.434,189.167 20.353 C 189.167 20.271,188.761 20.154,188.266 20.092 C 187.512 19.998,187.349 19.917,187.269 19.598 L 187.173 19.216 182.475 19.094 C 179.891 19.028,177.358 18.905,176.847 18.821 C 175.636 18.623,146.717 18.618,146.594 18.816 " stroke="none" fill="#e8680b" fill-rule="evenodd"></path><path id="path5" d="M221.750 18.833 C 222.026 18.952,222.034 18.979,221.799 18.988 C 221.176 19.014,219.926 19.833,220.510 19.833 C 220.607 19.833,220.640 19.908,220.583 20.000 C 220.527 20.092,220.310 20.167,220.101 20.167 C 219.893 20.167,219.670 20.219,219.606 20.283 C 219.470 20.419,219.429 20.429,217.917 20.671 C 217.275 20.774,216.600 20.940,216.417 21.040 C 215.622 21.474,213.743 21.409,213.109 20.925 C 212.522 20.477,212.513 20.476,210.968 20.644 C 210.115 20.737,208.029 20.859,206.333 20.914 C 204.637 20.970,202.425 21.084,201.417 21.168 C 200.408 21.252,199.096 21.334,198.500 21.350 C 195.316 21.438,195.006 21.609,195.003 23.282 C 194.999 24.844,195.367 25.352,196.537 25.398 C 196.998 25.417,197.440 25.545,197.627 25.714 C 197.863 25.928,198.389 26.027,199.722 26.109 C 201.487 26.217,202.082 26.429,201.627 26.788 C 201.511 26.880,200.179 27.008,198.667 27.074 C 197.154 27.139,195.692 27.219,195.417 27.250 C 195.142 27.282,194.183 27.362,193.286 27.429 C 192.389 27.495,191.616 27.614,191.568 27.692 C 191.520 27.770,191.579 27.833,191.700 27.833 C 191.821 27.833,192.013 27.983,192.128 28.167 C 192.272 28.397,192.517 28.500,192.918 28.500 C 193.238 28.500,193.500 28.575,193.500 28.667 C 193.500 28.758,193.796 28.833,194.157 28.833 C 194.589 28.833,194.889 28.933,195.032 29.125 C 195.213 29.368,195.474 29.409,196.583 29.373 C 198.427 29.312,200.005 29.331,200.500 29.419 C 200.729 29.460,204.967 29.568,209.917 29.659 C 222.995 29.899,225.544 29.987,227.555 30.270 C 228.889 30.458,229.491 30.478,229.865 30.347 C 230.144 30.250,230.457 30.224,230.561 30.290 C 230.672 30.360,230.544 30.454,230.250 30.518 C 229.857 30.604,229.943 30.631,230.654 30.647 C 231.301 30.661,231.649 30.584,231.880 30.375 C 232.288 30.007,234.027 30.027,234.756 30.407 C 235.398 30.742,235.830 30.734,236.338 30.378 C 236.717 30.112,237.637 30.088,248.166 30.064 C 254.446 30.049,263.258 29.981,267.750 29.912 C 272.242 29.843,277.867 29.773,280.250 29.756 C 282.633 29.739,286.346 29.668,288.500 29.598 C 290.654 29.529,292.754 29.469,293.167 29.465 C 296.544 29.433,299.657 29.099,299.338 28.802 C 299.160 28.636,298.794 28.500,298.525 28.500 C 298.256 28.500,297.996 28.397,297.948 28.271 C 297.829 27.962,296.992 27.824,294.688 27.737 C 293.622 27.696,292.600 27.587,292.417 27.495 C 292.233 27.403,291.564 27.198,290.929 27.039 C 289.891 26.779,289.239 26.333,289.898 26.333 C 290.244 26.333,291.383 25.689,291.550 25.398 C 291.623 25.271,291.787 25.167,291.913 25.167 C 292.039 25.167,292.265 25.045,292.413 24.896 C 292.623 24.686,292.865 24.650,293.494 24.734 C 294.867 24.916,297.185 24.459,297.792 23.887 C 298.127 23.571,298.041 23.500,297.325 23.500 C 296.682 23.500,295.833 22.917,295.833 22.476 C 295.833 22.397,295.136 22.333,294.283 22.333 C 293.300 22.333,292.660 22.260,292.533 22.133 C 292.205 21.805,292.297 21.740,293.042 21.773 C 293.506 21.794,293.578 21.776,293.250 21.722 C 292.975 21.677,292.600 21.505,292.417 21.341 C 292.233 21.176,291.783 20.947,291.417 20.832 C 291.050 20.717,290.658 20.550,290.545 20.461 C 290.432 20.371,289.607 20.237,288.712 20.163 C 287.816 20.089,286.688 19.934,286.206 19.818 C 285.396 19.624,285.278 19.636,284.683 19.971 C 283.385 20.700,267.443 20.449,266.359 19.682 L 265.750 19.252 251.000 19.145 C 233.750 19.020,233.972 19.024,234.417 18.833 C 234.610 18.750,231.948 18.690,228.083 18.690 C 224.218 18.690,221.557 18.750,221.750 18.833 M289.128 26.786 C 288.878 26.824,288.428 26.825,288.128 26.787 C 287.828 26.750,288.033 26.719,288.583 26.718 C 289.133 26.717,289.378 26.748,289.128 26.786 M222.794 30.618 C 223.001 30.658,223.301 30.656,223.460 30.615 C 223.620 30.573,223.450 30.540,223.083 30.542 C 222.717 30.544,222.586 30.578,222.794 30.618 M226.458 30.618 C 226.665 30.657,227.002 30.657,227.208 30.618 C 227.415 30.578,227.246 30.545,226.833 30.545 C 226.421 30.545,226.252 30.578,226.458 30.618 " stroke="none" fill="#d71209" fill-rule="evenodd"></path><path id="path6" d="M35.333 18.794 C 35.333 18.864,35.165 18.995,34.958 19.085 C 34.639 19.226,34.567 19.422,34.474 20.417 C 34.414 21.058,34.323 21.803,34.271 22.072 C 33.820 24.429,33.983 28.135,34.564 28.716 C 34.942 29.094,35.404 29.859,35.565 30.375 C 35.651 30.649,36.272 30.665,45.870 30.635 C 51.487 30.617,55.615 30.576,55.042 30.543 C 53.666 30.465,53.546 29.433,54.793 28.406 L 55.211 28.063 55.323 23.703 C 55.452 18.694,55.298 19.178,56.809 19.052 C 57.459 18.997,57.951 18.888,57.902 18.810 C 57.793 18.633,35.333 18.617,35.333 18.794 M31.541 25.667 C 31.542 27.645,31.550 27.691,31.691 26.591 C 31.778 25.909,31.778 25.051,31.690 24.507 C 31.560 23.708,31.540 23.863,31.541 25.667 " stroke="none" fill="#6e80a7" fill-rule="evenodd"></path><path id="path7" d="M234.417 18.833 C 233.972 19.024,233.750 19.020,251.000 19.145 L 265.750 19.252 266.359 19.682 C 267.443 20.449,283.385 20.700,284.683 19.971 C 285.278 19.636,285.396 19.624,286.206 19.818 C 286.688 19.934,287.816 20.089,288.712 20.163 C 289.607 20.237,290.432 20.371,290.545 20.461 C 290.658 20.550,291.050 20.717,291.417 20.832 C 291.783 20.947,292.233 21.176,292.417 21.341 C 292.600 21.505,292.975 21.677,293.250 21.722 C 293.578 21.776,293.506 21.794,293.042 21.773 C 292.297 21.740,292.205 21.805,292.533 22.133 C 292.660 22.260,293.300 22.333,294.283 22.333 C 295.136 22.333,295.833 22.397,295.833 22.476 C 295.833 22.917,296.682 23.500,297.325 23.500 C 298.041 23.500,298.127 23.571,297.792 23.887 C 297.185 24.459,294.867 24.916,293.494 24.734 C 292.865 24.650,292.623 24.686,292.413 24.896 C 292.265 25.045,292.039 25.167,291.913 25.167 C 291.787 25.167,291.623 25.271,291.550 25.398 C 291.383 25.689,290.244 26.333,289.898 26.333 C 289.239 26.333,289.891 26.779,290.929 27.039 C 291.564 27.198,292.233 27.403,292.417 27.495 C 292.600 27.587,293.622 27.696,294.688 27.737 C 296.992 27.824,297.829 27.962,297.948 28.271 C 297.996 28.397,298.256 28.500,298.525 28.500 C 298.794 28.500,299.160 28.636,299.338 28.802 C 299.657 29.099,296.544 29.433,293.167 29.465 C 292.754 29.469,290.654 29.529,288.500 29.598 C 286.346 29.668,282.633 29.739,280.250 29.756 C 277.867 29.773,272.242 29.843,267.750 29.912 C 263.258 29.981,254.446 30.049,248.166 30.064 C 237.564 30.088,236.720 30.111,236.333 30.383 C 235.802 30.757,297.664 30.798,302.250 30.427 C 303.625 30.315,304.876 30.286,305.031 30.362 C 305.421 30.554,306.232 30.534,306.438 30.328 C 306.677 30.089,315.318 30.084,315.557 30.323 C 315.784 30.551,316.382 30.551,316.610 30.323 C 316.707 30.226,317.303 30.151,317.935 30.157 C 318.567 30.163,319.308 30.156,319.583 30.142 C 320.372 30.102,327.546 30.095,327.917 30.134 C 328.100 30.153,328.813 30.127,329.500 30.076 C 330.519 30.001,332.096 29.991,334.667 30.044 C 335.053 30.052,336.806 29.841,337.917 29.653 C 339.363 29.409,344.865 29.184,345.197 29.355 C 346.028 29.784,346.964 29.346,346.741 28.633 C 346.563 28.061,346.448 28.035,344.524 28.123 C 343.261 28.180,342.380 28.126,341.465 27.935 C 340.759 27.788,339.746 27.666,339.215 27.666 C 337.586 27.664,337.042 26.215,337.822 23.950 C 338.757 21.233,338.219 21.083,327.519 21.083 L 320.288 21.083 319.953 20.148 L 319.618 19.212 318.268 19.107 C 317.525 19.049,313.635 19.002,309.625 19.001 C 304.876 19.000,302.333 18.942,302.333 18.833 C 302.333 18.624,234.903 18.624,234.417 18.833 M288.128 26.787 C 288.428 26.825,288.878 26.824,289.128 26.786 C 289.378 26.748,289.133 26.717,288.583 26.718 C 288.033 26.719,287.828 26.750,288.128 26.787 M349.167 28.333 C 349.167 28.425,349.017 28.500,348.833 28.500 C 348.650 28.500,348.500 28.577,348.500 28.672 C 348.500 28.767,348.336 28.905,348.137 28.978 C 347.531 29.203,349.487 29.298,352.083 29.172 C 354.064 29.075,354.197 29.053,352.958 29.029 C 351.522 29.000,351.500 28.994,351.500 28.583 C 351.500 28.179,351.467 28.167,350.333 28.167 C 349.667 28.167,349.167 28.238,349.167 28.333 M232.225 30.162 C 231.336 30.530,231.668 30.667,233.448 30.666 C 235.070 30.665,235.207 30.642,234.815 30.438 C 234.246 30.141,232.680 29.974,232.225 30.162 M227.833 30.505 C 227.547 30.593,227.803 30.639,228.653 30.650 C 229.333 30.659,229.858 30.640,229.819 30.607 C 229.651 30.462,228.211 30.388,227.833 30.505 " stroke="none" fill="#a40407" fill-rule="evenodd"></path><path id="path8" d="M177.000 18.835 C 177.412 18.905,179.870 19.019,182.461 19.089 L 187.172 19.215 187.268 19.597 C 187.349 19.917,187.511 19.998,188.266 20.092 C 188.761 20.154,189.167 20.271,189.167 20.353 C 189.167 20.434,189.317 20.500,189.500 20.500 C 189.683 20.500,189.833 20.574,189.833 20.664 C 189.833 20.755,190.171 20.914,190.583 21.017 C 190.996 21.121,191.333 21.265,191.333 21.337 C 191.333 21.409,191.633 21.428,192.000 21.379 C 192.520 21.309,192.667 21.344,192.667 21.538 C 192.667 21.714,192.789 21.764,193.083 21.707 C 193.431 21.641,193.500 21.692,193.500 22.014 C 193.500 22.314,193.544 22.356,193.700 22.200 C 193.964 21.936,194.830 21.942,194.845 22.208 C 194.851 22.323,194.934 22.256,195.028 22.060 C 195.223 21.658,195.803 21.526,197.917 21.400 C 198.650 21.356,200.188 21.250,201.333 21.165 C 202.479 21.080,204.729 20.967,206.333 20.915 C 207.938 20.862,209.987 20.743,210.887 20.649 L 212.523 20.478 213.111 20.927 C 213.743 21.409,215.623 21.473,216.417 21.040 C 216.600 20.940,217.275 20.774,217.917 20.671 C 219.429 20.429,219.470 20.419,219.606 20.283 C 219.670 20.219,219.893 20.167,220.101 20.167 C 220.310 20.167,220.527 20.092,220.583 20.000 C 220.640 19.908,220.607 19.833,220.510 19.833 C 219.926 19.833,221.176 19.014,221.799 18.988 C 222.034 18.979,222.026 18.952,221.750 18.833 C 221.567 18.755,211.254 18.694,198.833 18.699 C 186.412 18.704,176.588 18.766,177.000 18.835 M194.273 24.469 C 193.805 24.508,193.607 24.610,193.546 24.843 C 193.482 25.086,193.366 25.139,193.064 25.064 C 192.824 25.003,192.667 25.037,192.667 25.149 C 192.667 25.253,192.377 25.333,192.000 25.333 C 191.624 25.333,191.333 25.414,191.333 25.518 C 191.333 25.619,191.221 25.659,191.083 25.606 C 190.891 25.533,190.833 25.642,190.833 26.076 C 190.833 26.479,190.749 26.661,190.542 26.708 C 190.333 26.754,190.441 26.863,190.917 27.088 C 191.585 27.404,193.517 27.487,195.250 27.273 C 195.617 27.228,197.154 27.138,198.667 27.073 C 200.179 27.008,201.511 26.880,201.627 26.788 C 202.082 26.429,201.487 26.217,199.722 26.109 C 198.389 26.027,197.863 25.928,197.627 25.714 C 197.440 25.545,196.997 25.417,196.534 25.398 C 195.909 25.373,195.673 25.274,195.336 24.892 C 194.988 24.497,194.807 24.426,194.273 24.469 M197.667 29.353 C 197.433 29.447,196.837 29.474,196.311 29.413 C 195.481 29.318,195.333 29.347,195.032 29.671 C 194.726 29.999,194.508 30.040,192.937 30.066 C 191.184 30.094,190.291 30.306,191.681 30.364 C 192.162 30.384,191.955 30.432,191.083 30.503 C 190.350 30.562,197.662 30.622,207.333 30.635 C 224.783 30.660,228.768 30.594,227.750 30.298 C 226.970 30.072,221.118 29.857,210.583 29.668 C 205.267 29.573,200.729 29.466,200.500 29.430 C 199.278 29.237,198.035 29.204,197.667 29.353 M229.917 30.333 C 229.639 30.453,229.675 30.479,230.135 30.488 C 230.463 30.495,230.645 30.432,230.583 30.333 C 230.463 30.139,230.369 30.139,229.917 30.333 " stroke="none" fill="#c82824" fill-rule="evenodd"></path></g></svg>