<?xml version="1.0" standalone="no"?>
<!DOCTYPE svg PUBLIC "-//W3C//DTD SVG 20010904//EN"
 "http://www.w3.org/TR/2001/REC-SVG-20010904/DTD/svg10.dtd">
<svg version="1.0" xmlns="http://www.w3.org/2000/svg"
 width="3921.000000pt" height="74.000000pt" viewBox="0 0 3921.000000 74.000000"
 preserveAspectRatio="xMidYMid meet">

<g transform="translate(0.000000,74.000000) scale(0.100000,-0.100000)"
fill="#000000" stroke="none">
<path d="M470 530 c0 -25 4 -30 25 -30 l25 0 0 -240 0 -240 35 0 35 0 0 270 0
270 -60 0 -60 0 0 -30z"/>
<path d="M787 549 c-32 -19 -47 -73 -47 -166 0 -97 11 -130 52 -153 22 -12 33
-12 58 -3 29 11 31 10 24 -10 -4 -12 -26 -62 -51 -110 l-44 -88 42 3 42 3 45
103 c49 115 67 207 57 296 -7 67 -26 110 -54 126 -25 13 -101 12 -124 -1z m80
-57 c31 -19 43 -111 22 -171 -12 -33 -47 -43 -67 -18 -29 35 -21 178 11 190
17 8 21 8 34 -1z"/>
<path d="M1083 548 c-28 -13 -44 -54 -46 -114 -2 -48 -1 -49 29 -52 30 -3 31
-1 38 44 7 56 20 74 52 74 52 0 56 -79 10 -187 -13 -32 -49 -111 -80 -175
l-55 -118 114 0 115 0 0 30 0 30 -63 0 -64 0 59 118 c71 142 91 228 68 295 -9
25 -25 46 -40 54 -30 15 -106 16 -137 1z"/>
<path d="M1375 536 c-37 -37 -49 -97 -48 -251 0 -154 10 -208 48 -249 19 -20
33 -26 68 -26 91 0 122 73 121 285 -1 204 -29 265 -119 265 -35 0 -52 -6 -70
-24z m96 -53 c22 -26 26 -327 5 -377 -19 -45 -44 -45 -66 -1 -11 23 -14 69
-14 186 0 131 3 160 17 183 20 30 39 33 58 9z"/>
<path d="M2560 530 c0 -25 4 -30 25 -30 l25 0 0 -240 0 -240 35 0 35 0 0 270
0 270 -60 0 -60 0 0 -30z"/>
<path d="M2877 549 c-36 -21 -51 -70 -51 -165 0 -70 3 -97 17 -118 26 -38 61
-53 98 -39 16 6 29 10 29 8 0 -3 -22 -52 -49 -110 l-50 -105 39 0 38 0 40 93
c54 124 62 157 62 265 0 101 -15 153 -48 171 -26 14 -101 14 -125 0z m89 -70
c14 -15 18 -36 18 -89 0 -75 -12 -100 -49 -100 -18 0 -26 9 -35 36 -17 49 -7
144 16 161 24 17 28 17 50 -8z"/>
<path d="M3156 529 c-19 -23 -26 -42 -26 -75 0 -43 1 -44 33 -44 31 0 34 3 34
29 0 35 18 61 44 61 25 0 39 -30 39 -82 0 -53 -22 -88 -56 -88 -20 0 -24 -5
-24 -30 0 -23 4 -30 20 -30 39 0 60 -35 60 -98 0 -63 -19 -102 -49 -102 -23 0
-37 17 -46 53 -6 22 -13 27 -37 27 -30 0 -31 0 -25 -47 7 -65 40 -93 107 -93
41 0 56 5 82 29 32 28 33 32 36 120 4 86 3 91 -22 114 l-25 23 21 21 c41 41
36 175 -7 219 -20 19 -34 24 -79 24 -48 0 -57 -3 -80 -31z"/>
<path d="M3468 540 c-40 -31 -53 -97 -53 -260 0 -210 27 -270 121 -270 35 0
47 5 67 30 38 45 50 117 45 281 -4 149 -16 195 -57 226 -25 20 -95 16 -123 -7z
m94 -62 c18 -34 23 -311 6 -363 -17 -52 -52 -61 -70 -18 -16 38 -17 338 0 376
14 33 46 36 64 5z"/>
<path d="M4590 531 c0 -25 4 -30 28 -33 l27 -3 3 -237 2 -238 30 0 30 0 0 270
0 270 -60 0 c-60 0 -60 0 -60 -29z"/>
<path d="M4907 548 c-29 -23 -47 -84 -47 -163 0 -122 34 -173 106 -162 19 3
34 4 34 2 0 -2 -20 -47 -45 -101 -25 -53 -45 -98 -45 -100 0 -2 16 -4 36 -4
34 0 36 2 71 77 55 121 64 152 70 243 7 109 -13 191 -52 208 -34 16 -107 15
-128 0z m88 -62 c23 -16 33 -125 16 -168 -13 -34 -55 -39 -71 -9 -16 31 -12
143 6 169 18 26 24 27 49 8z"/>
<path d="M5217 388 c-42 -95 -77 -185 -77 -200 l0 -28 75 0 75 0 0 -70 0 -70
35 0 35 0 0 70 c0 56 3 70 15 70 10 0 15 10 15 30 0 20 -5 30 -15 30 -13 0
-15 26 -15 170 l0 170 -33 0 -33 0 -77 -172z m69 -165 c-2 -2 -22 -3 -44 -1
l-40 3 41 102 42 101 3 -100 c1 -55 1 -103 -2 -105z"/>
<path d="M5495 534 c-36 -39 -48 -116 -43 -283 4 -150 9 -173 51 -219 29 -32
99 -31 132 2 38 38 50 97 50 251 0 215 -26 275 -122 275 -34 0 -49 -6 -68 -26z
m102 -60 c14 -23 17 -51 17 -183 -1 -159 -9 -206 -40 -218 -8 -3 -23 2 -32 11
-15 14 -17 42 -17 200 0 140 3 187 14 199 19 24 38 21 58 -9z"/>
<path d="M6680 530 c0 -25 4 -30 25 -30 l25 0 0 -240 0 -240 35 0 35 0 0 270
0 270 -60 0 -60 0 0 -30z"/>
<path d="M6997 549 c-32 -19 -47 -73 -47 -166 0 -97 11 -130 52 -153 22 -12
33 -12 58 -3 29 11 31 10 24 -10 -4 -12 -26 -62 -51 -110 l-44 -88 42 3 42 3
45 103 c49 115 67 207 57 296 -7 67 -26 110 -54 126 -25 13 -101 12 -124 -1z
m80 -57 c31 -19 43 -111 22 -171 -12 -33 -47 -43 -67 -18 -29 35 -21 178 11
190 17 8 21 8 34 -1z"/>
<path d="M7296 528 c-10 -58 -26 -189 -26 -207 0 -14 10 -20 46 -24 67 -7 79
-24 79 -108 0 -66 -2 -73 -29 -96 -22 -18 -35 -23 -55 -18 -46 13 -54 10 -62
-18 -6 -24 -4 -29 17 -38 14 -5 45 -9 69 -9 73 0 125 57 139 151 14 96 -25
173 -95 188 -34 7 -34 7 -33 63 2 84 5 88 69 88 54 0 55 0 55 30 l0 30 -85 0
-84 0 -5 -32z"/>
<path d="M7585 536 c-37 -37 -49 -97 -48 -251 0 -154 10 -208 48 -249 19 -20
33 -26 68 -26 91 0 122 73 121 285 -1 204 -29 265 -119 265 -35 0 -52 -6 -70
-24z m96 -53 c22 -26 26 -327 5 -377 -19 -45 -44 -45 -66 -1 -11 23 -14 69
-14 186 0 131 3 160 17 183 20 30 39 33 58 9z"/>
<path d="M8720 530 c0 -25 4 -30 25 -30 l25 0 0 -240 0 -240 35 0 35 0 0 270
0 270 -60 0 -60 0 0 -30z"/>
<path d="M9037 549 c-36 -21 -51 -70 -51 -165 0 -70 3 -97 17 -118 26 -38 61
-53 98 -39 16 6 29 10 29 8 0 -3 -22 -52 -49 -110 l-50 -105 39 0 38 0 40 93
c54 124 62 157 62 265 0 101 -15 153 -48 171 -26 14 -101 14 -125 0z m89 -70
c14 -15 18 -36 18 -89 0 -75 -12 -100 -49 -100 -18 0 -26 9 -35 36 -17 49 -7
144 16 161 24 17 28 17 50 -8z"/>
<path d="M9352 471 c-86 -184 -97 -367 -27 -437 35 -35 112 -34 147 1 30 30
38 63 38 157 0 118 -43 176 -111 151 -16 -6 -29 -7 -29 -3 0 5 20 52 45 106
25 53 45 100 45 105 0 5 -15 9 -34 9 -32 0 -34 -3 -74 -89z m78 -210 c14 -26
13 -134 -2 -166 -6 -14 -19 -25 -28 -25 -32 0 -45 30 -45 105 0 76 13 105 46
105 10 0 23 -9 29 -19z"/>
<path d="M9628 540 c-40 -31 -53 -97 -53 -260 0 -210 27 -270 121 -270 35 0
47 5 67 30 38 45 50 117 45 281 -4 149 -16 195 -57 226 -25 20 -95 16 -123 -7z
m94 -62 c18 -34 23 -311 6 -363 -17 -52 -52 -61 -70 -18 -16 38 -17 338 0 376
14 33 46 36 64 5z"/>
<path d="M10810 531 c0 -23 5 -30 23 -33 l22 -3 3 -237 2 -238 35 0 35 0 0
270 0 270 -60 0 c-60 0 -60 0 -60 -29z"/>
<path d="M11110 532 c-22 -22 -30 -42 -35 -86 -9 -67 0 -158 17 -186 19 -30
65 -45 98 -33 l28 10 -15 -36 c-9 -20 -31 -66 -49 -103 -19 -37 -34 -70 -34
-73 0 -3 17 -5 38 -5 l38 0 48 113 c44 101 49 121 53 207 9 163 -19 220 -108
220 -42 0 -55 -5 -79 -28z m104 -54 c18 -26 22 -138 6 -169 -6 -11 -21 -19
-36 -19 -33 0 -47 38 -42 116 5 88 38 120 72 72z"/>
<path d="M11370 530 l0 -30 75 0 c41 0 75 -1 75 -3 0 -1 -33 -108 -73 -237
l-73 -235 34 -3 c19 -2 36 -1 39 2 5 5 162 516 163 529 0 4 -54 7 -120 7
l-120 0 0 -30z"/>
<path d="M11707 530 c-38 -44 -50 -123 -45 -280 7 -185 33 -240 116 -240 47 0
69 14 94 63 21 39 23 55 23 207 0 181 -9 226 -52 260 -17 13 -41 20 -68 20
-36 0 -48 -5 -68 -30z m100 -57 c15 -23 18 -51 18 -188 0 -139 -3 -165 -18
-189 -25 -37 -49 -30 -65 19 -18 52 -13 330 6 363 17 29 38 28 59 -5z"/>
<path d="M12890 531 c0 -25 4 -30 28 -33 l27 -3 3 -237 2 -238 30 0 30 0 0
270 0 270 -60 0 c-60 0 -60 0 -60 -29z"/>
<path d="M13207 548 c-29 -23 -47 -84 -47 -163 0 -122 34 -173 106 -162 19 3
34 4 34 2 0 -2 -20 -47 -45 -101 -25 -53 -45 -98 -45 -100 0 -2 16 -4 36 -4
34 0 36 2 71 77 55 121 64 152 70 243 7 109 -13 191 -52 208 -34 16 -107 15
-128 0z m88 -62 c23 -16 33 -125 16 -168 -13 -34 -55 -39 -71 -9 -16 31 -12
143 6 169 18 26 24 27 49 8z"/>
<path d="M13493 536 c-26 -23 -28 -29 -28 -99 0 -60 4 -81 20 -103 l21 -27
-23 -23 c-20 -20 -23 -33 -23 -104 0 -88 16 -142 48 -159 12 -6 42 -11 67 -11
86 0 127 74 112 203 -5 37 -13 58 -30 73 l-24 20 23 28 c20 23 24 38 24 96 0
59 -4 73 -26 99 -23 28 -32 31 -79 31 -43 0 -60 -5 -82 -24z m105 -48 c15 -15
16 -102 2 -129 -15 -28 -49 -24 -60 7 -30 78 12 168 58 122z m9 -248 c16 -32
16 -108 0 -140 -16 -31 -46 -38 -64 -14 -16 22 -17 137 -2 165 14 27 50 21 66
-11z"/>
<path d="M13795 534 c-36 -39 -48 -116 -43 -283 4 -150 9 -173 51 -219 29 -32
99 -31 132 2 38 38 50 97 50 251 0 215 -26 275 -122 275 -34 0 -49 -6 -68 -26z
m102 -60 c14 -23 17 -51 17 -183 -1 -159 -9 -206 -40 -218 -8 -3 -23 2 -32 11
-15 14 -17 42 -17 200 0 140 3 187 14 199 19 24 38 21 58 -9z"/>
<path d="M14930 530 c0 -25 4 -30 25 -30 l25 0 0 -240 0 -240 35 0 35 0 0 270
0 270 -60 0 -60 0 0 -30z"/>
<path d="M15247 549 c-36 -21 -51 -70 -51 -165 0 -70 3 -97 17 -118 26 -38 61
-53 98 -39 16 6 29 10 29 8 0 -3 -22 -52 -49 -110 l-50 -105 39 0 38 0 40 93
c54 124 62 157 62 265 0 101 -15 153 -48 171 -26 14 -101 14 -125 0z m89 -70
c14 -15 18 -36 18 -89 0 -75 -12 -100 -49 -100 -18 0 -26 9 -35 36 -17 49 -7
144 16 161 24 17 28 17 50 -8z"/>
<path d="M15530 532 c-22 -22 -30 -42 -35 -86 -9 -67 0 -158 17 -186 19 -30
65 -45 98 -33 l28 10 -15 -36 c-9 -20 -31 -66 -49 -103 -19 -37 -34 -70 -34
-73 0 -3 17 -5 38 -5 l38 0 48 113 c44 101 49 121 53 207 9 163 -19 220 -108
220 -42 0 -55 -5 -79 -28z m104 -54 c18 -26 22 -138 6 -169 -6 -11 -21 -19
-36 -19 -33 0 -47 38 -42 116 5 88 38 120 72 72z"/>
<path d="M15838 540 c-40 -31 -53 -97 -53 -260 0 -210 27 -270 121 -270 35 0
47 5 67 30 38 45 50 117 45 281 -4 149 -16 195 -57 226 -25 20 -95 16 -123 -7z
m94 -62 c18 -34 23 -311 6 -363 -17 -52 -52 -61 -70 -18 -16 38 -17 338 0 376
14 33 46 36 64 5z"/>
<path d="M16978 546 c-25 -19 -48 -79 -48 -126 0 -39 1 -40 35 -40 34 0 35 1
35 38 0 72 53 108 86 57 22 -34 8 -95 -57 -237 -28 -62 -62 -137 -75 -165
l-24 -53 115 0 115 0 0 30 0 30 -64 0 -65 0 54 108 c92 181 105 284 45 344
-24 24 -36 28 -82 28 -29 0 -61 -7 -70 -14z"/>
<path d="M17275 536 c-37 -37 -49 -97 -48 -251 0 -154 10 -208 48 -249 19 -20
33 -26 68 -26 91 0 122 73 121 285 -1 204 -29 265 -119 265 -35 0 -52 -6 -70
-24z m96 -53 c22 -26 26 -327 5 -377 -19 -45 -44 -45 -66 -1 -11 23 -14 69
-14 186 0 131 3 160 17 183 20 30 39 33 58 9z"/>
<path d="M17578 540 c-40 -31 -53 -97 -53 -260 0 -210 27 -270 121 -270 35 0
47 5 67 30 38 45 50 117 45 281 -4 149 -16 195 -57 226 -25 20 -95 16 -123 -7z
m94 -62 c18 -34 23 -311 6 -363 -17 -52 -52 -61 -70 -18 -16 38 -17 338 0 376
14 33 46 36 64 5z"/>
<path d="M17865 534 c-36 -39 -48 -116 -43 -283 4 -150 9 -173 51 -219 29 -32
99 -31 132 2 38 38 50 97 50 251 0 215 -26 275 -122 275 -34 0 -49 -6 -68 -26z
m102 -60 c14 -23 17 -51 17 -183 -1 -159 -9 -206 -40 -218 -8 -3 -23 2 -32 11
-15 14 -17 42 -17 200 0 140 3 187 14 199 19 24 38 21 58 -9z"/>
<path d="M19017 549 c-26 -15 -47 -70 -47 -124 0 -45 0 -45 35 -45 34 0 35 1
35 41 0 52 15 79 43 79 34 0 47 -19 47 -67 0 -50 -26 -122 -104 -286 -31 -65
-56 -120 -56 -123 0 -2 52 -4 115 -4 l115 0 0 30 0 30 -66 0 c-36 0 -64 3 -62
8 2 4 23 45 47 92 61 118 81 182 81 257 0 58 -3 68 -29 94 -25 25 -37 29 -83
29 -29 0 -61 -5 -71 -11z"/>
<path d="M19318 540 c-40 -31 -53 -97 -53 -260 0 -210 27 -270 121 -270 35 0
47 5 67 30 38 45 50 117 45 281 -4 149 -16 195 -57 226 -25 20 -95 16 -123 -7z
m94 -62 c18 -34 23 -311 6 -363 -17 -52 -52 -61 -70 -18 -16 38 -17 338 0 376
14 33 46 36 64 5z"/>
<path d="M19600 531 c0 -23 5 -30 23 -33 l22 -3 3 -237 2 -238 35 0 35 0 0
270 0 270 -60 0 c-60 0 -60 0 -60 -29z"/>
<path d="M19905 536 c-37 -37 -49 -97 -48 -251 0 -154 10 -208 48 -249 19 -20
33 -26 68 -26 91 0 122 73 121 285 -1 204 -29 265 -119 265 -35 0 -52 -6 -70
-24z m96 -53 c22 -26 26 -327 5 -377 -19 -45 -44 -45 -66 -1 -11 23 -14 69
-14 186 0 131 3 160 17 183 20 30 39 33 58 9z"/>
<path d="M21053 548 c-28 -13 -44 -54 -46 -114 -2 -48 -1 -49 29 -52 30 -3 31
-1 38 44 7 56 20 74 52 74 52 0 56 -79 10 -187 -13 -32 -49 -111 -80 -175
l-55 -118 114 0 115 0 0 30 0 30 -63 0 -64 0 59 118 c71 142 91 228 68 295 -9
25 -25 46 -40 54 -30 15 -106 16 -137 1z"/>
<path d="M21345 534 c-36 -39 -48 -116 -43 -283 4 -150 9 -173 51 -219 29 -32
99 -31 132 2 38 38 50 97 50 251 0 215 -26 275 -122 275 -34 0 -49 -6 -68 -26z
m102 -60 c14 -23 17 -51 17 -183 -1 -159 -9 -206 -40 -218 -8 -3 -23 2 -32 11
-15 14 -17 42 -17 200 0 140 3 187 14 199 19 24 38 21 58 -9z"/>
<path d="M21647 549 c-26 -15 -47 -70 -47 -124 0 -45 0 -45 35 -45 34 0 35 1
35 41 0 52 15 79 43 79 34 0 47 -19 47 -67 0 -50 -26 -122 -104 -286 -31 -65
-56 -120 -56 -123 0 -2 52 -4 115 -4 l115 0 0 30 0 30 -66 0 c-36 0 -64 3 -62
8 2 4 23 45 47 92 61 118 81 182 81 257 0 58 -3 68 -29 94 -25 25 -37 29 -83
29 -29 0 -61 -5 -71 -11z"/>
<path d="M21937 530 c-38 -44 -50 -123 -45 -280 7 -185 33 -240 116 -240 47 0
69 14 94 63 21 39 23 55 23 207 0 181 -9 226 -52 260 -17 13 -41 20 -68 20
-36 0 -48 -5 -68 -30z m100 -57 c15 -23 18 -51 18 -188 0 -139 -3 -165 -18
-189 -25 -37 -49 -30 -65 19 -18 52 -13 330 6 363 17 29 38 28 59 -5z"/>
<path d="M23138 546 c-25 -19 -48 -79 -48 -126 0 -39 1 -40 35 -40 34 0 35 1
35 38 0 72 53 108 86 57 22 -34 8 -95 -57 -237 -28 -62 -62 -137 -75 -165
l-24 -53 115 0 115 0 0 30 0 30 -64 0 -65 0 54 108 c92 181 105 284 45 344
-24 24 -36 28 -82 28 -29 0 -61 -7 -70 -14z"/>
<path d="M23435 536 c-37 -37 -49 -97 -48 -251 0 -154 10 -208 48 -249 19 -20
33 -26 68 -26 91 0 122 73 121 285 -1 204 -29 265 -119 265 -35 0 -52 -6 -70
-24z m96 -53 c22 -26 26 -327 5 -377 -19 -45 -44 -45 -66 -1 -11 23 -14 69
-14 186 0 131 3 160 17 183 20 30 39 33 58 9z"/>
<path d="M23731 543 c-12 -10 -26 -36 -31 -58 -16 -69 -14 -75 25 -75 31 0 35
3 35 26 0 36 17 64 39 64 30 0 45 -29 45 -87 0 -60 -17 -83 -61 -83 -19 0 -23
-5 -23 -28 0 -23 6 -30 32 -37 45 -14 60 -47 53 -114 -6 -60 -18 -81 -45 -81
-23 0 -50 31 -50 58 0 18 -6 22 -35 22 -39 0 -40 -5 -24 -63 16 -60 40 -77
105 -77 48 0 60 4 84 28 50 50 55 196 8 237 l-23 20 23 22 c19 19 22 33 22 97
0 85 -12 119 -47 135 -37 17 -108 14 -132 -6z"/>
<path d="M24025 534 c-36 -39 -48 -116 -43 -283 4 -150 9 -173 51 -219 29 -32
99 -31 132 2 38 38 50 97 50 251 0 215 -26 275 -122 275 -34 0 -49 -6 -68 -26z
m102 -60 c14 -23 17 -51 17 -183 -1 -159 -9 -206 -40 -218 -8 -3 -23 2 -32 11
-15 14 -17 42 -17 200 0 140 3 187 14 199 19 24 38 21 58 -9z"/>
<path d="M25227 549 c-26 -15 -47 -70 -47 -124 0 -45 0 -45 35 -45 34 0 35 1
35 41 0 52 15 79 43 79 34 0 47 -19 47 -67 0 -50 -26 -122 -104 -286 -31 -65
-56 -120 -56 -123 0 -2 52 -4 115 -4 l115 0 0 30 0 30 -66 0 c-36 0 -64 3 -62
8 2 4 23 45 47 92 61 118 81 182 81 257 0 58 -3 68 -29 94 -25 25 -37 29 -83
29 -29 0 -61 -5 -71 -11z"/>
<path d="M25528 540 c-40 -31 -53 -97 -53 -260 0 -210 27 -270 121 -270 35 0
47 5 67 30 38 45 50 117 45 281 -4 149 -16 195 -57 226 -25 20 -95 16 -123 -7z
m94 -62 c18 -34 23 -311 6 -363 -17 -52 -52 -61 -70 -18 -16 38 -17 338 0 376
14 33 46 36 64 5z"/>
<path d="M25836 391 c-43 -95 -76 -182 -76 -200 l0 -31 75 0 75 0 0 -70 0 -70
35 0 35 0 0 70 c0 56 3 70 15 70 10 0 15 10 15 30 0 20 -5 30 -15 30 -13 0
-15 26 -15 170 l0 170 -34 0 -34 0 -76 -169z m74 -66 l0 -105 -46 0 c-33 0
-45 4 -41 13 48 122 80 197 83 197 2 0 4 -47 4 -105z"/>
<path d="M26115 536 c-37 -37 -49 -97 -48 -251 0 -154 10 -208 48 -249 19 -20
33 -26 68 -26 91 0 122 73 121 285 -1 204 -29 265 -119 265 -35 0 -52 -6 -70
-24z m96 -53 c22 -26 26 -327 5 -377 -19 -45 -44 -45 -66 -1 -11 23 -14 69
-14 186 0 131 3 160 17 183 20 30 39 33 58 9z"/>
<path d="M27317 549 c-26 -15 -47 -70 -47 -124 0 -45 0 -45 35 -45 34 0 35 1
35 41 0 52 15 79 43 79 34 0 47 -19 47 -67 0 -50 -26 -122 -104 -286 -31 -65
-56 -120 -56 -123 0 -2 52 -4 115 -4 l115 0 0 30 0 30 -66 0 c-36 0 -64 3 -62
8 2 4 23 45 47 92 61 118 81 182 81 257 0 58 -3 68 -29 94 -25 25 -37 29 -83
29 -29 0 -61 -5 -71 -11z"/>
<path d="M27618 540 c-40 -31 -53 -97 -53 -260 0 -210 27 -270 121 -270 35 0
47 5 67 30 38 45 50 117 45 281 -4 149 -16 195 -57 226 -25 20 -95 16 -123 -7z
m94 -62 c18 -34 23 -311 6 -363 -17 -52 -52 -61 -70 -18 -16 38 -17 338 0 376
14 33 46 36 64 5z"/>
<path d="M27916 528 c-10 -58 -26 -189 -26 -207 0 -14 10 -20 46 -24 67 -7 79
-24 79 -108 0 -66 -2 -73 -29 -96 -22 -18 -35 -23 -55 -18 -46 13 -54 10 -62
-18 -6 -24 -4 -29 17 -38 14 -5 45 -9 69 -9 73 0 125 57 139 151 14 96 -25
173 -95 188 -34 7 -34 7 -33 63 2 84 5 88 69 88 54 0 55 0 55 30 l0 30 -85 0
-84 0 -5 -32z"/>
<path d="M28205 536 c-37 -37 -49 -97 -48 -251 0 -154 10 -208 48 -249 19 -20
33 -26 68 -26 91 0 122 73 121 285 -1 204 -29 265 -119 265 -35 0 -52 -6 -70
-24z m96 -53 c22 -26 26 -327 5 -377 -19 -45 -44 -45 -66 -1 -11 23 -14 69
-14 186 0 131 3 160 17 183 20 30 39 33 58 9z"/>
<path d="M29407 549 c-28 -16 -47 -64 -47 -119 l0 -50 35 0 c34 0 35 1 35 41
0 53 15 79 45 79 46 0 58 -62 29 -147 -9 -26 -43 -103 -75 -171 -85 -181 -90
-162 45 -162 l116 0 0 30 0 30 -65 0 c-36 0 -65 3 -65 6 0 3 16 34 35 69 104
185 123 353 46 395 -25 13 -111 13 -134 -1z"/>
<path d="M29697 530 c-38 -44 -50 -123 -45 -280 7 -185 33 -240 116 -240 47 0
69 14 94 63 21 39 23 55 23 207 0 181 -9 226 -52 260 -17 13 -41 20 -68 20
-36 0 -48 -5 -68 -30z m100 -57 c15 -23 18 -51 18 -188 0 -139 -3 -165 -18
-189 -25 -37 -49 -30 -65 19 -18 52 -13 330 6 363 17 29 38 28 59 -5z"/>
<path d="M30022 471 c-86 -184 -97 -367 -27 -437 35 -35 112 -34 147 1 30 30
38 63 38 157 0 118 -43 176 -111 151 -16 -6 -29 -7 -29 -3 0 5 20 52 45 106
25 53 45 100 45 105 0 5 -15 9 -34 9 -32 0 -34 -3 -74 -89z m78 -210 c14 -26
13 -134 -2 -166 -6 -14 -19 -25 -28 -25 -32 0 -45 30 -45 105 0 76 13 105 46
105 10 0 23 -9 29 -19z"/>
<path d="M30298 540 c-40 -31 -53 -97 -53 -260 0 -210 27 -270 121 -270 35 0
47 5 67 30 38 45 50 117 45 281 -4 149 -16 195 -57 226 -25 20 -95 16 -123 -7z
m94 -62 c18 -34 23 -311 6 -363 -17 -52 -52 -61 -70 -18 -16 38 -17 338 0 376
14 33 46 36 64 5z"/>
<path d="M31438 546 c-25 -19 -48 -79 -48 -126 0 -39 1 -40 35 -40 34 0 35 1
35 38 0 72 53 108 86 57 22 -34 8 -95 -57 -237 -28 -62 -62 -137 -75 -165
l-24 -53 115 0 115 0 0 30 0 30 -64 0 -65 0 54 108 c92 181 105 284 45 344
-24 24 -36 28 -82 28 -29 0 -61 -7 -70 -14z"/>
<path d="M31735 536 c-37 -37 -49 -97 -48 -251 0 -154 10 -208 48 -249 19 -20
33 -26 68 -26 91 0 122 73 121 285 -1 204 -29 265 -119 265 -35 0 -52 -6 -70
-24z m96 -53 c22 -26 26 -327 5 -377 -19 -45 -44 -45 -66 -1 -11 23 -14 69
-14 186 0 131 3 160 17 183 20 30 39 33 58 9z"/>
<path d="M31990 530 l0 -30 70 0 c57 0 70 -3 70 -16 0 -12 -118 -400 -137
-451 -4 -9 7 -13 34 -13 l40 0 78 258 c43 141 80 263 83 270 3 9 -24 12 -117
12 l-121 0 0 -30z"/>
<path d="M32325 534 c-36 -39 -48 -116 -43 -283 4 -150 9 -173 51 -219 29 -32
99 -31 132 2 38 38 50 97 50 251 0 215 -26 275 -122 275 -34 0 -49 -6 -68 -26z
m102 -60 c14 -23 17 -51 17 -183 -1 -159 -9 -206 -40 -218 -8 -3 -23 2 -32 11
-15 14 -17 42 -17 200 0 140 3 187 14 199 19 24 38 21 58 -9z"/>
<path d="M33477 549 c-28 -16 -47 -64 -47 -119 l0 -50 35 0 c34 0 35 1 35 41
0 53 15 79 45 79 46 0 58 -62 29 -147 -9 -26 -43 -103 -75 -171 -85 -181 -90
-162 45 -162 l116 0 0 30 0 30 -65 0 c-36 0 -65 3 -65 6 0 3 16 34 35 69 104
185 123 353 46 395 -25 13 -111 13 -134 -1z"/>
<path d="M33767 530 c-38 -44 -50 -123 -45 -280 7 -185 33 -240 116 -240 47 0
69 14 94 63 21 39 23 55 23 207 0 181 -9 226 -52 260 -17 13 -41 20 -68 20
-36 0 -48 -5 -68 -30z m100 -57 c15 -23 18 -51 18 -188 0 -139 -3 -165 -18
-189 -25 -37 -49 -30 -65 19 -18 52 -13 330 6 363 17 29 38 28 59 -5z"/>
<path d="M34072 553 c-51 -20 -58 -203 -8 -235 7 -4 2 -16 -13 -32 -46 -49
-41 -198 9 -248 24 -23 37 -28 77 -28 42 0 54 5 79 31 28 29 29 33 29 131 0
93 -2 101 -24 119 -21 18 -22 21 -8 32 54 41 46 196 -11 226 -21 11 -106 14
-130 4z m102 -95 c19 -78 -25 -151 -61 -102 -16 23 -17 116 -1 132 24 24 52
10 62 -30z m-12 -205 c14 -12 18 -31 18 -83 0 -72 -15 -104 -45 -98 -30 5 -46
47 -42 110 5 80 30 106 69 71z"/>
<path d="M34368 540 c-40 -31 -53 -97 -53 -260 0 -210 27 -270 121 -270 35 0
47 5 67 30 38 45 50 117 45 281 -4 149 -16 195 -57 226 -25 20 -95 16 -123 -7z
m94 -62 c18 -34 23 -311 6 -363 -17 -52 -52 -61 -70 -18 -16 38 -17 338 0 376
14 33 46 36 64 5z"/>
<path d="M35617 549 c-26 -15 -47 -70 -47 -124 0 -45 0 -45 35 -45 34 0 35 1
35 41 0 52 15 79 43 79 34 0 47 -19 47 -67 0 -50 -26 -122 -104 -286 -31 -65
-56 -120 -56 -123 0 -2 52 -4 115 -4 l115 0 0 30 0 30 -66 0 c-36 0 -64 3 -62
8 2 4 23 45 47 92 61 118 81 182 81 257 0 58 -3 68 -29 94 -25 25 -37 29 -83
29 -29 0 -61 -5 -71 -11z"/>
<path d="M35918 540 c-40 -31 -53 -97 -53 -260 0 -210 27 -270 121 -270 35 0
47 5 67 30 38 45 50 117 45 281 -4 149 -16 195 -57 226 -25 20 -95 16 -123 -7z
m94 -62 c18 -34 23 -311 6 -363 -17 -52 -52 -61 -70 -18 -16 38 -17 338 0 376
14 33 46 36 64 5z"/>
<path d="M36217 549 c-36 -21 -51 -70 -51 -165 0 -70 3 -97 17 -118 26 -38 61
-53 98 -39 16 6 29 10 29 8 0 -3 -22 -52 -49 -110 l-50 -105 39 0 38 0 40 93
c54 124 62 157 62 265 0 101 -15 153 -48 171 -26 14 -101 14 -125 0z m89 -70
c14 -15 18 -36 18 -89 0 -75 -12 -100 -49 -100 -18 0 -26 9 -35 36 -17 49 -7
144 16 161 24 17 28 17 50 -8z"/>
<path d="M36505 536 c-37 -37 -49 -97 -48 -251 0 -154 10 -208 48 -249 19 -20
33 -26 68 -26 91 0 122 73 121 285 -1 204 -29 265 -119 265 -35 0 -52 -6 -70
-24z m96 -53 c22 -26 26 -327 5 -377 -19 -45 -44 -45 -66 -1 -11 23 -14 69
-14 186 0 131 3 160 17 183 20 30 39 33 58 9z"/>
<path d="M37653 548 c-28 -13 -44 -54 -46 -114 -2 -48 -1 -49 29 -52 30 -3 31
-1 38 44 7 56 20 74 52 74 52 0 56 -79 10 -187 -13 -32 -49 -111 -80 -175
l-55 -118 114 0 115 0 0 30 0 30 -63 0 -64 0 59 118 c71 142 91 228 68 295 -9
25 -25 46 -40 54 -30 15 -106 16 -137 1z"/>
<path d="M37930 531 c0 -25 4 -30 28 -33 l27 -3 3 -237 2 -238 30 0 30 0 0
270 0 270 -60 0 c-60 0 -60 0 -60 -29z"/>
<path d="M38245 536 c-37 -37 -49 -97 -48 -251 0 -154 10 -208 48 -249 19 -20
33 -26 68 -26 91 0 122 73 121 285 -1 204 -29 265 -119 265 -35 0 -52 -6 -70
-24z m96 -53 c22 -26 26 -327 5 -377 -19 -45 -44 -45 -66 -1 -11 23 -14 69
-14 186 0 131 3 160 17 183 20 30 39 33 58 9z"/>
<path d="M38537 530 c-38 -44 -50 -123 -45 -280 7 -185 33 -240 116 -240 47 0
69 14 94 63 21 39 23 55 23 207 0 181 -9 226 -52 260 -17 13 -41 20 -68 20
-36 0 -48 -5 -68 -30z m100 -57 c15 -23 18 -51 18 -188 0 -139 -3 -165 -18
-189 -25 -37 -49 -30 -65 19 -18 52 -13 330 6 363 17 29 38 28 59 -5z"/>
</g>
</svg>
