<svg id="svg" version="1.1" xmlns="http://www.w3.org/2000/svg" xmlns:xlink="http://www.w3.org/1999/xlink" width="400" height="1743.3962264150944" viewBox="0, 0, 400,1743.3962264150944"><g id="svgg"><path id="path0" d="M213.836 31.447 L 213.836 52.830 272.956 52.830 L 332.075 52.830 332.075 31.447 L 332.075 10.063 324.528 10.063 C 317.149 10.063,316.981 10.342,316.981 22.642 L 316.981 35.220 298.113 35.220 L 279.245 35.220 279.245 23.899 C 279.245 12.998,278.966 12.579,271.698 12.579 C 264.430 12.579,264.151 12.998,264.151 23.899 L 264.151 35.220 246.541 35.220 L 228.931 35.220 228.931 22.642 C 228.931 10.342,228.763 10.063,221.384 10.063 L 213.836 10.063 213.836 31.447 M213.836 114.465 L 213.836 140.881 221.384 140.881 C 228.332 140.881,228.931 140.182,228.931 132.075 L 228.931 123.270 280.503 123.270 L 332.075 123.270 332.075 114.465 L 332.075 105.660 280.503 105.660 L 228.931 105.660 228.931 96.855 C 228.931 88.749,228.332 88.050,221.384 88.050 L 213.836 88.050 213.836 114.465 M270.440 178.282 L 215.094 190.102 215.094 197.492 L 215.094 204.882 267.925 216.780 C 332.315 231.282,332.075 231.265,332.075 221.432 C 332.075 215.301,330.813 213.651,325.157 212.393 C 309.327 208.870,309.434 208.970,309.434 197.600 L 309.434 186.735 320.755 185.037 C 331.648 183.404,332.075 183.013,332.075 174.689 C 332.075 164.206,337.952 163.864,270.440 178.282 M294.340 198.912 C 294.340 205.055,293.442 206.376,289.937 205.391 C 287.516 204.711,277.044 202.685,266.667 200.889 L 247.799 197.624 265.409 194.749 C 294.140 190.059,294.340 190.088,294.340 198.912 M271.698 264.326 C 247.484 266.811,224.488 268.921,220.595 269.013 C 214.154 269.167,213.589 269.917,214.306 277.358 L 215.094 285.535 249.057 292.193 C 267.736 295.855,283.585 299.048,284.277 299.288 C 285.410 299.682,271.793 302.726,228.302 311.803 C 210.332 315.554,206.144 328.098,222.013 330.643 C 228.802 331.732,324.145 339.653,330.189 339.630 C 331.226 339.626,332.075 335.660,332.075 330.818 L 332.075 322.013 310.063 321.826 C 267.670 321.467,261.358 318.993,289.308 313.692 C 328.444 306.270,332.075 304.984,332.075 298.545 C 332.075 293.273,329.769 292.445,298.742 286.569 L 265.409 280.257 298.742 278.265 L 332.075 276.274 332.075 267.696 C 332.075 257.483,336.153 257.711,271.698 264.326 M213.836 386.164 L 213.836 394.969 272.956 394.969 L 332.075 394.969 332.075 386.164 L 332.075 377.358 272.956 377.358 L 213.836 377.358 213.836 386.164 M316.981 442.767 L 316.981 455.346 265.409 455.346 L 213.836 455.346 213.836 464.151 L 213.836 472.956 272.956 472.956 L 332.075 472.956 332.075 451.572 L 332.075 430.189 324.528 430.189 C 317.149 430.189,316.981 430.468,316.981 442.767 M212.906 516.352 C 205.199 545.112,225.795 560.714,271.698 560.888 C 318.619 561.065,341.466 543.123,330.548 514.671 C 326.770 504.826,313.208 509.837,313.208 521.079 C 313.208 535.991,305.401 541.249,280.932 542.820 C 245.630 545.085,226.927 536.593,229.692 519.554 C 231.503 508.394,215.840 505.407,212.906 516.352 M213.836 670.440 L 213.836 679.245 244.654 679.461 L 275.472 679.677 244.654 690.078 L 213.836 700.478 213.836 708.730 L 213.836 716.981 272.956 716.981 L 332.075 716.981 332.075 708.065 L 332.075 699.150 296.226 700.581 L 260.377 702.013 296.226 690.183 L 332.075 678.353 332.075 669.994 L 332.075 661.635 272.956 661.635 L 213.836 661.635 213.836 670.440 M245.283 758.973 C 224.283 763.802,220.905 765.444,216.247 773.084 C 197.324 804.119,222.247 822.100,280.635 819.538 C 321.501 817.745,332.075 811.127,332.075 787.343 C 332.075 763.615,287.895 749.175,245.283 758.973 M311.991 781.917 C 319.219 787.771,316.858 796.708,307.379 799.365 C 295.018 802.831,237.694 801.627,233.090 797.805 C 227.634 793.276,227.770 783.316,233.333 780.076 C 241.697 775.204,305.546 776.699,311.991 781.917 M283.019 918.728 C 280.252 920.296,271.951 927.056,264.573 933.750 C 241.724 954.479,218.472 950.037,230.317 927.205 C 233.634 920.813,233.576 920.755,223.864 920.755 C 212.881 920.755,208.951 929.396,212.528 945.681 C 218.592 973.289,275.430 965.503,288.889 935.220 C 289.350 934.182,294.546 933.333,300.435 933.333 C 313.942 933.333,318.397 940.267,313.054 952.974 L 309.677 961.006 319.325 961.006 C 337.250 961.006,337.100 928.600,319.132 919.308 C 310.889 915.045,290.105 914.711,283.019 918.728 M213.836 1022.642 L 213.836 1044.025 272.956 1044.025 L 332.075 1044.025 332.075 1022.642 L 332.075 1001.258 324.528 1001.258 C 317.149 1001.258,316.981 1001.537,316.981 1013.836 L 316.981 1026.415 298.113 1026.415 L 279.245 1026.415 279.245 1015.094 C 279.245 1004.193,278.966 1003.774,271.698 1003.774 C 264.430 1003.774,264.151 1004.193,264.151 1015.094 L 264.151 1026.415 246.541 1026.415 L 228.931 1026.415 228.931 1013.836 C 228.931 1001.537,228.763 1001.258,221.384 1001.258 L 213.836 1001.258 213.836 1022.642 M212.906 1087.421 C 205.548 1114.880,223.331 1129.428,266.830 1131.537 C 314.605 1133.853,338.493 1117.735,331.077 1088.187 C 327.943 1075.700,313.208 1079.077,313.208 1092.282 C 313.208 1108.284,303.316 1113.237,271.595 1113.117 C 239.784 1112.998,230.078 1108.083,230.406 1092.257 C 230.666 1079.665,216.066 1075.631,212.906 1087.421 M213.836 1181.132 L 213.836 1189.937 245.912 1190.065 L 277.987 1190.193 246.541 1201.000 C 215.770 1211.574,215.077 1211.977,214.306 1219.740 L 213.518 1227.673 272.797 1227.673 L 332.075 1227.673 332.075 1220.126 L 332.075 1212.579 297.484 1212.490 L 262.893 1212.402 297.484 1200.704 L 332.075 1189.006 332.075 1180.667 L 332.075 1172.327 272.956 1172.327 L 213.836 1172.327 213.836 1181.132 M213.836 1289.308 L 213.836 1310.692 272.956 1310.692 L 332.075 1310.692 332.075 1289.308 L 332.075 1267.925 324.528 1267.925 C 317.149 1267.925,316.981 1268.204,316.981 1280.503 L 316.981 1293.082 298.113 1293.082 L 279.245 1293.082 279.245 1281.761 C 279.245 1270.860,278.966 1270.440,271.698 1270.440 C 264.430 1270.440,264.151 1270.860,264.151 1281.761 L 264.151 1293.082 246.541 1293.082 L 228.931 1293.082 228.931 1280.503 C 228.931 1268.204,228.763 1267.925,221.384 1267.925 L 213.836 1267.925 213.836 1289.308 M213.836 1361.928 L 213.836 1371.069 261.456 1371.069 C 315.409 1371.069,321.590 1372.852,314.377 1386.329 C 311.939 1390.884,308.643 1391.195,262.805 1391.195 L 213.836 1391.195 213.836 1400.000 L 213.836 1408.805 266.781 1408.805 C 319.639 1408.805,319.736 1408.795,325.901 1402.630 C 334.615 1393.916,334.770 1371.967,326.188 1361.990 L 320.301 1355.146 267.069 1353.966 L 213.836 1352.786 213.836 1361.928 M316.981 1456.604 L 316.981 1469.182 265.409 1469.182 L 213.836 1469.182 213.836 1477.987 L 213.836 1486.792 272.956 1486.792 L 332.075 1486.792 332.075 1465.409 L 332.075 1444.025 324.528 1444.025 C 317.149 1444.025,316.981 1444.305,316.981 1456.604 M213.836 1545.912 L 213.836 1567.296 272.956 1567.296 L 332.075 1567.296 332.075 1558.491 L 332.075 1549.686 305.660 1549.686 L 279.245 1549.686 279.245 1538.365 C 279.245 1527.463,278.966 1527.044,271.698 1527.044 C 264.430 1527.044,264.151 1527.463,264.151 1538.365 L 264.151 1549.686 246.541 1549.686 L 228.931 1549.686 228.931 1537.107 C 228.931 1524.808,228.763 1524.528,221.384 1524.528 L 213.836 1524.528 213.836 1545.912 M213.836 1621.712 L 213.836 1630.845 247.228 1629.713 L 280.619 1628.580 247.228 1639.963 L 213.836 1651.347 213.836 1659.636 L 213.836 1667.925 272.956 1667.925 L 332.075 1667.925 332.075 1658.803 L 332.075 1649.681 296.036 1650.765 L 259.996 1651.849 295.407 1640.260 C 330.597 1628.743,330.823 1628.620,331.606 1620.625 L 332.394 1612.579 273.115 1612.579 L 213.836 1612.579 213.836 1621.712 M213.836 1719.497 L 213.836 1728.302 272.956 1728.302 L 332.075 1728.302 332.075 1719.497 L 332.075 1710.692 272.956 1710.692 L 213.836 1710.692 213.836 1719.497 " stroke="none" fill="#000000" fill-rule="evenodd"></path></g></svg>