<svg id="svg" version="1.1" xmlns="http://www.w3.org/2000/svg" xmlns:xlink="http://www.w3.org/1999/xlink" width="400" height="158.6206896551724" viewBox="0, 0, 400,158.6206896551724"><g id="svgg"><path id="path0" d="M47.509 60.958 C 47.255 61.872,47.276 69.376,47.533 69.633 C 47.670 69.770,48.481 69.833,50.098 69.833 C 52.105 69.833,52.517 69.878,52.817 70.125 L 53.170 70.417 53.210 86.167 L 53.250 101.917 57.524 101.961 C 60.062 101.988,61.974 101.938,62.232 101.840 L 62.667 101.675 62.672 86.129 C 62.677 72.528,62.709 70.542,62.929 70.250 C 63.153 69.953,63.439 69.906,65.549 69.821 C 68.837 69.689,68.500 70.184,68.500 65.488 L 68.500 61.512 67.983 60.922 L 67.465 60.333 57.574 60.333 L 47.682 60.333 47.509 60.958 M72.366 60.883 L 71.833 61.433 71.833 81.540 C 71.833 97.443,71.877 101.675,72.042 101.782 C 72.324 101.965,89.017 102.048,89.704 101.870 L 90.250 101.729 90.295 97.707 L 90.339 93.685 89.819 93.092 L 89.299 92.500 86.191 92.499 C 81.367 92.498,81.500 92.597,81.500 89.006 C 81.500 84.975,81.468 85.002,86.202 85.001 C 88.950 85.000,89.167 84.978,89.327 84.678 C 89.562 84.240,89.552 78.021,89.316 77.083 L 89.132 76.351 85.573 76.301 C 81.156 76.238,81.513 76.524,81.505 73.031 C 81.498 69.398,81.359 69.502,86.191 69.501 L 89.299 69.500 89.816 68.911 L 90.333 68.322 90.333 64.917 L 90.333 61.512 89.816 60.922 L 89.299 60.333 81.099 60.333 L 72.899 60.333 72.366 60.883 M98.823 60.710 C 98.119 61.185,98.037 61.495,98.019 63.750 C 97.999 66.240,97.683 69.640,97.415 70.250 C 97.131 70.898,96.831 73.653,96.826 75.667 C 96.822 77.559,96.443 81.313,96.210 81.763 C 96.005 82.160,95.854 83.615,95.648 87.167 C 95.423 91.045,95.260 92.715,95.079 93.002 C 94.700 93.602,94.235 101.650,94.567 101.872 C 94.838 102.054,104.129 102.028,104.242 101.846 C 104.294 101.761,104.421 98.330,104.524 94.221 C 104.665 88.561,104.765 86.633,104.938 86.266 C 105.096 85.931,105.172 85.032,105.183 83.349 C 105.204 80.361,105.263 80.100,105.941 80.033 C 106.723 79.956,107.003 81.128,107.250 85.500 C 107.304 86.462,107.487 87.700,107.657 88.250 C 108.092 89.661,108.333 91.421,108.335 93.211 C 108.337 94.340,108.449 95.150,108.756 96.250 C 108.997 97.114,109.239 98.579,109.326 99.707 C 109.410 100.783,109.525 101.739,109.582 101.832 C 109.703 102.027,116.643 102.065,116.935 101.872 C 117.037 101.805,117.175 101.375,117.241 100.917 C 117.307 100.458,117.508 99.747,117.689 99.335 C 117.921 98.805,118.066 97.908,118.188 96.252 C 118.313 94.542,118.472 93.582,118.781 92.667 C 119.075 91.795,119.247 90.811,119.346 89.417 C 119.495 87.327,119.730 86.044,120.093 85.324 C 120.212 85.090,120.360 84.152,120.422 83.241 C 120.574 81.035,120.934 78.421,121.137 78.059 C 121.288 77.789,121.833 78.656,121.833 79.167 C 121.833 79.236,121.946 79.386,122.083 79.500 C 122.291 79.672,122.333 80.289,122.333 83.109 C 122.333 85.987,122.381 86.657,122.646 87.464 C 122.923 88.306,122.971 89.180,123.058 94.978 C 123.127 99.541,123.216 101.609,123.349 101.769 C 123.590 102.059,132.653 102.114,132.939 101.827 C 133.048 101.719,133.064 101.363,132.983 100.869 C 132.911 100.437,132.849 99.657,132.843 99.136 C 132.838 98.615,132.748 97.977,132.643 97.719 C 132.395 97.108,132.215 94.988,132.002 90.167 C 131.814 85.902,131.625 83.671,131.427 83.351 C 131.228 83.028,130.995 80.257,130.816 76.083 C 130.577 70.506,130.494 69.444,130.278 69.184 C 130.077 68.943,129.929 67.387,129.701 63.126 C 129.628 61.775,129.493 60.593,129.399 60.499 C 129.288 60.388,127.233 60.344,123.501 60.373 L 117.774 60.417 117.638 60.917 C 117.564 61.192,117.423 62.054,117.326 62.833 C 117.228 63.612,117.051 64.400,116.932 64.583 C 116.682 64.969,116.387 66.892,116.230 69.167 C 116.162 70.157,116.010 70.972,115.824 71.342 C 115.484 72.020,115.167 74.045,115.165 75.554 C 115.162 78.303,114.682 79.833,113.823 79.833 C 112.856 79.833,112.743 79.423,112.537 75.146 C 112.388 72.055,112.307 71.393,111.948 70.323 C 111.657 69.457,111.475 68.389,111.343 66.777 C 111.240 65.509,111.039 64.159,110.897 63.777 C 110.755 63.396,110.572 62.708,110.490 62.250 C 110.408 61.792,110.209 61.173,110.049 60.875 L 109.758 60.333 104.570 60.333 C 99.459 60.333,99.374 60.339,98.823 60.710 M138.342 60.958 C 138.052 62.003,138.103 101.573,138.395 101.816 C 138.557 101.950,139.982 101.992,143.270 101.961 L 147.917 101.917 148.000 95.299 C 148.100 87.362,147.679 88.237,151.444 88.134 C 153.589 88.075,154.220 88.005,154.454 87.799 C 154.617 87.656,155.229 87.366,155.815 87.155 C 156.401 86.944,157.053 86.598,157.266 86.386 C 157.478 86.174,157.761 86.000,157.894 86.000 C 158.028 86.000,158.326 85.775,158.558 85.500 C 158.789 85.225,159.058 85.000,159.156 85.000 C 159.253 85.000,159.333 84.937,159.333 84.859 C 159.333 84.781,159.599 84.444,159.924 84.110 C 160.248 83.776,160.620 83.200,160.751 82.832 C 160.881 82.463,161.170 81.919,161.393 81.622 C 161.720 81.189,161.836 80.749,161.983 79.370 C 162.084 78.428,162.279 77.387,162.416 77.058 C 162.790 76.163,162.753 73.064,162.348 71.490 C 162.173 70.808,161.979 69.837,161.917 69.333 C 161.851 68.803,161.636 68.171,161.408 67.833 C 161.191 67.512,160.905 66.942,160.772 66.565 C 160.640 66.188,160.355 65.689,160.141 65.455 C 159.926 65.222,159.450 64.677,159.083 64.244 C 157.888 62.833,156.988 62.167,156.279 62.167 C 156.140 62.167,155.793 61.971,155.508 61.731 C 154.954 61.265,152.312 60.848,149.833 60.835 C 149.237 60.832,148.337 60.719,147.833 60.583 C 147.141 60.397,145.890 60.337,142.716 60.335 L 138.516 60.333 138.342 60.958 M167.026 60.978 C 166.719 62.002,166.753 101.559,167.061 101.814 C 167.225 101.951,169.710 101.991,176.019 101.960 L 184.750 101.917 184.794 97.536 C 184.851 91.926,185.325 92.529,180.817 92.467 C 176.150 92.403,176.500 92.686,176.500 88.973 C 176.500 84.944,176.443 85.000,180.560 85.000 C 182.989 85.000,183.520 84.956,183.738 84.738 C 184.148 84.328,184.123 77.830,183.708 77.000 L 183.417 76.417 180.340 76.371 C 176.261 76.311,176.500 76.521,176.500 72.996 C 176.500 69.339,176.180 69.597,180.805 69.535 C 183.933 69.494,184.445 69.451,184.625 69.212 C 184.891 68.860,184.924 61.147,184.661 60.656 C 184.494 60.343,184.220 60.333,175.854 60.333 L 167.219 60.333 167.026 60.978 M190.088 61.208 C 190.032 61.690,190.007 71.046,190.034 82.000 L 190.083 101.917 194.730 101.961 C 197.900 101.991,199.446 101.948,199.595 101.824 C 199.768 101.680,199.825 100.150,199.865 94.529 C 199.912 87.995,199.942 87.371,200.223 86.854 C 200.662 86.050,200.940 86.411,201.324 88.290 C 201.500 89.148,201.787 90.009,201.986 90.278 C 202.179 90.540,202.440 91.312,202.568 92.001 C 202.696 92.688,202.995 93.619,203.234 94.070 C 203.473 94.523,203.667 95.164,203.667 95.503 C 203.667 96.236,203.948 97.136,204.308 97.551 C 204.451 97.717,204.695 98.478,204.850 99.242 C 205.103 100.492,205.575 101.499,206.083 101.872 C 206.357 102.073,215.574 102.026,215.777 101.823 C 215.988 101.612,215.756 100.878,215.199 100.000 C 214.996 99.679,214.782 99.128,214.724 98.776 C 214.666 98.424,214.483 98.008,214.316 97.853 C 213.972 97.533,213.502 96.494,213.497 96.047 C 213.495 95.884,213.281 95.435,213.020 95.050 C 212.759 94.666,212.498 94.053,212.439 93.688 C 212.381 93.324,212.159 92.814,211.945 92.555 C 211.731 92.295,211.459 91.708,211.340 91.250 C 211.220 90.792,210.952 90.154,210.743 89.833 C 210.533 89.513,210.238 88.875,210.086 88.417 C 209.934 87.958,209.714 87.471,209.597 87.333 C 208.514 86.057,208.807 84.275,210.190 83.721 C 210.534 83.583,211.011 83.215,211.250 82.902 C 211.488 82.589,211.783 82.333,211.905 82.333 C 212.027 82.333,212.226 82.094,212.347 81.801 C 212.468 81.508,212.778 81.029,213.034 80.736 C 213.323 80.407,213.563 79.877,213.664 79.348 C 213.836 78.438,214.099 77.826,214.400 77.631 C 214.800 77.372,214.635 71.188,214.204 70.314 C 213.996 69.891,213.721 68.997,213.593 68.328 C 213.445 67.552,213.262 67.057,213.085 66.958 C 212.933 66.872,212.672 66.491,212.505 66.110 C 212.223 65.467,211.738 64.848,210.524 63.583 C 210.260 63.308,210.005 62.967,209.957 62.824 C 209.908 62.682,209.569 62.466,209.202 62.345 C 208.835 62.224,208.328 61.933,208.074 61.698 C 207.569 61.229,206.841 61.122,202.417 60.864 C 201.225 60.795,200.086 60.647,199.886 60.536 C 199.625 60.391,198.203 60.333,194.856 60.333 L 190.191 60.333 190.088 61.208 M227.566 60.588 C 226.930 60.867,226.720 61.377,226.575 63.000 C 226.511 63.709,226.289 64.667,226.060 65.214 C 225.800 65.838,225.602 66.763,225.499 67.839 C 225.398 68.906,225.218 69.753,224.996 70.208 C 224.805 70.598,224.576 71.554,224.486 72.333 C 224.284 74.073,224.016 75.309,223.744 75.750 C 223.630 75.933,223.411 77.021,223.257 78.167 C 223.096 79.358,222.836 80.536,222.650 80.917 C 222.466 81.296,222.213 82.435,222.066 83.558 C 221.923 84.644,221.629 86.004,221.412 86.580 C 221.195 87.157,220.966 88.218,220.904 88.939 C 220.837 89.706,220.621 90.665,220.383 91.250 C 220.117 91.902,219.923 92.825,219.826 93.899 C 219.673 95.581,219.458 96.481,219.059 97.094 C 218.937 97.283,218.757 98.205,218.661 99.143 C 218.565 100.081,218.415 101.035,218.329 101.262 C 218.192 101.622,218.227 101.698,218.596 101.838 C 219.097 102.029,227.156 102.054,227.452 101.867 C 227.863 101.605,228.329 100.179,228.501 98.654 C 228.760 96.362,228.647 96.429,232.354 96.364 C 234.958 96.319,235.408 96.349,235.668 96.585 C 236.225 97.089,236.691 98.493,236.847 100.138 C 237.036 102.143,236.641 101.994,241.803 101.997 C 246.843 102.000,247.346 101.866,246.491 100.750 C 246.229 100.408,245.865 98.533,245.768 97.026 C 245.699 95.952,245.556 95.227,245.309 94.692 C 245.063 94.162,244.884 93.259,244.742 91.833 C 244.628 90.688,244.407 89.412,244.251 89.000 C 244.096 88.587,243.860 87.500,243.727 86.583 C 243.440 84.603,243.107 82.940,242.861 82.250 C 242.681 81.745,242.468 80.454,242.185 78.167 C 242.100 77.479,241.875 76.477,241.684 75.939 C 241.477 75.354,241.276 74.198,241.186 73.063 C 241.074 71.667,240.938 70.978,240.672 70.458 C 240.405 69.936,240.267 69.230,240.144 67.767 C 240.029 66.383,239.853 65.451,239.563 64.683 C 239.335 64.078,239.103 63.096,239.047 62.500 C 238.991 61.904,238.845 61.173,238.721 60.875 L 238.496 60.333 233.289 60.347 C 229.284 60.357,227.964 60.413,227.566 60.588 M248.184 60.922 L 247.667 61.512 247.667 65.488 C 247.667 70.184,247.330 69.689,250.618 69.821 C 252.727 69.906,253.013 69.953,253.238 70.250 C 253.458 70.542,253.490 72.528,253.495 86.129 L 253.500 101.675 253.935 101.840 C 254.193 101.938,256.104 101.988,258.643 101.961 L 262.917 101.917 262.957 86.167 L 262.996 70.417 263.350 70.125 C 263.650 69.878,264.062 69.833,266.068 69.833 C 267.686 69.833,268.497 69.770,268.633 69.633 C 268.890 69.376,268.912 61.872,268.658 60.958 L 268.484 60.333 258.593 60.333 L 248.701 60.333 248.184 60.922 M272.366 60.883 L 271.833 61.433 271.833 75.819 C 271.833 87.985,271.871 90.324,272.077 90.978 C 272.211 91.402,272.445 92.475,272.596 93.361 C 272.748 94.247,272.974 95.147,273.099 95.361 C 273.224 95.575,273.488 96.087,273.687 96.500 C 274.287 97.747,275.697 99.424,276.484 99.825 C 276.814 99.994,277.226 100.289,277.401 100.482 C 277.575 100.675,277.817 100.833,277.937 100.833 C 278.057 100.833,278.384 101.057,278.664 101.331 C 278.944 101.605,279.378 101.868,279.628 101.916 C 279.879 101.964,280.533 102.166,281.083 102.364 C 282.708 102.952,286.269 102.989,287.973 102.437 C 288.675 102.210,289.496 101.974,289.797 101.914 C 290.103 101.853,290.459 101.630,290.604 101.409 C 290.746 101.191,291.025 100.962,291.223 100.900 C 291.421 100.838,291.989 100.498,292.485 100.144 C 292.982 99.790,293.488 99.500,293.610 99.500 C 293.733 99.500,293.833 99.405,293.833 99.289 C 293.833 99.172,294.134 98.713,294.502 98.268 C 294.870 97.823,295.217 97.262,295.273 97.021 C 295.330 96.780,295.566 96.379,295.798 96.130 C 296.477 95.400,296.530 94.176,296.608 77.364 C 296.676 62.712,296.661 61.600,296.392 60.989 L 296.103 60.333 292.043 60.333 L 287.983 60.333 287.741 60.911 C 287.537 61.401,287.500 63.690,287.500 75.875 L 287.500 90.260 286.907 91.208 C 285.778 93.014,283.152 92.901,282.094 91.000 L 281.583 90.083 281.500 75.500 C 281.454 67.479,281.352 60.785,281.274 60.625 C 281.144 60.359,280.769 60.333,277.015 60.333 L 272.899 60.333 272.366 60.883 M302.749 60.708 C 302.699 60.915,302.679 70.271,302.704 81.500 L 302.750 101.917 307.396 101.961 C 310.685 101.992,312.110 101.950,312.271 101.816 C 312.458 101.661,312.500 100.388,312.501 94.855 C 312.502 88.215,312.566 87.262,313.061 86.586 C 313.385 86.143,313.776 86.918,313.989 88.425 C 314.092 89.150,314.302 89.771,314.593 90.211 C 314.886 90.654,315.083 91.240,315.167 91.923 C 315.242 92.521,315.473 93.269,315.713 93.689 C 315.943 94.089,316.180 94.792,316.241 95.250 C 316.384 96.331,316.648 97.181,316.949 97.525 C 317.080 97.676,317.316 98.429,317.471 99.199 C 317.725 100.450,317.946 100.928,318.671 101.792 C 318.906 102.071,328.173 102.094,328.451 101.816 C 328.650 101.617,328.334 100.646,327.915 100.167 C 327.795 100.029,327.567 99.467,327.408 98.917 C 327.249 98.367,326.991 97.826,326.834 97.716 C 326.677 97.605,326.420 97.057,326.263 96.498 C 326.106 95.939,325.794 95.211,325.570 94.881 C 325.346 94.550,325.115 93.985,325.057 93.625 C 325.000 93.264,324.782 92.767,324.574 92.519 C 324.365 92.271,324.081 91.632,323.942 91.098 C 323.802 90.564,323.545 89.968,323.370 89.772 C 323.196 89.577,322.923 88.990,322.764 88.469 C 322.605 87.947,322.374 87.436,322.250 87.333 C 321.129 86.403,321.502 84.311,322.902 83.673 C 323.277 83.502,323.754 83.131,323.963 82.848 C 324.172 82.565,324.449 82.333,324.577 82.333 C 324.706 82.333,324.861 82.165,324.922 81.958 C 324.984 81.752,325.239 81.321,325.490 81.000 C 326.129 80.183,326.275 79.860,326.402 78.983 C 326.465 78.546,326.672 78.045,326.882 77.820 C 327.434 77.227,327.452 71.207,326.903 70.417 C 326.712 70.142,326.422 69.265,326.259 68.469 C 326.077 67.584,325.869 66.985,325.722 66.929 C 325.591 66.879,325.341 66.518,325.167 66.127 C 324.880 65.480,324.587 65.105,323.179 63.583 C 322.924 63.308,322.677 62.970,322.629 62.832 C 322.581 62.694,322.157 62.443,321.687 62.274 C 321.218 62.105,320.833 61.917,320.833 61.857 C 320.833 61.362,319.335 61.108,314.957 60.860 C 313.572 60.782,312.585 60.652,312.465 60.532 C 312.321 60.388,310.977 60.333,307.553 60.333 L 302.840 60.333 302.749 60.708 M333.370 60.824 L 332.833 61.315 332.833 81.495 L 332.833 101.675 333.261 101.837 C 333.518 101.935,337.003 102.000,342.000 102.000 C 346.997 102.000,350.482 101.935,350.739 101.837 L 351.167 101.675 351.167 97.612 L 351.167 93.549 350.720 93.066 L 350.273 92.583 346.762 92.488 C 342.030 92.360,342.279 92.575,342.363 88.697 C 342.443 84.966,342.334 85.051,347.107 85.020 C 349.699 85.003,350.145 84.962,350.232 84.736 C 350.414 84.261,350.343 77.412,350.150 76.858 L 349.967 76.333 346.664 76.333 C 342.995 76.333,342.922 76.321,342.577 75.655 C 342.119 74.768,342.236 70.632,342.735 70.051 L 343.138 69.583 346.705 69.500 L 350.273 69.417 350.720 68.934 L 351.167 68.451 351.167 64.925 L 351.167 61.399 350.617 60.866 L 350.067 60.333 341.988 60.333 L 333.908 60.333 333.370 60.824 M151.045 69.589 C 151.658 69.990,152.045 70.371,152.112 70.640 C 152.171 70.872,152.390 71.315,152.600 71.624 C 153.326 72.693,153.375 75.951,152.679 76.816 C 152.487 77.055,152.259 77.415,152.173 77.616 C 152.086 77.818,151.805 78.113,151.549 78.272 C 151.293 78.431,150.885 78.741,150.644 78.960 C 150.027 79.521,149.032 79.631,148.497 79.198 L 148.083 78.863 148.083 74.299 C 148.083 68.301,148.374 67.838,151.045 69.589 M202.583 69.784 C 203.113 69.954,203.659 70.300,204.083 70.734 L 204.750 71.417 204.750 74.250 L 204.750 77.083 204.129 77.882 C 203.788 78.322,203.450 78.776,203.379 78.891 C 203.077 79.383,202.035 79.833,201.198 79.833 C 199.827 79.833,199.833 79.859,199.833 74.652 C 199.833 68.883,199.825 68.898,202.583 69.784 M314.836 69.679 C 316.062 70.018,316.851 70.598,317.346 71.524 C 317.644 72.080,317.534 76.520,317.208 77.118 C 316.141 79.077,315.199 79.833,313.828 79.833 C 312.479 79.833,312.500 79.913,312.500 74.693 C 312.500 68.896,312.444 69.016,314.836 69.679 M233.113 72.309 C 233.219 72.480,233.352 73.248,233.407 74.018 C 233.711 78.214,233.887 79.818,234.112 80.436 C 234.772 82.249,234.826 87.510,234.192 88.228 C 233.817 88.652,230.814 88.552,230.364 88.101 C 229.982 87.718,230.003 85.675,230.399 84.750 C 230.580 84.327,230.743 83.263,230.845 81.838 C 231.045 79.045,231.253 77.685,231.670 76.465 C 231.849 75.942,232.067 74.875,232.156 74.094 C 232.372 72.192,232.681 71.617,233.113 72.309 " stroke="none" fill="#fcf7f5" fill-rule="evenodd"></path><path id="path1" d="M51.167 8.083 L 51.167 8.667 48.344 8.667 L 45.521 8.667 45.469 9.208 L 45.417 9.750 43.708 9.797 L 42.000 9.845 42.000 10.317 C 42.000 10.821,41.545 10.994,40.208 10.998 C 39.718 11.000,39.667 11.047,39.667 11.500 C 39.667 11.985,39.643 12.000,38.875 12.002 C 37.640 12.006,37.333 12.136,37.333 12.657 C 37.333 13.083,37.275 13.117,36.292 13.262 C 35.324 13.406,35.246 13.449,35.197 13.875 C 35.161 14.191,35.049 14.333,34.836 14.333 C 34.245 14.333,34.000 14.531,34.000 15.007 C 34.000 15.418,33.930 15.486,33.458 15.531 C 32.984 15.577,32.910 15.650,32.865 16.115 C 32.820 16.578,32.745 16.654,32.282 16.699 C 31.816 16.744,31.743 16.818,31.698 17.292 C 31.656 17.726,31.572 17.833,31.273 17.833 C 30.685 17.833,30.500 18.160,30.500 19.200 L 30.500 20.167 29.917 20.167 C 29.361 20.167,29.333 20.194,29.333 20.750 C 29.333 21.248,29.277 21.333,28.950 21.333 C 28.365 21.333,28.167 21.651,28.167 22.593 C 28.167 23.419,28.146 23.458,27.625 23.607 L 27.083 23.762 27.036 25.381 L 26.988 27.000 26.512 27.000 C 25.901 27.000,25.833 27.199,25.833 29.003 L 25.833 30.478 25.377 30.531 C 24.733 30.605,24.688 31.025,24.676 36.947 L 24.667 41.978 24.208 42.031 C 23.765 42.082,23.750 42.116,23.750 43.083 C 23.750 44.050,23.765 44.085,24.208 44.136 L 24.667 44.189 24.669 85.719 C 24.671 130.220,24.635 128.000,25.353 128.000 L 25.833 128.000 25.833 129.729 C 25.833 132.084,25.922 132.456,26.512 132.586 C 26.968 132.686,26.987 132.731,27.034 133.803 L 27.083 134.917 27.618 134.968 L 28.152 135.020 28.201 136.135 L 28.250 137.250 28.792 137.302 L 29.333 137.354 29.333 138.427 L 29.333 139.500 29.917 139.500 C 30.472 139.500,30.500 139.528,30.500 140.083 C 30.500 140.637,30.529 140.667,31.075 140.667 L 31.651 140.667 31.700 141.708 C 31.749 142.721,31.765 142.754,32.284 142.907 C 32.678 143.023,32.830 143.175,32.867 143.485 C 32.904 143.797,33.055 143.945,33.449 144.058 C 33.851 144.172,33.994 144.317,34.033 144.647 C 34.079 145.046,34.172 145.096,35.125 145.238 C 36.109 145.383,36.167 145.417,36.167 145.845 C 36.167 146.299,36.420 146.500,36.993 146.500 C 37.189 146.500,37.325 146.665,37.387 146.978 C 37.494 147.513,37.833 147.661,38.958 147.664 C 39.634 147.667,39.667 147.690,39.667 148.167 L 39.667 148.667 40.833 148.667 L 42.000 148.667 42.000 149.244 L 42.000 149.822 43.708 149.869 L 45.417 149.917 45.469 150.458 L 45.521 151.000 47.750 151.000 L 49.979 151.000 50.031 151.542 L 50.083 152.083 199.780 152.125 C 335.703 152.163,349.500 152.143,349.738 151.905 C 349.882 151.761,350.000 151.500,350.000 151.326 C 350.000 151.034,350.166 151.006,352.208 150.963 L 354.417 150.917 354.575 150.381 L 354.732 149.845 356.325 149.797 L 357.917 149.750 357.968 149.216 L 358.020 148.681 359.135 148.632 C 360.200 148.586,360.252 148.564,360.301 148.145 C 360.348 147.742,360.430 147.699,361.354 147.594 C 362.272 147.490,362.372 147.439,362.528 146.990 C 362.648 146.648,362.810 146.500,363.066 146.500 C 363.536 146.500,363.833 146.201,363.833 145.727 C 363.833 145.428,363.941 145.344,364.375 145.302 C 364.849 145.257,364.923 145.184,364.968 144.718 C 365.013 144.255,365.088 144.180,365.551 144.135 C 366.017 144.090,366.090 144.016,366.136 143.542 C 366.181 143.065,366.247 143.000,366.677 143.000 C 367.125 143.000,367.167 142.951,367.167 142.417 C 367.167 141.861,367.194 141.833,367.750 141.833 C 368.306 141.833,368.333 141.806,368.333 141.250 C 368.333 140.694,368.361 140.667,368.917 140.667 C 369.472 140.667,369.500 140.639,369.500 140.083 C 369.500 139.586,369.556 139.500,369.883 139.500 C 370.467 139.500,370.667 139.182,370.667 138.251 C 370.667 137.437,370.689 137.396,371.208 137.243 C 371.735 137.088,371.751 137.055,371.799 136.064 C 371.847 135.074,371.864 135.039,372.382 134.891 L 372.917 134.738 372.964 133.119 C 373.010 131.562,373.027 131.500,373.389 131.500 C 374.082 131.500,374.167 131.224,374.167 128.978 L 374.167 126.855 374.618 126.803 C 375.348 126.718,375.336 127.603,375.292 79.201 L 375.250 32.929 374.713 32.775 L 374.176 32.621 374.130 30.436 L 374.083 28.250 373.547 28.198 L 373.011 28.146 372.964 26.448 L 372.917 24.750 372.375 24.698 L 371.833 24.646 371.833 23.591 C 371.833 22.492,371.727 22.333,370.986 22.333 C 370.704 22.333,370.667 22.207,370.667 21.250 L 370.667 20.167 370.083 20.167 C 369.528 20.167,369.500 20.139,369.500 19.583 C 369.500 19.028,369.472 19.000,368.917 19.000 L 368.333 19.000 368.333 18.033 C 368.333 16.994,368.148 16.667,367.561 16.667 C 367.279 16.667,367.176 16.556,367.136 16.208 C 367.095 15.855,366.960 15.714,366.542 15.591 C 366.132 15.470,366.000 15.337,366.000 15.045 C 366.000 14.588,365.463 14.333,364.500 14.333 C 363.894 14.333,363.851 14.301,363.802 13.792 C 363.757 13.320,363.682 13.243,363.227 13.199 C 362.805 13.158,362.687 13.058,362.611 12.681 C 362.515 12.198,362.002 12.007,360.792 12.002 C 360.394 12.000,360.333 11.934,360.333 11.500 C 360.333 11.015,360.310 11.000,359.542 10.998 C 358.348 10.994,358.026 10.863,357.968 10.358 C 357.917 9.918,357.911 9.916,356.298 9.869 L 354.680 9.821 354.571 9.244 L 354.463 8.667 351.659 8.667 L 348.854 8.667 348.802 8.125 L 348.750 7.583 199.958 7.542 L 51.167 7.500 51.167 8.083 M68.870 59.963 C 69.242 60.335,69.251 60.430,69.308 64.597 C 69.393 70.755,69.618 70.360,65.958 70.469 L 63.500 70.541 63.500 86.216 C 63.500 100.567,63.477 101.916,63.224 102.195 C 62.861 102.597,53.184 102.672,52.855 102.276 C 52.721 102.115,52.656 97.606,52.626 86.317 L 52.583 70.583 50.058 70.500 C 46.522 70.383,46.833 70.907,46.833 65.080 C 46.833 60.563,46.847 60.361,47.182 59.936 L 47.530 59.493 58.010 59.538 L 68.491 59.583 68.870 59.963 M90.704 59.963 C 91.080 60.340,91.083 60.379,91.083 64.917 C 91.083 70.816,91.582 70.222,86.537 70.333 C 81.911 70.435,82.333 70.168,82.333 72.994 L 82.333 75.301 82.858 75.484 C 83.165 75.591,84.648 75.667,86.432 75.667 C 90.368 75.667,90.000 75.148,90.000 80.696 C 90.000 86.577,90.274 86.161,86.395 86.164 C 84.228 86.166,83.395 86.227,82.937 86.419 L 82.333 86.671 82.333 88.992 C 82.333 91.835,81.909 91.565,86.537 91.667 C 91.569 91.777,91.067 91.190,91.140 97.046 C 91.196 101.489,91.190 101.593,90.836 102.042 L 90.476 102.500 81.083 102.500 C 70.902 102.500,71.305 102.536,71.078 101.613 C 70.840 100.650,71.082 60.386,71.328 60.090 C 71.783 59.542,72.243 59.517,81.287 59.550 L 90.324 59.583 90.704 59.963 M110.228 59.598 C 111.166 59.958,111.558 61.364,111.919 65.667 C 111.976 66.354,112.121 67.067,112.239 67.252 C 112.580 67.780,112.837 69.250,112.938 71.244 C 113.056 73.580,113.426 74.975,113.963 75.110 C 114.527 75.252,114.555 75.172,114.689 73.036 C 114.821 70.922,115.186 68.795,115.477 68.444 C 115.577 68.324,115.700 67.668,115.751 66.988 C 116.022 63.353,116.746 60.281,117.468 59.708 C 117.667 59.550,119.173 59.500,123.689 59.500 L 129.648 59.500 129.907 59.870 C 130.050 60.074,130.170 60.543,130.174 60.912 C 130.178 61.281,130.289 61.883,130.421 62.250 C 130.554 62.617,130.663 63.389,130.664 63.967 C 130.666 64.568,130.773 65.223,130.916 65.499 C 131.109 65.872,131.203 67.125,131.330 71.032 C 131.493 76.054,131.654 77.823,132.090 79.417 C 132.235 79.947,132.384 82.100,132.499 85.333 C 132.712 91.298,132.763 91.977,133.079 93.083 C 133.338 93.991,133.672 98.238,133.662 100.500 C 133.653 102.660,134.092 102.500,128.159 102.500 C 121.935 102.500,122.333 102.668,122.333 100.046 C 122.333 98.919,122.254 98.160,122.106 97.867 C 121.931 97.519,121.855 95.813,121.772 90.390 C 121.667 83.529,121.600 82.333,121.323 82.333 C 121.170 82.333,121.095 82.885,120.856 85.750 C 120.739 87.155,120.582 87.992,120.327 88.563 C 120.048 89.191,119.932 89.902,119.821 91.679 C 119.719 93.318,119.575 94.260,119.324 94.949 C 119.101 95.560,118.888 96.788,118.747 98.277 C 118.326 102.728,118.630 102.487,113.430 102.494 C 109.084 102.500,108.833 102.448,108.833 101.541 C 108.833 101.317,108.727 100.897,108.596 100.609 C 108.188 99.706,107.980 98.344,107.827 95.583 C 107.664 92.637,107.520 91.663,107.135 90.917 C 106.963 90.584,106.840 89.694,106.768 88.250 C 106.619 85.249,106.481 83.951,106.330 84.112 C 106.081 84.379,105.833 87.080,105.829 89.568 C 105.827 90.952,105.741 92.383,105.637 92.750 C 105.534 93.117,105.390 94.579,105.317 96.000 C 105.094 100.330,104.932 101.932,104.688 102.225 C 104.356 102.624,94.425 102.642,93.658 102.246 C 93.106 101.960,93.008 101.407,93.399 100.786 C 93.662 100.368,94.002 97.378,93.999 95.500 C 93.997 93.471,94.334 89.956,94.583 89.417 C 94.886 88.761,94.954 88.034,95.168 83.167 C 95.283 80.534,95.433 78.806,95.590 78.302 C 95.724 77.872,95.833 77.286,95.833 76.999 C 95.833 76.713,95.920 76.317,96.025 76.120 C 96.140 75.906,96.272 74.243,96.355 71.987 C 96.439 69.695,96.592 67.794,96.744 67.148 C 96.882 66.562,96.996 65.807,96.998 65.468 C 96.999 65.130,97.064 64.814,97.142 64.765 C 97.220 64.717,97.325 63.780,97.376 62.684 C 97.470 60.626,97.735 59.768,98.324 59.609 C 98.732 59.498,109.943 59.489,110.228 59.598 M149.917 59.657 C 151.674 59.761,152.476 59.884,153.167 60.157 C 153.671 60.356,154.525 60.586,155.064 60.667 C 155.733 60.768,156.184 60.944,156.481 61.223 C 156.721 61.448,157.174 61.686,157.490 61.753 C 158.286 61.921,160.588 64.282,161.143 65.500 C 161.290 65.821,161.574 66.289,161.776 66.540 C 161.977 66.791,162.227 67.429,162.330 67.957 C 162.433 68.485,162.719 69.329,162.967 69.833 C 163.416 70.748,163.417 70.756,163.417 74.583 L 163.417 78.417 162.958 79.305 C 162.706 79.794,162.500 80.362,162.500 80.567 C 162.500 81.196,161.995 82.679,161.749 82.773 C 161.621 82.823,161.431 83.121,161.327 83.437 C 161.025 84.350,159.285 86.210,158.377 86.589 C 158.078 86.714,157.833 86.896,157.833 86.994 C 157.833 87.091,157.405 87.360,156.881 87.592 C 156.357 87.824,155.813 88.115,155.672 88.238 C 155.266 88.595,154.436 88.711,151.500 88.817 L 148.750 88.917 148.667 95.433 C 148.600 100.617,148.537 102.006,148.355 102.225 C 147.996 102.657,138.228 102.642,137.899 102.208 C 137.717 101.970,137.676 98.162,137.672 81.197 C 137.667 60.300,137.674 60.001,138.233 59.628 C 138.480 59.463,147.002 59.484,149.917 59.657 M185.235 59.917 C 185.747 60.469,185.835 61.232,185.826 65.065 C 185.813 70.601,186.042 70.333,181.329 70.333 C 176.883 70.333,177.333 70.033,177.333 73.000 C 177.333 75.957,176.937 75.666,180.972 75.667 C 184.005 75.668,184.096 75.678,184.583 76.068 L 185.083 76.468 185.138 80.459 C 185.218 86.304,185.328 86.160,180.729 86.164 C 177.022 86.167,177.311 85.914,177.370 89.106 L 177.417 91.583 181.203 91.667 C 185.467 91.761,185.432 91.750,185.679 93.025 C 186.007 94.726,185.863 101.585,185.488 102.061 L 185.142 102.500 175.917 102.500 L 166.691 102.500 166.341 102.055 L 165.991 101.611 166.037 80.957 L 166.083 60.304 166.551 59.902 L 167.019 59.500 175.934 59.500 L 184.849 59.500 185.235 59.917 M205.000 60.061 C 205.547 60.310,206.412 60.526,207.146 60.596 C 208.147 60.692,208.472 60.798,208.896 61.168 C 209.182 61.417,209.569 61.669,209.756 61.727 C 209.942 61.785,210.430 62.221,210.839 62.695 C 211.248 63.169,211.893 63.865,212.271 64.243 C 212.649 64.621,213.011 65.170,213.076 65.465 C 213.140 65.759,213.342 66.104,213.524 66.232 C 213.712 66.363,213.961 66.867,214.100 67.399 C 214.234 67.913,214.521 68.596,214.738 68.915 C 215.588 70.167,215.535 77.879,214.667 79.206 C 214.412 79.597,214.149 80.179,214.084 80.500 C 214.018 80.821,213.776 81.285,213.545 81.531 C 213.314 81.777,213.039 82.152,212.934 82.364 C 212.830 82.576,212.582 82.822,212.383 82.910 C 212.184 82.998,211.945 83.239,211.851 83.445 C 211.756 83.652,211.395 84.009,211.048 84.238 C 209.549 85.226,209.350 85.544,209.906 86.059 C 210.176 86.309,210.438 86.833,210.596 87.438 C 210.735 87.974,210.988 88.564,211.157 88.748 C 211.327 88.932,211.600 89.533,211.764 90.083 C 211.928 90.633,212.193 91.233,212.353 91.417 C 212.723 91.840,213.000 92.567,213.000 93.114 C 213.000 93.348,213.214 93.783,213.475 94.080 C 213.752 94.396,213.996 94.911,214.061 95.316 C 214.122 95.698,214.396 96.320,214.669 96.697 C 214.943 97.074,215.167 97.565,215.167 97.786 C 215.167 98.257,215.455 98.861,215.769 99.047 C 215.890 99.118,216.148 99.711,216.342 100.363 L 216.695 101.548 217.019 101.066 C 217.717 100.025,218.021 99.067,218.161 97.466 C 218.265 96.276,218.421 95.592,218.751 94.882 C 219.096 94.139,219.232 93.513,219.339 92.167 C 219.475 90.458,219.677 89.591,220.095 88.917 C 220.209 88.733,220.349 88.096,220.406 87.500 C 220.582 85.673,220.864 84.263,221.111 83.980 C 221.247 83.823,221.469 82.762,221.639 81.447 C 221.831 79.971,222.024 79.080,222.197 78.884 C 222.562 78.468,222.629 78.177,222.835 76.103 C 222.943 75.017,223.137 74.047,223.318 73.686 C 223.719 72.884,223.816 72.438,223.991 70.596 C 224.100 69.443,224.250 68.829,224.569 68.229 C 224.866 67.670,225.000 67.161,225.001 66.585 C 225.003 65.353,225.306 63.675,225.664 62.917 C 225.836 62.550,226.058 61.801,226.157 61.253 C 226.475 59.488,226.084 59.583,232.962 59.583 L 238.916 59.583 239.199 60.167 C 239.354 60.487,239.645 61.087,239.844 61.500 C 240.095 62.020,240.298 63.015,240.507 64.750 C 240.672 66.125,240.964 67.681,241.155 68.207 C 241.369 68.795,241.565 69.923,241.664 71.135 C 241.778 72.523,241.933 73.349,242.190 73.928 C 242.443 74.499,242.623 75.436,242.777 76.994 C 242.938 78.607,243.098 79.427,243.348 79.911 C 243.601 80.400,243.755 81.198,243.911 82.841 C 244.063 84.445,244.223 85.291,244.462 85.759 C 244.699 86.223,244.884 87.188,245.085 89.001 C 245.249 90.481,245.464 91.690,245.588 91.833 C 245.868 92.157,246.146 93.650,246.324 95.796 C 246.403 96.738,246.541 97.601,246.633 97.713 C 247.215 98.426,247.588 101.845,247.133 102.300 C 246.704 102.730,236.911 102.569,236.492 102.125 C 235.885 101.482,235.712 100.965,235.586 99.428 C 235.393 97.057,235.524 97.164,232.848 97.179 C 231.069 97.189,230.440 97.254,229.917 97.485 L 229.250 97.779 229.068 99.833 C 228.811 102.731,229.341 102.500,222.940 102.499 C 218.110 102.499,217.713 102.476,217.224 102.178 C 216.704 101.861,216.693 101.861,216.406 102.178 C 216.130 102.483,215.839 102.500,210.795 102.500 L 205.474 102.500 205.003 102.028 C 204.629 101.654,204.487 101.293,204.316 100.278 C 204.198 99.575,204.042 99.000,203.970 99.000 C 203.743 99.000,203.329 97.813,203.174 96.718 C 203.092 96.140,202.919 95.562,202.789 95.432 C 202.456 95.099,202.234 94.424,202.042 93.164 C 201.941 92.502,201.714 91.840,201.461 91.466 C 201.197 91.078,201.005 90.499,200.935 89.885 C 200.789 88.606,200.580 88.279,200.442 89.112 C 200.384 89.463,200.334 92.487,200.330 95.833 C 200.324 100.625,200.276 101.979,200.101 102.208 C 199.899 102.475,199.445 102.500,194.860 102.500 L 189.841 102.500 189.583 102.107 C 189.127 101.411,189.289 60.345,189.750 59.828 L 190.083 59.454 197.083 59.549 L 204.083 59.644 205.000 60.061 M268.988 59.939 C 269.319 60.360,269.333 60.576,269.333 65.080 C 269.333 70.907,269.645 70.383,266.108 70.500 L 263.583 70.583 263.541 86.317 C 263.510 97.606,263.446 102.115,263.312 102.276 C 263.004 102.647,253.386 102.600,252.971 102.224 C 252.680 101.961,252.667 101.246,252.667 86.245 L 252.667 70.541 250.208 70.469 C 247.466 70.388,247.063 70.256,246.900 69.386 C 246.683 68.228,246.902 60.401,247.161 60.090 C 247.614 59.544,248.063 59.521,258.363 59.511 L 268.642 59.500 268.988 59.939 M281.782 59.902 L 282.250 60.304 282.296 74.665 C 282.334 86.428,282.383 89.091,282.569 89.388 C 282.694 89.587,282.848 90.049,282.913 90.414 C 283.128 91.634,283.200 91.686,284.612 91.632 L 285.872 91.583 286.263 90.250 L 286.654 88.917 286.667 75.250 C 286.682 61.116,286.717 60.299,287.336 59.798 C 287.971 59.284,296.230 59.351,297.010 59.877 C 297.828 60.428,297.799 59.821,297.817 76.628 L 297.833 92.173 297.430 93.328 C 297.208 93.964,296.973 94.908,296.908 95.427 C 296.824 96.102,296.661 96.520,296.337 96.894 C 296.087 97.181,295.838 97.604,295.782 97.834 C 295.726 98.064,295.378 98.567,295.007 98.953 C 294.637 99.338,294.333 99.727,294.333 99.816 C 294.333 99.905,294.199 100.020,294.034 100.072 C 293.870 100.125,293.455 100.432,293.112 100.756 C 292.769 101.079,292.260 101.390,291.983 101.445 C 291.705 101.501,291.362 101.723,291.221 101.938 C 291.072 102.165,290.673 102.406,290.274 102.511 C 289.894 102.611,289.290 102.893,288.932 103.138 C 287.757 103.941,281.343 103.898,280.463 103.082 C 280.216 102.854,279.709 102.624,279.310 102.560 C 278.880 102.492,278.430 102.278,278.174 102.020 C 277.941 101.786,277.473 101.441,277.135 101.255 C 276.071 100.669,274.667 99.677,274.667 99.512 C 274.667 99.425,274.367 99.007,274.000 98.583 C 273.633 98.160,273.333 97.708,273.333 97.579 C 273.333 97.450,273.119 97.099,272.856 96.797 C 272.517 96.408,272.326 95.943,272.195 95.189 C 272.093 94.605,271.855 93.866,271.667 93.546 C 271.055 92.509,270.983 90.400,271.035 74.984 C 271.087 59.291,271.046 60.009,271.911 59.659 C 272.097 59.583,274.290 59.516,276.782 59.511 L 281.315 59.500 281.782 59.902 M317.508 60.004 C 317.898 60.203,318.891 60.467,319.715 60.591 C 320.895 60.768,321.306 60.904,321.648 61.231 C 321.888 61.459,322.293 61.725,322.549 61.821 C 322.804 61.918,323.142 62.223,323.299 62.499 C 323.455 62.775,323.711 63.042,323.866 63.092 C 324.022 63.143,324.194 63.323,324.248 63.494 C 324.302 63.664,324.592 63.991,324.891 64.219 C 325.215 64.466,325.529 64.917,325.665 65.329 C 325.791 65.711,326.024 66.115,326.182 66.225 C 326.340 66.336,326.599 66.872,326.757 67.417 C 326.916 67.962,327.182 68.598,327.350 68.829 C 328.259 70.086,328.205 77.938,327.277 79.308 C 327.050 79.643,326.814 80.160,326.752 80.458 C 326.691 80.756,326.384 81.307,326.070 81.683 C 325.757 82.058,325.500 82.430,325.500 82.510 C 325.500 82.591,325.308 82.757,325.073 82.880 C 324.838 83.003,324.556 83.281,324.448 83.497 C 324.339 83.713,324.004 84.027,323.703 84.194 C 322.412 84.914,322.021 85.547,322.561 86.050 C 322.777 86.251,323.079 86.847,323.232 87.374 C 323.384 87.901,323.695 88.606,323.923 88.942 C 324.151 89.278,324.384 89.843,324.441 90.198 C 324.498 90.553,324.752 91.105,325.007 91.425 C 325.298 91.792,325.511 92.309,325.582 92.821 C 325.655 93.355,325.827 93.759,326.084 94.001 C 326.304 94.208,326.562 94.743,326.675 95.226 C 326.785 95.697,327.049 96.317,327.262 96.602 C 327.475 96.888,327.696 97.338,327.755 97.602 C 327.922 98.362,328.194 99.000,328.351 99.000 C 328.540 99.000,328.895 99.863,329.159 100.966 C 329.537 102.546,329.708 102.500,323.487 102.500 L 318.192 102.500 317.708 102.092 C 317.312 101.760,317.184 101.462,317.007 100.473 C 316.888 99.807,316.648 99.069,316.474 98.833 C 316.299 98.598,316.028 97.770,315.871 96.994 C 315.714 96.218,315.502 95.508,315.402 95.417 C 315.130 95.170,314.883 94.394,314.661 93.083 C 314.552 92.442,314.367 91.840,314.250 91.746 C 313.971 91.520,313.500 90.116,313.500 89.508 C 313.500 89.244,313.452 88.902,313.393 88.750 C 313.092 87.964,313.005 89.447,313.003 95.404 C 313.000 101.203,312.971 101.923,312.724 102.195 C 312.322 102.640,302.793 102.666,302.305 102.224 C 302.013 101.960,302.000 101.088,302.000 81.163 L 302.000 60.378 302.366 59.913 L 302.732 59.448 309.766 59.546 C 316.552 59.640,316.825 59.656,317.508 60.004 M351.114 59.602 C 351.922 59.819,352.020 60.465,351.966 65.244 C 351.904 70.824,352.434 70.226,347.453 70.333 C 342.734 70.435,343.167 70.167,343.167 72.983 L 343.167 75.281 343.811 75.474 C 344.196 75.589,345.663 75.667,347.450 75.667 L 350.444 75.667 350.680 76.108 C 351.071 76.838,351.021 84.893,350.621 85.625 L 350.325 86.167 347.416 86.167 C 345.132 86.167,344.363 86.224,343.837 86.435 L 343.167 86.703 343.167 89.008 C 343.167 91.834,342.736 91.565,347.429 91.667 C 350.940 91.743,351.303 91.778,351.596 92.071 C 352.065 92.541,352.188 101.683,351.732 102.187 C 351.319 102.643,332.806 102.678,332.305 102.224 C 332.013 101.960,332.000 101.096,332.000 81.416 C 332.000 59.902,331.998 59.959,332.729 59.664 C 333.122 59.506,350.535 59.447,351.114 59.602 M148.772 70.253 C 148.641 70.595,148.636 77.786,148.767 78.272 C 148.881 78.700,149.167 78.660,150.539 78.026 C 151.249 77.698,151.496 77.495,151.498 77.240 C 151.499 77.051,151.650 76.585,151.833 76.206 C 152.257 75.329,152.298 73.237,151.906 72.479 C 151.762 72.202,151.593 71.669,151.529 71.295 C 151.429 70.707,151.333 70.588,150.823 70.411 C 149.668 70.012,148.888 69.951,148.772 70.253 M200.444 70.444 C 200.306 70.583,200.296 78.376,200.434 78.736 C 200.745 79.546,203.333 78.386,203.333 77.436 C 203.333 77.302,203.525 76.965,203.759 76.686 C 204.532 75.768,204.551 71.916,203.785 71.577 C 203.586 71.489,203.330 71.229,203.217 71.000 C 202.962 70.482,200.833 70.055,200.444 70.444 M313.084 70.521 C 313.034 70.651,313.014 72.592,313.039 74.836 L 313.083 78.917 313.847 78.966 C 314.726 79.023,315.879 78.098,316.082 77.172 C 316.140 76.910,316.290 76.655,316.416 76.606 C 317.337 76.253,317.187 72.379,316.215 71.408 C 315.944 71.136,315.690 70.822,315.652 70.711 C 315.544 70.395,313.199 70.222,313.084 70.521 M232.534 76.954 C 232.423 77.321,232.333 78.046,232.333 78.564 C 232.333 79.144,232.171 79.970,231.911 80.711 C 231.321 82.395,231.028 86.570,231.466 87.054 C 231.747 87.365,232.940 87.371,233.736 87.066 C 234.078 86.934,234.077 86.170,233.735 85.370 C 233.550 84.936,233.398 83.597,233.232 80.917 C 232.961 76.560,232.846 75.909,232.534 76.954 " stroke="none" fill="#fc4404" fill-rule="evenodd"></path><path id="path2" d="M47.387 60.205 C 47.092 60.660,47.122 69.598,47.419 69.895 C 47.644 70.121,48.093 70.167,50.062 70.167 C 51.684 70.167,52.497 70.230,52.633 70.367 C 52.786 70.519,52.833 74.244,52.833 86.117 C 52.833 101.444,52.838 101.671,53.167 102.000 C 53.555 102.388,60.511 102.506,62.158 102.153 L 63.000 101.972 63.000 86.345 C 63.000 67.983,62.591 70.234,65.946 70.133 C 67.588 70.083,68.391 69.993,68.578 69.837 C 68.938 69.539,68.896 60.662,68.533 60.300 C 68.217 59.984,47.590 59.891,47.387 60.205 M72.116 60.115 C 71.516 60.274,71.500 60.831,71.500 81.422 L 71.500 101.822 71.875 102.036 C 72.168 102.203,74.193 102.250,81.083 102.250 C 87.973 102.250,89.999 102.203,90.292 102.036 C 90.744 101.777,90.885 93.525,90.451 92.667 L 90.241 92.250 86.579 92.167 C 83.772 92.103,82.800 92.024,82.417 91.831 L 81.917 91.579 81.878 89.081 C 81.824 85.609,81.751 85.667,86.165 85.667 C 90.020 85.667,89.667 86.165,89.667 80.725 C 89.667 75.488,90.055 76.000,86.082 76.000 C 81.658 76.000,81.839 76.133,81.836 72.895 C 81.833 69.847,81.446 70.104,86.186 70.000 C 89.546 69.926,90.023 69.882,90.286 69.619 C 90.673 69.231,90.747 60.681,90.367 60.300 C 90.152 60.086,72.884 59.910,72.116 60.115 M98.546 60.117 C 98.025 60.218,97.872 60.894,97.577 64.417 C 97.438 66.067,97.253 67.942,97.165 68.583 C 96.897 70.530,96.538 74.143,96.419 76.083 C 96.357 77.092,96.240 78.172,96.159 78.485 C 96.029 78.989,95.673 82.403,95.175 87.917 C 95.085 88.925,94.938 90.275,94.849 90.917 C 94.697 92.019,94.608 92.991,94.145 98.583 C 94.039 99.867,93.895 101.073,93.824 101.264 C 93.483 102.188,94.263 102.333,99.582 102.333 C 103.692 102.333,104.140 102.306,104.380 102.041 C 104.597 101.801,104.678 100.942,104.830 97.249 C 105.195 88.407,105.294 86.744,105.479 86.281 C 105.582 86.023,105.667 85.408,105.667 84.914 C 105.667 83.790,105.955 82.412,106.238 82.176 C 106.516 81.946,106.782 83.268,106.908 85.500 C 107.016 87.412,107.274 89.290,107.584 90.417 C 107.710 90.875,107.936 92.563,108.085 94.167 C 108.235 95.771,108.459 97.533,108.583 98.083 C 108.708 98.633,108.899 99.705,109.009 100.464 C 109.289 102.397,109.146 102.335,113.329 102.327 C 117.895 102.320,117.699 102.472,118.252 98.500 C 118.681 95.425,118.852 94.434,119.087 93.667 C 119.214 93.254,119.439 91.867,119.587 90.583 C 119.735 89.300,120.001 87.650,120.178 86.917 C 120.355 86.183,120.578 84.871,120.673 84.000 C 121.078 80.303,121.269 79.704,121.689 80.808 C 121.901 81.366,122.184 86.717,122.316 92.667 C 122.384 95.768,122.484 97.402,122.625 97.719 C 122.750 98.001,122.833 98.910,122.833 99.992 C 122.833 102.492,122.472 102.335,128.202 102.328 C 131.887 102.324,132.810 102.277,133.066 102.084 C 133.406 101.826,133.377 99.384,133.001 96.583 C 132.915 95.942,132.763 94.817,132.664 94.083 C 132.565 93.350,132.411 91.287,132.323 89.500 C 132.162 86.223,131.970 83.770,131.672 81.167 C 131.583 80.387,131.468 79.375,131.418 78.917 C 131.367 78.458,131.245 76.733,131.148 75.083 C 130.957 71.859,130.779 69.680,130.501 67.167 C 130.405 66.296,130.258 64.683,130.174 63.583 C 130.027 61.667,129.843 60.587,129.595 60.186 C 129.409 59.884,117.768 59.928,117.516 60.231 C 117.410 60.358,117.145 61.277,116.927 62.273 C 116.709 63.269,116.451 64.383,116.353 64.750 C 116.255 65.117,116.173 65.765,116.171 66.192 C 116.166 67.094,115.589 70.604,115.350 71.186 C 115.260 71.404,115.100 72.371,114.994 73.333 C 114.596 76.956,114.546 77.342,114.473 77.416 C 114.328 77.561,113.167 77.149,113.161 76.950 C 113.125 75.755,112.394 69.566,112.263 69.354 C 112.072 69.045,111.500 65.783,111.500 65.001 C 111.500 63.418,110.594 60.302,110.076 60.104 C 109.779 59.990,99.141 60.002,98.546 60.117 M138.177 60.313 C 137.828 60.966,137.940 101.834,138.292 102.101 C 138.807 102.493,147.697 102.426,148.058 102.029 C 148.304 101.756,148.333 101.050,148.333 95.394 C 148.333 90.584,148.383 88.999,148.542 88.794 C 148.715 88.571,149.215 88.515,151.500 88.463 L 154.250 88.401 155.688 87.709 C 158.359 86.422,160.297 84.762,161.088 83.083 C 161.304 82.625,161.591 82.063,161.726 81.833 C 162.743 80.107,163.470 72.323,162.759 70.775 C 162.626 70.486,162.397 69.762,162.251 69.167 C 161.931 67.862,160.949 65.807,160.255 64.987 C 158.293 62.670,157.981 62.371,157.211 62.082 C 156.774 61.918,156.228 61.653,155.998 61.492 C 154.360 60.351,138.711 59.316,138.177 60.313 M166.812 60.276 C 166.621 60.505,166.576 63.984,166.539 81.148 L 166.495 101.745 166.872 102.035 C 167.413 102.451,184.044 102.492,184.842 102.079 L 185.333 101.825 185.333 97.574 C 185.333 94.239,185.281 93.198,185.092 92.745 L 184.850 92.167 181.251 92.167 L 177.652 92.167 177.230 91.746 C 176.812 91.328,176.810 91.307,176.863 88.846 C 176.936 85.460,176.698 85.667,180.539 85.667 L 183.526 85.667 184.024 85.169 L 184.522 84.670 184.469 80.674 C 184.403 75.620,184.794 76.099,180.682 76.032 C 176.603 75.965,176.833 76.144,176.833 73.031 C 176.833 69.756,176.497 70.000,181.006 70.000 L 184.659 70.000 184.954 69.550 C 185.372 68.913,185.492 61.536,185.100 60.598 L 184.850 60.000 175.946 60.000 C 167.866 60.000,167.020 60.026,166.812 60.276 M190.000 60.155 C 189.595 60.424,189.536 101.579,189.940 102.026 C 190.302 102.426,199.190 102.495,199.708 102.101 C 199.977 101.897,200.000 101.383,200.000 95.542 C 200.000 90.120,200.040 89.083,200.274 88.357 C 200.618 87.290,200.733 87.367,201.073 88.893 C 201.223 89.568,201.491 90.406,201.669 90.755 C 201.847 91.103,202.151 92.033,202.345 92.819 C 202.539 93.606,202.792 94.400,202.906 94.583 C 203.021 94.767,203.247 95.479,203.409 96.167 C 203.572 96.854,203.881 97.792,204.097 98.250 C 204.313 98.708,204.540 99.421,204.602 99.833 C 204.958 102.220,205.253 102.334,211.036 102.330 C 216.717 102.325,217.132 102.090,215.597 99.747 C 215.452 99.525,215.173 98.910,214.978 98.380 C 214.783 97.850,214.521 97.299,214.397 97.155 C 214.272 97.011,214.028 96.486,213.856 95.988 C 213.684 95.491,213.389 94.821,213.202 94.500 C 213.015 94.179,212.766 93.579,212.649 93.167 C 212.533 92.754,212.300 92.236,212.132 92.015 C 211.965 91.795,211.706 91.195,211.557 90.682 C 211.408 90.169,211.110 89.489,210.893 89.170 C 210.677 88.850,210.500 88.480,210.500 88.347 C 210.500 88.040,209.837 86.654,209.550 86.363 C 208.919 85.722,209.603 84.343,210.798 83.848 C 211.068 83.736,211.382 83.470,211.496 83.257 C 211.610 83.044,211.864 82.780,212.060 82.670 C 212.484 82.431,213.631 80.708,213.869 79.951 C 213.961 79.657,214.178 79.117,214.350 78.750 C 215.286 76.760,215.233 70.644,214.267 69.120 C 214.138 68.917,213.981 68.432,213.918 68.044 C 213.856 67.656,213.623 67.070,213.401 66.743 C 213.179 66.415,212.852 65.870,212.676 65.532 C 212.499 65.194,211.956 64.489,211.469 63.966 C 210.982 63.442,210.502 62.882,210.402 62.721 C 210.302 62.560,209.894 62.255,209.495 62.044 C 209.096 61.833,208.653 61.558,208.510 61.433 C 207.463 60.518,191.146 59.391,190.000 60.155 M227.169 60.214 C 226.942 60.330,226.703 60.610,226.640 60.837 C 226.342 61.898,225.620 65.011,225.481 65.833 C 225.184 67.593,224.968 68.591,224.654 69.667 C 224.479 70.262,224.225 71.500,224.088 72.417 C 223.951 73.333,223.689 74.476,223.504 74.957 C 223.320 75.437,223.120 76.374,223.060 77.040 C 223.000 77.705,222.738 78.900,222.479 79.694 C 222.219 80.488,221.964 81.576,221.913 82.111 C 221.862 82.646,221.602 83.946,221.335 85.000 C 221.069 86.054,220.725 87.629,220.572 88.500 C 220.418 89.371,220.198 90.271,220.084 90.500 C 219.970 90.729,219.750 91.801,219.595 92.883 C 219.441 93.964,219.133 95.403,218.912 96.080 C 218.691 96.757,218.423 98.010,218.316 98.864 C 218.208 99.718,217.975 100.707,217.797 101.061 C 217.242 102.167,217.922 102.333,223.000 102.333 C 228.488 102.333,228.414 102.367,228.687 99.699 C 228.991 96.723,228.835 96.839,232.524 96.836 L 235.464 96.833 235.721 97.476 C 235.862 97.829,236.025 98.598,236.083 99.184 C 236.397 102.371,236.335 102.334,241.481 102.329 C 245.496 102.325,246.766 102.212,246.997 101.838 C 247.114 101.648,246.805 99.692,246.606 99.371 C 246.454 99.124,246.211 97.788,246.001 96.047 C 245.904 95.242,245.717 94.246,245.585 93.833 C 245.295 92.928,244.833 90.499,244.833 89.882 C 244.833 89.473,244.548 88.097,244.167 86.665 C 244.081 86.344,243.899 85.294,243.762 84.332 C 243.626 83.370,243.351 81.983,243.152 81.250 C 242.953 80.517,242.760 79.654,242.723 79.333 C 242.548 77.831,242.118 75.388,241.983 75.137 C 241.901 74.983,241.683 73.820,241.498 72.553 C 241.313 71.286,241.057 69.912,240.930 69.500 C 240.682 68.698,240.424 67.320,240.243 65.833 C 240.011 63.920,239.082 60.370,238.751 60.128 C 238.441 59.901,227.629 59.982,227.169 60.214 M247.949 60.117 C 247.415 60.255,247.333 60.945,247.333 65.324 C 247.333 70.514,247.047 70.037,250.221 70.133 C 253.576 70.234,253.167 67.983,253.167 86.345 L 253.167 101.972 254.008 102.153 C 255.656 102.506,262.612 102.388,263.000 102.000 C 263.329 101.671,263.333 101.444,263.333 86.117 C 263.333 74.244,263.381 70.519,263.533 70.367 C 263.670 70.230,264.483 70.167,266.105 70.167 C 268.074 70.167,268.522 70.121,268.748 69.895 C 269.043 69.600,269.075 60.661,268.782 60.208 C 268.649 60.004,248.724 59.916,247.949 60.117 M272.116 60.117 C 271.524 60.270,271.500 60.885,271.500 75.984 C 271.500 90.664,271.507 90.972,271.851 92.265 C 272.043 92.990,272.275 93.955,272.364 94.408 C 272.534 95.266,273.038 96.401,273.331 96.582 C 273.424 96.639,273.501 96.813,273.503 96.968 C 273.504 97.123,273.710 97.490,273.961 97.784 C 274.212 98.077,274.629 98.623,274.888 98.995 C 275.148 99.368,275.635 99.814,275.972 99.986 C 276.308 100.157,276.726 100.456,276.901 100.649 C 277.075 100.842,277.312 101.000,277.427 101.000 C 277.541 101.000,277.935 101.251,278.302 101.557 C 278.669 101.864,279.321 102.213,279.751 102.334 C 280.181 102.454,280.803 102.691,281.135 102.859 C 281.975 103.288,287.464 103.317,288.250 102.898 C 288.525 102.751,289.151 102.491,289.641 102.319 C 290.130 102.148,290.789 101.781,291.105 101.504 C 291.420 101.227,291.786 101.000,291.917 101.000 C 292.048 101.000,292.411 100.775,292.725 100.500 C 293.038 100.225,293.373 100.000,293.469 100.000 C 293.566 100.000,293.931 99.644,294.281 99.208 C 294.630 98.773,294.963 98.379,295.020 98.333 C 295.077 98.287,295.339 97.846,295.603 97.353 C 295.867 96.859,296.187 96.266,296.314 96.034 C 297.001 94.777,297.058 93.426,297.122 77.083 C 297.186 60.515,297.177 60.298,296.436 60.099 C 295.218 59.772,287.676 60.004,287.464 60.375 C 287.296 60.669,287.232 63.884,287.167 75.341 C 287.089 88.873,287.062 89.964,286.792 90.377 C 286.631 90.621,286.500 90.924,286.500 91.048 C 286.500 91.622,285.733 92.025,284.629 92.031 C 283.222 92.039,282.971 91.853,282.351 90.347 L 281.831 89.083 281.832 74.912 C 281.833 62.354,281.804 60.699,281.574 60.370 C 281.325 60.015,273.334 59.801,272.116 60.117 M302.561 60.193 C 302.252 60.672,302.297 101.684,302.607 102.026 C 303.033 102.497,311.965 102.499,312.391 102.029 C 312.637 101.757,312.667 101.054,312.670 95.487 C 312.674 87.633,312.968 85.892,313.761 89.032 C 313.954 89.793,314.231 90.647,314.378 90.928 C 314.524 91.210,314.804 92.067,315.000 92.833 C 315.196 93.600,315.469 94.445,315.607 94.712 C 315.745 94.979,315.965 95.711,316.096 96.340 C 316.227 96.968,316.484 97.737,316.668 98.048 C 316.851 98.359,317.080 99.038,317.176 99.556 C 317.431 100.938,317.774 101.635,318.379 102.004 C 319.437 102.650,329.000 102.439,329.000 101.771 C 329.000 101.741,328.920 101.461,328.822 101.150 C 328.655 100.618,328.459 100.183,327.069 97.250 C 326.765 96.608,326.440 95.836,326.348 95.534 C 326.255 95.232,326.040 94.782,325.870 94.534 C 325.700 94.286,325.464 93.746,325.345 93.333 C 325.227 92.921,324.957 92.283,324.746 91.917 C 324.535 91.550,324.268 90.912,324.152 90.500 C 324.037 90.087,323.852 89.638,323.741 89.500 C 323.414 89.093,323.000 88.204,323.000 87.908 C 323.000 87.757,322.731 87.198,322.402 86.665 L 321.804 85.696 322.090 85.092 C 322.274 84.706,322.654 84.329,323.147 84.044 C 323.570 83.800,323.981 83.495,324.059 83.367 C 324.137 83.239,324.388 82.973,324.616 82.775 C 325.117 82.343,326.500 80.319,326.500 80.019 C 326.500 79.902,326.739 79.268,327.032 78.611 C 328.017 76.400,327.904 71.017,326.829 68.907 C 326.648 68.553,326.500 68.065,326.500 67.823 C 326.500 67.581,326.294 67.089,326.042 66.730 C 325.790 66.371,325.450 65.816,325.286 65.497 C 325.123 65.178,324.573 64.467,324.063 63.917 C 323.553 63.367,323.070 62.794,322.989 62.645 C 322.909 62.495,322.541 62.214,322.171 62.020 C 321.802 61.826,321.200 61.509,320.833 61.316 C 319.081 60.394,303.066 59.410,302.561 60.193 M333.046 60.114 C 332.344 60.255,332.335 60.535,332.334 81.619 L 332.333 101.822 332.708 102.036 C 333.219 102.328,349.257 102.442,350.599 102.164 L 351.500 101.976 351.497 97.363 C 351.496 94.755,351.426 92.641,351.337 92.500 C 351.208 92.295,350.518 92.234,347.465 92.161 C 344.793 92.097,343.621 92.008,343.292 91.843 L 342.833 91.613 342.833 89.129 C 342.833 85.587,342.735 85.667,347.096 85.667 C 350.961 85.667,350.738 86.016,350.642 80.123 C 350.568 75.596,350.980 76.038,346.765 75.970 C 342.496 75.903,342.833 76.158,342.833 72.989 C 342.833 69.778,342.537 70.000,346.830 70.000 C 350.044 70.000,351.098 69.875,351.361 69.461 C 351.551 69.161,351.529 60.637,351.337 60.333 C 351.184 60.091,334.174 59.888,333.046 60.114 M67.983 60.922 L 68.500 61.512 68.500 65.488 C 68.500 70.184,68.837 69.689,65.549 69.821 C 63.439 69.906,63.153 69.953,62.929 70.250 C 62.709 70.542,62.677 72.528,62.672 86.129 L 62.667 101.675 62.232 101.840 C 61.974 101.938,60.062 101.988,57.524 101.961 L 53.250 101.917 53.210 86.167 L 53.170 70.417 52.817 70.125 C 52.517 69.878,52.105 69.833,50.098 69.833 C 48.481 69.833,47.670 69.770,47.533 69.633 C 47.276 69.376,47.255 61.872,47.509 60.958 L 47.682 60.333 57.574 60.333 L 67.465 60.333 67.983 60.922 M89.816 60.922 L 90.333 61.512 90.333 64.917 L 90.333 68.322 89.816 68.911 L 89.299 69.500 86.191 69.501 C 81.359 69.502,81.498 69.398,81.505 73.031 C 81.513 76.524,81.156 76.238,85.573 76.301 L 89.132 76.351 89.316 77.083 C 89.552 78.021,89.562 84.240,89.327 84.678 C 89.167 84.978,88.950 85.000,86.202 85.001 C 81.468 85.002,81.500 84.975,81.500 89.006 C 81.500 92.597,81.367 92.498,86.191 92.499 L 89.299 92.500 89.819 93.092 L 90.339 93.685 90.295 97.707 L 90.250 101.729 89.704 101.870 C 89.017 102.048,72.324 101.965,72.042 101.782 C 71.877 101.675,71.833 97.443,71.833 81.540 L 71.833 61.433 72.366 60.883 L 72.899 60.333 81.099 60.333 L 89.299 60.333 89.816 60.922 M110.049 60.875 C 110.209 61.173,110.408 61.792,110.490 62.250 C 110.572 62.708,110.755 63.396,110.897 63.777 C 111.039 64.159,111.240 65.509,111.343 66.777 C 111.475 68.389,111.657 69.457,111.948 70.323 C 112.307 71.393,112.388 72.055,112.537 75.146 C 112.743 79.423,112.856 79.833,113.823 79.833 C 114.682 79.833,115.162 78.303,115.165 75.554 C 115.167 74.045,115.484 72.020,115.824 71.342 C 116.010 70.972,116.162 70.157,116.230 69.167 C 116.387 66.892,116.682 64.969,116.932 64.583 C 117.051 64.400,117.228 63.612,117.326 62.833 C 117.423 62.054,117.564 61.192,117.638 60.917 L 117.774 60.417 123.501 60.373 C 127.233 60.344,129.288 60.388,129.399 60.499 C 129.493 60.593,129.628 61.775,129.701 63.126 C 129.929 67.387,130.077 68.943,130.278 69.184 C 130.494 69.444,130.577 70.506,130.816 76.083 C 130.995 80.257,131.228 83.028,131.427 83.351 C 131.625 83.671,131.814 85.902,132.002 90.167 C 132.215 94.988,132.395 97.108,132.643 97.719 C 132.748 97.977,132.838 98.615,132.843 99.136 C 132.849 99.657,132.911 100.437,132.983 100.869 C 133.064 101.363,133.048 101.719,132.939 101.827 C 132.653 102.114,123.590 102.059,123.349 101.769 C 123.216 101.609,123.127 99.541,123.058 94.978 C 122.971 89.180,122.923 88.306,122.646 87.464 C 122.381 86.657,122.333 85.987,122.333 83.109 C 122.333 80.289,122.291 79.672,122.083 79.500 C 121.946 79.386,121.833 79.236,121.833 79.167 C 121.833 78.656,121.288 77.789,121.137 78.059 C 120.934 78.421,120.574 81.035,120.422 83.241 C 120.360 84.152,120.212 85.090,120.093 85.324 C 119.730 86.044,119.495 87.327,119.346 89.417 C 119.247 90.811,119.075 91.795,118.781 92.667 C 118.472 93.582,118.313 94.542,118.188 96.252 C 118.066 97.908,117.921 98.805,117.689 99.335 C 117.508 99.747,117.307 100.458,117.241 100.917 C 117.175 101.375,117.037 101.805,116.935 101.872 C 116.643 102.065,109.703 102.027,109.582 101.832 C 109.525 101.739,109.410 100.783,109.326 99.707 C 109.239 98.579,108.997 97.114,108.756 96.250 C 108.449 95.150,108.337 94.340,108.335 93.211 C 108.333 91.421,108.092 89.661,107.657 88.250 C 107.487 87.700,107.304 86.462,107.250 85.500 C 107.003 81.128,106.723 79.956,105.941 80.033 C 105.263 80.100,105.204 80.361,105.183 83.349 C 105.172 85.032,105.096 85.931,104.938 86.266 C 104.765 86.633,104.665 88.561,104.524 94.221 C 104.421 98.330,104.294 101.761,104.242 101.846 C 104.129 102.028,94.838 102.054,94.567 101.872 C 94.235 101.650,94.700 93.602,95.079 93.002 C 95.260 92.715,95.423 91.045,95.648 87.167 C 95.854 83.615,96.005 82.160,96.210 81.763 C 96.443 81.313,96.822 77.559,96.826 75.667 C 96.831 73.653,97.131 70.898,97.415 70.250 C 97.683 69.640,97.999 66.240,98.019 63.750 C 98.047 60.207,97.805 60.333,104.570 60.333 L 109.758 60.333 110.049 60.875 M147.833 60.583 C 148.337 60.719,149.237 60.832,149.833 60.835 C 152.312 60.848,154.954 61.265,155.508 61.731 C 155.793 61.971,156.140 62.167,156.279 62.167 C 156.988 62.167,157.888 62.833,159.083 64.244 C 159.450 64.677,159.926 65.222,160.141 65.455 C 160.355 65.689,160.640 66.188,160.772 66.565 C 160.905 66.942,161.191 67.512,161.408 67.833 C 161.636 68.171,161.851 68.803,161.917 69.333 C 161.979 69.837,162.173 70.808,162.348 71.490 C 162.753 73.064,162.790 76.163,162.416 77.058 C 162.279 77.387,162.084 78.428,161.983 79.370 C 161.836 80.749,161.720 81.189,161.393 81.622 C 161.170 81.919,160.881 82.463,160.751 82.832 C 160.620 83.200,160.248 83.776,159.924 84.110 C 159.599 84.444,159.333 84.781,159.333 84.859 C 159.333 84.937,159.253 85.000,159.156 85.000 C 159.058 85.000,158.789 85.225,158.558 85.500 C 158.326 85.775,158.028 86.000,157.894 86.000 C 157.761 86.000,157.478 86.174,157.266 86.386 C 157.053 86.598,156.401 86.944,155.815 87.155 C 155.229 87.366,154.617 87.656,154.454 87.799 C 154.220 88.005,153.589 88.075,151.444 88.134 C 147.679 88.237,148.100 87.362,148.000 95.299 L 147.917 101.917 143.270 101.961 C 139.982 101.992,138.557 101.950,138.395 101.816 C 138.103 101.573,138.052 62.003,138.342 60.958 L 138.516 60.333 142.716 60.335 C 145.890 60.337,147.141 60.397,147.833 60.583 M184.661 60.656 C 184.924 61.147,184.891 68.860,184.625 69.212 C 184.445 69.451,183.933 69.494,180.805 69.535 C 176.180 69.597,176.500 69.339,176.500 72.996 C 176.500 76.521,176.261 76.311,180.340 76.371 L 183.417 76.417 183.708 77.000 C 184.123 77.830,184.148 84.328,183.738 84.738 C 183.520 84.956,182.989 85.000,180.560 85.000 C 176.443 85.000,176.500 84.944,176.500 88.973 C 176.500 92.686,176.150 92.403,180.817 92.467 C 185.325 92.529,184.851 91.926,184.794 97.536 L 184.750 101.917 176.019 101.960 C 169.710 101.991,167.225 101.951,167.061 101.814 C 166.753 101.559,166.719 62.002,167.026 60.978 L 167.219 60.333 175.854 60.333 C 184.220 60.333,184.494 60.343,184.661 60.656 M199.886 60.536 C 200.086 60.647,201.225 60.795,202.417 60.864 C 206.841 61.122,207.569 61.229,208.074 61.698 C 208.328 61.933,208.835 62.224,209.202 62.345 C 209.569 62.466,209.908 62.682,209.957 62.824 C 210.005 62.967,210.260 63.308,210.524 63.583 C 211.738 64.848,212.223 65.467,212.505 66.110 C 212.672 66.491,212.933 66.872,213.085 66.958 C 213.262 67.057,213.445 67.552,213.593 68.328 C 213.721 68.997,213.996 69.891,214.204 70.314 C 214.635 71.188,214.800 77.372,214.400 77.631 C 214.099 77.826,213.836 78.438,213.664 79.348 C 213.563 79.877,213.323 80.407,213.034 80.736 C 212.778 81.029,212.468 81.508,212.347 81.801 C 212.226 82.094,212.027 82.333,211.905 82.333 C 211.783 82.333,211.488 82.589,211.250 82.902 C 211.011 83.215,210.534 83.583,210.190 83.721 C 208.807 84.275,208.514 86.057,209.597 87.333 C 209.714 87.471,209.934 87.958,210.086 88.417 C 210.238 88.875,210.533 89.513,210.743 89.833 C 210.952 90.154,211.220 90.792,211.340 91.250 C 211.459 91.708,211.731 92.295,211.945 92.555 C 212.159 92.814,212.381 93.324,212.439 93.688 C 212.498 94.053,212.759 94.666,213.020 95.050 C 213.281 95.435,213.495 95.884,213.497 96.047 C 213.502 96.494,213.972 97.533,214.316 97.853 C 214.483 98.008,214.666 98.424,214.724 98.776 C 214.782 99.128,214.996 99.679,215.199 100.000 C 215.756 100.878,215.988 101.612,215.777 101.823 C 215.574 102.026,206.357 102.073,206.083 101.872 C 205.575 101.499,205.103 100.492,204.850 99.242 C 204.695 98.478,204.451 97.717,204.308 97.551 C 203.948 97.136,203.667 96.236,203.667 95.503 C 203.667 95.164,203.473 94.523,203.234 94.070 C 202.995 93.619,202.696 92.688,202.568 92.001 C 202.440 91.312,202.179 90.540,201.986 90.278 C 201.787 90.009,201.500 89.148,201.324 88.290 C 200.940 86.411,200.662 86.050,200.223 86.854 C 199.942 87.371,199.912 87.995,199.865 94.529 C 199.825 100.150,199.768 101.680,199.595 101.824 C 199.446 101.948,197.900 101.991,194.730 101.961 L 190.083 101.917 190.034 82.000 C 190.007 71.046,190.032 61.690,190.088 61.208 L 190.191 60.333 194.856 60.333 C 198.203 60.333,199.625 60.391,199.886 60.536 M238.721 60.875 C 238.845 61.173,238.991 61.904,239.047 62.500 C 239.103 63.096,239.335 64.078,239.563 64.683 C 239.853 65.451,240.029 66.383,240.144 67.767 C 240.267 69.230,240.405 69.936,240.672 70.458 C 240.938 70.978,241.074 71.667,241.186 73.063 C 241.276 74.198,241.477 75.354,241.684 75.939 C 241.875 76.477,242.100 77.479,242.185 78.167 C 242.468 80.454,242.681 81.745,242.861 82.250 C 243.107 82.940,243.440 84.603,243.727 86.583 C 243.860 87.500,244.096 88.587,244.251 89.000 C 244.407 89.412,244.628 90.688,244.742 91.833 C 244.884 93.259,245.063 94.162,245.309 94.692 C 245.556 95.227,245.699 95.952,245.768 97.026 C 245.865 98.533,246.229 100.408,246.491 100.750 C 247.346 101.866,246.843 102.000,241.803 101.997 C 236.641 101.994,237.036 102.143,236.847 100.138 C 236.691 98.493,236.225 97.089,235.668 96.585 C 235.408 96.349,234.958 96.319,232.354 96.364 C 228.647 96.429,228.760 96.362,228.501 98.654 C 228.329 100.179,227.863 101.605,227.452 101.867 C 227.156 102.054,219.097 102.029,218.596 101.838 C 218.227 101.698,218.192 101.622,218.329 101.262 C 218.415 101.035,218.565 100.081,218.661 99.143 C 218.757 98.205,218.937 97.283,219.059 97.094 C 219.458 96.481,219.673 95.581,219.826 93.899 C 219.923 92.825,220.117 91.902,220.383 91.250 C 220.621 90.665,220.837 89.706,220.904 88.939 C 220.966 88.218,221.195 87.157,221.412 86.580 C 221.629 86.004,221.923 84.644,222.066 83.558 C 222.213 82.435,222.466 81.296,222.650 80.917 C 222.836 80.536,223.096 79.358,223.257 78.167 C 223.411 77.021,223.630 75.933,223.744 75.750 C 224.016 75.309,224.284 74.073,224.486 72.333 C 224.576 71.554,224.805 70.598,224.996 70.208 C 225.218 69.753,225.398 68.906,225.499 67.839 C 225.602 66.763,225.800 65.838,226.060 65.214 C 226.289 64.667,226.511 63.709,226.575 63.000 C 226.817 60.288,226.625 60.364,233.289 60.347 L 238.496 60.333 238.721 60.875 M268.658 60.958 C 268.912 61.872,268.890 69.376,268.633 69.633 C 268.497 69.770,267.686 69.833,266.068 69.833 C 264.062 69.833,263.650 69.878,263.350 70.125 L 262.996 70.417 262.957 86.167 L 262.917 101.917 258.643 101.961 C 256.104 101.988,254.193 101.938,253.935 101.840 L 253.500 101.675 253.495 86.129 C 253.490 72.528,253.458 70.542,253.238 70.250 C 253.013 69.953,252.727 69.906,250.618 69.821 C 247.330 69.689,247.667 70.184,247.667 65.488 L 247.667 61.512 248.184 60.922 L 248.701 60.333 258.593 60.333 L 268.484 60.333 268.658 60.958 M281.274 60.625 C 281.352 60.785,281.454 67.479,281.500 75.500 L 281.583 90.083 282.094 91.000 C 283.152 92.901,285.778 93.014,286.907 91.208 L 287.500 90.260 287.500 75.875 C 287.500 63.690,287.537 61.401,287.741 60.911 L 287.983 60.333 292.043 60.333 L 296.103 60.333 296.392 60.989 C 296.661 61.600,296.676 62.712,296.608 77.364 C 296.530 94.176,296.477 95.400,295.798 96.130 C 295.566 96.379,295.330 96.780,295.273 97.021 C 295.217 97.262,294.870 97.823,294.502 98.268 C 294.134 98.713,293.833 99.172,293.833 99.289 C 293.833 99.405,293.733 99.500,293.610 99.500 C 293.488 99.500,292.982 99.790,292.485 100.144 C 291.989 100.498,291.421 100.838,291.223 100.900 C 291.025 100.962,290.746 101.191,290.604 101.409 C 290.459 101.630,290.103 101.853,289.797 101.914 C 289.496 101.974,288.675 102.210,287.973 102.437 C 286.269 102.989,282.708 102.952,281.083 102.364 C 280.533 102.166,279.879 101.964,279.628 101.916 C 279.378 101.868,278.944 101.605,278.664 101.331 C 278.384 101.057,278.057 100.833,277.937 100.833 C 277.817 100.833,277.575 100.675,277.401 100.482 C 277.226 100.289,276.814 99.994,276.484 99.825 C 275.697 99.424,274.287 97.747,273.687 96.500 C 273.488 96.087,273.224 95.575,273.099 95.361 C 272.974 95.147,272.748 94.247,272.596 93.361 C 272.445 92.475,272.211 91.402,272.077 90.978 C 271.871 90.324,271.833 87.985,271.833 75.819 L 271.833 61.433 272.366 60.883 L 272.899 60.333 277.015 60.333 C 280.769 60.333,281.144 60.359,281.274 60.625 M312.465 60.532 C 312.585 60.652,313.572 60.782,314.957 60.860 C 319.335 61.108,320.833 61.362,320.833 61.857 C 320.833 61.917,321.218 62.105,321.687 62.274 C 322.157 62.443,322.581 62.694,322.629 62.832 C 322.677 62.970,322.924 63.308,323.179 63.583 C 324.587 65.105,324.880 65.480,325.167 66.127 C 325.341 66.518,325.591 66.879,325.722 66.929 C 325.869 66.985,326.077 67.584,326.259 68.469 C 326.422 69.265,326.712 70.142,326.903 70.417 C 327.452 71.207,327.434 77.227,326.882 77.820 C 326.672 78.045,326.465 78.546,326.402 78.983 C 326.275 79.860,326.129 80.183,325.490 81.000 C 325.239 81.321,324.984 81.752,324.922 81.958 C 324.861 82.165,324.706 82.333,324.577 82.333 C 324.449 82.333,324.172 82.565,323.963 82.848 C 323.754 83.131,323.277 83.502,322.902 83.673 C 321.502 84.311,321.129 86.403,322.250 87.333 C 322.374 87.436,322.605 87.947,322.764 88.469 C 322.923 88.990,323.196 89.577,323.370 89.772 C 323.545 89.968,323.802 90.564,323.942 91.098 C 324.081 91.632,324.365 92.271,324.574 92.519 C 324.782 92.767,325.000 93.264,325.057 93.625 C 325.115 93.985,325.346 94.550,325.570 94.881 C 325.794 95.211,326.106 95.939,326.263 96.498 C 326.420 97.057,326.677 97.605,326.834 97.716 C 326.991 97.826,327.249 98.367,327.408 98.917 C 327.567 99.467,327.795 100.029,327.915 100.167 C 328.334 100.646,328.650 101.617,328.451 101.816 C 328.173 102.094,318.906 102.071,318.671 101.792 C 317.946 100.928,317.725 100.450,317.471 99.199 C 317.316 98.429,317.080 97.676,316.949 97.525 C 316.648 97.181,316.384 96.331,316.241 95.250 C 316.180 94.792,315.943 94.089,315.713 93.689 C 315.473 93.269,315.242 92.521,315.167 91.923 C 315.083 91.240,314.886 90.654,314.593 90.211 C 314.302 89.771,314.092 89.150,313.989 88.425 C 313.776 86.918,313.385 86.143,313.061 86.586 C 312.566 87.262,312.502 88.215,312.501 94.855 C 312.500 100.388,312.458 101.661,312.271 101.816 C 312.110 101.950,310.685 101.992,307.396 101.961 L 302.750 101.917 302.704 81.500 C 302.679 70.271,302.699 60.915,302.749 60.708 L 302.840 60.333 307.553 60.333 C 310.977 60.333,312.321 60.388,312.465 60.532 M350.617 60.866 L 351.167 61.399 351.167 64.925 L 351.167 68.451 350.720 68.934 L 350.273 69.417 346.705 69.500 L 343.138 69.583 342.735 70.051 C 342.236 70.632,342.119 74.768,342.577 75.655 C 342.922 76.321,342.995 76.333,346.664 76.333 L 349.967 76.333 350.150 76.858 C 350.343 77.412,350.414 84.261,350.232 84.736 C 350.145 84.962,349.699 85.003,347.107 85.020 C 342.334 85.051,342.443 84.966,342.363 88.697 C 342.279 92.575,342.030 92.360,346.762 92.488 L 350.273 92.583 350.720 93.066 L 351.167 93.549 351.167 97.612 L 351.167 101.675 350.739 101.837 C 350.482 101.935,346.997 102.000,342.000 102.000 C 337.003 102.000,333.518 101.935,333.261 101.837 L 332.833 101.675 332.833 81.495 L 332.833 61.315 333.370 60.824 L 333.908 60.333 341.988 60.333 L 350.067 60.333 350.617 60.866 M148.392 69.265 C 148.111 69.694,148.083 70.139,148.083 74.299 L 148.083 78.863 148.497 79.198 C 149.032 79.631,150.027 79.521,150.644 78.960 C 150.885 78.741,151.293 78.431,151.549 78.272 C 151.805 78.113,152.086 77.818,152.173 77.616 C 152.259 77.415,152.487 77.055,152.679 76.816 C 153.375 75.951,153.326 72.693,152.600 71.624 C 152.390 71.315,152.171 70.872,152.112 70.640 C 151.815 69.454,148.959 68.398,148.392 69.265 M150.048 69.649 C 150.388 69.822,150.837 70.007,151.046 70.059 C 152.146 70.335,153.166 74.635,152.503 76.197 C 152.141 77.049,151.536 77.927,151.188 78.102 C 150.986 78.204,150.645 78.452,150.430 78.654 C 150.126 78.940,149.879 79.010,149.314 78.969 L 148.589 78.917 148.449 78.083 C 148.372 77.625,148.333 75.593,148.363 73.567 C 148.428 69.095,148.524 68.872,150.048 69.649 M200.190 69.758 C 199.714 70.364,199.629 78.801,200.093 79.463 C 200.594 80.179,202.826 79.791,203.379 78.891 C 203.450 78.776,203.788 78.322,204.129 77.882 L 204.750 77.083 204.750 74.250 L 204.750 71.417 204.083 70.734 C 202.953 69.576,200.764 69.028,200.190 69.758 M312.862 69.719 C 312.342 70.273,312.291 79.092,312.805 79.558 C 313.931 80.577,315.926 79.471,317.208 77.118 C 317.534 76.520,317.644 72.080,317.346 71.524 C 316.851 70.598,316.062 70.018,314.836 69.679 C 313.291 69.250,313.303 69.250,312.862 69.719 M202.202 70.086 C 203.091 70.198,204.325 71.286,204.522 72.132 C 205.309 75.508,203.489 79.500,201.164 79.500 C 200.051 79.500,200.000 79.288,200.000 74.719 C 200.000 70.189,200.083 69.777,200.973 69.917 C 201.217 69.956,201.770 70.032,202.202 70.086 M314.863 70.085 C 315.512 70.167,315.772 70.316,316.405 70.967 L 317.166 71.750 317.167 73.977 C 317.167 77.328,315.825 79.500,313.754 79.500 C 312.715 79.500,312.667 79.286,312.667 74.707 C 312.667 70.190,312.750 69.777,313.640 69.917 C 313.884 69.956,314.434 70.031,314.863 70.085 M232.498 72.337 C 232.399 72.523,232.245 73.313,232.156 74.094 C 232.067 74.875,231.849 75.942,231.670 76.465 C 231.253 77.685,231.045 79.045,230.845 81.838 C 230.743 83.263,230.580 84.327,230.399 84.750 C 230.003 85.675,229.982 87.718,230.364 88.101 C 230.814 88.552,233.817 88.652,234.192 88.228 C 234.826 87.510,234.772 82.249,234.112 80.436 C 233.887 79.818,233.711 78.214,233.407 74.018 C 233.278 72.227,232.915 71.557,232.498 72.337 M233.172 75.867 C 233.262 76.902,233.418 78.500,233.518 79.417 C 233.618 80.333,233.764 81.721,233.843 82.500 C 233.923 83.279,234.063 84.217,234.156 84.583 C 234.750 86.925,234.328 87.835,232.648 87.830 C 230.538 87.823,230.401 87.558,230.902 84.438 C 231.037 83.601,231.191 82.467,231.245 81.917 C 231.369 80.652,231.782 78.217,232.091 76.917 C 232.306 76.018,232.654 74.011,232.670 73.583 C 232.700 72.812,233.040 74.364,233.172 75.867 " stroke="none" fill="#fca484" fill-rule="evenodd"></path><path id="path3" d="M47.182 59.936 C 46.847 60.361,46.833 60.563,46.833 65.080 C 46.833 70.907,46.522 70.383,50.058 70.500 L 52.583 70.583 52.626 86.317 C 52.656 97.606,52.721 102.115,52.855 102.276 C 53.184 102.672,62.861 102.597,63.224 102.195 C 63.477 101.916,63.500 100.567,63.500 86.216 L 63.500 70.541 65.958 70.469 C 69.618 70.360,69.393 70.755,69.308 64.597 C 69.251 60.430,69.242 60.335,68.870 59.963 L 68.491 59.583 58.010 59.538 L 47.530 59.493 47.182 59.936 M71.911 59.656 C 71.037 60.016,71.087 58.810,71.036 80.817 C 71.009 92.055,71.028 101.414,71.078 101.613 C 71.305 102.536,70.902 102.500,81.083 102.500 L 90.476 102.500 90.836 102.042 C 91.190 101.593,91.196 101.489,91.140 97.046 C 91.067 91.190,91.569 91.777,86.537 91.667 C 81.909 91.565,82.333 91.835,82.333 88.992 L 82.333 86.671 82.937 86.419 C 83.395 86.227,84.228 86.166,86.395 86.164 C 90.274 86.161,90.000 86.577,90.000 80.696 C 90.000 75.148,90.368 75.667,86.432 75.667 C 84.648 75.667,83.165 75.591,82.858 75.484 L 82.333 75.301 82.333 72.994 C 82.333 70.168,81.911 70.435,86.537 70.333 C 91.582 70.222,91.083 70.816,91.083 64.917 C 91.083 60.379,91.080 60.340,90.704 59.963 L 90.324 59.583 81.287 59.550 C 76.317 59.532,72.097 59.580,71.911 59.656 M98.324 59.609 C 97.735 59.768,97.470 60.626,97.376 62.684 C 97.325 63.780,97.220 64.717,97.142 64.765 C 97.064 64.814,96.999 65.130,96.998 65.468 C 96.996 65.807,96.882 66.562,96.744 67.148 C 96.592 67.794,96.439 69.695,96.355 71.987 C 96.272 74.243,96.140 75.906,96.025 76.120 C 95.920 76.317,95.833 76.713,95.833 76.999 C 95.833 77.286,95.724 77.872,95.590 78.302 C 95.433 78.806,95.283 80.534,95.168 83.167 C 94.954 88.034,94.886 88.761,94.583 89.417 C 94.334 89.956,93.997 93.471,93.999 95.500 C 94.002 97.378,93.662 100.368,93.399 100.786 C 93.008 101.407,93.106 101.960,93.658 102.246 C 94.425 102.642,104.356 102.624,104.688 102.225 C 104.932 101.932,105.094 100.330,105.317 96.000 C 105.390 94.579,105.534 93.117,105.637 92.750 C 105.741 92.383,105.827 90.952,105.829 89.568 C 105.833 87.080,106.081 84.379,106.330 84.112 C 106.481 83.951,106.619 85.249,106.768 88.250 C 106.840 89.694,106.963 90.584,107.135 90.917 C 107.520 91.663,107.664 92.637,107.827 95.583 C 107.980 98.344,108.188 99.706,108.596 100.609 C 108.727 100.897,108.833 101.317,108.833 101.541 C 108.833 102.448,109.084 102.500,113.430 102.494 C 118.630 102.487,118.326 102.728,118.747 98.277 C 118.888 96.788,119.101 95.560,119.324 94.949 C 119.575 94.260,119.719 93.318,119.821 91.679 C 119.932 89.902,120.048 89.191,120.327 88.563 C 120.582 87.992,120.739 87.155,120.856 85.750 C 121.095 82.885,121.170 82.333,121.323 82.333 C 121.600 82.333,121.667 83.529,121.772 90.390 C 121.855 95.813,121.931 97.519,122.106 97.867 C 122.254 98.160,122.333 98.919,122.333 100.046 C 122.333 102.668,121.935 102.500,128.159 102.500 C 134.092 102.500,133.653 102.660,133.662 100.500 C 133.672 98.238,133.338 93.991,133.079 93.083 C 132.763 91.977,132.712 91.298,132.499 85.333 C 132.384 82.100,132.235 79.947,132.090 79.417 C 131.654 77.823,131.493 76.054,131.330 71.032 C 131.203 67.125,131.109 65.872,130.916 65.499 C 130.773 65.223,130.666 64.568,130.664 63.967 C 130.663 63.389,130.554 62.617,130.421 62.250 C 130.289 61.883,130.178 61.281,130.174 60.912 C 130.170 60.543,130.050 60.074,129.907 59.870 L 129.648 59.500 123.689 59.500 C 119.173 59.500,117.667 59.550,117.468 59.708 C 116.746 60.281,116.022 63.353,115.751 66.988 C 115.700 67.668,115.577 68.324,115.477 68.444 C 115.186 68.795,114.821 70.922,114.689 73.036 C 114.555 75.172,114.527 75.252,113.963 75.110 C 113.426 74.975,113.056 73.580,112.938 71.244 C 112.837 69.250,112.580 67.780,112.239 67.252 C 112.121 67.067,111.976 66.354,111.919 65.667 C 111.558 61.364,111.166 59.958,110.228 59.598 C 109.943 59.489,98.732 59.498,98.324 59.609 M138.233 59.628 C 137.674 60.001,137.667 60.300,137.672 81.197 C 137.676 98.162,137.717 101.970,137.899 102.208 C 138.228 102.642,147.996 102.657,148.355 102.225 C 148.537 102.006,148.600 100.617,148.667 95.433 L 148.750 88.917 151.500 88.817 C 154.436 88.711,155.266 88.595,155.672 88.238 C 155.813 88.115,156.357 87.824,156.881 87.592 C 157.405 87.360,157.833 87.091,157.833 86.994 C 157.833 86.896,158.078 86.714,158.377 86.589 C 159.285 86.210,161.025 84.350,161.327 83.437 C 161.431 83.121,161.621 82.823,161.749 82.773 C 161.995 82.679,162.500 81.196,162.500 80.567 C 162.500 80.362,162.706 79.794,162.958 79.305 L 163.417 78.417 163.417 74.583 C 163.417 70.756,163.416 70.748,162.967 69.833 C 162.719 69.329,162.433 68.485,162.330 67.957 C 162.227 67.429,161.977 66.791,161.776 66.540 C 161.574 66.289,161.290 65.821,161.143 65.500 C 160.588 64.282,158.286 61.921,157.490 61.753 C 157.174 61.686,156.721 61.448,156.481 61.223 C 156.184 60.944,155.733 60.768,155.064 60.667 C 154.525 60.586,153.671 60.356,153.167 60.157 C 151.810 59.621,138.927 59.164,138.233 59.628 M166.551 59.902 L 166.083 60.304 166.037 80.957 L 165.991 101.611 166.341 102.055 L 166.691 102.500 175.917 102.500 L 185.142 102.500 185.488 102.061 C 185.863 101.585,186.007 94.726,185.679 93.025 C 185.432 91.750,185.467 91.761,181.203 91.667 L 177.417 91.583 177.370 89.106 C 177.311 85.914,177.022 86.167,180.729 86.164 C 185.328 86.160,185.218 86.304,185.138 80.459 L 185.083 76.468 184.583 76.068 C 184.096 75.678,184.005 75.668,180.972 75.667 C 176.937 75.666,177.333 75.957,177.333 73.000 C 177.333 70.033,176.883 70.333,181.329 70.333 C 186.042 70.333,185.813 70.601,185.826 65.065 C 185.835 61.232,185.747 60.469,185.235 59.917 L 184.849 59.500 175.934 59.500 L 167.019 59.500 166.551 59.902 M189.750 59.828 C 189.289 60.345,189.127 101.411,189.583 102.107 L 189.841 102.500 194.860 102.500 C 199.445 102.500,199.899 102.475,200.101 102.208 C 200.276 101.979,200.324 100.625,200.330 95.833 C 200.334 92.487,200.384 89.463,200.442 89.112 C 200.580 88.279,200.789 88.606,200.935 89.885 C 201.005 90.499,201.197 91.078,201.461 91.466 C 201.714 91.840,201.941 92.502,202.042 93.164 C 202.234 94.424,202.456 95.099,202.789 95.432 C 202.919 95.562,203.092 96.140,203.174 96.718 C 203.329 97.813,203.743 99.000,203.970 99.000 C 204.042 99.000,204.198 99.575,204.316 100.278 C 204.487 101.293,204.629 101.654,205.003 102.028 L 205.474 102.500 210.795 102.500 C 215.839 102.500,216.130 102.483,216.406 102.178 C 216.693 101.861,216.704 101.861,217.224 102.178 C 217.713 102.476,218.110 102.499,222.940 102.499 C 229.341 102.500,228.811 102.731,229.068 99.833 L 229.250 97.779 229.917 97.485 C 230.440 97.254,231.069 97.189,232.848 97.179 C 235.524 97.164,235.393 97.057,235.586 99.428 C 235.712 100.965,235.885 101.482,236.492 102.125 C 236.911 102.569,246.704 102.730,247.133 102.300 C 247.588 101.845,247.215 98.426,246.633 97.713 C 246.541 97.601,246.403 96.738,246.324 95.796 C 246.146 93.650,245.868 92.157,245.588 91.833 C 245.464 91.690,245.249 90.481,245.085 89.001 C 244.884 87.188,244.699 86.223,244.462 85.759 C 244.223 85.291,244.063 84.445,243.911 82.841 C 243.755 81.198,243.601 80.400,243.348 79.911 C 243.098 79.427,242.938 78.607,242.777 76.994 C 242.623 75.436,242.443 74.499,242.190 73.928 C 241.933 73.349,241.778 72.523,241.664 71.135 C 241.565 69.923,241.369 68.795,241.155 68.207 C 240.964 67.681,240.672 66.125,240.507 64.750 C 240.298 63.015,240.095 62.020,239.844 61.500 C 239.645 61.087,239.354 60.487,239.199 60.167 L 238.916 59.583 232.962 59.583 C 226.084 59.583,226.475 59.488,226.157 61.253 C 226.058 61.801,225.836 62.550,225.664 62.917 C 225.306 63.675,225.003 65.353,225.001 66.585 C 225.000 67.161,224.866 67.670,224.569 68.229 C 224.250 68.829,224.100 69.443,223.991 70.596 C 223.816 72.438,223.719 72.884,223.318 73.686 C 223.137 74.047,222.943 75.017,222.835 76.103 C 222.629 78.177,222.562 78.468,222.197 78.884 C 222.024 79.080,221.831 79.971,221.639 81.447 C 221.469 82.762,221.247 83.823,221.111 83.980 C 220.864 84.263,220.582 85.673,220.406 87.500 C 220.349 88.096,220.209 88.733,220.095 88.917 C 219.677 89.591,219.475 90.458,219.339 92.167 C 219.232 93.513,219.096 94.139,218.751 94.882 C 218.421 95.592,218.265 96.276,218.161 97.466 C 218.021 99.067,217.717 100.025,217.019 101.066 L 216.695 101.548 216.342 100.363 C 216.148 99.711,215.890 99.118,215.769 99.047 C 215.455 98.861,215.167 98.257,215.167 97.786 C 215.167 97.565,214.943 97.074,214.669 96.697 C 214.396 96.320,214.122 95.698,214.061 95.316 C 213.996 94.911,213.752 94.396,213.475 94.080 C 213.214 93.783,213.000 93.348,213.000 93.114 C 213.000 92.567,212.723 91.840,212.353 91.417 C 212.193 91.233,211.928 90.633,211.764 90.083 C 211.600 89.533,211.327 88.932,211.157 88.748 C 210.988 88.564,210.735 87.974,210.596 87.438 C 210.438 86.833,210.176 86.309,209.906 86.059 C 209.350 85.544,209.549 85.226,211.048 84.238 C 211.395 84.009,211.756 83.652,211.851 83.445 C 211.945 83.239,212.184 82.998,212.383 82.910 C 212.582 82.822,212.830 82.576,212.934 82.364 C 213.039 82.152,213.314 81.777,213.545 81.531 C 213.776 81.285,214.018 80.821,214.084 80.500 C 214.149 80.179,214.412 79.597,214.667 79.206 C 215.535 77.879,215.588 70.167,214.738 68.915 C 214.521 68.596,214.234 67.913,214.100 67.399 C 213.961 66.867,213.712 66.363,213.524 66.232 C 213.342 66.104,213.140 65.759,213.076 65.465 C 213.011 65.170,212.649 64.621,212.271 64.243 C 211.893 63.865,211.248 63.169,210.839 62.695 C 210.430 62.221,209.942 61.785,209.756 61.727 C 209.569 61.669,209.182 61.417,208.896 61.168 C 208.472 60.798,208.147 60.692,207.146 60.596 C 206.412 60.526,205.547 60.310,205.000 60.061 L 204.083 59.644 197.083 59.549 L 190.083 59.454 189.750 59.828 M247.744 59.659 C 246.947 59.982,246.920 60.134,246.858 64.618 C 246.774 70.752,246.549 70.361,250.208 70.469 L 252.667 70.541 252.667 86.245 C 252.667 101.246,252.680 101.961,252.971 102.224 C 253.386 102.600,263.004 102.647,263.312 102.276 C 263.446 102.115,263.510 97.606,263.541 86.317 L 263.583 70.583 266.108 70.500 C 269.645 70.383,269.333 70.907,269.333 65.080 C 269.333 60.576,269.319 60.360,268.988 59.939 L 268.642 59.500 258.363 59.511 C 252.709 59.516,247.931 59.583,247.744 59.659 M271.911 59.659 C 271.046 60.009,271.087 59.291,271.035 74.984 C 270.983 90.400,271.055 92.509,271.667 93.546 C 271.855 93.866,272.093 94.605,272.195 95.189 C 272.326 95.943,272.517 96.408,272.856 96.797 C 273.119 97.099,273.333 97.450,273.333 97.579 C 273.333 97.708,273.633 98.160,274.000 98.583 C 274.367 99.007,274.667 99.425,274.667 99.512 C 274.667 99.677,276.071 100.669,277.135 101.255 C 277.473 101.441,277.941 101.786,278.174 102.020 C 278.430 102.278,278.880 102.492,279.310 102.560 C 279.709 102.624,280.216 102.854,280.463 103.082 C 281.343 103.898,287.757 103.941,288.932 103.138 C 289.290 102.893,289.894 102.611,290.274 102.511 C 290.673 102.406,291.072 102.165,291.221 101.938 C 291.362 101.723,291.705 101.501,291.983 101.445 C 292.260 101.390,292.769 101.079,293.112 100.756 C 293.455 100.432,293.870 100.125,294.034 100.072 C 294.199 100.020,294.333 99.905,294.333 99.816 C 294.333 99.727,294.637 99.338,295.007 98.953 C 295.378 98.567,295.726 98.064,295.782 97.834 C 295.838 97.604,296.087 97.181,296.337 96.894 C 296.661 96.520,296.824 96.102,296.908 95.427 C 296.973 94.908,297.208 93.964,297.430 93.328 L 297.833 92.173 297.817 76.628 C 297.799 59.821,297.828 60.428,297.010 59.877 C 296.230 59.351,287.971 59.284,287.336 59.798 C 286.717 60.299,286.682 61.116,286.667 75.250 L 286.654 88.917 286.263 90.250 L 285.872 91.583 284.612 91.632 C 283.200 91.686,283.128 91.634,282.913 90.414 C 282.848 90.049,282.694 89.587,282.569 89.388 C 282.383 89.091,282.334 86.428,282.296 74.665 L 282.250 60.304 281.782 59.902 L 281.315 59.500 276.782 59.511 C 274.290 59.516,272.097 59.583,271.911 59.659 M302.366 59.913 L 302.000 60.378 302.000 81.163 C 302.000 101.088,302.013 101.960,302.305 102.224 C 302.793 102.666,312.322 102.640,312.724 102.195 C 312.971 101.923,313.000 101.203,313.003 95.404 C 313.005 89.447,313.092 87.964,313.393 88.750 C 313.452 88.902,313.500 89.244,313.500 89.508 C 313.500 90.116,313.971 91.520,314.250 91.746 C 314.367 91.840,314.552 92.442,314.661 93.083 C 314.883 94.394,315.130 95.170,315.402 95.417 C 315.502 95.508,315.714 96.218,315.871 96.994 C 316.028 97.770,316.299 98.598,316.474 98.833 C 316.648 99.069,316.888 99.807,317.007 100.473 C 317.184 101.462,317.312 101.760,317.708 102.092 L 318.192 102.500 323.487 102.500 C 329.708 102.500,329.537 102.546,329.159 100.966 C 328.895 99.863,328.540 99.000,328.351 99.000 C 328.194 99.000,327.922 98.362,327.755 97.602 C 327.696 97.338,327.475 96.888,327.262 96.602 C 327.049 96.317,326.785 95.697,326.675 95.226 C 326.562 94.743,326.304 94.208,326.084 94.001 C 325.827 93.759,325.655 93.355,325.582 92.821 C 325.511 92.309,325.298 91.792,325.007 91.425 C 324.752 91.105,324.498 90.553,324.441 90.198 C 324.384 89.843,324.151 89.278,323.923 88.942 C 323.695 88.606,323.384 87.901,323.232 87.374 C 323.079 86.847,322.777 86.251,322.561 86.050 C 322.021 85.547,322.412 84.914,323.703 84.194 C 324.004 84.027,324.339 83.713,324.448 83.497 C 324.556 83.281,324.838 83.003,325.073 82.880 C 325.308 82.757,325.500 82.591,325.500 82.510 C 325.500 82.430,325.757 82.058,326.070 81.683 C 326.384 81.307,326.691 80.756,326.752 80.458 C 326.814 80.160,327.050 79.643,327.277 79.308 C 328.205 77.938,328.259 70.086,327.350 68.829 C 327.182 68.598,326.916 67.962,326.757 67.417 C 326.599 66.872,326.340 66.336,326.182 66.225 C 326.024 66.115,325.791 65.711,325.665 65.329 C 325.529 64.917,325.215 64.466,324.891 64.219 C 324.592 63.991,324.302 63.664,324.248 63.494 C 324.194 63.323,324.022 63.143,323.866 63.092 C 323.711 63.042,323.455 62.775,323.299 62.499 C 323.142 62.223,322.804 61.918,322.549 61.821 C 322.293 61.725,321.888 61.459,321.648 61.231 C 321.306 60.904,320.895 60.768,319.715 60.591 C 318.891 60.467,317.898 60.203,317.508 60.004 C 316.825 59.656,316.552 59.640,309.766 59.546 L 302.732 59.448 302.366 59.913 M332.729 59.664 C 331.998 59.959,332.000 59.902,332.000 81.416 C 332.000 101.096,332.013 101.960,332.305 102.224 C 332.806 102.678,351.319 102.643,351.732 102.187 C 352.188 101.683,352.065 92.541,351.596 92.071 C 351.303 91.778,350.940 91.743,347.429 91.667 C 342.736 91.565,343.167 91.834,343.167 89.008 L 343.167 86.703 343.837 86.435 C 344.363 86.224,345.132 86.167,347.416 86.167 L 350.325 86.167 350.621 85.625 C 351.021 84.893,351.071 76.838,350.680 76.108 L 350.444 75.667 347.450 75.667 C 345.663 75.667,344.196 75.589,343.811 75.474 L 343.167 75.281 343.167 72.983 C 343.167 70.167,342.734 70.435,347.453 70.333 C 352.434 70.226,351.904 70.824,351.966 65.244 C 352.020 60.465,351.922 59.819,351.114 59.602 C 350.535 59.447,333.122 59.506,332.729 59.664 M68.533 60.300 C 68.896 60.662,68.938 69.539,68.578 69.837 C 68.391 69.993,67.588 70.083,65.946 70.133 C 62.591 70.234,63.000 67.983,63.000 86.345 L 63.000 101.972 62.158 102.153 C 60.511 102.506,53.555 102.388,53.167 102.000 C 52.838 101.671,52.833 101.444,52.833 86.117 C 52.833 74.244,52.786 70.519,52.633 70.367 C 52.497 70.230,51.684 70.167,50.062 70.167 C 48.093 70.167,47.644 70.121,47.419 69.895 C 47.122 69.598,47.092 60.660,47.387 60.205 C 47.590 59.891,68.217 59.984,68.533 60.300 M90.367 60.300 C 90.747 60.681,90.673 69.231,90.286 69.619 C 90.023 69.882,89.546 69.926,86.186 70.000 C 81.446 70.104,81.833 69.847,81.836 72.895 C 81.839 76.133,81.658 76.000,86.082 76.000 C 90.055 76.000,89.667 75.488,89.667 80.725 C 89.667 86.165,90.020 85.667,86.165 85.667 C 81.751 85.667,81.824 85.609,81.878 89.081 L 81.917 91.579 82.417 91.831 C 82.800 92.024,83.772 92.103,86.579 92.167 L 90.241 92.250 90.451 92.667 C 90.885 93.525,90.744 101.777,90.292 102.036 C 89.999 102.203,87.973 102.250,81.083 102.250 C 74.193 102.250,72.168 102.203,71.875 102.036 L 71.500 101.822 71.500 81.422 C 71.500 60.831,71.516 60.274,72.116 60.115 C 72.884 59.910,90.152 60.086,90.367 60.300 M110.076 60.104 C 110.594 60.302,111.500 63.418,111.500 65.001 C 111.500 65.783,112.072 69.045,112.263 69.354 C 112.394 69.566,113.125 75.755,113.161 76.950 C 113.167 77.149,114.328 77.561,114.473 77.416 C 114.546 77.342,114.596 76.956,114.994 73.333 C 115.100 72.371,115.260 71.404,115.350 71.186 C 115.589 70.604,116.166 67.094,116.171 66.192 C 116.173 65.765,116.255 65.117,116.353 64.750 C 116.451 64.383,116.709 63.269,116.927 62.273 C 117.145 61.277,117.410 60.358,117.516 60.231 C 117.768 59.928,129.409 59.884,129.595 60.186 C 129.843 60.587,130.027 61.667,130.174 63.583 C 130.258 64.683,130.405 66.296,130.501 67.167 C 130.779 69.680,130.957 71.859,131.148 75.083 C 131.245 76.733,131.367 78.458,131.418 78.917 C 131.468 79.375,131.583 80.387,131.672 81.167 C 131.970 83.770,132.162 86.223,132.323 89.500 C 132.411 91.287,132.565 93.350,132.664 94.083 C 132.763 94.817,132.915 95.942,133.001 96.583 C 133.377 99.384,133.406 101.826,133.066 102.084 C 132.810 102.277,131.887 102.324,128.202 102.328 C 122.472 102.335,122.833 102.492,122.833 99.992 C 122.833 98.910,122.750 98.001,122.625 97.719 C 122.484 97.402,122.384 95.768,122.316 92.667 C 122.033 79.882,121.457 76.841,120.673 84.000 C 120.578 84.871,120.355 86.183,120.178 86.917 C 120.001 87.650,119.735 89.300,119.587 90.583 C 119.439 91.867,119.214 93.254,119.087 93.667 C 118.852 94.434,118.681 95.425,118.252 98.500 C 117.699 102.472,117.895 102.320,113.329 102.327 C 109.146 102.335,109.289 102.397,109.009 100.464 C 108.899 99.705,108.708 98.633,108.583 98.083 C 108.459 97.533,108.235 95.771,108.085 94.167 C 107.936 92.563,107.710 90.875,107.584 90.417 C 107.274 89.290,107.016 87.412,106.908 85.500 C 106.782 83.268,106.516 81.946,106.238 82.176 C 105.955 82.412,105.667 83.790,105.667 84.914 C 105.667 85.408,105.582 86.023,105.479 86.281 C 105.294 86.744,105.195 88.407,104.830 97.249 C 104.678 100.942,104.597 101.801,104.380 102.041 C 104.140 102.306,103.692 102.333,99.582 102.333 C 94.263 102.333,93.483 102.188,93.824 101.264 C 93.895 101.073,94.039 99.867,94.145 98.583 C 94.608 92.991,94.697 92.019,94.849 90.917 C 94.938 90.275,95.085 88.925,95.175 87.917 C 95.673 82.403,96.029 78.989,96.159 78.485 C 96.240 78.172,96.357 77.092,96.419 76.083 C 96.538 74.143,96.897 70.530,97.165 68.583 C 97.253 67.942,97.438 66.067,97.577 64.417 C 97.872 60.894,98.025 60.218,98.546 60.117 C 99.141 60.002,109.779 59.990,110.076 60.104 M150.250 60.305 C 153.513 60.613,155.251 60.972,155.998 61.492 C 156.228 61.653,156.774 61.918,157.211 62.082 C 157.981 62.371,158.293 62.670,160.255 64.987 C 160.949 65.807,161.931 67.862,162.251 69.167 C 162.397 69.762,162.626 70.486,162.759 70.775 C 163.470 72.323,162.743 80.107,161.726 81.833 C 161.591 82.063,161.304 82.625,161.088 83.083 C 160.297 84.762,158.359 86.422,155.688 87.709 L 154.250 88.401 151.500 88.463 C 149.215 88.515,148.715 88.571,148.542 88.794 C 148.383 88.999,148.333 90.584,148.333 95.394 C 148.333 101.050,148.304 101.756,148.058 102.029 C 147.697 102.426,138.807 102.493,138.292 102.101 C 137.940 101.834,137.828 60.966,138.177 60.313 C 138.377 59.940,146.315 59.934,150.250 60.305 M185.100 60.598 C 185.492 61.536,185.372 68.913,184.954 69.550 L 184.659 70.000 181.006 70.000 C 176.497 70.000,176.833 69.756,176.833 73.031 C 176.833 76.144,176.603 75.965,180.682 76.032 C 184.794 76.099,184.403 75.620,184.469 80.674 L 184.522 84.670 184.024 85.169 L 183.526 85.667 180.539 85.667 C 176.698 85.667,176.936 85.460,176.863 88.846 C 176.810 91.307,176.812 91.328,177.230 91.746 L 177.652 92.167 181.251 92.167 L 184.850 92.167 185.092 92.745 C 185.281 93.198,185.333 94.239,185.333 97.574 L 185.333 101.825 184.842 102.079 C 184.044 102.492,167.413 102.451,166.872 102.035 L 166.495 101.745 166.539 81.148 C 166.576 63.984,166.621 60.505,166.812 60.276 C 167.020 60.026,167.866 60.000,175.946 60.000 L 184.850 60.000 185.100 60.598 M202.833 60.317 C 205.991 60.623,208.045 61.027,208.510 61.433 C 208.653 61.558,209.096 61.833,209.495 62.044 C 209.894 62.255,210.302 62.560,210.402 62.721 C 210.502 62.882,210.982 63.442,211.469 63.966 C 211.956 64.489,212.499 65.194,212.676 65.532 C 212.852 65.870,213.179 66.415,213.401 66.743 C 213.623 67.070,213.856 67.656,213.918 68.044 C 213.981 68.432,214.138 68.917,214.267 69.120 C 215.233 70.644,215.286 76.760,214.350 78.750 C 214.178 79.117,213.961 79.657,213.869 79.951 C 213.631 80.708,212.484 82.431,212.060 82.670 C 211.864 82.780,211.610 83.044,211.496 83.257 C 211.382 83.470,211.068 83.736,210.798 83.848 C 209.603 84.343,208.919 85.722,209.550 86.363 C 209.837 86.654,210.500 88.040,210.500 88.347 C 210.500 88.480,210.677 88.850,210.893 89.170 C 211.110 89.489,211.408 90.169,211.557 90.682 C 211.706 91.195,211.965 91.795,212.132 92.015 C 212.300 92.236,212.533 92.754,212.649 93.167 C 212.766 93.579,213.015 94.179,213.202 94.500 C 213.389 94.821,213.684 95.491,213.856 95.988 C 214.028 96.486,214.272 97.011,214.397 97.155 C 214.521 97.299,214.783 97.850,214.978 98.380 C 215.173 98.910,215.452 99.525,215.597 99.747 C 217.132 102.090,216.717 102.325,211.036 102.330 C 205.253 102.334,204.958 102.220,204.602 99.833 C 204.540 99.421,204.313 98.708,204.097 98.250 C 203.881 97.792,203.572 96.854,203.409 96.167 C 203.247 95.479,203.021 94.767,202.906 94.583 C 202.792 94.400,202.539 93.606,202.345 92.819 C 202.151 92.033,201.847 91.103,201.669 90.755 C 201.491 90.406,201.223 89.568,201.073 88.893 C 200.733 87.367,200.618 87.290,200.274 88.357 C 200.040 89.083,200.000 90.120,200.000 95.542 C 200.000 101.383,199.977 101.897,199.708 102.101 C 199.190 102.495,190.302 102.426,189.940 102.026 C 189.536 101.579,189.595 60.424,190.000 60.155 C 190.298 59.956,200.431 60.084,202.833 60.317 M238.751 60.128 C 239.082 60.370,240.011 63.920,240.243 65.833 C 240.424 67.320,240.682 68.698,240.930 69.500 C 241.057 69.912,241.313 71.286,241.498 72.553 C 241.683 73.820,241.901 74.983,241.983 75.137 C 242.118 75.388,242.548 77.831,242.723 79.333 C 242.760 79.654,242.953 80.517,243.152 81.250 C 243.351 81.983,243.626 83.370,243.762 84.332 C 243.899 85.294,244.081 86.344,244.167 86.665 C 244.548 88.097,244.833 89.473,244.833 89.882 C 244.833 90.499,245.295 92.928,245.585 93.833 C 245.717 94.246,245.904 95.242,246.001 96.047 C 246.211 97.788,246.454 99.124,246.606 99.371 C 246.805 99.692,247.114 101.648,246.997 101.838 C 246.766 102.212,245.496 102.325,241.481 102.329 C 236.335 102.334,236.397 102.371,236.083 99.184 C 236.025 98.598,235.862 97.829,235.721 97.476 L 235.464 96.833 232.524 96.836 C 228.835 96.839,228.991 96.723,228.687 99.699 C 228.414 102.367,228.488 102.333,223.000 102.333 C 217.922 102.333,217.242 102.167,217.797 101.061 C 217.975 100.707,218.208 99.718,218.316 98.864 C 218.423 98.010,218.691 96.757,218.912 96.080 C 219.133 95.403,219.441 93.964,219.595 92.883 C 219.750 91.801,219.970 90.729,220.084 90.500 C 220.198 90.271,220.418 89.371,220.572 88.500 C 220.725 87.629,221.069 86.054,221.335 85.000 C 221.602 83.946,221.862 82.646,221.913 82.111 C 221.964 81.576,222.219 80.488,222.479 79.694 C 222.738 78.900,223.000 77.705,223.060 77.040 C 223.120 76.374,223.320 75.437,223.504 74.957 C 223.689 74.476,223.951 73.333,224.088 72.417 C 224.225 71.500,224.479 70.262,224.654 69.667 C 224.968 68.591,225.184 67.593,225.481 65.833 C 225.620 65.011,226.342 61.898,226.640 60.837 C 226.861 60.047,227.186 60.005,233.083 60.005 C 236.108 60.005,238.659 60.060,238.751 60.128 M268.782 60.208 C 269.075 60.661,269.043 69.600,268.748 69.895 C 268.522 70.121,268.074 70.167,266.105 70.167 C 264.483 70.167,263.670 70.230,263.533 70.367 C 263.381 70.519,263.333 74.244,263.333 86.117 C 263.333 101.444,263.329 101.671,263.000 102.000 C 262.612 102.388,255.656 102.506,254.008 102.153 L 253.167 101.972 253.167 86.345 C 253.167 67.983,253.576 70.234,250.221 70.133 C 247.047 70.037,247.333 70.514,247.333 65.324 C 247.333 60.945,247.415 60.255,247.949 60.117 C 248.724 59.916,268.649 60.004,268.782 60.208 M281.574 60.370 C 281.804 60.699,281.833 62.354,281.832 74.912 L 281.831 89.083 282.351 90.347 C 282.971 91.853,283.222 92.039,284.629 92.031 C 285.733 92.025,286.500 91.622,286.500 91.048 C 286.500 90.924,286.631 90.621,286.792 90.377 C 287.062 89.964,287.089 88.873,287.167 75.341 C 287.232 63.884,287.296 60.669,287.464 60.375 C 287.676 60.004,295.218 59.772,296.436 60.099 C 297.177 60.298,297.186 60.515,297.122 77.083 C 297.058 93.426,297.001 94.777,296.314 96.034 C 296.187 96.266,295.867 96.859,295.603 97.353 C 295.339 97.846,295.077 98.287,295.020 98.333 C 294.963 98.379,294.630 98.773,294.281 99.208 C 293.931 99.644,293.566 100.000,293.469 100.000 C 293.373 100.000,293.038 100.225,292.725 100.500 C 292.411 100.775,292.048 101.000,291.917 101.000 C 291.786 101.000,291.420 101.227,291.105 101.504 C 290.789 101.781,290.130 102.148,289.641 102.319 C 289.151 102.491,288.525 102.751,288.250 102.898 C 287.464 103.317,281.975 103.288,281.135 102.859 C 280.803 102.691,280.181 102.454,279.751 102.334 C 279.321 102.213,278.669 101.864,278.302 101.557 C 277.935 101.251,277.541 101.000,277.427 101.000 C 277.312 101.000,277.075 100.842,276.901 100.649 C 276.726 100.456,276.308 100.157,275.972 99.986 C 275.635 99.814,275.148 99.368,274.888 98.995 C 274.629 98.623,274.212 98.077,273.961 97.784 C 273.710 97.490,273.504 97.123,273.503 96.968 C 273.501 96.813,273.424 96.639,273.331 96.582 C 273.038 96.401,272.534 95.266,272.364 94.408 C 272.275 93.955,272.043 92.990,271.851 92.265 C 271.465 90.814,271.286 61.584,271.657 60.608 C 271.873 60.040,271.861 60.041,276.866 60.019 C 281.284 60.000,281.316 60.003,281.574 60.370 M315.500 60.316 C 318.138 60.572,320.129 60.946,320.833 61.316 C 321.200 61.509,321.802 61.826,322.171 62.020 C 322.541 62.214,322.909 62.495,322.989 62.645 C 323.070 62.794,323.553 63.367,324.063 63.917 C 324.573 64.467,325.123 65.178,325.286 65.497 C 325.450 65.816,325.790 66.371,326.042 66.730 C 326.294 67.089,326.500 67.581,326.500 67.823 C 326.500 68.065,326.648 68.553,326.829 68.907 C 327.904 71.017,328.017 76.400,327.032 78.611 C 326.739 79.268,326.500 79.902,326.500 80.019 C 326.500 80.319,325.117 82.343,324.616 82.775 C 324.388 82.973,324.137 83.239,324.059 83.367 C 323.981 83.495,323.570 83.800,323.147 84.044 C 322.654 84.329,322.274 84.706,322.090 85.092 L 321.804 85.696 322.402 86.665 C 322.731 87.198,323.000 87.757,323.000 87.908 C 323.000 88.204,323.414 89.093,323.741 89.500 C 323.852 89.638,324.037 90.087,324.152 90.500 C 324.268 90.912,324.535 91.550,324.746 91.917 C 324.957 92.283,325.227 92.921,325.345 93.333 C 325.464 93.746,325.700 94.286,325.870 94.534 C 326.040 94.782,326.255 95.232,326.348 95.534 C 326.440 95.836,326.765 96.608,327.069 97.250 C 328.459 100.183,328.655 100.618,328.822 101.150 C 328.920 101.461,329.000 101.741,329.000 101.771 C 329.000 102.439,319.437 102.650,318.379 102.004 C 317.774 101.635,317.431 100.938,317.176 99.556 C 317.080 99.038,316.851 98.359,316.668 98.048 C 316.484 97.737,316.227 96.968,316.096 96.340 C 315.965 95.711,315.745 94.979,315.607 94.712 C 315.469 94.445,315.196 93.600,315.000 92.833 C 314.804 92.067,314.524 91.210,314.378 90.928 C 314.231 90.647,313.954 89.793,313.761 89.032 C 312.968 85.892,312.674 87.633,312.670 95.487 C 312.667 101.054,312.637 101.757,312.391 102.029 C 311.965 102.499,303.033 102.497,302.607 102.026 C 302.297 101.684,302.252 60.672,302.561 60.193 C 302.725 59.939,312.574 60.032,315.500 60.316 M351.337 60.333 C 351.529 60.637,351.551 69.161,351.361 69.461 C 351.098 69.875,350.044 70.000,346.830 70.000 C 342.537 70.000,342.833 69.778,342.833 72.989 C 342.833 76.158,342.496 75.903,346.765 75.970 C 350.980 76.038,350.568 75.596,350.642 80.123 C 350.738 86.016,350.961 85.667,347.096 85.667 C 342.735 85.667,342.833 85.587,342.833 89.129 L 342.833 91.613 343.292 91.843 C 343.621 92.008,344.793 92.097,347.465 92.161 C 350.518 92.234,351.208 92.295,351.337 92.500 C 351.426 92.641,351.496 94.755,351.497 97.363 L 351.500 101.976 350.599 102.164 C 349.257 102.442,333.219 102.328,332.708 102.036 L 332.333 101.822 332.334 81.619 C 332.335 60.535,332.344 60.255,333.046 60.114 C 334.174 59.888,351.184 60.091,351.337 60.333 M148.645 69.609 C 148.374 69.936,148.217 76.703,148.449 78.083 L 148.589 78.917 149.314 78.969 C 149.879 79.010,150.126 78.940,150.430 78.654 C 150.645 78.452,150.986 78.204,151.188 78.102 C 151.536 77.927,152.141 77.049,152.503 76.197 C 153.166 74.635,152.146 70.335,151.046 70.059 C 150.837 70.007,150.388 69.822,150.048 69.649 C 149.288 69.261,148.942 69.251,148.645 69.609 M200.265 70.251 C 199.833 70.910,199.873 78.636,200.311 79.141 C 201.829 80.891,204.694 77.517,204.647 74.036 C 204.613 71.562,203.826 70.291,202.202 70.086 C 201.770 70.032,201.217 69.956,200.973 69.917 C 200.641 69.865,200.462 69.949,200.265 70.251 M312.931 70.251 C 312.541 70.847,312.537 78.573,312.926 79.130 C 313.408 79.818,315.025 79.441,315.850 78.448 C 316.922 77.158,317.167 76.326,317.167 73.977 L 317.166 71.750 316.405 70.967 C 315.772 70.316,315.512 70.167,314.863 70.085 C 314.434 70.031,313.884 69.956,313.640 69.917 C 313.308 69.865,313.129 69.949,312.931 70.251 M150.823 70.411 C 151.333 70.588,151.429 70.707,151.529 71.295 C 151.593 71.669,151.762 72.202,151.906 72.479 C 152.298 73.237,152.257 75.329,151.833 76.206 C 151.650 76.585,151.499 77.051,151.498 77.240 C 151.496 77.576,150.171 78.338,149.223 78.548 C 148.704 78.663,148.672 78.412,148.669 74.222 C 148.666 69.523,148.599 69.641,150.823 70.411 M202.381 70.468 C 202.822 70.548,203.074 70.709,203.217 71.000 C 203.330 71.229,203.586 71.489,203.785 71.577 C 204.551 71.916,204.532 75.768,203.759 76.686 C 203.525 76.965,203.333 77.302,203.333 77.436 C 203.333 78.386,200.745 79.546,200.434 78.736 C 200.296 78.376,200.306 70.583,200.444 70.444 C 200.584 70.305,201.553 70.317,202.381 70.468 M315.652 70.711 C 315.690 70.822,315.944 71.136,316.215 71.408 C 317.187 72.379,317.337 76.253,316.416 76.606 C 316.290 76.655,316.140 76.910,316.082 77.172 C 315.879 78.098,314.726 79.023,313.847 78.966 L 313.083 78.917 313.039 74.836 C 313.014 72.592,313.034 70.651,313.084 70.521 C 313.199 70.222,315.544 70.395,315.652 70.711 M232.670 73.583 C 232.654 74.011,232.306 76.018,232.091 76.917 C 231.782 78.217,231.369 80.652,231.245 81.917 C 231.191 82.467,231.037 83.601,230.902 84.438 C 230.401 87.558,230.538 87.823,232.648 87.830 C 234.328 87.835,234.750 86.925,234.156 84.583 C 234.063 84.217,233.923 83.279,233.843 82.500 C 233.764 81.721,233.618 80.333,233.518 79.417 C 233.418 78.500,233.262 76.902,233.172 75.867 C 233.040 74.364,232.700 72.812,232.670 73.583 M233.232 80.917 C 233.398 83.597,233.550 84.936,233.735 85.370 C 234.077 86.170,234.078 86.934,233.736 87.066 C 232.940 87.371,231.747 87.365,231.466 87.054 C 231.028 86.570,231.321 82.395,231.911 80.711 C 232.171 79.970,232.333 79.144,232.333 78.564 C 232.333 78.046,232.423 77.321,232.534 76.954 C 232.846 75.909,232.961 76.560,233.232 80.917 " stroke="none" fill="#fc9474" fill-rule="evenodd"></path></g></svg>