<svg id="svg" version="1.1" xmlns="http://www.w3.org/2000/svg" xmlns:xlink="http://www.w3.org/1999/xlink" width="400" height="1743.3962264150944" viewBox="0, 0, 400,1743.3962264150944"><g id="svgg"><path id="path0" d="M316.981 103.145 L 316.981 115.723 265.409 115.723 L 213.836 115.723 213.836 124.528 L 213.836 133.333 272.956 133.333 L 332.075 133.333 332.075 111.950 L 332.075 90.566 324.528 90.566 C 317.149 90.566,316.981 90.846,316.981 103.145 M276.730 179.995 C 248.365 186.061,222.610 191.650,219.497 192.415 C 215.319 193.442,213.836 195.637,213.836 200.797 L 213.836 207.787 268.553 219.770 C 298.648 226.361,325.252 232.327,327.673 233.028 C 331.271 234.069,332.075 232.689,332.075 225.475 C 332.075 217.099,331.529 216.540,321.384 214.534 C 310.729 212.427,310.692 212.380,310.692 201.258 C 310.692 190.135,310.729 190.089,321.384 187.982 C 331.035 186.073,339.430 167.747,330.189 168.760 C 329.151 168.874,305.094 173.930,276.730 179.995 M294.340 201.258 C 294.340 209.596,293.417 209.855,276.730 206.207 C 251.868 200.773,251.742 200.626,269.182 197.374 C 294.314 192.688,294.340 192.692,294.340 201.258 M302.025 271.870 L 275.749 281.871 270.188 274.898 C 264.979 268.365,263.407 267.925,245.304 267.925 C 219.282 267.925,213.836 273.391,213.836 299.511 L 213.836 316.981 272.956 316.981 L 332.075 316.981 332.075 308.176 L 332.075 299.371 306.289 299.166 C 277.516 298.937,277.229 299.449,313.836 285.670 C 331.574 278.994,332.075 278.569,332.075 270.220 C 332.075 259.797,334.028 259.690,302.025 271.870 M261.132 287.296 C 269.404 295.568,264.809 299.371,246.541 299.371 C 231.260 299.371,228.931 298.772,228.931 294.843 C 228.931 287.466,234.246 284.277,246.541 284.277 C 252.906 284.277,259.472 285.635,261.132 287.296 M213.836 367.024 L 213.836 374.300 261.547 375.202 C 312.894 376.172,319.542 377.907,315.899 389.385 C 313.593 396.648,308.157 397.412,258.491 397.450 L 213.836 397.484 213.836 406.289 L 213.836 415.094 261.716 415.094 C 324.473 415.094,332.075 412.109,332.075 387.462 C 332.075 361.014,329.022 359.748,265.203 359.748 L 213.836 359.748 213.836 367.024 M213.836 474.214 L 213.836 500.629 221.384 500.629 C 228.332 500.629,228.931 499.930,228.931 491.824 L 228.931 483.019 280.503 483.019 L 332.075 483.019 332.075 474.214 L 332.075 465.409 280.503 465.409 L 228.931 465.409 228.931 456.604 C 228.931 448.498,228.332 447.799,221.384 447.799 L 213.836 447.799 213.836 474.214 M276.730 537.228 C 248.365 543.293,222.610 548.882,219.497 549.648 C 215.319 550.675,213.836 552.870,213.836 558.029 L 213.836 565.019 268.553 577.003 C 298.648 583.594,325.252 589.560,327.673 590.260 C 331.271 591.301,332.075 589.922,332.075 582.708 C 332.075 574.332,331.529 573.773,321.384 571.767 C 310.729 569.660,310.692 569.613,310.692 558.491 C 310.692 547.368,310.729 547.322,321.384 545.215 C 331.035 543.306,339.430 524.980,330.189 525.993 C 329.151 526.107,305.094 531.162,276.730 537.228 M294.340 558.491 C 294.340 566.829,293.417 567.088,276.730 563.440 C 251.868 558.006,251.742 557.858,269.182 554.607 C 294.314 549.921,294.340 549.925,294.340 558.491 M213.836 632.704 L 213.836 641.509 245.912 641.637 L 277.987 641.765 246.541 652.572 C 215.770 663.147,215.077 663.549,214.306 671.312 L 213.518 679.245 272.797 679.245 L 332.075 679.245 332.075 671.698 L 332.075 664.151 297.484 664.063 L 262.893 663.975 297.484 652.277 L 332.075 640.579 332.075 632.239 L 332.075 623.899 272.956 623.899 L 213.836 623.899 213.836 632.704 M245.283 781.377 C 221.345 787.325,213.836 796.821,213.836 821.143 L 213.836 837.736 273.320 837.736 L 332.803 837.736 331.266 821.273 C 328.224 788.701,319.551 782.240,277.137 780.945 C 262.385 780.495,248.050 780.689,245.283 781.377 M307.837 805.214 C 323.980 817.913,318.617 820.126,271.698 820.126 C 224.860 820.126,221.995 819.027,234.401 805.823 C 242.336 797.376,297.293 796.920,307.837 805.214 M213.836 889.308 L 213.836 898.113 247.170 898.163 L 280.503 898.212 260.377 905.305 C 249.308 909.207,234.308 914.370,227.044 916.779 C 214.540 920.926,213.836 921.617,213.836 929.762 L 213.836 938.365 272.956 938.365 L 332.075 938.365 332.075 929.560 L 332.075 920.755 298.742 920.556 L 265.409 920.357 298.742 909.026 L 332.075 897.694 332.075 889.099 L 332.075 880.503 272.956 880.503 L 213.836 880.503 213.836 889.308 M276.730 982.511 C 248.365 988.576,222.610 994.165,219.497 994.931 C 215.319 995.958,213.836 998.153,213.836 1003.312 L 213.836 1010.302 268.553 1022.286 C 298.648 1028.877,325.252 1034.843,327.673 1035.543 C 331.271 1036.584,332.075 1035.205,332.075 1027.991 C 332.075 1019.615,331.529 1019.056,321.384 1017.050 C 310.729 1014.943,310.692 1014.896,310.692 1003.774 C 310.692 992.651,310.729 992.605,321.384 990.498 C 331.035 988.589,339.430 970.263,330.189 971.276 C 329.151 971.390,305.094 976.445,276.730 982.511 M294.340 1003.774 C 294.340 1012.112,293.417 1012.371,276.730 1008.723 C 251.868 1003.289,251.742 1003.141,269.182 999.890 C 294.314 995.204,294.340 995.208,294.340 1003.774 M213.836 1138.693 L 213.836 1147.826 247.228 1146.694 L 280.619 1145.561 247.228 1156.945 L 213.836 1168.328 213.836 1176.617 L 213.836 1184.906 272.956 1184.906 L 332.075 1184.906 332.075 1175.784 L 332.075 1166.662 296.036 1167.746 L 259.996 1168.830 295.407 1157.241 C 330.597 1145.724,330.823 1145.602,331.606 1137.606 L 332.394 1129.560 273.115 1129.560 L 213.836 1129.560 213.836 1138.693 M267.296 1232.210 L 213.836 1243.654 213.836 1250.588 C 213.836 1258.836,209.051 1257.166,274.050 1271.602 C 335.968 1285.353,332.075 1285.178,332.075 1274.214 C 332.075 1266.770,331.200 1265.403,326.415 1265.374 C 312.383 1265.289,309.434 1262.893,309.434 1251.572 C 309.434 1240.252,312.383 1237.855,326.415 1237.770 C 331.200 1237.741,332.075 1236.375,332.075 1228.931 C 332.075 1217.860,335.023 1217.711,267.296 1232.210 M293.890 1254.688 C 293.126 1258.876,291.837 1258.904,270.440 1255.203 L 247.799 1251.286 270.440 1247.601 C 294.268 1243.724,295.803 1244.188,293.890 1254.688 M265.409 1318.375 C 240.503 1320.865,218.711 1322.985,216.981 1323.086 C 215.232 1323.189,213.836 1326.501,213.836 1330.548 C 213.836 1339.362,212.602 1338.861,252.127 1346.083 C 269.728 1349.299,283.687 1352.372,283.146 1352.912 C 282.606 1353.453,269.337 1356.622,253.661 1359.956 C 237.984 1363.290,222.610 1366.610,219.497 1367.333 C 215.250 1368.321,213.836 1370.449,213.836 1375.859 C 213.836 1384.186,213.231 1384.060,275.472 1388.636 C 294.843 1390.060,315.503 1391.854,321.384 1392.622 L 332.075 1394.019 332.075 1385.343 L 332.075 1376.666 296.226 1374.729 L 260.377 1372.791 277.987 1369.492 C 325.767 1360.540,332.075 1358.531,332.075 1352.271 C 332.075 1346.738,330.230 1346.051,300.437 1340.493 C 264.643 1333.816,266.311 1331.616,307.547 1331.115 L 332.075 1330.818 332.075 1322.013 C 332.075 1311.401,334.077 1311.511,265.409 1318.375 M213.836 1440.069 L 213.836 1449.057 262.805 1449.057 C 309.198 1449.057,311.914 1449.321,314.465 1454.088 C 321.707 1467.619,316.357 1469.182,262.805 1469.182 L 213.836 1469.182 213.836 1477.987 L 213.836 1486.792 264.033 1486.792 C 295.462 1486.792,316.521 1485.748,320.359 1483.999 C 333.338 1478.086,336.651 1452.145,326.008 1439.763 L 319.941 1432.704 266.889 1431.893 L 213.836 1431.082 213.836 1440.069 M213.836 1538.365 L 213.836 1547.170 236.478 1547.170 L 259.119 1547.170 259.119 1558.491 L 259.119 1569.811 236.478 1569.811 L 213.836 1569.811 213.836 1578.616 L 213.836 1587.421 272.956 1587.421 L 332.075 1587.421 332.075 1578.616 L 332.075 1569.811 303.145 1569.811 L 274.214 1569.811 274.214 1558.491 L 274.214 1547.170 303.145 1547.170 L 332.075 1547.170 332.075 1538.365 L 332.075 1529.560 272.956 1529.560 L 213.836 1529.560 213.836 1538.365 " stroke="none" fill="#000000" fill-rule="evenodd"></path></g></svg>