<svg id="svg" version="1.1" xmlns="http://www.w3.org/2000/svg" xmlns:xlink="http://www.w3.org/1999/xlink" width="400" height="84.82758620689654" viewBox="0, 0, 400,84.82758620689654"><g id="svgg"><path id="path0" d="M186.676 28.456 C 186.361 28.495,185.950 28.633,185.764 28.763 C 185.578 28.893,185.270 29.000,185.079 29.000 C 184.888 29.000,184.477 29.188,184.167 29.417 C 183.856 29.646,183.521 29.833,183.421 29.833 C 183.322 29.833,183.115 29.965,182.962 30.125 C 182.809 30.285,182.607 30.492,182.513 30.583 C 182.048 31.037,180.859 32.657,180.758 32.974 C 180.696 33.171,180.582 33.333,180.507 33.333 C 180.431 33.333,180.319 33.534,180.258 33.779 C 180.196 34.023,180.001 34.408,179.823 34.634 C 179.645 34.860,179.500 35.175,179.500 35.335 C 179.500 35.494,179.356 35.953,179.179 36.354 C 179.002 36.755,178.773 37.709,178.669 38.474 C 178.565 39.239,178.409 40.050,178.323 40.277 C 178.078 40.923,178.134 45.845,178.402 47.215 C 178.532 47.876,178.685 48.829,178.742 49.333 C 179.009 51.672,180.571 54.672,182.460 56.472 C 184.234 58.164,184.366 58.270,184.859 58.418 C 185.074 58.482,185.424 58.645,185.637 58.779 C 186.113 59.080,188.540 59.255,190.025 59.096 C 191.106 58.980,193.667 57.621,193.667 57.163 C 193.667 57.073,193.779 57.000,193.917 57.000 C 194.054 57.000,194.167 56.935,194.167 56.856 C 194.167 56.704,194.970 55.611,195.437 55.130 C 195.712 54.846,196.051 54.315,196.265 53.833 C 196.326 53.696,196.554 53.194,196.771 52.719 C 196.989 52.243,197.167 51.716,197.167 51.547 C 197.167 51.379,197.283 51.075,197.425 50.872 C 197.658 50.539,197.804 49.832,198.363 46.333 C 198.567 45.051,198.449 40.527,198.199 40.060 C 198.103 39.880,197.952 39.077,197.864 38.275 C 197.772 37.442,197.598 36.696,197.458 36.534 C 197.322 36.378,197.167 35.959,197.113 35.604 C 197.059 35.249,196.899 34.831,196.757 34.675 C 196.616 34.518,196.500 34.280,196.500 34.144 C 196.500 34.009,196.313 33.644,196.083 33.333 C 195.854 33.023,195.667 32.680,195.667 32.573 C 195.667 32.373,194.750 31.247,194.000 30.526 C 192.260 28.852,189.602 28.101,186.676 28.456 M157.448 29.108 C 157.385 29.171,157.333 35.771,157.333 43.775 L 157.333 58.327 157.708 58.419 C 157.915 58.470,159.396 58.490,161.000 58.464 L 163.917 58.417 164.000 52.734 C 164.099 46.008,163.940 46.500,166.009 46.500 C 168.164 46.500,168.000 45.992,168.000 52.671 L 168.000 58.318 168.542 58.416 C 168.840 58.471,170.396 58.493,172.000 58.466 L 174.917 58.417 174.917 43.750 L 174.917 29.083 171.833 29.036 C 170.137 29.010,168.581 29.030,168.375 29.081 L 168.000 29.173 168.000 34.014 C 168.000 39.910,168.149 39.500,166.004 39.500 C 163.918 39.500,164.098 39.989,164.000 34.083 L 163.917 29.083 160.740 29.038 C 158.992 29.013,157.511 29.045,157.448 29.108 M204.341 29.320 C 204.245 29.498,204.167 29.893,204.167 30.197 C 204.167 30.501,204.057 31.272,203.924 31.910 C 203.791 32.548,203.630 34.085,203.567 35.327 C 203.505 36.568,203.383 37.771,203.297 38.000 C 203.211 38.229,203.044 39.810,202.925 41.513 C 202.806 43.216,202.632 44.753,202.538 44.929 C 202.444 45.106,202.279 46.627,202.172 48.310 C 202.065 49.994,201.906 51.559,201.819 51.788 C 201.732 52.017,201.588 53.461,201.500 54.997 C 201.412 56.532,201.297 57.901,201.244 58.039 C 201.095 58.426,201.638 58.495,204.861 58.498 C 208.316 58.500,208.333 58.496,208.333 57.689 C 208.333 57.355,208.406 56.828,208.495 56.519 C 208.583 56.210,208.733 52.910,208.828 49.187 C 209.048 40.499,209.075 40.322,209.895 42.147 C 210.262 42.966,210.361 43.512,210.490 45.443 C 210.576 46.716,210.727 47.972,210.827 48.233 C 210.926 48.495,211.075 49.693,211.156 50.896 C 211.237 52.099,211.390 53.305,211.494 53.575 C 211.599 53.846,211.750 54.997,211.831 56.133 C 212.010 58.663,211.671 58.417,214.968 58.417 L 217.743 58.417 217.917 57.083 C 218.012 56.350,218.153 55.650,218.230 55.529 C 218.306 55.407,218.435 54.485,218.516 53.479 C 218.597 52.474,218.747 51.495,218.849 51.305 C 218.951 51.114,219.106 50.123,219.193 49.104 C 219.280 48.084,219.459 46.929,219.592 46.536 C 219.725 46.143,219.833 45.398,219.833 44.880 C 219.833 43.125,220.671 40.782,221.133 41.244 C 221.286 41.397,221.463 45.103,221.500 48.917 C 221.548 53.839,221.879 58.025,222.246 58.330 C 222.385 58.446,223.555 58.492,225.605 58.462 L 228.750 58.417 228.726 56.667 C 228.713 55.704,228.623 54.617,228.525 54.250 C 228.427 53.883,228.266 51.986,228.167 50.035 C 228.067 48.083,227.917 46.303,227.832 46.080 C 227.747 45.857,227.594 44.004,227.491 41.962 C 227.388 39.921,227.240 38.173,227.162 38.079 C 227.084 37.984,226.939 36.372,226.840 34.495 C 226.642 30.745,226.568 30.138,226.222 29.455 L 225.988 28.994 222.036 29.039 L 218.083 29.083 217.793 29.676 C 217.622 30.026,217.445 30.964,217.360 31.962 C 217.281 32.893,217.135 33.755,217.034 33.876 C 216.933 33.997,216.804 34.806,216.747 35.673 C 216.690 36.541,216.528 37.625,216.387 38.083 C 216.246 38.542,216.069 39.592,215.994 40.417 C 215.787 42.678,215.688 43.027,215.269 42.967 C 214.983 42.926,214.895 42.760,214.802 42.083 C 214.740 41.625,214.609 40.800,214.512 40.250 C 214.415 39.700,214.335 38.859,214.334 38.381 C 214.334 37.903,214.223 37.188,214.089 36.792 C 213.955 36.396,213.762 35.178,213.660 34.085 C 213.558 32.992,213.404 31.965,213.317 31.802 C 213.230 31.639,213.104 30.961,213.037 30.295 L 212.917 29.083 208.716 29.039 C 204.696 28.996,204.507 29.008,204.341 29.320 M232.707 43.708 L 232.750 58.417 238.750 58.465 C 242.050 58.491,244.995 58.469,245.295 58.415 L 245.840 58.317 245.795 55.117 L 245.750 51.917 242.983 51.833 C 239.469 51.727,239.667 51.882,239.667 49.250 C 239.667 46.644,239.516 46.774,242.650 46.667 L 245.083 46.583 245.129 43.768 C 245.188 40.146,245.374 40.375,242.312 40.304 C 239.523 40.239,239.673 40.376,239.669 37.881 C 239.666 35.562,239.517 35.667,242.809 35.667 C 244.182 35.667,245.425 35.621,245.570 35.566 C 245.967 35.413,245.967 29.254,245.570 29.101 C 245.425 29.046,242.462 29.000,238.985 29.000 L 232.665 29.000 232.707 43.708 M189.920 36.264 C 190.286 36.642,190.500 37.025,190.501 37.306 C 190.502 37.550,190.632 37.975,190.791 38.250 C 191.263 39.068,191.317 47.005,190.860 48.410 C 190.680 48.964,190.487 49.620,190.431 49.869 C 189.814 52.618,186.567 52.662,186.049 49.928 C 185.996 49.647,185.835 49.192,185.691 48.917 C 185.288 48.148,185.294 39.863,185.697 38.911 C 185.851 38.548,186.022 37.977,186.076 37.642 C 186.362 35.888,188.730 35.039,189.920 36.264 " stroke="none" fill="#fafbf9" fill-rule="evenodd"></path><path id="path1" d="M185.583 28.435 C 185.217 28.574,184.770 28.734,184.592 28.789 C 183.471 29.136,181.451 31.053,180.506 32.667 C 179.906 33.692,179.167 35.254,179.167 35.499 C 179.167 35.646,179.073 35.860,178.958 35.974 C 178.712 36.220,178.255 38.310,177.987 40.417 C 177.774 42.083,177.889 47.096,178.167 48.333 C 178.260 48.746,178.418 49.571,178.518 50.167 C 178.618 50.762,178.792 51.362,178.905 51.500 C 179.017 51.637,179.204 52.082,179.320 52.488 C 179.788 54.123,181.913 56.884,183.532 57.960 C 185.024 58.950,185.514 59.166,186.692 59.350 C 191.237 60.060,194.275 58.285,196.788 53.451 C 197.084 52.882,197.327 52.325,197.330 52.213 C 197.332 52.101,197.476 51.688,197.650 51.296 C 197.941 50.643,198.061 50.174,198.497 48.000 C 198.702 46.976,198.698 40.409,198.492 39.583 C 198.401 39.217,198.219 38.334,198.087 37.622 C 197.955 36.910,197.732 36.162,197.591 35.960 C 197.449 35.758,197.333 35.466,197.333 35.312 C 197.333 35.018,196.582 33.433,196.238 33.000 C 196.129 32.862,195.985 32.563,195.919 32.333 C 195.687 31.531,192.699 28.833,192.043 28.833 C 191.948 28.833,191.543 28.685,191.143 28.504 C 190.200 28.076,186.643 28.032,185.583 28.435 M189.917 28.497 C 191.548 28.860,193.038 29.601,194.000 30.526 C 194.750 31.247,195.667 32.373,195.667 32.573 C 195.667 32.680,195.854 33.023,196.083 33.333 C 196.313 33.644,196.500 34.009,196.500 34.144 C 196.500 34.280,196.616 34.518,196.757 34.675 C 196.899 34.831,197.059 35.249,197.113 35.604 C 197.167 35.959,197.322 36.378,197.458 36.534 C 197.598 36.696,197.772 37.442,197.864 38.275 C 197.952 39.077,198.103 39.880,198.199 40.060 C 198.449 40.527,198.567 45.051,198.363 46.333 C 197.804 49.832,197.658 50.539,197.425 50.872 C 197.283 51.075,197.167 51.379,197.167 51.547 C 197.167 51.716,196.989 52.243,196.771 52.719 C 196.554 53.194,196.326 53.696,196.265 53.833 C 196.051 54.315,195.712 54.846,195.437 55.130 C 194.970 55.611,194.167 56.704,194.167 56.856 C 194.167 56.935,194.054 57.000,193.917 57.000 C 193.779 57.000,193.667 57.073,193.667 57.163 C 193.667 57.621,191.106 58.980,190.025 59.096 C 188.540 59.255,186.113 59.080,185.637 58.779 C 185.424 58.645,185.074 58.482,184.859 58.418 C 184.366 58.270,184.234 58.164,182.460 56.472 C 180.571 54.672,179.009 51.672,178.742 49.333 C 178.685 48.829,178.532 47.876,178.402 47.215 C 178.134 45.845,178.078 40.923,178.323 40.277 C 178.409 40.050,178.565 39.239,178.669 38.474 C 178.773 37.709,179.002 36.755,179.179 36.354 C 179.356 35.953,179.500 35.494,179.500 35.335 C 179.500 35.175,179.645 34.860,179.823 34.634 C 180.001 34.408,180.196 34.023,180.258 33.779 C 180.319 33.534,180.431 33.333,180.507 33.333 C 180.582 33.333,180.696 33.171,180.758 32.974 C 180.859 32.657,182.048 31.037,182.513 30.583 C 182.607 30.492,182.809 30.285,182.962 30.125 C 183.115 29.965,183.322 29.833,183.421 29.833 C 183.521 29.833,183.856 29.646,184.167 29.417 C 184.477 29.188,184.888 29.000,185.079 29.000 C 185.270 29.000,185.578 28.893,185.764 28.763 C 186.320 28.374,188.686 28.222,189.917 28.497 M157.262 28.929 C 157.028 29.163,157.000 30.737,157.000 43.752 L 157.000 58.314 157.370 58.574 C 157.814 58.885,163.455 58.959,164.011 58.661 C 164.320 58.495,164.333 58.254,164.333 52.833 C 164.333 46.310,164.177 46.833,166.122 46.833 C 167.772 46.833,167.667 46.424,167.667 52.857 C 167.667 57.173,167.715 58.512,167.875 58.615 C 168.333 58.911,174.758 58.885,175.057 58.586 C 175.469 58.173,175.483 29.341,175.071 28.929 C 174.765 28.622,168.861 28.538,168.094 28.829 L 167.667 28.992 167.667 33.975 C 167.667 39.787,167.786 39.417,165.942 39.299 C 164.193 39.186,164.333 39.645,164.333 34.023 C 164.333 30.390,164.280 29.013,164.133 28.867 C 163.800 28.534,157.601 28.590,157.262 28.929 M204.222 28.875 C 203.779 29.480,203.645 30.194,203.419 33.137 C 203.283 34.908,203.140 36.409,203.101 36.471 C 203.062 36.534,202.905 38.010,202.752 39.751 C 202.599 41.492,202.410 43.217,202.333 43.583 C 202.255 43.950,202.144 45.038,202.085 46.000 C 202.026 46.962,201.903 48.313,201.811 49.000 C 200.938 55.505,200.789 58.531,201.333 58.683 C 202.052 58.885,207.776 58.852,208.233 58.644 C 208.859 58.359,208.860 58.351,209.022 51.917 C 209.161 46.384,209.199 45.861,209.515 45.208 C 209.869 44.474,210.165 44.286,210.169 44.792 C 210.178 45.708,210.525 49.141,210.661 49.650 C 210.749 49.980,210.901 51.244,210.998 52.458 C 211.095 53.673,211.248 54.859,211.337 55.094 C 211.427 55.329,211.548 56.154,211.608 56.927 C 211.751 58.791,211.658 58.738,214.908 58.808 C 218.258 58.880,218.109 59.013,218.524 55.583 C 218.613 54.850,218.800 53.725,218.940 53.083 C 219.081 52.442,219.268 51.204,219.356 50.333 C 219.445 49.462,219.619 48.300,219.743 47.750 C 219.868 47.200,220.062 46.016,220.174 45.119 C 220.587 41.818,220.970 44.045,221.326 51.821 C 221.613 58.093,221.627 58.232,221.995 58.529 C 222.468 58.913,228.392 58.995,228.875 58.625 C 229.177 58.394,229.042 53.742,228.688 52.167 C 228.595 51.754,228.438 49.891,228.338 48.027 C 228.238 46.162,228.078 44.270,227.982 43.821 C 227.885 43.372,227.741 41.860,227.661 40.461 C 227.581 39.061,227.407 36.929,227.275 35.723 C 227.143 34.516,226.981 32.587,226.915 31.436 C 226.745 28.502,227.189 28.750,222.103 28.750 C 217.056 28.750,217.406 28.602,217.176 30.826 C 217.087 31.689,216.903 32.925,216.767 33.573 C 216.631 34.220,216.441 35.313,216.346 36.000 C 216.251 36.688,216.097 37.625,216.005 38.083 C 215.913 38.542,215.776 39.479,215.701 40.167 L 215.563 41.417 215.179 40.583 C 214.968 40.125,214.724 39.150,214.638 38.417 C 214.552 37.683,214.406 36.633,214.315 36.083 C 214.224 35.533,214.046 34.296,213.920 33.333 C 213.641 31.196,213.209 29.168,212.970 28.880 C 212.717 28.575,204.445 28.570,204.222 28.875 M232.533 28.867 C 232.189 29.211,232.250 58.226,232.595 58.571 C 232.868 58.844,244.368 58.947,245.583 58.687 L 246.083 58.580 246.124 55.248 C 246.176 51.054,246.476 51.430,243.021 51.358 C 240.296 51.302,240.194 51.288,240.101 50.942 C 239.944 50.356,239.987 47.889,240.163 47.428 L 240.325 47.000 242.713 47.000 C 245.737 47.000,245.500 47.297,245.500 43.500 C 245.500 39.706,245.731 40.000,242.750 40.000 C 239.880 40.000,240.000 40.091,240.000 37.904 C 240.000 35.738,239.825 35.852,243.262 35.796 L 246.083 35.750 246.128 32.372 L 246.174 28.994 245.743 28.831 C 245.082 28.579,232.787 28.613,232.533 28.867 M164.000 34.083 C 164.098 39.989,163.918 39.500,166.004 39.500 C 168.149 39.500,168.000 39.910,168.000 34.014 L 168.000 29.173 168.375 29.081 C 168.581 29.030,170.137 29.010,171.833 29.036 L 174.917 29.083 174.917 43.750 L 174.917 58.417 172.000 58.466 C 170.396 58.493,168.840 58.471,168.542 58.416 L 168.000 58.318 168.000 52.671 C 168.000 45.992,168.164 46.500,166.009 46.500 C 163.940 46.500,164.099 46.008,164.000 52.734 L 163.917 58.417 161.000 58.464 C 159.396 58.490,157.915 58.470,157.708 58.419 L 157.333 58.327 157.333 43.775 C 157.333 35.771,157.385 29.171,157.448 29.108 C 157.511 29.045,158.992 29.013,160.740 29.038 L 163.917 29.083 164.000 34.083 M213.037 30.295 C 213.104 30.961,213.230 31.639,213.317 31.802 C 213.404 31.965,213.558 32.992,213.660 34.085 C 213.762 35.178,213.955 36.396,214.089 36.792 C 214.223 37.188,214.334 37.903,214.334 38.381 C 214.335 38.859,214.415 39.700,214.512 40.250 C 214.609 40.800,214.740 41.625,214.802 42.083 C 214.895 42.760,214.983 42.926,215.269 42.967 C 215.688 43.027,215.787 42.678,215.994 40.417 C 216.069 39.592,216.246 38.542,216.387 38.083 C 216.528 37.625,216.690 36.541,216.747 35.673 C 216.804 34.806,216.933 33.997,217.034 33.876 C 217.135 33.755,217.281 32.893,217.360 31.962 C 217.445 30.964,217.622 30.026,217.793 29.676 L 218.083 29.083 222.036 29.039 L 225.988 28.994 226.222 29.455 C 226.568 30.138,226.642 30.745,226.840 34.495 C 226.939 36.372,227.084 37.984,227.162 38.079 C 227.240 38.173,227.388 39.921,227.491 41.962 C 227.594 44.004,227.747 45.857,227.832 46.080 C 227.917 46.303,228.067 48.083,228.167 50.035 C 228.266 51.986,228.427 53.883,228.525 54.250 C 228.623 54.617,228.713 55.704,228.726 56.667 L 228.750 58.417 225.605 58.462 C 223.555 58.492,222.385 58.446,222.246 58.330 C 221.879 58.025,221.548 53.839,221.500 48.917 C 221.463 45.103,221.286 41.397,221.133 41.244 C 220.671 40.782,219.833 43.125,219.833 44.880 C 219.833 45.398,219.725 46.143,219.592 46.536 C 219.459 46.929,219.280 48.084,219.193 49.104 C 219.106 50.123,218.951 51.114,218.849 51.305 C 218.747 51.495,218.597 52.474,218.516 53.479 C 218.435 54.485,218.306 55.407,218.230 55.529 C 218.153 55.650,218.012 56.350,217.917 57.083 L 217.743 58.417 214.968 58.417 C 211.671 58.417,212.010 58.663,211.831 56.133 C 211.750 54.997,211.599 53.846,211.494 53.575 C 211.390 53.305,211.237 52.099,211.156 50.896 C 211.075 49.693,210.926 48.495,210.827 48.233 C 210.727 47.972,210.576 46.716,210.490 45.443 C 210.361 43.512,210.262 42.966,209.895 42.147 C 209.075 40.322,209.048 40.499,208.828 49.187 C 208.733 52.910,208.583 56.210,208.495 56.519 C 208.406 56.828,208.333 57.355,208.333 57.689 C 208.333 58.496,208.316 58.500,204.861 58.498 C 201.638 58.495,201.095 58.426,201.244 58.039 C 201.297 57.901,201.412 56.532,201.500 54.997 C 201.588 53.461,201.732 52.017,201.819 51.788 C 201.906 51.559,202.065 49.994,202.172 48.310 C 202.279 46.627,202.444 45.106,202.538 44.929 C 202.632 44.753,202.806 43.216,202.925 41.513 C 203.044 39.810,203.211 38.229,203.297 38.000 C 203.383 37.771,203.505 36.568,203.567 35.327 C 203.630 34.085,203.791 32.548,203.924 31.910 C 204.057 31.272,204.167 30.501,204.167 30.197 C 204.167 28.951,204.018 28.989,208.716 29.039 L 212.917 29.083 213.037 30.295 M245.570 29.101 C 245.967 29.254,245.967 35.413,245.570 35.566 C 245.425 35.621,244.182 35.667,242.809 35.667 C 239.517 35.667,239.666 35.562,239.669 37.881 C 239.673 40.376,239.523 40.239,242.312 40.304 C 245.374 40.375,245.188 40.146,245.129 43.768 L 245.083 46.583 242.650 46.667 C 239.516 46.774,239.667 46.644,239.667 49.250 C 239.667 51.882,239.469 51.727,242.983 51.833 L 245.750 51.917 245.795 55.117 L 245.840 58.317 245.295 58.415 C 244.995 58.469,242.050 58.491,238.750 58.465 L 232.750 58.417 232.707 43.708 L 232.665 29.000 238.985 29.000 C 242.462 29.000,245.425 29.046,245.570 29.101 M186.917 36.351 C 186.387 36.840,186.147 37.208,186.076 37.642 C 186.022 37.977,185.851 38.548,185.697 38.911 C 185.294 39.863,185.288 48.148,185.691 48.917 C 185.835 49.192,185.996 49.647,186.049 49.928 C 186.567 52.662,189.814 52.618,190.431 49.869 C 190.487 49.620,190.680 48.964,190.860 48.410 C 191.317 47.005,191.263 39.068,190.791 38.250 C 190.632 37.975,190.502 37.550,190.501 37.306 C 190.497 35.728,188.245 35.127,186.917 36.351 M189.690 36.544 C 191.412 38.596,191.421 47.682,189.705 50.603 C 188.933 51.916,187.526 52.047,186.824 50.870 C 185.350 48.401,185.267 39.196,186.699 37.077 C 187.602 35.741,188.833 35.521,189.690 36.544 " stroke="none" fill="#b4d49c" fill-rule="evenodd"></path><path id="path2" d="M185.125 28.187 C 184.873 28.283,184.667 28.422,184.667 28.495 C 184.667 28.569,184.405 28.679,184.085 28.739 C 183.761 28.799,183.427 28.992,183.329 29.174 C 183.233 29.353,183.083 29.500,182.995 29.500 C 182.771 29.500,181.167 31.094,181.167 31.317 C 181.167 31.418,181.093 31.500,181.003 31.500 C 180.914 31.500,180.687 31.800,180.500 32.167 C 180.313 32.533,180.086 32.833,179.997 32.833 C 179.907 32.833,179.833 32.973,179.833 33.144 C 179.833 33.315,179.694 33.634,179.524 33.853 C 179.354 34.071,179.163 34.531,179.100 34.875 C 179.037 35.219,178.917 35.500,178.834 35.500 C 178.648 35.500,178.336 36.578,178.334 37.220 C 178.334 37.479,178.229 37.795,178.100 37.923 C 177.566 38.458,177.516 48.573,178.044 49.381 C 178.177 49.584,178.338 50.176,178.403 50.697 C 178.468 51.217,178.627 51.731,178.756 51.838 C 178.885 51.946,179.038 52.307,179.095 52.642 C 179.151 52.976,179.341 53.453,179.516 53.702 C 179.690 53.950,179.833 54.238,179.833 54.342 C 179.833 54.986,183.767 58.833,184.426 58.833 C 184.539 58.833,184.672 58.940,184.722 59.070 C 184.777 59.213,185.180 59.353,185.742 59.423 C 186.253 59.487,186.712 59.605,186.762 59.686 C 186.884 59.884,189.928 59.875,190.294 59.676 C 190.453 59.589,190.869 59.472,191.217 59.417 C 191.566 59.361,191.890 59.214,191.937 59.091 C 191.984 58.967,192.279 58.818,192.593 58.759 C 192.907 58.700,193.241 58.506,193.337 58.326 C 193.433 58.147,193.622 58.000,193.756 58.000 C 193.890 58.000,194.000 57.893,194.000 57.761 C 194.000 57.630,194.150 57.475,194.333 57.417 C 194.517 57.358,194.667 57.252,194.667 57.180 C 194.667 57.108,194.835 56.856,195.042 56.621 C 195.908 55.635,196.167 55.297,196.167 55.153 C 196.167 55.069,196.317 54.850,196.500 54.667 C 196.683 54.483,196.833 54.193,196.833 54.020 C 196.833 53.848,196.944 53.616,197.079 53.504 C 197.214 53.392,197.375 53.026,197.436 52.692 C 197.498 52.357,197.687 51.904,197.857 51.686 C 198.055 51.432,198.167 51.015,198.167 50.532 C 198.167 50.046,198.271 49.661,198.458 49.454 C 198.723 49.161,198.750 48.643,198.750 43.774 C 198.750 38.940,198.722 38.376,198.458 38.005 C 198.298 37.778,198.167 37.299,198.167 36.940 C 198.167 36.580,198.023 35.978,197.848 35.602 C 197.673 35.225,197.439 34.673,197.328 34.375 C 197.217 34.077,197.060 33.833,196.980 33.833 C 196.899 33.833,196.833 33.683,196.833 33.498 C 196.833 33.314,196.683 33.035,196.500 32.878 C 196.317 32.721,196.167 32.463,196.167 32.305 C 196.167 32.147,195.979 31.815,195.750 31.568 C 195.521 31.320,195.333 31.054,195.333 30.976 C 195.333 30.897,195.221 30.833,195.083 30.833 C 194.946 30.833,194.833 30.769,194.833 30.691 C 194.833 30.504,193.870 29.500,193.690 29.500 C 193.612 29.500,193.346 29.313,193.099 29.083 C 192.852 28.854,192.493 28.667,192.301 28.667 C 192.110 28.667,191.858 28.535,191.740 28.375 C 191.486 28.027,185.959 27.870,185.125 28.187 M191.143 28.504 C 191.543 28.685,191.948 28.833,192.043 28.833 C 192.699 28.833,195.687 31.531,195.919 32.333 C 195.985 32.563,196.129 32.862,196.238 33.000 C 196.582 33.433,197.333 35.018,197.333 35.312 C 197.333 35.466,197.449 35.758,197.591 35.960 C 197.732 36.162,197.955 36.910,198.087 37.622 C 198.219 38.334,198.401 39.217,198.492 39.583 C 198.698 40.409,198.702 46.976,198.497 48.000 C 198.061 50.174,197.941 50.643,197.650 51.296 C 197.476 51.688,197.332 52.101,197.330 52.213 C 197.327 52.325,197.084 52.882,196.788 53.451 C 194.275 58.285,191.237 60.060,186.692 59.350 C 185.514 59.166,185.024 58.950,183.532 57.960 C 181.913 56.884,179.788 54.123,179.320 52.488 C 179.204 52.082,179.017 51.637,178.905 51.500 C 178.792 51.362,178.618 50.762,178.518 50.167 C 178.418 49.571,178.260 48.746,178.167 48.333 C 177.889 47.096,177.774 42.083,177.987 40.417 C 178.255 38.310,178.712 36.220,178.958 35.974 C 179.073 35.860,179.167 35.646,179.167 35.499 C 179.167 35.254,179.906 33.692,180.506 32.667 C 181.451 31.053,183.471 29.136,184.592 28.789 C 184.770 28.734,185.217 28.574,185.583 28.435 C 186.643 28.032,190.200 28.076,191.143 28.504 M157.029 28.719 L 156.667 29.105 156.667 43.773 L 156.667 58.442 157.052 58.804 C 157.421 59.151,157.581 59.167,160.668 59.167 L 163.898 59.167 164.366 58.719 L 164.833 58.271 164.833 52.737 C 164.833 46.462,164.691 47.000,166.347 47.000 L 167.333 47.000 167.333 52.738 L 167.333 58.476 167.772 58.821 C 168.475 59.374,174.851 59.353,175.241 58.796 C 175.471 58.468,175.500 56.763,175.500 43.750 C 175.500 30.737,175.471 29.032,175.241 28.704 C 174.987 28.341,174.908 28.333,171.522 28.333 C 166.860 28.333,167.333 27.692,167.333 34.006 L 167.333 39.000 166.083 39.000 L 164.833 39.000 164.833 34.106 L 164.833 29.212 164.394 28.773 L 163.955 28.333 160.673 28.333 C 157.458 28.333,157.384 28.341,157.029 28.719 M203.923 28.728 L 203.429 29.125 203.291 31.688 C 203.216 33.097,203.079 34.475,202.987 34.750 C 202.895 35.025,202.740 36.563,202.642 38.167 C 202.545 39.771,202.398 41.233,202.317 41.417 C 202.088 41.931,201.836 44.564,201.835 46.448 C 201.834 47.383,201.767 48.188,201.685 48.239 C 201.448 48.385,201.311 49.411,201.182 52.000 C 201.116 53.329,200.971 54.679,200.861 55.000 C 200.441 56.226,200.411 58.411,200.810 58.810 C 201.339 59.339,207.764 59.360,208.625 58.835 L 209.167 58.505 209.171 54.294 C 209.173 51.765,209.248 49.817,209.358 49.417 C 209.458 49.050,209.588 48.137,209.645 47.388 C 209.839 44.872,210.113 45.330,210.211 48.335 C 210.254 49.666,210.362 50.571,210.507 50.835 C 210.651 51.097,210.776 52.128,210.847 53.623 C 210.930 55.384,211.029 56.102,211.229 56.409 C 211.388 56.650,211.500 57.167,211.500 57.654 C 211.500 59.079,211.701 59.167,214.960 59.167 C 216.946 59.167,217.748 59.109,217.902 58.955 C 218.402 58.455,218.833 56.830,218.833 55.447 C 218.833 54.439,218.907 53.969,219.109 53.680 C 219.308 53.396,219.419 52.722,219.506 51.257 C 219.582 49.983,219.721 49.045,219.881 48.737 C 220.026 48.455,220.187 47.501,220.258 46.498 C 220.404 44.448,220.637 44.658,220.655 46.854 C 220.662 47.675,220.774 48.595,220.917 49.000 C 221.114 49.558,221.167 50.603,221.167 53.924 C 221.167 59.601,220.804 59.167,225.544 59.167 L 228.771 59.167 229.218 58.700 C 229.576 58.326,229.624 58.191,229.458 58.025 C 229.311 57.878,229.220 56.748,229.147 54.200 C 229.071 51.525,228.977 50.410,228.785 49.917 C 228.592 49.422,228.507 48.390,228.451 45.908 C 228.392 43.255,228.321 42.459,228.105 42.042 C 227.889 41.624,227.833 40.992,227.830 38.967 C 227.827 36.346,227.615 34.215,227.329 33.929 C 227.240 33.840,227.166 32.825,227.164 31.675 C 227.161 28.165,227.417 28.333,222.083 28.333 C 217.023 28.333,217.007 28.340,217.002 30.548 C 217.001 31.110,216.898 31.667,216.756 31.884 C 216.608 32.110,216.469 32.911,216.403 33.920 C 216.338 34.909,216.196 35.740,216.052 35.971 C 215.898 36.217,215.774 37.025,215.713 38.180 C 215.660 39.181,215.553 40.000,215.475 40.000 C 215.397 40.000,215.333 39.906,215.332 39.792 C 215.332 39.677,215.209 39.358,215.060 39.083 C 214.885 38.759,214.750 37.939,214.678 36.750 C 214.616 35.742,214.466 34.735,214.345 34.512 C 214.223 34.290,214.070 33.240,214.006 32.179 C 213.897 30.399,213.780 29.907,213.170 28.667 C 213.066 28.456,212.373 28.410,208.732 28.374 L 204.417 28.332 203.923 28.728 M232.442 28.638 C 231.994 29.134,232.022 58.484,232.471 58.891 C 232.998 59.367,245.448 59.304,246.061 58.821 L 246.500 58.476 246.500 55.083 L 246.500 51.691 246.061 51.345 C 245.659 51.029,245.400 51.000,242.978 51.000 L 240.333 51.000 240.333 49.262 L 240.333 47.525 242.745 47.471 C 245.982 47.398,245.750 47.704,245.750 43.502 C 245.750 39.429,246.011 39.769,242.826 39.691 L 240.333 39.630 240.333 37.815 L 240.333 36.000 243.217 36.000 C 245.237 36.000,246.160 35.940,246.300 35.800 C 246.714 35.386,246.568 29.076,246.135 28.673 C 245.596 28.171,232.895 28.138,232.442 28.638 M164.133 28.867 C 164.280 29.013,164.333 30.390,164.333 34.023 C 164.333 39.645,164.193 39.186,165.942 39.299 C 167.786 39.417,167.667 39.787,167.667 33.975 L 167.667 28.992 168.094 28.829 C 168.861 28.538,174.765 28.622,175.071 28.929 C 175.483 29.341,175.469 58.173,175.057 58.586 C 174.758 58.885,168.333 58.911,167.875 58.615 C 167.715 58.512,167.667 57.173,167.667 52.857 C 167.667 46.424,167.772 46.833,166.122 46.833 C 164.177 46.833,164.333 46.310,164.333 52.833 C 164.333 58.254,164.320 58.495,164.011 58.661 C 163.455 58.959,157.814 58.885,157.370 58.574 L 157.000 58.314 157.000 43.752 C 157.000 30.737,157.028 29.163,157.262 28.929 C 157.601 28.590,163.800 28.534,164.133 28.867 M212.970 28.880 C 213.209 29.168,213.641 31.196,213.920 33.333 C 214.046 34.296,214.224 35.533,214.315 36.083 C 214.406 36.633,214.552 37.683,214.638 38.417 C 214.724 39.150,214.968 40.125,215.179 40.583 L 215.563 41.417 215.701 40.167 C 215.776 39.479,215.913 38.542,216.005 38.083 C 216.097 37.625,216.251 36.688,216.346 36.000 C 216.441 35.313,216.631 34.220,216.767 33.573 C 216.903 32.925,217.087 31.689,217.176 30.826 C 217.406 28.602,217.056 28.750,222.103 28.750 C 227.189 28.750,226.745 28.502,226.915 31.436 C 226.981 32.587,227.143 34.516,227.275 35.723 C 227.407 36.929,227.581 39.061,227.661 40.461 C 227.741 41.860,227.885 43.372,227.982 43.821 C 228.078 44.270,228.238 46.162,228.338 48.027 C 228.438 49.891,228.595 51.754,228.688 52.167 C 229.042 53.742,229.177 58.394,228.875 58.625 C 228.392 58.995,222.468 58.913,221.995 58.529 C 221.627 58.232,221.613 58.093,221.326 51.821 C 220.970 44.045,220.587 41.818,220.174 45.119 C 220.062 46.016,219.868 47.200,219.743 47.750 C 219.619 48.300,219.445 49.462,219.356 50.333 C 219.268 51.204,219.081 52.442,218.940 53.083 C 218.800 53.725,218.613 54.850,218.524 55.583 C 218.109 59.013,218.258 58.880,214.908 58.808 C 211.658 58.738,211.751 58.791,211.608 56.927 C 211.548 56.154,211.427 55.329,211.337 55.094 C 211.248 54.859,211.095 53.673,210.998 52.458 C 210.901 51.244,210.749 49.980,210.661 49.650 C 210.525 49.141,210.178 45.708,210.169 44.792 C 210.165 44.286,209.869 44.474,209.515 45.208 C 209.199 45.861,209.161 46.384,209.022 51.917 C 208.860 58.351,208.859 58.359,208.233 58.644 C 207.776 58.852,202.052 58.885,201.333 58.683 C 200.789 58.531,200.938 55.505,201.811 49.000 C 201.903 48.313,202.026 46.962,202.085 46.000 C 202.144 45.038,202.255 43.950,202.333 43.583 C 202.410 43.217,202.599 41.492,202.752 39.751 C 202.905 38.010,203.062 36.534,203.101 36.471 C 203.140 36.409,203.283 34.908,203.419 33.137 C 203.645 30.194,203.779 29.480,204.222 28.875 C 204.445 28.570,212.717 28.575,212.970 28.880 M245.743 28.831 L 246.174 28.994 246.128 32.372 L 246.083 35.750 243.262 35.796 C 239.825 35.852,240.000 35.738,240.000 37.904 C 240.000 40.091,239.880 40.000,242.750 40.000 C 245.731 40.000,245.500 39.706,245.500 43.500 C 245.500 47.297,245.737 47.000,242.713 47.000 L 240.325 47.000 240.163 47.428 C 239.987 47.889,239.944 50.356,240.101 50.942 C 240.194 51.288,240.296 51.302,243.021 51.358 C 246.476 51.430,246.176 51.054,246.124 55.248 L 246.083 58.580 245.583 58.687 C 244.368 58.947,232.868 58.844,232.595 58.571 C 232.250 58.226,232.189 29.211,232.533 28.867 C 232.787 28.613,245.082 28.579,245.743 28.831 M187.563 36.195 C 186.112 37.240,185.579 39.740,185.721 44.833 C 185.868 50.155,186.802 52.205,188.778 51.546 C 190.667 50.917,191.689 43.259,190.510 38.576 C 189.908 36.184,188.809 35.296,187.563 36.195 M188.880 36.153 C 189.101 36.237,189.375 36.531,189.489 36.807 C 189.604 37.083,189.791 37.346,189.907 37.390 C 190.037 37.440,190.159 37.985,190.230 38.840 C 190.293 39.594,190.455 40.367,190.589 40.559 C 190.940 41.059,190.941 45.681,190.591 46.216 C 190.457 46.419,190.295 47.216,190.231 47.986 C 190.146 49.011,190.032 49.468,189.807 49.693 C 189.638 49.862,189.498 50.131,189.494 50.292 C 189.474 51.391,187.451 51.780,187.111 50.750 C 187.020 50.475,186.857 50.175,186.748 50.083 C 186.640 49.992,186.462 49.213,186.353 48.353 C 186.244 47.493,186.082 46.654,185.994 46.489 C 185.806 46.138,185.774 41.448,185.958 41.264 C 186.116 41.106,186.469 39.119,186.487 38.292 C 186.500 37.677,186.610 37.501,187.634 36.459 C 188.123 35.960,188.275 35.923,188.880 36.153 " stroke="none" fill="#8cc464" fill-rule="evenodd"></path><path id="path3" d="M21.000 8.333 C 21.000 8.644,20.889 8.667,19.333 8.667 C 17.778 8.667,17.667 8.689,17.667 9.000 C 17.667 9.299,17.556 9.333,16.583 9.333 C 15.611 9.333,15.500 9.368,15.500 9.667 C 15.500 9.944,15.389 10.000,14.833 10.000 C 14.278 10.000,14.167 10.056,14.167 10.333 C 14.167 10.611,14.056 10.667,13.500 10.667 C 12.944 10.667,12.833 10.722,12.833 11.000 C 12.833 11.269,12.722 11.333,12.255 11.333 C 11.830 11.333,11.621 11.433,11.464 11.708 C 11.346 11.915,11.137 12.083,11.000 12.083 C 10.862 12.083,10.769 12.178,10.793 12.295 C 10.816 12.411,10.647 12.592,10.418 12.697 C 10.188 12.801,10.000 13.025,10.000 13.193 C 10.000 13.389,9.879 13.500,9.667 13.500 C 9.444 13.500,9.333 13.611,9.333 13.833 C 9.333 14.056,9.222 14.167,9.000 14.167 C 8.722 14.167,8.667 14.278,8.667 14.833 C 8.667 15.389,8.611 15.500,8.333 15.500 C 8.118 15.500,8.000 15.611,8.000 15.814 C 8.000 15.987,7.861 16.164,7.692 16.208 C 7.505 16.257,7.341 16.505,7.274 16.838 C 7.214 17.140,7.015 17.492,6.832 17.620 C 6.570 17.804,6.500 18.042,6.500 18.759 C 6.500 19.556,6.459 19.667,6.167 19.667 C 5.871 19.667,5.833 19.778,5.833 20.647 C 5.833 21.497,5.788 21.640,5.490 21.718 C 5.301 21.767,5.160 21.907,5.176 22.029 C 5.393 23.626,5.133 28.667,4.833 28.667 C 4.349 28.667,4.349 29.755,4.833 29.882 C 5.164 29.968,5.167 30.109,5.167 46.554 C 5.167 63.241,5.177 63.667,5.601 63.667 C 5.780 63.667,5.833 63.970,5.833 64.989 C 5.833 66.164,5.870 66.323,6.167 66.417 C 6.375 66.483,6.500 66.669,6.500 66.914 C 6.500 67.479,6.668 67.833,6.934 67.833 C 7.069 67.833,7.167 68.003,7.167 68.236 C 7.167 68.858,7.339 69.167,7.684 69.167 C 7.941 69.167,8.000 69.290,8.000 69.833 C 8.000 70.389,8.056 70.500,8.333 70.500 C 8.556 70.500,8.667 70.611,8.667 70.833 C 8.667 71.056,8.778 71.167,9.000 71.167 C 9.278 71.167,9.333 71.278,9.333 71.830 C 9.333 72.394,9.394 72.509,9.739 72.595 C 9.983 72.657,10.111 72.785,10.060 72.917 C 10.013 73.039,10.125 73.184,10.313 73.243 C 10.498 73.302,10.695 73.492,10.750 73.666 C 10.819 73.885,11.036 73.996,11.467 74.032 C 11.881 74.067,12.083 74.165,12.083 74.333 C 12.083 74.471,12.252 74.607,12.458 74.637 C 12.699 74.671,12.833 74.805,12.833 75.012 C 12.833 75.276,12.952 75.333,13.500 75.333 C 14.056 75.333,14.167 75.389,14.167 75.667 C 14.167 75.944,14.278 76.000,14.833 76.000 C 15.376 76.000,15.500 76.059,15.500 76.316 C 15.500 76.711,15.813 76.833,16.828 76.833 C 17.488 76.833,17.643 76.892,17.715 77.167 C 17.792 77.463,17.942 77.500,19.048 77.500 C 20.154 77.500,20.304 77.537,20.382 77.833 C 20.469 78.166,20.609 78.167,197.984 78.167 C 375.389 78.167,375.500 78.166,375.500 77.833 C 375.500 77.527,375.611 77.500,376.849 77.500 C 378.047 77.500,378.207 77.464,378.283 77.174 C 378.353 76.908,378.539 76.840,379.309 76.799 C 380.140 76.756,380.256 76.706,380.303 76.375 C 380.348 76.059,380.459 76.000,381.012 76.000 C 381.556 76.000,381.667 75.943,381.667 75.667 C 381.667 75.388,381.778 75.333,382.349 75.333 C 382.891 75.333,383.049 75.265,383.118 75.000 C 383.184 74.747,383.346 74.667,383.785 74.667 C 384.224 74.667,384.386 74.586,384.452 74.333 C 384.500 74.149,384.679 74.000,384.853 74.000 C 385.056 74.000,385.167 73.882,385.167 73.667 C 385.167 73.444,385.278 73.333,385.500 73.333 C 385.722 73.333,385.833 73.222,385.833 73.000 C 385.833 72.778,385.944 72.667,386.167 72.667 C 386.411 72.667,386.500 72.556,386.500 72.250 C 386.500 71.944,386.589 71.833,386.833 71.833 C 387.111 71.833,387.167 71.722,387.167 71.167 C 387.167 70.567,387.208 70.500,387.583 70.500 C 387.880 70.500,388.000 70.410,388.000 70.186 C 388.000 70.012,388.149 69.833,388.333 69.785 C 388.586 69.719,388.667 69.558,388.667 69.118 C 388.667 68.679,388.747 68.518,389.000 68.452 C 389.282 68.378,389.333 68.224,389.333 67.452 C 389.333 66.679,389.385 66.525,389.667 66.452 C 389.954 66.377,390.000 66.224,390.000 65.349 C 390.000 64.444,390.036 64.333,390.333 64.333 C 390.651 64.333,390.667 64.222,390.667 61.917 C 390.667 59.611,390.682 59.500,391.000 59.500 C 391.331 59.500,391.333 59.389,391.333 42.333 C 391.333 25.278,391.331 25.167,391.000 25.167 C 390.685 25.167,390.667 25.056,390.667 23.151 C 390.667 21.276,390.643 21.129,390.333 21.048 C 390.048 20.974,390.000 20.821,390.000 19.981 C 390.000 19.111,389.962 19.000,389.667 19.000 C 389.390 19.000,389.333 18.889,389.333 18.345 C 389.333 17.836,389.259 17.666,389.000 17.583 C 388.750 17.504,388.667 17.331,388.667 16.890 C 388.667 16.450,388.586 16.281,388.345 16.218 C 388.125 16.160,387.989 15.929,387.914 15.484 C 387.831 14.993,387.726 14.833,387.485 14.833 C 387.278 14.833,387.167 14.717,387.167 14.500 C 387.167 14.278,387.056 14.167,386.833 14.167 C 386.611 14.167,386.500 14.056,386.500 13.833 C 386.500 13.615,386.389 13.500,386.178 13.500 C 385.973 13.500,385.836 13.365,385.799 13.125 C 385.768 12.919,385.644 12.771,385.523 12.796 C 385.403 12.822,385.265 12.693,385.218 12.510 C 385.170 12.327,384.997 12.135,384.833 12.083 C 384.670 12.031,384.497 11.841,384.450 11.661 C 384.386 11.414,384.221 11.333,383.785 11.333 C 383.346 11.333,383.184 11.253,383.118 11.000 C 383.066 10.801,382.891 10.667,382.682 10.667 C 382.444 10.667,382.333 10.561,382.333 10.333 C 382.333 10.037,382.222 10.000,381.333 10.000 C 380.444 10.000,380.333 9.963,380.333 9.667 C 380.333 9.370,380.222 9.333,379.333 9.333 C 378.444 9.333,378.333 9.296,378.333 9.000 C 378.333 8.693,378.222 8.667,376.917 8.667 C 375.611 8.667,375.500 8.641,375.500 8.333 C 375.500 8.000,375.389 8.000,198.250 8.000 C 21.111 8.000,21.000 8.000,21.000 8.333 M191.740 28.375 C 191.858 28.535,192.110 28.667,192.301 28.667 C 192.493 28.667,192.852 28.854,193.099 29.083 C 193.346 29.313,193.612 29.500,193.690 29.500 C 193.870 29.500,194.833 30.504,194.833 30.691 C 194.833 30.769,194.946 30.833,195.083 30.833 C 195.221 30.833,195.333 30.897,195.333 30.976 C 195.333 31.054,195.521 31.320,195.750 31.568 C 195.979 31.815,196.167 32.147,196.167 32.305 C 196.167 32.463,196.317 32.721,196.500 32.878 C 196.683 33.035,196.833 33.314,196.833 33.498 C 196.833 33.683,196.899 33.833,196.980 33.833 C 197.060 33.833,197.217 34.077,197.328 34.375 C 197.439 34.673,197.673 35.225,197.848 35.602 C 198.023 35.978,198.167 36.580,198.167 36.940 C 198.167 37.299,198.298 37.778,198.458 38.005 C 198.722 38.376,198.750 38.940,198.750 43.774 C 198.750 48.643,198.723 49.161,198.458 49.454 C 198.271 49.661,198.167 50.046,198.167 50.532 C 198.167 51.015,198.055 51.432,197.857 51.686 C 197.687 51.904,197.498 52.357,197.436 52.692 C 197.375 53.026,197.214 53.392,197.079 53.504 C 196.944 53.616,196.833 53.848,196.833 54.020 C 196.833 54.193,196.683 54.483,196.500 54.667 C 196.317 54.850,196.167 55.069,196.167 55.153 C 196.167 55.297,195.908 55.635,195.042 56.621 C 194.835 56.856,194.667 57.108,194.667 57.180 C 194.667 57.252,194.517 57.358,194.333 57.417 C 194.150 57.475,194.000 57.630,194.000 57.761 C 194.000 57.893,193.890 58.000,193.756 58.000 C 193.622 58.000,193.433 58.147,193.337 58.326 C 193.241 58.506,192.907 58.700,192.593 58.759 C 192.279 58.818,191.984 58.967,191.937 59.091 C 191.890 59.214,191.566 59.361,191.217 59.417 C 190.869 59.472,190.453 59.589,190.294 59.676 C 189.928 59.875,186.884 59.884,186.762 59.686 C 186.712 59.605,186.253 59.487,185.742 59.423 C 185.180 59.353,184.777 59.213,184.722 59.070 C 184.672 58.940,184.539 58.833,184.426 58.833 C 183.767 58.833,179.833 54.986,179.833 54.342 C 179.833 54.238,179.690 53.950,179.516 53.702 C 179.341 53.453,179.151 52.976,179.095 52.642 C 179.038 52.307,178.885 51.946,178.756 51.838 C 178.627 51.731,178.468 51.217,178.403 50.697 C 178.338 50.176,178.177 49.584,178.044 49.381 C 177.516 48.573,177.566 38.458,178.100 37.923 C 178.229 37.795,178.334 37.479,178.334 37.220 C 178.336 36.578,178.648 35.500,178.834 35.500 C 178.917 35.500,179.037 35.219,179.100 34.875 C 179.163 34.531,179.354 34.071,179.524 33.853 C 179.694 33.634,179.833 33.315,179.833 33.144 C 179.833 32.973,179.907 32.833,179.997 32.833 C 180.086 32.833,180.313 32.533,180.500 32.167 C 180.687 31.800,180.914 31.500,181.003 31.500 C 181.093 31.500,181.167 31.418,181.167 31.317 C 181.167 31.094,182.771 29.500,182.995 29.500 C 183.083 29.500,183.233 29.353,183.329 29.174 C 183.427 28.992,183.761 28.799,184.085 28.739 C 184.405 28.679,184.667 28.569,184.667 28.495 C 184.667 27.927,191.330 27.814,191.740 28.375 M164.394 28.773 L 164.833 29.212 164.833 34.106 L 164.833 39.000 166.083 39.000 L 167.333 39.000 167.333 34.006 C 167.333 27.692,166.860 28.333,171.522 28.333 C 174.908 28.333,174.987 28.341,175.241 28.704 C 175.471 29.032,175.500 30.737,175.500 43.750 C 175.500 56.763,175.471 58.468,175.241 58.796 C 174.851 59.353,168.475 59.374,167.772 58.821 L 167.333 58.476 167.333 52.738 L 167.333 47.000 166.347 47.000 C 164.691 47.000,164.833 46.462,164.833 52.737 L 164.833 58.271 164.366 58.719 L 163.898 59.167 160.668 59.167 C 157.581 59.167,157.421 59.151,157.052 58.804 L 156.667 58.442 156.667 43.773 L 156.667 29.105 157.029 28.719 C 157.384 28.341,157.458 28.333,160.673 28.333 L 163.955 28.333 164.394 28.773 M213.170 28.667 C 213.780 29.907,213.897 30.399,214.006 32.179 C 214.070 33.240,214.223 34.290,214.345 34.512 C 214.466 34.735,214.616 35.742,214.678 36.750 C 214.750 37.939,214.885 38.759,215.060 39.083 C 215.209 39.358,215.332 39.677,215.332 39.792 C 215.333 39.906,215.397 40.000,215.475 40.000 C 215.553 40.000,215.660 39.181,215.713 38.180 C 215.774 37.025,215.898 36.217,216.052 35.971 C 216.196 35.740,216.338 34.909,216.403 33.920 C 216.469 32.911,216.608 32.110,216.756 31.884 C 216.898 31.667,217.001 31.110,217.002 30.548 C 217.007 28.340,217.023 28.333,222.083 28.333 C 227.417 28.333,227.161 28.165,227.164 31.675 C 227.166 32.825,227.240 33.840,227.329 33.929 C 227.615 34.215,227.827 36.346,227.830 38.967 C 227.833 40.992,227.889 41.624,228.105 42.042 C 228.321 42.459,228.392 43.255,228.451 45.908 C 228.507 48.390,228.592 49.422,228.785 49.917 C 228.977 50.410,229.071 51.525,229.147 54.200 C 229.220 56.748,229.311 57.878,229.458 58.025 C 229.624 58.191,229.576 58.326,229.218 58.700 L 228.771 59.167 225.544 59.167 C 220.804 59.167,221.167 59.601,221.167 53.924 C 221.167 50.603,221.114 49.558,220.917 49.000 C 220.774 48.595,220.662 47.675,220.655 46.854 C 220.637 44.658,220.404 44.448,220.258 46.498 C 220.187 47.501,220.026 48.455,219.881 48.737 C 219.721 49.045,219.582 49.983,219.506 51.257 C 219.419 52.722,219.308 53.396,219.109 53.680 C 218.907 53.969,218.833 54.439,218.833 55.447 C 218.833 56.830,218.402 58.455,217.902 58.955 C 217.748 59.109,216.946 59.167,214.960 59.167 C 211.701 59.167,211.500 59.079,211.500 57.654 C 211.500 57.167,211.388 56.650,211.229 56.409 C 211.029 56.102,210.930 55.384,210.847 53.623 C 210.776 52.128,210.651 51.097,210.507 50.835 C 210.362 50.571,210.254 49.666,210.211 48.335 C 210.113 45.330,209.839 44.872,209.645 47.388 C 209.588 48.137,209.458 49.050,209.358 49.417 C 209.248 49.817,209.173 51.765,209.171 54.294 L 209.167 58.505 208.625 58.835 C 207.764 59.360,201.339 59.339,200.810 58.810 C 200.411 58.411,200.441 56.226,200.861 55.000 C 200.971 54.679,201.116 53.329,201.182 52.000 C 201.311 49.411,201.448 48.385,201.685 48.239 C 201.767 48.188,201.834 47.383,201.835 46.448 C 201.836 44.564,202.088 41.931,202.317 41.417 C 202.398 41.233,202.545 39.771,202.642 38.167 C 202.740 36.563,202.895 35.025,202.987 34.750 C 203.079 34.475,203.216 33.097,203.291 31.688 L 203.429 29.125 203.923 28.728 L 204.417 28.332 208.732 28.374 C 212.373 28.410,213.066 28.456,213.170 28.667 M246.135 28.673 C 246.568 29.076,246.714 35.386,246.300 35.800 C 246.160 35.940,245.237 36.000,243.217 36.000 L 240.333 36.000 240.333 37.815 L 240.333 39.630 242.826 39.691 C 246.011 39.769,245.750 39.429,245.750 43.502 C 245.750 47.704,245.982 47.398,242.745 47.471 L 240.333 47.525 240.333 49.262 L 240.333 51.000 242.978 51.000 C 245.400 51.000,245.659 51.029,246.061 51.345 L 246.500 51.691 246.500 55.083 L 246.500 58.476 246.061 58.821 C 245.448 59.304,232.998 59.367,232.471 58.891 C 232.022 58.484,231.994 29.134,232.442 28.638 C 232.895 28.138,245.596 28.171,246.135 28.673 M187.634 36.459 C 186.610 37.501,186.500 37.677,186.487 38.292 C 186.469 39.119,186.116 41.106,185.958 41.264 C 185.774 41.448,185.806 46.138,185.994 46.489 C 186.082 46.654,186.244 47.493,186.353 48.353 C 186.462 49.213,186.640 49.992,186.748 50.083 C 186.857 50.175,187.020 50.475,187.111 50.750 C 187.451 51.780,189.474 51.391,189.494 50.292 C 189.498 50.131,189.638 49.862,189.807 49.693 C 190.032 49.468,190.146 49.011,190.231 47.986 C 190.295 47.216,190.457 46.419,190.591 46.216 C 190.941 45.681,190.940 41.059,190.589 40.559 C 190.455 40.367,190.293 39.594,190.230 38.840 C 190.159 37.985,190.037 37.440,189.907 37.390 C 189.791 37.346,189.604 37.083,189.489 36.807 C 189.299 36.348,188.777 36.000,188.281 36.000 C 188.172 36.000,187.881 36.207,187.634 36.459 " stroke="none" fill="#64ac34" fill-rule="evenodd"></path></g></svg>