<svg id="svg" version="1.1" xmlns="http://www.w3.org/2000/svg" xmlns:xlink="http://www.w3.org/1999/xlink" width="400" height="158.6206896551724" viewBox="0, 0, 400,158.6206896551724"><g id="svgg"><path id="path0" d="M28.424 21.488 C 28.310 21.673,28.573 21.872,28.727 21.718 C 28.885 21.559,28.856 21.333,28.677 21.333 C 28.590 21.333,28.477 21.403,28.424 21.488 M132.578 59.971 C 131.767 60.141,131.045 60.405,130.745 60.641 C 130.473 60.855,130.006 61.132,129.708 61.257 C 129.410 61.381,129.167 61.602,129.167 61.747 C 129.167 62.059,128.682 62.860,128.378 63.051 C 128.260 63.124,128.015 63.478,127.832 63.837 C 127.649 64.195,127.365 64.561,127.201 64.648 C 127.037 64.736,126.808 65.178,126.692 65.632 C 126.575 66.088,126.304 66.610,126.087 66.799 C 125.794 67.054,125.666 67.388,125.583 68.112 C 125.521 68.646,125.319 69.683,125.133 70.417 C 124.619 72.440,124.569 73.689,124.969 74.543 C 125.151 74.932,125.350 75.813,125.410 76.500 C 125.547 78.072,125.771 78.940,126.067 79.054 C 126.194 79.103,126.494 79.542,126.733 80.030 C 127.172 80.927,127.782 81.875,128.214 82.333 C 128.674 82.822,129.889 83.833,130.016 83.833 C 130.086 83.833,130.188 83.972,130.242 84.141 C 130.296 84.311,130.507 84.527,130.712 84.622 C 131.478 84.979,133.479 87.014,133.676 87.638 C 133.783 87.974,133.983 88.340,134.121 88.449 C 134.530 88.774,134.598 90.078,134.234 90.622 C 134.064 90.876,133.803 91.308,133.653 91.583 C 133.002 92.782,128.574 92.801,127.583 91.610 C 127.400 91.390,127.085 91.124,126.884 91.020 C 126.682 90.916,126.385 90.606,126.223 90.332 C 125.993 89.943,125.811 89.833,125.392 89.833 C 124.935 89.833,124.845 89.766,124.786 89.375 C 124.748 89.123,124.705 91.521,124.692 94.705 L 124.667 100.493 125.370 100.852 C 125.757 101.049,126.270 101.356,126.511 101.534 C 128.015 102.646,135.543 102.552,137.262 101.400 C 137.727 101.088,138.178 100.833,138.265 100.833 C 138.351 100.833,138.831 100.378,139.330 99.821 C 139.830 99.265,140.447 98.686,140.703 98.536 C 140.958 98.385,141.167 98.138,141.167 97.987 C 141.167 97.836,141.384 97.463,141.649 97.159 C 141.915 96.855,142.221 96.301,142.330 95.928 C 142.440 95.555,142.710 94.936,142.932 94.552 C 144.118 92.499,144.019 85.324,142.770 82.829 C 142.438 82.165,142.167 81.525,142.167 81.406 C 142.167 81.287,141.942 81.029,141.667 80.833 C 141.392 80.638,141.166 80.389,141.164 80.280 C 141.163 80.172,140.757 79.671,140.263 79.167 C 139.416 78.303,139.068 78.000,137.958 77.157 C 137.706 76.966,137.500 76.702,137.500 76.571 C 137.500 76.440,137.393 76.333,137.263 76.333 C 136.926 76.333,136.090 75.594,135.146 74.459 C 133.805 72.848,134.137 70.280,135.766 69.660 C 137.096 69.155,139.905 69.660,140.540 70.519 C 140.736 70.783,140.989 71.000,141.103 71.000 C 141.216 71.000,141.457 71.188,141.637 71.417 C 142.479 72.488,142.667 71.520,142.667 66.094 L 142.667 61.511 141.792 60.869 C 140.221 59.718,135.833 59.291,132.578 59.971 M243.504 59.943 C 242.297 60.107,241.653 60.274,241.420 60.486 C 240.959 60.904,240.421 61.167,240.023 61.167 C 239.840 61.167,239.530 61.371,239.333 61.622 C 239.136 61.872,238.798 62.153,238.582 62.247 C 237.946 62.522,236.162 64.304,235.903 64.923 C 235.772 65.237,235.478 65.616,235.249 65.766 C 235.020 65.916,234.833 66.145,234.833 66.276 C 234.833 66.597,234.193 67.833,234.027 67.833 C 233.954 67.833,233.760 68.260,233.595 68.782 C 233.431 69.304,233.151 69.927,232.973 70.168 C 232.795 70.408,232.549 71.163,232.426 71.844 C 232.304 72.526,232.026 73.458,231.810 73.917 C 231.418 74.746,231.417 74.779,231.417 81.000 L 231.417 87.250 231.853 88.250 C 232.109 88.837,232.331 89.725,232.391 90.402 C 232.463 91.220,232.609 91.728,232.894 92.152 C 233.115 92.481,233.432 93.200,233.599 93.750 C 233.767 94.304,234.067 94.881,234.272 95.044 C 234.475 95.205,234.688 95.551,234.745 95.812 C 234.803 96.074,235.015 96.436,235.217 96.618 C 235.418 96.800,236.123 97.546,236.783 98.275 C 237.443 99.004,238.193 99.710,238.450 99.842 C 238.706 99.975,239.011 100.209,239.126 100.362 C 239.240 100.516,239.615 100.731,239.959 100.841 C 240.302 100.950,240.787 101.230,241.036 101.462 C 242.303 102.645,249.178 102.589,250.793 101.383 C 251.709 100.698,251.822 100.502,251.828 99.582 C 251.831 99.123,251.919 98.486,252.025 98.166 C 252.130 97.845,252.276 96.383,252.351 94.917 C 252.425 93.450,252.535 91.791,252.595 91.230 C 252.719 90.063,252.482 89.695,252.009 90.321 C 251.856 90.524,251.462 90.854,251.133 91.053 C 250.805 91.253,250.325 91.567,250.066 91.750 C 249.656 92.042,249.330 92.083,247.465 92.083 L 245.332 92.083 244.817 91.583 C 243.232 90.044,242.337 88.990,242.221 88.526 C 242.163 88.295,241.945 87.855,241.737 87.548 C 241.478 87.166,241.328 86.639,241.262 85.871 C 241.208 85.254,241.080 84.037,240.978 83.167 C 240.616 80.085,241.198 74.000,241.855 74.000 C 241.930 74.000,242.110 73.589,242.256 73.086 C 243.071 70.283,246.507 68.842,250.053 69.814 C 250.759 70.008,251.562 70.167,251.838 70.167 L 252.338 70.167 252.294 65.211 L 252.250 60.255 251.083 59.974 C 249.620 59.623,245.977 59.608,243.504 59.943 M148.708 60.110 C 148.416 60.228,148.402 100.602,148.693 101.242 L 148.887 101.667 157.500 101.667 L 166.113 101.667 166.307 101.242 C 166.636 100.518,166.573 92.397,166.236 92.268 C 166.091 92.212,164.383 92.167,162.440 92.167 C 157.769 92.167,158.166 92.497,158.169 88.616 C 158.173 84.616,157.937 84.836,162.219 84.828 C 164.336 84.824,165.159 84.765,165.375 84.601 C 165.798 84.280,165.824 76.430,165.403 76.268 C 165.258 76.212,163.792 76.167,162.145 76.167 C 159.786 76.167,159.046 76.113,158.658 75.912 L 158.167 75.658 158.167 72.988 C 158.167 69.268,157.875 69.500,162.549 69.500 L 166.113 69.500 166.307 69.075 C 166.636 68.352,166.573 60.230,166.236 60.101 C 165.921 59.980,149.009 59.989,148.708 60.110 M178.594 60.150 C 178.543 60.232,178.422 60.869,178.325 61.565 C 178.229 62.261,178.002 63.164,177.821 63.572 C 177.641 63.980,177.381 65.162,177.245 66.199 C 177.108 67.235,176.888 68.308,176.756 68.583 C 176.409 69.307,176.201 70.244,176.075 71.667 C 176.010 72.385,175.787 73.342,175.549 73.917 C 175.270 74.589,175.092 75.435,175.004 76.500 C 174.930 77.401,174.717 78.514,174.510 79.083 C 174.118 80.156,173.952 80.891,173.674 82.789 C 173.577 83.451,173.355 84.276,173.181 84.622 C 173.007 84.967,172.816 85.775,172.756 86.417 C 172.582 88.298,172.337 89.483,171.978 90.171 C 171.755 90.599,171.590 91.390,171.485 92.532 C 171.379 93.686,171.185 94.606,170.896 95.333 C 170.621 96.023,170.416 96.962,170.331 97.917 C 170.258 98.742,170.116 99.628,170.016 99.886 C 169.373 101.540,169.702 101.667,174.661 101.667 C 179.432 101.667,178.919 101.863,179.505 99.817 C 180.612 95.954,180.133 96.333,183.911 96.333 C 187.527 96.333,187.392 96.269,187.746 98.167 C 188.126 100.203,188.287 100.693,188.744 101.208 L 189.151 101.667 193.155 101.667 L 197.159 101.667 197.427 101.258 C 197.789 100.705,197.474 96.798,196.980 95.708 C 196.563 94.789,196.333 93.554,196.333 92.224 C 196.333 91.461,196.212 90.866,195.904 90.122 C 195.604 89.394,195.429 88.560,195.322 87.333 C 195.156 85.434,194.908 84.154,194.579 83.500 C 194.464 83.271,194.243 81.958,194.089 80.583 C 193.925 79.129,193.706 77.925,193.564 77.704 C 193.268 77.243,193.067 76.165,192.828 73.752 C 192.729 72.745,192.550 71.808,192.430 71.669 C 192.110 71.296,191.875 70.126,191.744 68.250 C 191.672 67.212,191.512 66.324,191.320 65.897 C 190.891 64.941,190.676 63.915,190.671 62.800 C 190.669 62.277,190.588 61.481,190.491 61.030 L 190.315 60.211 189.449 60.107 C 188.098 59.945,178.698 59.982,178.594 60.150 M217.750 60.080 C 217.658 60.112,217.377 60.183,217.125 60.239 L 216.667 60.340 216.667 80.470 L 216.667 100.601 217.216 101.134 L 217.766 101.667 221.873 101.667 L 225.980 101.667 226.080 100.958 C 226.135 100.569,226.158 91.212,226.132 80.167 L 226.083 60.083 222.000 60.053 C 219.754 60.037,217.842 60.049,217.750 60.080 M257.792 60.180 C 257.365 60.429,257.336 100.287,257.762 101.141 L 258.024 101.667 266.669 101.667 C 273.402 101.667,275.343 101.621,275.448 101.458 C 275.609 101.210,275.742 93.156,275.595 92.571 L 275.494 92.167 271.330 92.167 C 265.984 92.167,266.442 92.517,266.525 88.486 C 266.606 84.592,266.200 84.939,270.798 84.833 L 274.417 84.750 274.461 80.470 L 274.506 76.190 270.821 76.137 C 266.190 76.070,266.500 76.295,266.500 72.992 C 266.500 69.364,266.301 69.500,271.598 69.500 C 274.388 69.500,275.347 69.448,275.448 69.292 C 275.683 68.929,275.726 60.522,275.494 60.243 C 275.245 59.943,258.302 59.883,257.792 60.180 M184.790 71.542 C 185.023 71.837,185.177 73.413,185.348 77.250 C 185.519 81.085,185.710 83.169,185.966 84.000 C 186.910 87.060,186.479 87.833,183.827 87.833 C 181.967 87.833,181.726 87.745,181.447 86.958 C 181.280 86.487,181.785 82.664,182.054 82.357 C 182.219 82.170,182.376 81.146,182.555 79.109 C 182.734 77.071,182.897 76.011,183.074 75.740 C 183.217 75.523,183.333 75.240,183.333 75.111 C 183.333 74.982,183.483 74.407,183.667 73.833 C 183.850 73.259,184.000 72.552,184.000 72.262 C 184.000 71.505,184.443 71.101,184.790 71.542 M31.672 142.167 C 31.672 142.454,31.950 142.946,32.046 142.829 C 32.082 142.785,32.012 142.563,31.891 142.333 C 31.770 142.104,31.672 142.029,31.672 142.167 M32.872 143.698 C 32.908 143.807,33.027 143.926,33.136 143.962 C 33.257 144.002,33.295 143.926,33.232 143.764 C 33.116 143.461,32.772 143.398,32.872 143.698 " stroke="none" fill="#fafafb" fill-rule="evenodd"></path><path id="path1" d="M51.213 8.024 C 51.165 8.706,51.442 8.641,48.329 8.699 C 45.590 8.750,45.583 8.751,45.564 9.136 C 45.533 9.751,45.340 9.821,43.602 9.847 C 42.596 9.862,42.047 9.928,42.188 10.016 C 42.380 10.139,42.381 10.162,42.189 10.164 C 42.038 10.166,41.987 10.303,42.038 10.570 C 42.107 10.927,42.057 10.972,41.599 10.963 C 40.134 10.937,39.835 11.031,39.697 11.563 C 39.572 12.044,39.519 12.073,38.692 12.093 C 37.869 12.113,37.132 12.576,37.437 12.881 C 37.487 12.932,37.391 13.047,37.223 13.137 C 36.896 13.312,36.807 13.333,36.417 13.333 C 36.279 13.333,36.167 13.441,36.167 13.573 C 36.167 13.706,36.099 13.856,36.016 13.907 C 35.932 13.958,35.907 13.838,35.959 13.639 C 36.035 13.346,35.998 13.298,35.763 13.389 C 35.603 13.450,35.423 13.501,35.361 13.503 C 35.300 13.504,35.362 13.578,35.500 13.667 C 35.709 13.801,35.696 13.829,35.426 13.831 C 35.106 13.833,35.106 13.836,35.426 14.096 C 35.604 14.240,35.664 14.315,35.559 14.263 C 35.454 14.211,35.328 14.275,35.278 14.404 C 35.184 14.648,34.897 14.666,34.553 14.451 C 34.445 14.383,34.297 14.423,34.225 14.539 C 34.030 14.851,34.008 15.167,34.181 15.167 C 34.265 15.167,34.333 15.246,34.333 15.343 C 34.333 15.440,34.258 15.473,34.167 15.417 C 34.075 15.360,34.000 15.398,34.000 15.500 C 34.000 15.602,33.921 15.637,33.824 15.577 C 33.455 15.349,32.917 15.643,32.892 16.087 C 32.862 16.614,32.837 16.642,32.323 16.725 C 32.073 16.765,31.925 16.895,31.940 17.060 C 31.952 17.208,31.896 17.289,31.815 17.238 C 31.733 17.188,31.667 17.339,31.667 17.573 C 31.667 17.808,31.588 18.000,31.492 18.000 C 31.082 18.000,30.500 18.889,30.500 19.514 C 30.500 20.105,30.465 20.149,29.958 20.198 C 29.473 20.245,29.411 20.310,29.363 20.833 C 29.334 21.154,29.229 21.492,29.130 21.583 C 29.007 21.698,28.988 21.685,29.069 21.542 C 29.133 21.427,29.107 21.333,29.010 21.333 C 28.913 21.333,28.833 21.456,28.833 21.607 C 28.833 21.757,28.702 21.987,28.542 22.119 C 28.381 22.250,28.344 22.311,28.458 22.253 C 28.573 22.194,28.667 22.226,28.667 22.323 C 28.667 22.421,28.554 22.500,28.417 22.500 C 28.243 22.500,28.167 22.675,28.167 23.073 C 28.167 23.638,27.922 24.017,27.798 23.645 C 27.756 23.519,27.647 23.544,27.471 23.720 C 27.325 23.865,27.173 23.951,27.132 23.909 C 27.091 23.868,27.063 24.003,27.070 24.209 C 27.077 24.415,27.158 24.638,27.250 24.706 C 27.355 24.783,27.345 24.829,27.222 24.831 C 27.095 24.832,27.025 25.192,27.022 25.860 C 27.017 26.821,26.811 27.276,26.475 27.068 C 26.210 26.904,25.938 27.803,25.896 28.980 C 25.852 30.222,25.737 30.792,25.566 30.621 C 25.514 30.570,25.328 30.672,25.153 30.847 C 24.790 31.210,24.730 31.415,25.042 31.228 C 25.178 31.146,25.169 31.202,25.017 31.390 C 24.739 31.732,24.634 32.667,24.873 32.667 C 24.985 32.667,24.984 32.737,24.871 32.875 C 24.774 32.994,24.700 34.114,24.697 35.500 C 24.688 41.157,24.662 42.000,24.500 42.000 C 24.408 42.000,24.183 42.150,24.000 42.333 C 23.672 42.661,23.547 42.927,23.792 42.776 C 23.860 42.733,23.917 42.872,23.917 43.083 C 23.917 43.295,23.860 43.433,23.792 43.391 C 23.723 43.348,23.667 43.387,23.667 43.476 C 23.667 43.566,23.760 43.677,23.875 43.723 C 24.035 43.788,24.033 43.810,23.865 43.820 C 23.745 43.827,23.696 43.912,23.755 44.008 C 23.828 44.126,23.951 44.112,24.130 43.966 C 24.330 43.804,24.366 43.802,24.272 43.958 C 24.193 44.089,24.243 44.167,24.407 44.167 C 24.641 44.167,24.667 47.867,24.673 82.208 C 24.681 126.562,24.680 126.336,24.852 126.683 C 24.930 126.839,24.902 127.037,24.784 127.162 C 24.629 127.327,24.629 127.392,24.782 127.448 C 24.892 127.489,24.946 127.613,24.904 127.724 C 24.856 127.848,25.001 127.941,25.274 127.964 C 25.886 128.014,25.857 127.916,25.876 129.993 C 25.885 131.014,25.950 131.886,26.022 131.930 C 26.094 131.974,26.114 132.111,26.067 132.233 C 26.017 132.363,26.125 132.494,26.324 132.546 C 26.517 132.596,26.667 132.555,26.667 132.451 C 26.667 131.790,26.986 132.754,27.014 133.500 C 27.065 134.849,27.117 134.976,27.603 134.923 C 28.102 134.868,28.136 134.943,28.201 136.232 C 28.248 137.175,28.268 137.215,28.727 137.264 C 29.349 137.330,29.323 137.281,29.368 138.470 L 29.406 139.500 29.953 139.500 C 30.381 139.500,30.500 139.570,30.500 139.820 C 30.500 140.426,30.694 140.667,31.184 140.667 C 31.685 140.667,31.728 140.802,31.726 142.367 C 31.725 142.523,31.788 142.612,31.864 142.564 C 31.940 142.517,32.047 142.596,32.102 142.739 C 32.157 142.883,32.274 143.000,32.361 143.000 C 32.448 143.000,32.469 142.918,32.406 142.817 C 32.328 142.690,32.403 142.692,32.651 142.825 C 32.848 142.930,32.967 143.085,32.916 143.168 C 32.865 143.251,32.989 143.509,33.191 143.743 C 33.579 144.188,33.833 144.287,33.833 143.990 C 33.833 143.893,33.747 143.867,33.641 143.933 C 33.514 144.011,33.494 143.978,33.583 143.834 C 33.760 143.548,34.186 144.090,34.054 144.433 C 34.005 144.561,34.047 144.667,34.149 144.667 C 34.250 144.667,34.333 144.781,34.333 144.920 C 34.333 145.100,34.455 145.151,34.753 145.097 C 34.990 145.054,35.131 145.089,35.077 145.177 C 35.024 145.263,35.247 145.333,35.573 145.333 C 36.150 145.333,36.240 145.453,36.152 146.106 C 36.126 146.301,36.577 146.495,37.061 146.497 C 37.447 146.500,37.523 146.561,37.457 146.815 C 37.322 147.328,37.555 147.500,38.511 147.594 C 39.756 147.716,39.826 147.753,39.737 148.241 C 39.660 148.666,39.663 148.667,40.875 148.667 L 42.089 148.667 42.063 149.229 L 42.036 149.792 43.632 149.821 C 45.452 149.855,45.500 149.871,45.500 150.436 C 45.500 150.672,45.573 150.808,45.667 150.750 C 45.758 150.693,45.833 150.732,45.833 150.835 C 45.833 150.939,46.002 151.010,46.208 150.993 C 47.257 150.909,50.388 151.023,50.205 151.140 C 50.088 151.213,50.021 151.456,50.055 151.679 L 50.117 152.083 199.475 152.125 C 309.865 152.156,348.833 152.118,348.833 151.980 C 348.833 151.846,348.902 151.850,349.072 151.991 C 349.408 152.269,350.145 151.569,349.826 151.275 C 349.665 151.127,349.648 151.140,349.752 151.333 C 349.826 151.471,349.825 151.528,349.750 151.460 C 349.675 151.392,349.510 151.422,349.383 151.528 C 349.208 151.673,349.104 151.667,348.951 151.502 C 348.793 151.330,348.796 151.311,348.969 151.409 C 349.098 151.482,349.271 151.423,349.386 151.267 C 349.548 151.049,349.975 150.997,351.750 150.979 C 353.148 150.966,353.960 150.892,354.039 150.771 C 354.121 150.645,354.162 150.662,354.164 150.824 C 354.166 150.996,354.236 150.972,354.411 150.740 C 354.740 150.306,354.728 150.154,354.375 150.288 C 354.107 150.389,354.105 150.376,354.350 150.128 C 354.552 149.925,355.022 149.845,356.267 149.804 L 357.917 149.750 357.903 149.208 L 357.890 148.667 358.903 148.664 C 359.853 148.662,360.380 148.519,360.348 148.273 C 360.273 147.714,360.707 147.472,361.865 147.426 C 362.388 147.406,362.709 147.172,362.236 147.156 C 361.958 147.147,361.965 147.126,362.292 146.995 C 362.498 146.912,362.667 146.767,362.667 146.672 C 362.667 146.577,362.737 146.500,362.822 146.500 C 363.301 146.500,363.895 146.141,363.661 145.993 C 363.515 145.901,363.496 145.837,363.613 145.836 C 363.721 145.834,363.834 145.702,363.865 145.542 C 363.900 145.359,364.073 145.250,364.329 145.250 C 364.647 145.250,364.772 145.130,364.893 144.708 C 364.993 144.359,365.153 144.167,365.344 144.167 C 365.926 144.167,366.167 143.966,366.167 143.482 C 366.167 143.058,366.226 143.000,366.667 143.000 C 367.127 143.000,367.167 142.954,367.167 142.417 C 367.167 142.071,367.251 141.826,367.375 141.816 C 367.490 141.806,367.733 141.787,367.917 141.774 C 368.165 141.756,368.263 141.611,368.302 141.208 C 368.350 140.714,368.404 140.667,368.917 140.667 C 369.447 140.667,369.483 140.630,369.532 140.042 C 369.575 139.516,369.639 139.424,369.933 139.464 C 370.485 139.540,370.795 139.054,370.400 138.732 C 370.226 138.591,370.169 138.518,370.274 138.570 C 370.544 138.704,370.724 138.139,370.464 137.974 C 370.297 137.869,370.296 137.838,370.458 137.836 C 370.573 137.834,370.667 137.675,370.667 137.482 C 370.667 137.230,370.741 137.160,370.930 137.232 C 371.187 137.331,371.766 137.041,371.811 136.792 C 371.823 136.723,371.833 136.251,371.833 135.743 C 371.833 135.100,371.897 134.827,372.042 134.846 C 372.436 134.897,372.667 134.833,372.667 134.672 C 372.667 134.583,372.535 134.557,372.375 134.613 C 372.142 134.695,372.124 134.672,372.285 134.498 C 372.440 134.331,372.540 134.326,372.721 134.476 C 372.909 134.632,372.957 134.612,372.956 134.378 C 372.945 132.114,373.012 131.500,373.268 131.500 C 373.424 131.500,373.500 131.406,373.449 131.275 C 373.390 131.120,373.481 131.062,373.741 131.091 C 374.116 131.132,374.120 131.110,374.150 129.024 C 374.167 127.852,374.252 126.892,374.342 126.861 C 374.430 126.830,374.455 126.729,374.398 126.636 C 374.340 126.543,374.461 126.557,374.667 126.667 C 374.872 126.777,374.993 126.791,374.936 126.698 C 374.878 126.605,374.925 126.497,375.041 126.459 C 375.336 126.360,375.351 32.917,375.056 32.917 C 374.949 32.917,374.810 32.866,374.748 32.803 C 374.685 32.741,374.529 32.730,374.400 32.779 C 374.208 32.853,374.166 32.519,374.164 30.893 C 374.162 28.399,374.103 28.167,373.481 28.167 L 373.000 28.167 372.997 26.625 C 372.995 24.993,372.925 24.748,372.458 24.724 C 372.298 24.715,372.092 24.699,372.000 24.688 C 371.908 24.676,371.833 24.291,371.833 23.831 C 371.833 22.790,371.592 22.362,371.060 22.464 C 370.695 22.533,370.475 21.379,370.647 20.292 C 370.658 20.223,370.610 20.176,370.542 20.186 C 369.767 20.309,369.500 20.154,369.500 19.583 C 369.500 19.028,369.472 19.000,368.917 19.000 C 368.295 19.000,368.284 18.969,368.288 17.295 C 368.289 17.137,368.224 17.048,368.145 17.097 C 368.065 17.146,367.995 17.051,367.989 16.885 C 367.981 16.642,367.950 16.656,367.828 16.958 C 367.745 17.165,367.640 17.333,367.594 17.333 C 367.548 17.333,367.555 17.218,367.609 17.076 C 367.687 16.873,367.613 16.837,367.257 16.901 C 366.886 16.968,366.841 16.942,367.000 16.750 C 367.339 16.342,366.846 15.571,366.289 15.637 C 365.932 15.679,365.856 15.634,365.936 15.427 C 366.013 15.226,365.963 15.189,365.727 15.271 C 365.437 15.371,365.437 15.362,365.738 15.128 C 366.133 14.821,365.620 14.442,364.750 14.398 C 364.475 14.384,364.156 14.364,364.042 14.353 C 363.927 14.342,363.832 14.165,363.831 13.958 C 363.827 13.476,363.657 13.243,363.292 13.224 C 362.597 13.187,362.515 13.155,362.592 12.954 C 362.637 12.836,362.554 12.593,362.408 12.412 C 362.262 12.231,362.199 12.196,362.270 12.333 C 362.381 12.551,362.360 12.553,362.107 12.347 C 361.947 12.217,361.538 12.097,361.200 12.079 C 360.320 12.033,360.333 12.040,360.333 11.591 C 360.333 11.163,360.386 11.183,358.554 10.904 C 358.130 10.839,358.003 10.724,357.916 10.328 C 357.825 9.915,357.725 9.833,357.310 9.833 C 356.961 9.833,356.849 9.895,356.931 10.042 C 357.025 10.208,357.004 10.208,356.824 10.042 C 356.695 9.922,356.163 9.833,355.568 9.833 C 354.789 9.833,354.511 9.770,354.436 9.575 C 354.375 9.413,354.405 9.358,354.519 9.428 C 354.649 9.508,354.650 9.446,354.522 9.209 C 354.425 9.026,354.386 8.836,354.436 8.787 C 354.485 8.737,353.267 8.686,351.729 8.675 C 348.629 8.651,348.825 8.686,348.791 8.144 C 348.777 7.927,348.687 7.695,348.591 7.627 C 348.495 7.560,281.554 7.504,199.833 7.504 L 51.250 7.502 51.213 8.024 M31.628 18.698 C 31.525 19.007,31.167 19.058,31.167 18.764 C 31.167 18.619,31.285 18.500,31.431 18.500 C 31.576 18.500,31.665 18.589,31.628 18.698 M139.633 58.863 C 140.012 59.182,140.437 59.341,141.123 59.422 C 141.935 59.518,142.174 59.630,142.670 60.143 C 142.993 60.477,143.405 60.833,143.587 60.935 C 144.122 61.235,144.099 72.976,143.562 73.512 C 143.168 73.906,142.640 73.762,142.199 73.140 C 142.079 72.971,141.870 72.833,141.735 72.833 C 141.600 72.833,141.336 72.574,141.149 72.257 C 140.962 71.941,140.664 71.635,140.486 71.579 C 140.308 71.523,140.049 71.257,139.911 70.988 L 139.658 70.500 137.866 70.500 L 136.073 70.500 135.879 71.013 C 135.773 71.295,135.531 71.567,135.343 71.616 C 134.781 71.763,134.874 72.749,135.500 73.276 C 135.775 73.507,136.000 73.806,136.000 73.939 C 136.000 74.073,136.225 74.310,136.499 74.466 C 136.773 74.622,136.998 74.846,136.999 74.964 C 137.000 75.082,137.269 75.336,137.597 75.530 C 137.925 75.724,138.257 76.048,138.334 76.251 C 138.421 76.480,138.670 76.659,138.989 76.723 C 139.318 76.789,139.573 76.978,139.695 77.246 C 139.801 77.477,139.956 77.667,140.042 77.667 C 140.310 77.667,141.658 79.157,141.761 79.567 C 141.815 79.782,142.039 80.040,142.258 80.140 C 142.478 80.240,142.764 80.577,142.894 80.889 C 143.025 81.201,143.277 81.560,143.455 81.687 C 143.817 81.943,143.923 82.281,144.154 83.911 C 144.242 84.529,144.423 85.158,144.557 85.309 C 145.392 86.250,145.355 90.913,144.500 92.500 C 144.376 92.729,144.179 93.514,144.062 94.243 C 143.913 95.173,143.753 95.647,143.527 95.827 C 143.351 95.968,143.082 96.466,142.931 96.934 C 142.741 97.522,142.529 97.843,142.245 97.972 C 142.018 98.075,141.833 98.276,141.833 98.419 C 141.833 98.647,141.281 99.329,140.432 100.147 C 140.278 100.295,139.916 100.660,139.629 100.958 C 139.341 101.256,138.983 101.500,138.834 101.500 C 138.685 101.500,138.402 101.718,138.205 101.983 C 137.924 102.364,137.669 102.491,137.000 102.583 C 136.451 102.659,135.968 102.855,135.628 103.142 L 135.103 103.583 132.010 103.583 C 128.926 103.583,128.915 103.582,128.250 103.134 C 127.826 102.848,127.250 102.646,126.667 102.578 C 125.352 102.425,124.771 102.216,124.316 101.732 L 123.917 101.307 123.917 94.810 L 123.917 88.314 124.327 88.005 C 124.806 87.643,125.521 87.997,125.873 88.771 C 125.972 88.988,126.149 89.167,126.265 89.167 C 126.381 89.167,126.629 89.361,126.815 89.598 C 127.002 89.836,127.495 90.255,127.911 90.531 C 128.327 90.806,128.667 91.094,128.667 91.169 C 128.667 91.685,132.534 91.817,132.847 91.312 C 133.441 90.350,133.064 87.500,132.342 87.500 C 132.268 87.500,132.120 87.290,132.014 87.034 C 131.903 86.766,131.607 86.487,131.314 86.377 C 131.035 86.272,130.768 86.038,130.721 85.857 C 130.674 85.676,130.447 85.481,130.217 85.423 C 129.959 85.358,129.728 85.130,129.613 84.826 C 129.511 84.555,129.325 84.333,129.201 84.333 C 129.076 84.333,128.763 84.122,128.506 83.865 C 128.248 83.607,127.841 83.268,127.602 83.111 C 127.362 82.954,127.167 82.714,127.167 82.578 C 127.167 82.442,126.981 82.170,126.754 81.973 C 126.527 81.775,126.256 81.345,126.151 81.015 C 126.046 80.686,125.753 80.192,125.499 79.917 C 125.189 79.580,125.000 79.149,124.922 78.599 C 124.845 78.064,124.681 77.680,124.448 77.491 C 123.603 76.807,123.623 69.650,124.473 68.501 C 124.674 68.229,124.884 67.648,124.939 67.211 C 125.042 66.401,125.379 65.687,125.770 65.454 C 125.889 65.383,126.036 65.060,126.097 64.736 C 126.160 64.399,126.366 64.043,126.580 63.903 C 126.785 63.769,127.092 63.321,127.262 62.909 C 127.433 62.496,127.749 62.042,127.966 61.900 C 128.182 61.758,128.436 61.423,128.529 61.154 C 128.632 60.861,128.818 60.667,128.997 60.667 C 129.160 60.667,129.488 60.411,129.726 60.100 C 130.082 59.633,130.307 59.512,130.993 59.418 C 131.452 59.355,132.026 59.146,132.270 58.955 C 133.287 58.155,138.712 58.087,139.633 58.863 M251.284 58.798 C 251.578 59.008,252.103 59.278,252.451 59.398 L 253.083 59.617 253.127 65.444 L 253.171 71.271 252.769 71.649 C 252.398 71.998,252.331 72.008,251.892 71.786 C 251.631 71.655,251.223 71.501,250.987 71.444 C 250.751 71.388,250.471 71.152,250.365 70.921 L 250.174 70.500 247.780 70.500 L 245.387 70.500 245.195 70.920 C 245.090 71.151,244.819 71.410,244.593 71.496 C 244.367 71.582,244.067 71.877,243.925 72.151 C 243.783 72.426,243.550 72.716,243.407 72.795 C 243.262 72.877,243.031 73.450,242.884 74.095 C 242.739 74.730,242.451 75.474,242.244 75.750 C 241.504 76.735,241.470 84.547,242.202 85.333 C 242.412 85.558,242.601 86.114,242.712 86.834 C 242.862 87.804,242.987 88.085,243.531 88.680 C 243.884 89.066,244.214 89.540,244.264 89.733 C 244.633 91.150,249.838 91.154,251.296 89.738 C 251.927 89.125,252.410 89.026,252.926 89.403 C 253.291 89.669,253.281 89.427,253.208 96.716 L 253.167 100.849 252.369 101.647 C 251.670 102.346,251.459 102.458,250.674 102.551 C 250.013 102.630,249.651 102.779,249.295 103.120 L 248.812 103.583 245.917 103.583 L 243.022 103.583 242.553 103.142 C 242.225 102.834,241.818 102.665,241.201 102.584 C 240.494 102.490,240.248 102.371,239.961 101.983 C 239.765 101.718,239.449 101.500,239.260 101.499 C 238.872 101.499,237.833 100.913,237.833 100.695 C 237.833 100.617,237.568 100.409,237.243 100.235 C 236.918 100.060,236.609 99.743,236.555 99.530 C 236.502 99.317,236.278 99.074,236.059 98.991 C 235.840 98.907,235.591 98.657,235.506 98.433 C 235.421 98.210,235.142 97.926,234.885 97.803 C 234.531 97.634,234.359 97.371,234.172 96.716 C 234.026 96.201,233.816 95.824,233.652 95.781 C 233.501 95.742,233.241 95.343,233.075 94.896 C 232.910 94.449,232.641 93.953,232.478 93.793 C 232.144 93.464,231.836 92.491,231.834 91.759 C 231.834 91.489,231.644 90.994,231.412 90.660 C 230.906 89.930,230.669 88.629,230.668 86.579 C 230.667 85.415,230.601 84.981,230.375 84.662 C 230.122 84.305,230.083 83.831,230.083 81.083 C 230.083 78.382,230.126 77.838,230.375 77.383 C 230.592 76.987,230.669 76.451,230.674 75.300 C 230.683 73.286,230.851 72.475,231.392 71.832 C 231.707 71.458,231.833 71.118,231.833 70.649 C 231.833 69.864,232.217 68.867,232.571 68.732 C 232.710 68.678,232.874 68.360,232.934 68.026 C 233.073 67.257,233.376 66.665,233.820 66.293 C 234.011 66.134,234.167 65.893,234.167 65.757 C 234.167 65.622,234.392 65.255,234.667 64.942 C 234.943 64.628,235.279 64.106,235.414 63.781 C 235.550 63.457,235.807 63.145,235.985 63.088 C 236.163 63.032,236.456 62.736,236.635 62.432 C 236.830 62.102,237.151 61.832,237.432 61.761 C 237.691 61.696,238.187 61.386,238.535 61.071 C 238.883 60.757,239.301 60.500,239.463 60.500 C 239.626 60.500,239.949 60.284,240.180 60.020 C 240.526 59.627,240.786 59.519,241.632 59.421 C 242.288 59.345,242.827 59.172,243.114 58.946 C 244.053 58.208,250.298 58.094,251.284 58.798 M167.237 59.821 L 167.667 60.225 167.667 64.776 L 167.667 69.327 167.097 69.914 L 166.528 70.500 162.759 70.500 L 158.991 70.500 159.037 72.958 L 159.083 75.417 162.723 75.500 C 167.446 75.608,167.001 75.099,166.998 80.393 C 166.994 86.056,167.058 85.981,162.216 85.993 L 159.182 86.000 159.083 86.542 C 159.029 86.840,159.006 88.058,159.034 89.250 L 159.083 91.417 162.945 91.500 C 166.750 91.582,166.814 91.589,167.237 91.987 L 167.667 92.391 167.667 96.914 L 167.667 101.436 167.226 101.968 L 166.785 102.500 157.500 102.500 L 148.215 102.500 147.774 101.968 L 147.333 101.436 147.333 80.830 L 147.333 60.225 147.708 59.884 C 148.300 59.345,148.125 59.354,157.695 59.386 L 166.807 59.417 167.237 59.821 M190.667 59.548 C 191.030 59.732,191.096 59.900,191.178 60.856 C 191.244 61.617,191.382 62.093,191.628 62.405 C 192.017 62.899,192.098 63.332,192.330 66.120 C 192.424 67.250,192.584 68.141,192.734 68.370 C 193.089 68.915,193.307 70.034,193.508 72.346 C 193.615 73.582,193.780 74.518,193.931 74.748 C 194.336 75.366,194.497 76.137,194.677 78.328 C 194.783 79.620,194.934 80.503,195.074 80.662 C 195.455 81.092,195.675 82.167,195.772 84.083 C 195.845 85.510,195.936 86.017,196.183 86.369 C 196.581 86.936,196.782 87.958,196.910 90.072 C 196.974 91.115,197.123 91.981,197.315 92.414 C 197.750 93.398,197.966 94.490,198.141 96.594 C 198.255 97.961,198.393 98.629,198.673 99.177 C 199.187 100.180,199.236 101.914,198.760 102.263 C 198.274 102.619,188.234 102.612,187.725 102.255 C 187.270 101.937,187.000 100.826,187.000 99.273 C 187.000 97.365,187.235 97.500,183.917 97.500 C 180.584 97.500,180.937 97.259,180.740 99.667 C 180.500 102.598,180.717 102.501,174.429 102.497 C 171.581 102.496,169.166 102.440,169.064 102.372 C 168.468 101.980,168.609 99.044,169.271 98.068 C 169.612 97.565,169.702 97.163,169.821 95.609 C 169.951 93.893,170.352 92.333,170.662 92.333 C 170.731 92.333,170.840 91.602,170.903 90.708 C 171.035 88.847,171.233 87.968,171.659 87.351 C 171.876 87.035,172.010 86.326,172.148 84.756 C 172.307 82.943,172.401 82.501,172.737 82.006 C 173.059 81.531,173.170 81.058,173.311 79.563 C 173.445 78.154,173.585 77.525,173.894 76.943 C 174.210 76.349,174.326 75.811,174.410 74.547 C 174.555 72.380,174.607 72.154,175.089 71.594 C 175.444 71.180,175.500 70.950,175.500 69.913 C 175.500 68.398,175.741 67.112,176.185 66.260 C 176.412 65.825,176.584 65.048,176.682 64.012 C 176.889 61.824,176.985 61.398,177.350 61.068 C 177.524 60.911,177.667 60.684,177.667 60.565 C 177.667 60.168,178.043 59.516,178.315 59.444 C 179.034 59.251,190.267 59.347,190.667 59.548 M226.463 59.593 L 226.833 59.852 226.828 80.884 C 226.824 98.109,226.783 101.969,226.601 102.208 C 226.212 102.721,216.456 102.648,216.093 102.130 C 215.742 101.629,215.692 60.247,216.042 59.794 C 216.444 59.272,225.749 59.093,226.463 59.593 M276.033 59.633 C 276.416 60.016,276.341 69.731,275.953 70.119 C 275.689 70.383,275.207 70.426,271.703 70.500 L 267.750 70.583 267.704 72.937 L 267.658 75.290 268.183 75.395 C 268.472 75.453,270.081 75.500,271.758 75.500 C 274.796 75.500,274.810 75.502,275.321 75.931 L 275.833 76.363 275.833 80.408 L 275.833 84.453 275.153 85.227 L 274.472 86.000 271.455 86.000 C 267.481 86.000,267.667 85.851,267.667 89.026 C 267.667 91.787,267.125 91.483,272.139 91.541 C 275.604 91.580,275.877 91.606,276.097 91.907 C 276.446 92.385,276.442 101.085,276.092 101.922 L 275.850 102.500 266.444 102.500 C 257.430 102.500,257.020 102.487,256.643 102.181 L 256.250 101.863 256.206 81.072 C 256.158 58.109,256.090 59.594,257.205 59.452 C 258.717 59.259,275.824 59.424,276.033 59.633 M184.104 77.724 C 183.955 77.968,183.712 78.364,183.564 78.606 C 183.370 78.924,183.256 79.744,183.151 81.565 C 182.974 84.642,182.884 85.238,182.468 86.058 C 182.061 86.861,182.097 86.892,183.523 86.973 C 185.058 87.060,184.969 87.386,184.796 82.257 C 184.636 77.496,184.557 76.983,184.104 77.724 " stroke="none" fill="#b4c4cc" fill-rule="evenodd"></path><path id="path2" d="M133.323 59.163 C 133.179 59.247,132.528 59.437,131.876 59.585 C 131.146 59.751,130.542 60.000,130.304 60.233 C 130.091 60.441,129.670 60.754,129.368 60.929 C 129.066 61.104,128.779 61.409,128.729 61.608 C 128.679 61.806,128.451 62.144,128.221 62.359 C 127.992 62.574,127.707 62.983,127.587 63.268 C 127.468 63.553,127.183 63.965,126.954 64.184 C 126.726 64.404,126.453 64.852,126.349 65.181 C 126.244 65.510,125.976 66.027,125.753 66.329 C 125.530 66.632,125.267 67.300,125.168 67.814 C 125.069 68.329,124.886 68.980,124.761 69.262 C 124.398 70.079,124.118 72.211,124.222 73.360 C 124.415 75.493,124.533 76.261,124.744 76.750 C 124.863 77.025,125.054 77.654,125.169 78.147 C 125.283 78.640,125.525 79.191,125.705 79.372 C 125.886 79.553,126.187 80.049,126.374 80.475 C 126.674 81.160,127.165 81.871,127.888 82.667 C 128.013 82.804,128.703 83.442,129.421 84.083 C 130.139 84.725,130.957 85.458,131.238 85.712 C 132.541 86.887,133.188 87.614,133.277 87.998 C 133.330 88.228,133.484 88.594,133.619 88.810 C 134.005 89.428,133.538 91.362,132.918 91.709 C 131.823 92.322,128.688 91.972,127.900 91.149 C 127.646 90.884,127.343 90.667,127.228 90.667 C 127.113 90.667,126.886 90.442,126.723 90.167 C 126.561 89.892,126.380 89.667,126.321 89.667 C 126.262 89.667,125.871 89.365,125.452 88.996 L 124.691 88.326 124.429 88.700 C 124.057 89.231,124.034 100.094,124.404 100.808 C 124.709 101.399,126.179 102.122,127.638 102.400 C 128.252 102.517,128.918 102.700,129.117 102.807 C 129.692 103.114,134.096 103.060,135.189 102.731 C 137.841 101.934,137.825 101.943,139.710 100.125 C 140.352 99.506,140.928 99.000,140.991 99.000 C 141.054 99.000,141.266 98.715,141.461 98.366 C 141.657 98.018,141.971 97.593,142.160 97.423 C 142.348 97.253,142.582 96.816,142.680 96.451 C 142.778 96.087,143.047 95.504,143.277 95.155 C 143.572 94.709,143.743 94.138,143.856 93.219 C 143.944 92.503,144.125 91.493,144.258 90.976 C 144.613 89.596,144.566 86.970,144.167 85.833 C 143.989 85.329,143.842 84.609,143.839 84.233 C 143.835 83.818,143.660 83.230,143.390 82.733 C 143.146 82.284,142.809 81.640,142.641 81.302 C 142.473 80.964,142.202 80.589,142.040 80.468 C 141.877 80.348,141.604 80.030,141.432 79.761 C 141.064 79.186,139.531 77.663,138.680 77.029 C 137.593 76.217,134.846 73.358,134.737 72.924 C 134.547 72.169,134.809 71.426,135.528 70.678 L 136.219 69.958 137.818 70.035 C 139.404 70.111,140.167 70.357,140.167 70.790 C 140.167 70.906,140.236 71.000,140.320 71.000 C 140.404 71.000,140.798 71.336,141.195 71.747 C 141.600 72.167,142.072 72.496,142.271 72.497 C 142.466 72.499,142.725 72.620,142.847 72.766 C 143.253 73.256,143.310 72.563,143.322 66.936 L 143.333 61.455 142.920 61.072 C 141.920 60.145,141.323 59.814,140.246 59.588 C 139.627 59.459,139.040 59.273,138.943 59.176 C 138.724 58.957,133.695 58.945,133.323 59.163 M244.140 59.172 C 243.988 59.261,243.313 59.439,242.640 59.569 C 241.446 59.798,240.056 60.469,238.917 61.365 C 238.642 61.581,238.204 61.866,237.944 61.998 C 237.391 62.279,235.500 64.252,235.500 64.548 C 235.500 64.659,235.237 65.045,234.917 65.405 C 234.596 65.766,234.333 66.141,234.333 66.239 C 234.332 66.337,234.108 66.754,233.833 67.167 C 233.559 67.579,233.334 68.023,233.334 68.152 C 233.334 68.282,233.116 68.732,232.850 69.152 C 232.585 69.573,232.245 70.467,232.095 71.139 C 231.946 71.811,231.719 72.523,231.591 72.722 C 230.495 74.430,230.411 85.879,231.471 89.104 C 231.648 89.643,231.924 90.646,232.085 91.333 C 232.246 92.021,232.482 92.704,232.609 92.851 C 232.737 92.998,232.983 93.521,233.156 94.013 C 233.330 94.505,233.614 95.060,233.789 95.246 C 233.963 95.431,234.272 95.921,234.474 96.333 C 235.096 97.601,238.748 101.167,239.425 101.167 C 239.527 101.167,239.955 101.395,240.376 101.675 C 243.213 103.553,249.654 103.364,251.820 101.338 L 252.449 100.750 252.637 98.750 C 253.034 94.553,253.052 90.099,252.675 89.758 C 252.334 89.449,251.500 89.732,251.500 90.156 C 251.500 90.238,250.863 90.621,250.085 91.009 L 248.670 91.713 247.159 91.627 C 245.890 91.555,245.584 91.480,245.247 91.164 C 245.026 90.957,244.676 90.702,244.468 90.599 C 244.260 90.495,244.004 90.238,243.899 90.028 C 243.794 89.817,243.519 89.444,243.288 89.198 C 241.317 87.099,240.600 77.775,242.172 74.683 C 242.444 74.147,242.667 73.564,242.667 73.387 C 242.667 72.297,245.043 70.224,246.466 70.072 C 248.452 69.859,251.000 70.275,251.000 70.811 C 251.000 70.886,251.314 71.041,251.699 71.157 C 252.843 71.499,252.833 71.545,252.833 65.494 C 252.833 59.608,252.870 59.793,251.656 59.562 C 251.341 59.501,250.881 59.351,250.633 59.226 C 250.097 58.957,244.588 58.910,244.140 59.172 M139.470 59.947 C 140.634 60.173,141.087 60.353,141.792 60.869 L 142.667 61.511 142.667 66.094 C 142.667 71.520,142.479 72.488,141.637 71.417 C 141.457 71.188,141.216 71.000,141.103 71.000 C 140.989 71.000,140.736 70.783,140.540 70.519 C 139.905 69.660,137.096 69.155,135.766 69.660 C 134.137 70.280,133.805 72.848,135.146 74.459 C 136.090 75.594,136.926 76.333,137.263 76.333 C 137.393 76.333,137.500 76.440,137.500 76.571 C 137.500 76.702,137.706 76.966,137.958 77.157 C 139.068 78.000,139.416 78.303,140.263 79.167 C 140.757 79.671,141.163 80.172,141.164 80.280 C 141.166 80.389,141.392 80.638,141.667 80.833 C 141.942 81.029,142.167 81.287,142.167 81.406 C 142.167 81.525,142.438 82.165,142.770 82.829 C 144.019 85.324,144.118 92.499,142.932 94.552 C 142.710 94.936,142.440 95.555,142.330 95.928 C 142.221 96.301,141.915 96.855,141.649 97.159 C 141.384 97.463,141.167 97.836,141.167 97.987 C 141.167 98.138,140.958 98.385,140.703 98.536 C 140.447 98.686,139.830 99.265,139.330 99.821 C 138.831 100.378,138.351 100.833,138.265 100.833 C 138.178 100.833,137.727 101.088,137.262 101.400 C 135.543 102.552,128.015 102.646,126.511 101.534 C 126.270 101.356,125.757 101.049,125.370 100.852 L 124.667 100.493 124.692 94.705 C 124.705 91.521,124.748 89.123,124.786 89.375 C 124.845 89.766,124.935 89.833,125.392 89.833 C 125.811 89.833,125.993 89.943,126.223 90.332 C 126.385 90.606,126.682 90.916,126.884 91.020 C 127.085 91.124,127.400 91.390,127.583 91.610 C 128.574 92.801,133.002 92.782,133.653 91.583 C 133.803 91.308,134.064 90.876,134.234 90.622 C 134.598 90.078,134.530 88.774,134.121 88.449 C 133.983 88.340,133.783 87.974,133.676 87.638 C 133.479 87.014,131.478 84.979,130.712 84.622 C 130.507 84.527,130.296 84.311,130.242 84.141 C 130.188 83.972,130.086 83.833,130.016 83.833 C 129.889 83.833,128.674 82.822,128.214 82.333 C 127.782 81.875,127.172 80.927,126.733 80.030 C 126.494 79.542,126.194 79.103,126.067 79.054 C 125.771 78.940,125.547 78.072,125.410 76.500 C 125.350 75.813,125.151 74.932,124.969 74.543 C 124.569 73.689,124.619 72.440,125.133 70.417 C 125.319 69.683,125.521 68.646,125.583 68.112 C 125.666 67.388,125.794 67.054,126.087 66.799 C 126.304 66.610,126.575 66.088,126.692 65.632 C 126.808 65.178,127.037 64.736,127.201 64.648 C 127.365 64.561,127.649 64.195,127.832 63.837 C 128.015 63.478,128.260 63.124,128.378 63.051 C 128.682 62.860,129.167 62.059,129.167 61.747 C 129.167 61.602,129.410 61.381,129.708 61.257 C 130.006 61.132,130.473 60.855,130.745 60.641 C 131.886 59.743,136.520 59.375,139.470 59.947 M148.274 59.974 C 147.813 60.483,147.937 101.303,148.401 101.816 C 148.729 102.178,165.895 102.388,166.448 102.036 C 166.910 101.742,167.000 100.870,167.000 96.682 C 167.000 91.279,167.479 91.833,162.810 91.833 C 158.219 91.833,158.623 92.158,158.694 88.527 C 158.762 85.042,158.434 85.339,162.217 85.336 C 166.638 85.332,166.333 85.703,166.333 80.324 L 166.333 76.341 165.883 76.046 C 165.499 75.793,164.956 75.742,162.178 75.698 C 158.327 75.637,158.672 75.912,158.669 72.901 C 158.666 69.762,158.320 70.000,162.897 70.000 L 166.517 70.000 166.759 69.422 C 167.163 68.455,167.108 60.316,166.695 59.942 C 166.200 59.494,148.681 59.524,148.274 59.974 M178.259 60.037 C 178.117 60.241,178.000 60.491,178.000 60.593 C 178.000 60.694,177.786 61.446,177.525 62.264 C 177.264 63.081,177.002 64.284,176.943 64.937 C 176.883 65.590,176.653 66.677,176.431 67.354 C 176.208 68.030,175.941 69.251,175.837 70.067 C 175.733 70.883,175.535 71.858,175.397 72.234 C 175.049 73.185,174.688 74.876,174.559 76.163 C 174.499 76.761,174.281 77.700,174.075 78.250 C 173.870 78.800,173.622 79.887,173.525 80.667 C 173.428 81.446,173.154 82.646,172.916 83.333 C 172.677 84.021,172.442 85.108,172.393 85.750 C 172.344 86.392,172.090 87.629,171.829 88.500 C 171.567 89.371,171.230 90.908,171.079 91.917 C 170.928 92.925,170.729 93.841,170.636 93.953 C 170.544 94.065,170.292 95.215,170.076 96.509 C 169.861 97.803,169.602 98.961,169.500 99.083 C 169.210 99.433,169.078 101.610,169.330 101.913 C 169.583 102.217,178.610 102.298,179.166 102.001 C 179.648 101.743,180.116 100.567,180.428 98.833 C 180.815 96.684,180.549 96.833,183.994 96.833 L 186.947 96.833 187.159 97.539 C 187.275 97.928,187.410 98.825,187.459 99.534 C 187.557 100.975,187.911 101.744,188.594 102.004 C 189.075 102.187,197.345 102.199,198.000 102.018 C 198.514 101.877,198.662 100.772,198.280 99.940 C 198.148 99.652,197.989 98.759,197.927 97.954 C 197.866 97.150,197.664 95.950,197.479 95.288 C 197.067 93.815,196.931 93.124,196.572 90.667 C 196.417 89.612,196.219 88.611,196.130 88.441 C 195.965 88.124,195.828 87.345,195.413 84.371 C 195.282 83.430,195.109 82.530,195.028 82.371 C 194.758 81.841,194.492 80.494,194.335 78.865 C 194.248 77.968,193.998 76.731,193.771 76.083 C 193.521 75.369,193.316 74.303,193.242 73.333 C 193.175 72.456,192.944 71.192,192.724 70.500 C 192.506 69.813,192.255 68.567,192.167 67.733 C 192.012 66.257,191.637 64.356,191.437 64.032 C 191.382 63.944,191.217 63.057,191.070 62.061 C 190.683 59.433,191.333 59.667,184.400 59.667 L 178.519 59.667 178.259 60.037 M216.667 59.882 L 216.250 60.093 216.250 80.791 C 216.250 100.431,216.265 101.503,216.547 101.786 C 216.983 102.222,225.806 102.337,226.231 101.912 C 226.583 101.560,226.651 60.218,226.300 59.867 C 226.008 59.575,217.246 59.589,216.667 59.882 M251.083 59.974 L 252.250 60.255 252.294 65.211 L 252.338 70.167 251.838 70.167 C 251.562 70.167,250.759 70.008,250.053 69.814 C 246.507 68.842,243.071 70.283,242.256 73.086 C 242.110 73.589,241.930 74.000,241.855 74.000 C 241.198 74.000,240.616 80.085,240.978 83.167 C 241.080 84.037,241.208 85.254,241.262 85.871 C 241.328 86.639,241.478 87.166,241.737 87.548 C 241.945 87.855,242.163 88.295,242.221 88.526 C 242.337 88.990,243.232 90.044,244.817 91.583 L 245.332 92.083 247.465 92.083 C 249.330 92.083,249.656 92.042,250.066 91.750 C 250.325 91.567,250.805 91.253,251.133 91.053 C 251.462 90.854,251.856 90.524,252.009 90.321 C 252.482 89.695,252.719 90.063,252.595 91.230 C 252.535 91.791,252.425 93.450,252.351 94.917 C 252.276 96.383,252.130 97.845,252.025 98.166 C 251.919 98.486,251.831 99.123,251.828 99.582 C 251.822 100.502,251.709 100.698,250.793 101.383 C 249.178 102.589,242.303 102.645,241.036 101.462 C 240.787 101.230,240.302 100.950,239.959 100.841 C 239.615 100.731,239.240 100.516,239.126 100.362 C 239.011 100.209,238.706 99.975,238.450 99.842 C 238.193 99.710,237.443 99.004,236.783 98.275 C 236.123 97.546,235.418 96.800,235.217 96.618 C 235.015 96.436,234.803 96.074,234.745 95.812 C 234.688 95.551,234.475 95.205,234.272 95.044 C 234.067 94.881,233.767 94.304,233.599 93.750 C 233.432 93.200,233.115 92.481,232.894 92.152 C 232.609 91.728,232.463 91.220,232.391 90.402 C 232.331 89.725,232.109 88.837,231.853 88.250 L 231.417 87.250 231.417 81.000 C 231.417 74.779,231.418 74.746,231.810 73.917 C 232.026 73.458,232.304 72.526,232.426 71.844 C 232.549 71.163,232.795 70.408,232.973 70.168 C 233.151 69.927,233.431 69.304,233.595 68.782 C 233.760 68.260,233.954 67.833,234.027 67.833 C 234.193 67.833,234.833 66.597,234.833 66.276 C 234.833 66.145,235.020 65.916,235.249 65.766 C 235.478 65.616,235.772 65.237,235.903 64.923 C 236.162 64.304,237.946 62.522,238.582 62.247 C 238.798 62.153,239.136 61.872,239.333 61.622 C 239.530 61.371,239.840 61.167,240.023 61.167 C 240.421 61.167,240.959 60.904,241.420 60.486 C 242.213 59.766,248.773 59.419,251.083 59.974 M257.292 59.929 L 256.833 60.177 256.833 80.737 C 256.833 100.730,256.842 101.307,257.152 101.690 L 257.470 102.083 266.444 102.130 L 275.417 102.178 275.708 101.820 C 275.971 101.499,276.000 100.996,276.000 96.843 L 276.000 92.223 275.625 92.035 C 275.387 91.915,273.805 91.829,271.285 91.798 C 266.531 91.740,266.971 92.068,267.035 88.631 C 267.099 85.160,266.766 85.432,271.047 85.361 C 275.445 85.288,275.000 85.836,275.000 80.493 L 275.000 76.205 274.589 75.936 C 274.246 75.711,273.638 75.667,270.912 75.667 C 266.689 75.667,266.999 75.876,267.003 73.036 C 267.006 69.869,266.794 70.000,271.932 70.000 C 275.411 70.000,275.486 69.993,275.741 69.630 C 276.166 69.023,276.125 60.331,275.695 59.942 C 275.256 59.545,258.023 59.532,257.292 59.929 M166.236 60.101 C 166.573 60.230,166.636 68.352,166.307 69.075 L 166.113 69.500 162.549 69.500 C 157.875 69.500,158.167 69.268,158.167 72.988 L 158.167 75.658 158.658 75.912 C 159.046 76.113,159.786 76.167,162.145 76.167 C 163.792 76.167,165.258 76.212,165.403 76.268 C 165.824 76.430,165.798 84.280,165.375 84.601 C 165.159 84.765,164.336 84.824,162.219 84.828 C 157.937 84.836,158.173 84.616,158.169 88.616 C 158.166 92.497,157.769 92.167,162.440 92.167 C 164.383 92.167,166.091 92.212,166.236 92.268 C 166.573 92.397,166.636 100.518,166.307 101.242 L 166.113 101.667 157.500 101.667 L 148.887 101.667 148.693 101.242 C 148.402 100.602,148.416 60.228,148.708 60.110 C 149.009 59.989,165.921 59.980,166.236 60.101 M189.449 60.107 L 190.315 60.211 190.491 61.030 C 190.588 61.481,190.669 62.277,190.671 62.800 C 190.676 63.915,190.891 64.941,191.320 65.897 C 191.512 66.324,191.672 67.212,191.744 68.250 C 191.875 70.126,192.110 71.296,192.430 71.669 C 192.550 71.808,192.729 72.745,192.828 73.752 C 193.067 76.165,193.268 77.243,193.564 77.704 C 193.706 77.925,193.925 79.129,194.089 80.583 C 194.243 81.958,194.464 83.271,194.579 83.500 C 194.908 84.154,195.156 85.434,195.322 87.333 C 195.429 88.560,195.604 89.394,195.904 90.122 C 196.212 90.866,196.333 91.461,196.333 92.224 C 196.333 93.554,196.563 94.789,196.980 95.708 C 197.474 96.798,197.789 100.705,197.427 101.258 L 197.159 101.667 193.155 101.667 L 189.151 101.667 188.744 101.208 C 188.287 100.693,188.126 100.203,187.746 98.167 C 187.392 96.269,187.527 96.333,183.911 96.333 C 180.462 96.333,180.510 96.315,180.093 97.766 C 179.964 98.216,179.699 99.138,179.505 99.817 C 178.919 101.863,179.432 101.667,174.661 101.667 C 169.702 101.667,169.373 101.540,170.016 99.886 C 170.116 99.628,170.258 98.742,170.331 97.917 C 170.416 96.962,170.621 96.023,170.896 95.333 C 171.185 94.606,171.379 93.686,171.485 92.532 C 171.590 91.390,171.755 90.599,171.978 90.171 C 172.337 89.483,172.582 88.298,172.756 86.417 C 172.816 85.775,173.007 84.967,173.181 84.622 C 173.355 84.276,173.577 83.451,173.674 82.789 C 173.952 80.891,174.118 80.156,174.510 79.083 C 174.717 78.514,174.930 77.401,175.004 76.500 C 175.092 75.435,175.270 74.589,175.549 73.917 C 175.787 73.342,176.010 72.385,176.075 71.667 C 176.201 70.244,176.409 69.307,176.756 68.583 C 176.888 68.308,177.108 67.235,177.245 66.199 C 177.381 65.162,177.641 63.980,177.821 63.572 C 178.002 63.164,178.229 62.261,178.325 61.565 C 178.422 60.869,178.543 60.232,178.594 60.150 C 178.698 59.982,188.098 59.945,189.449 60.107 M226.132 80.167 C 226.158 91.212,226.135 100.569,226.080 100.958 L 225.980 101.667 221.873 101.667 L 217.766 101.667 217.216 101.134 L 216.667 100.601 216.667 80.470 L 216.667 60.340 217.125 60.239 C 217.377 60.183,217.658 60.112,217.750 60.080 C 217.842 60.049,219.754 60.037,222.000 60.053 L 226.083 60.083 226.132 80.167 M275.494 60.243 C 275.726 60.522,275.683 68.929,275.448 69.292 C 275.347 69.448,274.388 69.500,271.598 69.500 C 266.301 69.500,266.500 69.364,266.500 72.992 C 266.500 76.295,266.190 76.070,270.821 76.137 L 274.506 76.190 274.461 80.470 L 274.417 84.750 270.798 84.833 C 266.200 84.939,266.606 84.592,266.525 88.486 C 266.442 92.517,265.984 92.167,271.330 92.167 L 275.494 92.167 275.595 92.571 C 275.742 93.156,275.609 101.210,275.448 101.458 C 275.343 101.621,273.402 101.667,266.669 101.667 L 258.024 101.667 257.762 101.141 C 257.336 100.287,257.365 60.429,257.792 60.180 C 258.302 59.883,275.245 59.943,275.494 60.243 M184.200 71.533 C 184.090 71.643,184.000 71.971,184.000 72.262 C 184.000 72.552,183.850 73.259,183.667 73.833 C 183.483 74.407,183.333 74.982,183.333 75.111 C 183.333 75.240,183.217 75.523,183.074 75.740 C 182.897 76.011,182.734 77.071,182.555 79.109 C 182.376 81.146,182.219 82.170,182.054 82.357 C 181.785 82.664,181.280 86.487,181.447 86.958 C 181.726 87.745,181.967 87.833,183.827 87.833 C 186.479 87.833,186.910 87.060,185.966 84.000 C 185.710 83.169,185.519 81.085,185.348 77.250 C 185.103 71.760,184.914 70.819,184.200 71.533 M184.734 75.208 C 184.782 75.598,184.940 78.035,185.085 80.625 C 185.256 83.690,185.433 85.573,185.591 86.021 C 185.894 86.881,185.918 86.781,185.342 87.079 C 185.022 87.244,184.387 87.333,183.529 87.333 C 181.820 87.333,181.698 87.210,181.988 85.783 C 182.104 85.215,182.259 84.375,182.333 83.917 C 182.407 83.458,182.550 82.872,182.651 82.614 C 182.751 82.356,182.833 81.674,182.833 81.099 C 182.833 79.234,183.162 77.303,183.589 76.667 C 183.804 76.346,184.068 75.727,184.176 75.292 C 184.420 74.311,184.619 74.281,184.734 75.208 " stroke="none" fill="#dde4e5" fill-rule="evenodd"></path><path id="path3" d="M31.167 18.764 C 31.167 19.058,31.525 19.007,31.628 18.698 C 31.665 18.589,31.576 18.500,31.431 18.500 C 31.285 18.500,31.167 18.619,31.167 18.764 M133.314 58.482 C 132.983 58.551,132.513 58.763,132.270 58.955 C 132.026 59.146,131.452 59.355,130.993 59.418 C 130.307 59.512,130.082 59.633,129.726 60.100 C 129.488 60.411,129.160 60.667,128.997 60.667 C 128.818 60.667,128.632 60.861,128.529 61.154 C 128.436 61.423,128.182 61.758,127.966 61.900 C 127.749 62.042,127.433 62.496,127.262 62.909 C 127.092 63.321,126.785 63.769,126.580 63.903 C 126.366 64.043,126.160 64.399,126.097 64.736 C 126.036 65.060,125.889 65.383,125.770 65.454 C 125.379 65.687,125.042 66.401,124.939 67.211 C 124.884 67.648,124.674 68.229,124.473 68.501 C 123.623 69.650,123.603 76.807,124.448 77.491 C 124.681 77.680,124.845 78.064,124.922 78.599 C 125.000 79.149,125.189 79.580,125.499 79.917 C 125.753 80.192,126.046 80.686,126.151 81.015 C 126.256 81.345,126.527 81.775,126.754 81.973 C 126.981 82.170,127.167 82.442,127.167 82.578 C 127.167 82.714,127.362 82.954,127.602 83.111 C 127.841 83.268,128.248 83.607,128.506 83.865 C 128.763 84.122,129.076 84.333,129.201 84.333 C 129.325 84.333,129.511 84.555,129.613 84.826 C 129.728 85.130,129.959 85.358,130.217 85.423 C 130.447 85.481,130.674 85.676,130.721 85.857 C 130.768 86.038,131.035 86.272,131.314 86.377 C 131.607 86.487,131.903 86.766,132.014 87.034 C 132.120 87.290,132.268 87.500,132.342 87.500 C 133.064 87.500,133.441 90.350,132.847 91.312 C 132.534 91.817,128.667 91.685,128.667 91.169 C 128.667 91.094,128.327 90.806,127.911 90.531 C 127.495 90.255,127.002 89.836,126.815 89.598 C 126.629 89.361,126.381 89.167,126.265 89.167 C 126.149 89.167,125.972 88.988,125.873 88.771 C 125.521 87.997,124.806 87.643,124.327 88.005 L 123.917 88.314 123.917 94.810 L 123.917 101.307 124.316 101.732 C 124.771 102.216,125.352 102.425,126.667 102.578 C 127.250 102.646,127.826 102.848,128.250 103.134 C 128.915 103.582,128.926 103.583,132.010 103.583 L 135.103 103.583 135.628 103.142 C 135.968 102.855,136.451 102.659,137.000 102.583 C 137.669 102.491,137.924 102.364,138.205 101.983 C 138.402 101.718,138.685 101.500,138.834 101.500 C 138.983 101.500,139.341 101.256,139.629 100.958 C 139.916 100.660,140.278 100.295,140.432 100.147 C 141.281 99.329,141.833 98.647,141.833 98.419 C 141.833 98.276,142.018 98.075,142.245 97.972 C 142.529 97.843,142.741 97.522,142.931 96.934 C 143.082 96.466,143.351 95.968,143.527 95.827 C 143.753 95.647,143.913 95.173,144.062 94.243 C 144.179 93.514,144.376 92.729,144.500 92.500 C 145.355 90.913,145.392 86.250,144.557 85.309 C 144.423 85.158,144.242 84.529,144.154 83.911 C 143.923 82.281,143.817 81.943,143.455 81.687 C 143.277 81.560,143.025 81.201,142.894 80.889 C 142.764 80.577,142.478 80.240,142.258 80.140 C 142.039 80.040,141.815 79.782,141.761 79.567 C 141.658 79.157,140.310 77.667,140.042 77.667 C 139.956 77.667,139.801 77.477,139.695 77.246 C 139.573 76.978,139.318 76.789,138.989 76.723 C 138.670 76.659,138.421 76.480,138.334 76.251 C 138.257 76.048,137.925 75.724,137.597 75.530 C 137.269 75.336,137.000 75.082,136.999 74.964 C 136.998 74.846,136.773 74.622,136.499 74.466 C 136.225 74.310,136.000 74.073,136.000 73.939 C 136.000 73.806,135.775 73.507,135.500 73.276 C 134.874 72.749,134.781 71.763,135.343 71.616 C 135.531 71.567,135.773 71.295,135.879 71.013 L 136.073 70.500 137.866 70.500 L 139.658 70.500 139.911 70.988 C 140.049 71.257,140.308 71.523,140.486 71.579 C 140.664 71.635,140.962 71.941,141.149 72.257 C 141.336 72.574,141.600 72.833,141.735 72.833 C 141.870 72.833,142.079 72.971,142.199 73.140 C 142.640 73.762,143.168 73.906,143.562 73.512 C 144.099 72.976,144.122 61.235,143.587 60.935 C 143.405 60.833,142.993 60.477,142.670 60.143 C 142.174 59.630,141.935 59.518,141.123 59.422 C 140.437 59.341,140.012 59.182,139.633 58.863 C 139.074 58.392,134.951 58.144,133.314 58.482 M244.324 58.477 C 243.907 58.540,243.362 58.751,243.114 58.946 C 242.827 59.172,242.288 59.345,241.632 59.421 C 240.786 59.519,240.526 59.627,240.180 60.020 C 239.949 60.284,239.626 60.500,239.463 60.500 C 239.301 60.500,238.883 60.757,238.535 61.071 C 238.187 61.386,237.691 61.696,237.432 61.761 C 237.151 61.832,236.830 62.102,236.635 62.432 C 236.456 62.736,236.163 63.032,235.985 63.088 C 235.807 63.145,235.550 63.457,235.414 63.781 C 235.279 64.106,234.943 64.628,234.667 64.942 C 234.392 65.255,234.167 65.622,234.167 65.757 C 234.167 65.893,234.011 66.134,233.820 66.293 C 233.376 66.665,233.073 67.257,232.934 68.026 C 232.874 68.360,232.710 68.678,232.571 68.732 C 232.217 68.867,231.833 69.864,231.833 70.649 C 231.833 71.118,231.707 71.458,231.392 71.832 C 230.851 72.475,230.683 73.286,230.674 75.300 C 230.669 76.451,230.592 76.987,230.375 77.383 C 230.126 77.838,230.083 78.382,230.083 81.083 C 230.083 83.831,230.122 84.305,230.375 84.662 C 230.601 84.981,230.667 85.415,230.668 86.579 C 230.669 88.629,230.906 89.930,231.412 90.660 C 231.644 90.994,231.834 91.489,231.834 91.759 C 231.836 92.491,232.144 93.464,232.478 93.793 C 232.641 93.953,232.910 94.449,233.075 94.896 C 233.241 95.343,233.501 95.742,233.652 95.781 C 233.816 95.824,234.026 96.201,234.172 96.716 C 234.359 97.371,234.531 97.634,234.885 97.803 C 235.142 97.926,235.421 98.210,235.506 98.433 C 235.591 98.657,235.840 98.907,236.059 98.991 C 236.278 99.074,236.502 99.317,236.555 99.530 C 236.609 99.743,236.918 100.060,237.243 100.235 C 237.568 100.409,237.833 100.617,237.833 100.695 C 237.833 100.913,238.872 101.499,239.260 101.499 C 239.449 101.500,239.765 101.718,239.961 101.983 C 240.248 102.371,240.494 102.490,241.201 102.584 C 241.818 102.665,242.225 102.834,242.553 103.142 L 243.022 103.583 245.917 103.583 L 248.812 103.583 249.295 103.120 C 249.651 102.779,250.013 102.630,250.674 102.551 C 251.459 102.458,251.670 102.346,252.369 101.647 L 253.167 100.849 253.208 96.716 C 253.281 89.427,253.291 89.669,252.926 89.403 C 252.410 89.026,251.927 89.125,251.296 89.738 C 249.838 91.154,244.633 91.150,244.264 89.733 C 244.214 89.540,243.884 89.066,243.531 88.680 C 242.987 88.085,242.862 87.804,242.712 86.834 C 242.601 86.114,242.412 85.558,242.202 85.333 C 241.470 84.547,241.504 76.735,242.244 75.750 C 242.451 75.474,242.739 74.730,242.884 74.095 C 243.031 73.450,243.262 72.877,243.407 72.795 C 243.550 72.716,243.783 72.426,243.925 72.151 C 244.067 71.877,244.367 71.582,244.593 71.496 C 244.819 71.410,245.090 71.151,245.195 70.920 L 245.387 70.500 247.780 70.500 L 250.174 70.500 250.365 70.921 C 250.471 71.152,250.751 71.388,250.987 71.444 C 251.223 71.501,251.631 71.655,251.892 71.786 C 252.331 72.008,252.398 71.998,252.769 71.649 L 253.171 71.271 253.127 65.444 L 253.083 59.617 252.451 59.398 C 252.103 59.278,251.578 59.008,251.284 58.798 C 250.717 58.393,246.243 58.187,244.324 58.477 M138.943 59.176 C 139.040 59.273,139.627 59.459,140.246 59.588 C 141.323 59.814,141.920 60.145,142.920 61.072 L 143.333 61.455 143.322 66.936 C 143.310 72.563,143.253 73.256,142.847 72.766 C 142.725 72.620,142.466 72.499,142.271 72.497 C 142.072 72.496,141.600 72.167,141.195 71.747 C 140.798 71.336,140.404 71.000,140.320 71.000 C 140.236 71.000,140.167 70.906,140.167 70.790 C 140.167 70.357,139.404 70.111,137.818 70.035 L 136.219 69.958 135.528 70.678 C 134.809 71.426,134.547 72.169,134.737 72.924 C 134.846 73.358,137.593 76.217,138.680 77.029 C 139.531 77.663,141.064 79.186,141.432 79.761 C 141.604 80.030,141.877 80.348,142.040 80.468 C 142.202 80.589,142.473 80.964,142.641 81.302 C 142.809 81.640,143.146 82.284,143.390 82.733 C 143.660 83.230,143.835 83.818,143.839 84.233 C 143.842 84.609,143.989 85.329,144.167 85.833 C 144.566 86.970,144.613 89.596,144.258 90.976 C 144.125 91.493,143.944 92.503,143.856 93.219 C 143.743 94.138,143.572 94.709,143.277 95.155 C 143.047 95.504,142.778 96.087,142.680 96.451 C 142.582 96.816,142.348 97.253,142.160 97.423 C 141.971 97.593,141.657 98.018,141.461 98.366 C 141.266 98.715,141.054 99.000,140.991 99.000 C 140.928 99.000,140.352 99.506,139.710 100.125 C 137.825 101.943,137.841 101.934,135.189 102.731 C 134.096 103.060,129.692 103.114,129.117 102.807 C 128.918 102.700,128.252 102.517,127.638 102.400 C 126.179 102.122,124.709 101.399,124.404 100.808 C 124.034 100.094,124.057 89.231,124.429 88.700 L 124.691 88.326 125.452 88.996 C 125.871 89.365,126.262 89.667,126.321 89.667 C 126.380 89.667,126.561 89.892,126.723 90.167 C 126.886 90.442,127.113 90.667,127.228 90.667 C 127.343 90.667,127.646 90.884,127.900 91.149 C 128.688 91.972,131.823 92.322,132.918 91.709 C 133.538 91.362,134.005 89.428,133.619 88.810 C 133.484 88.594,133.330 88.228,133.277 87.998 C 133.188 87.614,132.541 86.887,131.238 85.712 C 130.957 85.458,130.139 84.725,129.421 84.083 C 128.703 83.442,128.013 82.804,127.888 82.667 C 127.165 81.871,126.674 81.160,126.374 80.475 C 126.187 80.049,125.886 79.553,125.705 79.372 C 125.525 79.191,125.283 78.640,125.169 78.147 C 125.054 77.654,124.863 77.025,124.744 76.750 C 124.533 76.261,124.415 75.493,124.222 73.360 C 124.118 72.211,124.398 70.079,124.761 69.262 C 124.886 68.980,125.069 68.329,125.168 67.814 C 125.267 67.300,125.530 66.632,125.753 66.329 C 125.976 66.027,126.244 65.510,126.349 65.181 C 126.453 64.852,126.726 64.404,126.954 64.184 C 127.183 63.965,127.468 63.553,127.587 63.268 C 127.707 62.983,127.992 62.574,128.221 62.359 C 128.451 62.144,128.679 61.806,128.729 61.608 C 128.779 61.409,129.066 61.104,129.368 60.929 C 129.670 60.754,130.091 60.441,130.304 60.233 C 130.542 60.000,131.146 59.751,131.876 59.585 C 132.528 59.437,133.179 59.247,133.323 59.163 C 133.695 58.945,138.724 58.957,138.943 59.176 M250.633 59.226 C 250.881 59.351,251.341 59.501,251.656 59.562 C 252.870 59.793,252.833 59.608,252.833 65.494 C 252.833 71.545,252.843 71.499,251.699 71.157 C 251.314 71.041,251.000 70.886,251.000 70.811 C 251.000 70.275,248.452 69.859,246.466 70.072 C 245.043 70.224,242.667 72.297,242.667 73.387 C 242.667 73.564,242.444 74.147,242.172 74.683 C 240.600 77.775,241.317 87.099,243.288 89.198 C 243.519 89.444,243.794 89.817,243.899 90.028 C 244.004 90.238,244.260 90.495,244.468 90.599 C 244.676 90.702,245.026 90.957,245.247 91.164 C 245.584 91.480,245.890 91.555,247.159 91.627 L 248.670 91.713 250.085 91.009 C 250.863 90.621,251.500 90.238,251.500 90.156 C 251.500 89.732,252.334 89.449,252.675 89.758 C 253.052 90.099,253.034 94.553,252.637 98.750 L 252.449 100.750 251.820 101.338 C 249.654 103.364,243.213 103.553,240.376 101.675 C 239.955 101.395,239.527 101.167,239.425 101.167 C 238.748 101.167,235.096 97.601,234.474 96.333 C 234.272 95.921,233.963 95.431,233.789 95.246 C 233.614 95.060,233.330 94.505,233.156 94.013 C 232.983 93.521,232.737 92.998,232.609 92.851 C 232.482 92.704,232.246 92.021,232.085 91.333 C 231.924 90.646,231.648 89.643,231.471 89.104 C 230.411 85.879,230.495 74.430,231.591 72.722 C 231.719 72.523,231.946 71.811,232.095 71.139 C 232.245 70.467,232.585 69.573,232.850 69.152 C 233.116 68.732,233.334 68.282,233.334 68.152 C 233.334 68.023,233.559 67.579,233.833 67.167 C 234.108 66.754,234.332 66.337,234.333 66.239 C 234.333 66.141,234.596 65.766,234.917 65.405 C 235.237 65.045,235.500 64.659,235.500 64.548 C 235.500 64.252,237.391 62.279,237.944 61.998 C 238.204 61.866,238.642 61.581,238.917 61.365 C 240.056 60.469,241.446 59.798,242.640 59.569 C 243.313 59.439,243.988 59.261,244.140 59.172 C 244.588 58.910,250.097 58.957,250.633 59.226 M148.333 59.449 C 148.196 59.500,147.915 59.696,147.708 59.884 L 147.333 60.225 147.333 80.830 L 147.333 101.436 147.774 101.968 L 148.215 102.500 157.500 102.500 L 166.785 102.500 167.226 101.968 L 167.667 101.436 167.667 96.914 L 167.667 92.391 167.237 91.987 C 166.814 91.589,166.750 91.582,162.945 91.500 L 159.083 91.417 159.034 89.250 C 159.006 88.058,159.029 86.840,159.083 86.542 L 159.182 86.000 162.216 85.993 C 167.058 85.981,166.994 86.056,166.998 80.393 C 167.001 75.099,167.446 75.608,162.723 75.500 L 159.083 75.417 159.037 72.958 L 158.991 70.500 162.759 70.500 L 166.528 70.500 167.097 69.914 L 167.667 69.327 167.667 64.776 L 167.667 60.225 167.237 59.821 L 166.807 59.417 157.695 59.386 C 152.684 59.369,148.471 59.397,148.333 59.449 M178.315 59.444 C 178.043 59.516,177.667 60.168,177.667 60.565 C 177.667 60.684,177.524 60.911,177.350 61.068 C 176.985 61.398,176.889 61.824,176.682 64.012 C 176.584 65.048,176.412 65.825,176.185 66.260 C 175.741 67.112,175.500 68.398,175.500 69.913 C 175.500 70.950,175.444 71.180,175.089 71.594 C 174.607 72.154,174.555 72.380,174.410 74.547 C 174.326 75.811,174.210 76.349,173.894 76.943 C 173.585 77.525,173.445 78.154,173.311 79.563 C 173.170 81.058,173.059 81.531,172.737 82.006 C 172.401 82.501,172.307 82.943,172.148 84.756 C 172.010 86.326,171.876 87.035,171.659 87.351 C 171.233 87.968,171.035 88.847,170.903 90.708 C 170.840 91.602,170.731 92.333,170.662 92.333 C 170.352 92.333,169.951 93.893,169.821 95.609 C 169.702 97.163,169.612 97.565,169.271 98.068 C 168.609 99.044,168.468 101.980,169.064 102.372 C 169.166 102.440,171.581 102.496,174.429 102.497 C 180.717 102.501,180.500 102.598,180.740 99.667 C 180.937 97.259,180.584 97.500,183.917 97.500 C 187.235 97.500,187.000 97.365,187.000 99.273 C 187.000 100.826,187.270 101.937,187.725 102.255 C 188.234 102.612,198.274 102.619,198.760 102.263 C 199.236 101.914,199.187 100.180,198.673 99.177 C 198.393 98.629,198.255 97.961,198.141 96.594 C 197.966 94.490,197.750 93.398,197.315 92.414 C 197.123 91.981,196.974 91.115,196.910 90.072 C 196.782 87.958,196.581 86.936,196.183 86.369 C 195.936 86.017,195.845 85.510,195.772 84.083 C 195.675 82.167,195.455 81.092,195.074 80.662 C 194.934 80.503,194.783 79.620,194.677 78.328 C 194.497 76.137,194.336 75.366,193.931 74.748 C 193.780 74.518,193.615 73.582,193.508 72.346 C 193.307 70.034,193.089 68.915,192.734 68.370 C 192.584 68.141,192.424 67.250,192.330 66.120 C 192.098 63.332,192.017 62.899,191.628 62.405 C 191.382 62.093,191.244 61.617,191.178 60.856 C 191.041 59.268,191.341 59.335,184.417 59.355 C 181.208 59.364,178.463 59.404,178.315 59.444 M216.667 59.451 C 215.794 59.603,215.833 58.585,215.833 80.911 C 215.833 99.511,215.861 101.799,216.093 102.130 C 216.456 102.648,226.212 102.721,226.601 102.208 C 226.783 101.969,226.824 98.109,226.828 80.884 L 226.833 59.852 226.463 59.593 C 226.106 59.343,217.967 59.225,216.667 59.451 M257.205 59.452 C 256.090 59.594,256.158 58.109,256.206 81.072 L 256.250 101.863 256.643 102.181 C 257.020 102.487,257.430 102.500,266.444 102.500 L 275.850 102.500 276.092 101.922 C 276.442 101.085,276.446 92.385,276.097 91.907 C 275.877 91.606,275.604 91.580,272.139 91.541 C 267.125 91.483,267.667 91.787,267.667 89.026 C 267.667 85.851,267.481 86.000,271.455 86.000 L 274.472 86.000 275.153 85.227 L 275.833 84.453 275.833 80.408 L 275.833 76.363 275.321 75.931 C 274.810 75.502,274.796 75.500,271.758 75.500 C 270.081 75.500,268.472 75.453,268.183 75.395 L 267.658 75.290 267.704 72.937 L 267.750 70.583 271.703 70.500 C 275.207 70.426,275.689 70.383,275.953 70.119 C 276.341 69.731,276.416 60.016,276.033 59.633 C 275.824 59.424,258.717 59.259,257.205 59.452 M166.695 59.942 C 167.108 60.316,167.163 68.455,166.759 69.422 L 166.517 70.000 162.897 70.000 C 158.320 70.000,158.666 69.762,158.669 72.901 C 158.672 75.912,158.327 75.637,162.178 75.698 C 164.956 75.742,165.499 75.793,165.883 76.046 L 166.333 76.341 166.333 80.324 C 166.333 85.703,166.638 85.332,162.217 85.336 C 158.434 85.339,158.762 85.042,158.694 88.527 C 158.623 92.158,158.219 91.833,162.810 91.833 C 167.479 91.833,167.000 91.279,167.000 96.682 C 167.000 100.870,166.910 101.742,166.448 102.036 C 165.895 102.388,148.729 102.178,148.401 101.816 C 147.937 101.303,147.813 60.483,148.274 59.974 C 148.681 59.524,166.200 59.494,166.695 59.942 M190.542 59.958 C 190.697 60.131,190.912 60.989,191.070 62.061 C 191.217 63.057,191.382 63.944,191.437 64.032 C 191.637 64.356,192.012 66.257,192.167 67.733 C 192.255 68.567,192.506 69.813,192.724 70.500 C 192.944 71.192,193.175 72.456,193.242 73.333 C 193.316 74.303,193.521 75.369,193.771 76.083 C 193.998 76.731,194.248 77.968,194.335 78.865 C 194.492 80.494,194.758 81.841,195.028 82.371 C 195.109 82.530,195.282 83.430,195.413 84.371 C 195.828 87.345,195.965 88.124,196.130 88.441 C 196.219 88.611,196.417 89.612,196.572 90.667 C 196.931 93.124,197.067 93.815,197.479 95.288 C 197.664 95.950,197.866 97.150,197.927 97.954 C 197.989 98.759,198.148 99.652,198.280 99.940 C 198.662 100.772,198.514 101.877,198.000 102.018 C 197.345 102.199,189.075 102.187,188.594 102.004 C 187.911 101.744,187.557 100.975,187.459 99.534 C 187.410 98.825,187.275 97.928,187.159 97.539 L 186.947 96.833 183.994 96.833 C 180.549 96.833,180.815 96.684,180.428 98.833 C 180.116 100.567,179.648 101.743,179.166 102.001 C 178.610 102.298,169.583 102.217,169.330 101.913 C 169.078 101.610,169.210 99.433,169.500 99.083 C 169.602 98.961,169.861 97.803,170.076 96.509 C 170.292 95.215,170.544 94.065,170.636 93.953 C 170.729 93.841,170.928 92.925,171.079 91.917 C 171.230 90.908,171.567 89.371,171.829 88.500 C 172.090 87.629,172.344 86.392,172.393 85.750 C 172.442 85.108,172.677 84.021,172.916 83.333 C 173.154 82.646,173.428 81.446,173.525 80.667 C 173.622 79.887,173.870 78.800,174.075 78.250 C 174.281 77.700,174.499 76.761,174.559 76.163 C 174.688 74.876,175.049 73.185,175.397 72.234 C 175.535 71.858,175.733 70.883,175.837 70.067 C 175.941 69.251,176.208 68.030,176.431 67.354 C 176.653 66.677,176.883 65.590,176.943 64.937 C 177.002 64.284,177.264 63.081,177.525 62.264 C 177.786 61.446,178.000 60.694,178.000 60.593 C 178.000 60.491,178.117 60.241,178.259 60.037 L 178.519 59.667 184.400 59.667 C 189.791 59.667,190.303 59.691,190.542 59.958 M226.300 59.867 C 226.651 60.218,226.583 101.560,226.231 101.912 C 225.806 102.337,216.983 102.222,216.547 101.786 C 216.265 101.503,216.250 100.431,216.250 80.791 L 216.250 60.093 216.667 59.882 C 217.246 59.589,226.008 59.575,226.300 59.867 M275.695 59.942 C 276.125 60.331,276.166 69.023,275.741 69.630 C 275.486 69.993,275.411 70.000,271.932 70.000 C 266.794 70.000,267.006 69.869,267.003 73.036 C 266.999 75.876,266.689 75.667,270.912 75.667 C 273.638 75.667,274.246 75.711,274.589 75.936 L 275.000 76.205 275.000 80.493 C 275.000 85.836,275.445 85.288,271.047 85.361 C 266.766 85.432,267.099 85.160,267.035 88.631 C 266.971 92.068,266.531 91.740,271.285 91.798 C 273.805 91.829,275.387 91.915,275.625 92.035 L 276.000 92.223 276.000 96.843 C 276.000 100.996,275.971 101.499,275.708 101.820 L 275.417 102.178 266.444 102.130 L 257.470 102.083 257.152 101.690 C 256.842 101.307,256.833 100.730,256.833 80.737 L 256.833 60.177 257.292 59.929 C 258.023 59.532,275.256 59.545,275.695 59.942 M184.176 75.292 C 184.068 75.727,183.804 76.346,183.589 76.667 C 183.162 77.303,182.833 79.234,182.833 81.099 C 182.833 81.674,182.751 82.356,182.651 82.614 C 182.550 82.872,182.407 83.458,182.333 83.917 C 182.259 84.375,182.104 85.215,181.988 85.783 C 181.698 87.210,181.820 87.333,183.529 87.333 C 184.387 87.333,185.022 87.244,185.342 87.079 C 185.918 86.781,185.894 86.881,185.591 86.021 C 185.433 85.573,185.256 83.690,185.085 80.625 C 184.720 74.116,184.618 73.514,184.176 75.292 M184.796 82.257 C 184.969 87.386,185.058 87.060,183.523 86.973 C 182.097 86.892,182.061 86.861,182.468 86.058 C 182.884 85.238,182.974 84.642,183.151 81.565 C 183.256 79.744,183.370 78.924,183.564 78.606 C 183.712 78.364,183.955 77.968,184.104 77.724 C 184.557 76.983,184.636 77.496,184.796 82.257 M349.390 151.260 C 349.330 151.417,349.184 151.479,349.020 151.416 C 348.802 151.334,348.791 151.355,348.960 151.525 C 349.130 151.696,349.241 151.666,349.539 151.369 C 349.749 151.158,349.818 151.000,349.698 151.000 C 349.584 151.000,349.445 151.117,349.390 151.260 " stroke="none" fill="#c4d2d4" fill-rule="evenodd"></path></g></svg>