<svg id="svg" version="1.1" xmlns="http://www.w3.org/2000/svg" xmlns:xlink="http://www.w3.org/1999/xlink" width="400" height="158.6206896551724" viewBox="0, 0, 400,158.6206896551724"><g id="svgg"><path id="path0" d="M132.938 60.026 C 132.491 60.111,131.891 60.357,131.604 60.571 C 131.318 60.786,130.914 61.013,130.706 61.076 C 130.499 61.139,130.049 61.496,129.706 61.869 C 129.364 62.243,128.767 62.894,128.380 63.316 C 127.993 63.738,127.493 64.275,127.269 64.510 C 127.045 64.744,126.737 65.363,126.585 65.885 C 126.434 66.406,126.251 66.833,126.180 66.833 C 125.939 66.833,125.536 68.077,125.250 69.710 C 125.093 70.604,124.897 71.377,124.815 71.428 C 124.603 71.559,124.630 74.230,124.847 74.447 C 124.946 74.546,125.094 75.105,125.176 75.689 C 125.434 77.526,125.659 78.403,125.987 78.849 C 126.162 79.087,126.421 79.673,126.564 80.152 C 126.706 80.631,127.031 81.235,127.286 81.495 C 127.541 81.754,127.835 82.058,127.938 82.170 C 128.129 82.376,128.985 83.237,129.297 83.537 C 129.390 83.626,129.587 83.824,129.733 83.975 C 130.327 84.587,130.701 84.940,131.260 85.417 C 132.579 86.541,133.453 87.483,133.671 88.018 C 133.798 88.329,134.000 88.682,134.118 88.804 C 134.617 89.314,134.297 90.915,133.502 91.893 C 132.611 92.988,129.942 93.336,128.875 92.497 C 128.644 92.315,128.347 92.167,128.215 92.167 C 128.083 92.167,127.763 91.956,127.506 91.698 C 127.248 91.440,126.847 91.105,126.614 90.952 C 126.382 90.800,126.144 90.524,126.085 90.338 C 126.009 90.099,125.833 90.000,125.483 90.000 C 125.127 90.000,124.947 89.896,124.839 89.625 C 124.744 89.390,124.684 91.364,124.679 94.917 L 124.670 100.583 125.793 101.271 C 126.449 101.672,127.231 102.003,127.672 102.067 C 128.088 102.127,128.685 102.333,128.999 102.524 C 130.562 103.474,137.213 102.667,137.589 101.482 C 137.638 101.328,137.902 101.110,138.177 100.996 C 138.451 100.882,138.817 100.590,138.990 100.347 C 139.163 100.104,139.499 99.801,139.736 99.674 C 139.973 99.547,140.167 99.349,140.167 99.233 C 140.167 99.117,140.392 98.862,140.667 98.667 C 140.942 98.471,141.167 98.200,141.167 98.064 C 141.167 97.929,141.360 97.624,141.597 97.388 C 141.834 97.151,142.184 96.535,142.376 96.020 C 142.567 95.505,142.814 94.971,142.924 94.833 C 144.047 93.433,144.133 85.022,143.041 83.509 C 142.871 83.275,142.604 82.740,142.447 82.320 C 142.289 81.900,141.937 81.342,141.664 81.080 C 141.390 80.819,141.167 80.519,141.167 80.415 C 141.167 80.183,139.621 78.619,138.639 77.856 C 136.518 76.211,135.421 75.157,134.626 74.005 C 134.234 73.436,134.233 71.783,134.625 71.003 C 135.614 69.036,138.941 69.113,140.984 71.151 C 142.612 72.774,142.574 72.872,142.630 66.982 C 142.656 64.288,142.637 61.921,142.589 61.723 C 142.252 60.343,136.535 59.338,132.938 60.026 M243.425 60.036 C 242.761 60.127,242.098 60.327,241.873 60.504 C 241.658 60.674,241.092 60.942,240.616 61.099 C 240.140 61.256,239.651 61.525,239.531 61.695 C 239.410 61.865,239.060 62.110,238.752 62.238 C 238.445 62.367,238.110 62.628,238.008 62.819 C 237.905 63.010,237.731 63.167,237.621 63.167 C 237.346 63.167,236.039 64.628,235.721 65.292 C 235.579 65.590,235.398 65.833,235.319 65.833 C 235.241 65.833,234.974 66.265,234.728 66.792 C 234.481 67.319,234.182 67.808,234.063 67.879 C 233.945 67.950,233.718 68.438,233.559 68.963 C 233.401 69.487,233.134 70.073,232.966 70.264 C 232.798 70.455,232.579 71.055,232.480 71.597 C 232.381 72.140,232.110 73.071,231.878 73.667 C 231.043 75.816,230.910 85.690,231.682 88.250 C 231.875 88.892,232.105 89.754,232.193 90.167 C 232.451 91.379,232.877 92.667,233.021 92.667 C 233.094 92.667,233.234 92.948,233.333 93.292 C 233.431 93.635,233.640 94.151,233.797 94.436 C 233.955 94.722,234.262 95.285,234.480 95.686 C 234.940 96.533,235.341 96.991,237.500 99.141 C 238.371 100.009,239.329 100.821,239.629 100.946 C 239.929 101.072,240.319 101.319,240.497 101.497 C 240.674 101.674,241.216 101.931,241.701 102.068 C 242.186 102.205,242.996 102.468,243.500 102.653 C 244.839 103.144,247.323 103.135,248.437 102.636 C 248.884 102.436,249.694 102.154,250.237 102.010 C 251.358 101.713,251.800 101.193,251.821 100.146 C 251.828 99.814,251.952 99.214,252.096 98.813 C 252.377 98.033,252.756 91.499,252.571 90.625 C 252.474 90.168,252.167 89.979,252.167 90.376 C 252.167 90.491,251.819 90.810,251.394 91.085 C 249.708 92.173,249.733 92.166,247.474 92.166 L 245.365 92.167 244.642 91.563 C 244.245 91.231,243.755 90.725,243.553 90.438 C 243.351 90.151,243.002 89.748,242.778 89.542 C 242.554 89.336,242.318 88.886,242.255 88.542 C 242.191 88.198,242.036 87.802,241.910 87.662 C 240.751 86.369,240.686 76.635,241.821 74.254 C 242.084 73.702,242.382 72.987,242.484 72.667 C 242.681 72.044,243.361 71.267,244.376 70.505 C 245.531 69.637,249.830 69.598,250.837 70.446 C 251.185 70.738,251.480 70.840,251.870 70.803 L 252.417 70.750 252.460 66.250 C 252.516 60.563,252.467 60.334,251.161 60.058 C 250.066 59.827,245.045 59.812,243.425 60.036 M148.685 60.625 C 148.547 60.960,148.508 66.597,148.540 81.500 L 148.583 101.917 157.398 101.960 C 163.769 101.991,166.275 101.951,166.439 101.814 C 166.800 101.515,166.765 93.919,166.399 93.003 L 166.130 92.333 162.514 92.333 C 157.839 92.333,158.250 92.660,158.250 88.943 C 158.250 86.086,158.258 86.018,158.654 85.597 L 159.058 85.167 161.992 85.167 C 166.014 85.167,165.667 85.560,165.667 81.004 C 165.667 77.840,165.628 77.293,165.375 76.848 L 165.083 76.335 162.034 76.334 C 157.932 76.333,158.124 76.507,158.197 72.836 C 158.266 69.398,157.882 69.679,162.524 69.672 L 166.130 69.667 166.399 68.997 C 166.789 68.020,166.789 61.814,166.399 60.837 L 166.130 60.167 157.502 60.167 L 148.874 60.167 148.685 60.625 M178.430 61.208 C 178.271 61.781,177.961 62.887,177.741 63.667 C 177.521 64.446,177.255 65.755,177.151 66.575 C 177.046 67.396,176.779 68.549,176.557 69.137 C 176.325 69.753,176.093 70.857,176.009 71.738 C 175.915 72.740,175.715 73.624,175.432 74.296 C 175.191 74.870,175.000 75.643,175.000 76.048 C 175.000 77.087,174.691 78.642,174.330 79.417 C 174.159 79.783,173.897 80.979,173.747 82.074 C 173.597 83.169,173.339 84.331,173.175 84.657 C 173.011 84.983,172.825 85.700,172.763 86.250 C 172.562 88.025,172.311 89.232,171.974 90.058 C 171.792 90.503,171.569 91.590,171.478 92.475 C 171.381 93.411,171.108 94.686,170.823 95.527 C 170.554 96.321,170.333 97.273,170.333 97.644 C 170.333 98.557,170.031 99.930,169.636 100.808 C 169.076 102.054,168.902 102.011,174.269 101.961 C 179.649 101.911,179.167 102.050,179.514 100.451 C 179.629 99.919,179.786 99.446,179.862 99.399 C 179.938 99.352,180.000 99.172,180.000 98.998 C 180.000 96.626,180.437 96.333,183.981 96.333 C 187.610 96.333,187.833 96.520,187.833 99.552 C 187.833 100.400,188.292 101.587,188.729 101.872 C 188.958 102.022,197.091 102.038,197.643 101.890 C 197.993 101.797,198.024 101.719,197.925 101.184 C 197.864 100.854,197.679 99.554,197.514 98.295 C 197.349 97.037,197.142 95.912,197.055 95.795 C 196.776 95.423,196.490 93.952,196.346 92.148 C 196.243 90.865,196.105 90.200,195.829 89.659 C 195.544 89.099,195.421 88.476,195.322 87.085 C 195.236 85.876,195.050 84.823,194.777 84.000 C 194.549 83.313,194.314 82.225,194.255 81.583 C 194.075 79.646,193.818 78.286,193.500 77.583 C 193.334 77.217,193.150 76.392,193.092 75.750 C 192.922 73.856,192.645 72.106,192.461 71.762 C 192.167 71.210,191.871 69.648,191.748 68.000 C 191.676 67.026,191.507 66.144,191.311 65.708 C 190.913 64.826,190.667 63.560,190.667 62.402 C 190.667 60.258,190.385 60.167,183.816 60.167 L 178.719 60.167 178.430 61.208 M217.256 60.684 L 216.667 61.201 216.667 81.498 L 216.667 101.794 217.042 101.895 C 217.533 102.027,225.727 102.030,226.070 101.899 C 226.411 101.768,226.479 61.942,226.140 60.811 L 225.947 60.167 221.896 60.167 L 217.845 60.167 217.256 60.684 M257.670 60.827 C 257.149 61.848,257.138 101.550,257.658 101.829 C 257.876 101.945,260.907 101.989,266.783 101.960 L 275.583 101.917 275.583 97.417 C 275.583 94.942,275.529 92.785,275.464 92.625 C 275.355 92.360,275.012 92.333,271.661 92.333 C 266.659 92.333,266.846 92.461,266.839 89.033 C 266.830 85.247,266.922 85.167,271.238 85.167 C 275.021 85.167,274.716 85.575,274.631 80.633 C 274.548 75.856,274.979 76.369,271.000 76.304 C 266.620 76.232,266.831 76.399,266.839 73.013 C 266.846 69.532,266.651 69.667,271.661 69.667 C 276.086 69.667,275.583 70.275,275.583 64.917 C 275.583 62.625,275.529 60.619,275.464 60.458 C 275.352 60.186,274.774 60.167,266.675 60.167 L 258.007 60.167 257.670 60.827 M184.757 72.125 C 184.827 72.285,184.940 73.467,185.009 74.750 C 185.300 80.211,185.513 82.958,185.692 83.583 C 186.426 86.140,186.338 87.849,185.457 88.157 C 184.884 88.356,182.351 88.393,182.059 88.206 C 181.468 87.827,181.478 84.673,182.073 83.748 C 182.310 83.381,182.589 81.126,182.760 78.210 C 182.859 76.519,182.917 76.265,183.351 75.608 C 183.645 75.165,183.870 74.563,183.926 74.065 C 184.133 72.259,184.472 71.467,184.757 72.125 " stroke="none" fill="#f6fbfb" fill-rule="evenodd"></path><path id="path1" d="M133.167 59.432 C 132.168 59.605,131.380 59.894,130.886 60.266 C 130.594 60.486,130.282 60.667,130.192 60.667 C 129.957 60.667,128.667 61.900,128.667 62.125 C 128.667 62.228,128.194 62.787,127.616 63.365 C 126.893 64.088,126.470 64.677,126.262 65.250 C 126.095 65.708,125.865 66.160,125.749 66.254 C 125.494 66.461,125.000 67.867,125.000 68.385 C 125.000 68.591,124.884 68.925,124.742 69.127 C 124.343 69.697,123.951 72.245,124.070 73.500 C 124.288 75.797,124.433 76.636,124.663 76.912 C 124.793 77.069,125.035 77.729,125.200 78.377 C 125.364 79.026,125.600 79.675,125.724 79.820 C 125.847 79.965,126.075 80.409,126.229 80.808 C 126.495 81.492,128.985 84.093,132.077 86.917 C 133.344 88.073,133.729 89.328,133.354 91.078 C 133.074 92.388,129.213 92.504,127.833 91.244 C 126.724 90.232,125.863 89.428,125.323 88.901 L 124.729 88.322 124.406 88.678 C 124.103 89.013,124.080 89.375,124.027 94.669 C 123.958 101.497,123.876 101.153,125.801 102.080 C 126.104 102.226,126.721 102.415,127.172 102.501 C 127.623 102.586,128.288 102.852,128.650 103.092 L 129.308 103.527 132.279 103.465 L 135.250 103.403 136.625 102.691 C 137.381 102.300,138.000 101.911,138.000 101.827 C 138.000 101.744,138.206 101.568,138.458 101.437 C 139.008 101.152,140.667 99.587,140.667 99.354 C 140.667 99.263,140.805 99.145,140.973 99.092 C 141.142 99.038,141.382 98.789,141.507 98.539 C 141.631 98.288,141.935 97.858,142.180 97.583 C 142.426 97.308,142.715 96.807,142.823 96.469 C 142.931 96.131,143.168 95.664,143.351 95.432 C 143.533 95.201,143.747 94.615,143.826 94.130 C 143.905 93.646,144.127 92.621,144.318 91.852 C 144.788 89.966,144.798 87.378,144.339 86.017 C 144.159 85.483,143.946 84.628,143.866 84.118 C 143.786 83.608,143.579 82.979,143.405 82.720 C 143.231 82.462,142.955 81.958,142.791 81.600 C 142.628 81.243,142.319 80.793,142.104 80.600 C 141.890 80.408,141.575 80.006,141.405 79.708 C 141.234 79.410,141.015 79.167,140.917 79.167 C 140.819 79.167,140.606 78.942,140.443 78.667 C 140.281 78.392,140.086 78.167,140.012 78.167 C 139.937 78.167,139.606 77.923,139.276 77.625 C 138.947 77.327,138.131 76.634,137.464 76.085 C 135.635 74.580,134.833 73.515,134.833 72.592 C 134.833 69.856,138.266 69.202,140.515 71.510 C 141.685 72.711,142.986 73.552,143.287 73.303 C 143.557 73.079,143.597 62.444,143.331 61.744 C 143.154 61.277,142.544 60.682,142.234 60.672 C 142.134 60.669,141.841 60.485,141.583 60.264 C 140.783 59.577,135.397 59.044,133.167 59.432 M242.967 59.555 C 242.089 59.695,241.563 59.871,241.301 60.117 C 241.089 60.314,240.692 60.529,240.417 60.594 C 239.757 60.750,239.000 61.192,239.000 61.422 C 239.000 61.522,238.726 61.735,238.392 61.895 C 237.837 62.160,237.092 62.747,236.608 63.302 C 236.503 63.422,236.210 63.716,235.958 63.955 C 235.706 64.193,235.500 64.483,235.500 64.599 C 235.500 64.715,235.237 65.088,234.917 65.428 C 234.596 65.768,234.333 66.137,234.333 66.248 C 234.333 66.359,234.121 66.743,233.862 67.101 C 233.602 67.460,233.335 67.977,233.268 68.251 C 233.201 68.526,232.959 69.036,232.731 69.385 C 232.502 69.735,232.201 70.522,232.061 71.135 C 231.921 71.748,231.738 72.362,231.653 72.500 C 231.013 73.539,230.830 74.929,230.717 79.583 C 230.585 85.026,230.952 89.563,231.586 90.333 C 231.699 90.471,231.917 91.159,232.071 91.862 C 232.224 92.565,232.449 93.222,232.570 93.322 C 232.691 93.423,232.923 93.860,233.086 94.294 C 233.248 94.728,233.595 95.379,233.857 95.741 C 234.119 96.103,234.333 96.469,234.333 96.554 C 234.333 97.055,238.072 100.782,239.094 101.299 C 239.467 101.488,239.871 101.761,239.991 101.906 C 240.112 102.051,240.630 102.292,241.143 102.441 C 241.655 102.590,242.290 102.871,242.552 103.064 C 243.362 103.663,248.477 103.597,249.417 102.976 C 249.783 102.734,250.376 102.484,250.733 102.422 C 252.595 102.098,252.734 101.643,252.987 95.000 C 253.194 89.588,252.935 88.679,251.610 90.167 C 251.365 90.442,251.075 90.667,250.966 90.667 C 250.857 90.667,250.553 90.873,250.290 91.125 C 249.827 91.570,249.748 91.585,247.648 91.638 L 245.484 91.693 244.663 90.888 C 244.211 90.446,243.840 90.014,243.838 89.929 C 243.835 89.844,243.608 89.581,243.332 89.345 C 242.967 89.033,242.788 88.690,242.676 88.083 C 242.592 87.625,242.311 86.800,242.053 86.250 L 241.583 85.250 241.588 80.833 L 241.593 76.417 242.116 75.250 C 242.404 74.608,242.690 73.807,242.752 73.470 C 242.815 73.133,243.084 72.613,243.350 72.315 C 243.616 72.017,243.833 71.728,243.833 71.673 C 243.833 71.617,244.077 71.429,244.375 71.255 C 244.673 71.080,245.004 70.820,245.112 70.677 C 245.508 70.147,249.854 70.309,250.420 70.875 C 250.672 71.126,251.168 71.411,251.522 71.506 C 251.877 71.601,252.167 71.752,252.167 71.840 C 252.167 72.191,252.453 71.968,252.719 71.411 C 253.085 70.645,253.141 61.039,252.785 60.333 C 252.341 59.455,246.518 58.993,242.967 59.555 M148.333 60.024 L 147.917 60.371 147.871 81.022 L 147.825 101.673 148.238 102.087 L 148.652 102.500 157.470 102.500 C 166.186 102.500,166.294 102.496,166.735 102.149 L 167.181 101.798 167.132 97.134 L 167.083 92.470 166.690 92.152 C 166.331 91.861,165.994 91.833,162.829 91.833 C 158.373 91.833,158.833 92.158,158.833 89.016 C 158.833 85.730,158.522 86.000,162.305 86.000 L 165.377 86.000 165.939 85.405 L 166.500 84.810 166.500 81.092 C 166.500 75.436,166.789 75.790,162.083 75.667 L 158.917 75.583 158.870 73.106 C 158.810 69.888,158.443 70.167,162.752 70.167 C 165.993 70.167,166.330 70.139,166.690 69.848 L 167.083 69.529 167.083 64.945 L 167.083 60.361 166.683 60.014 C 166.055 59.470,148.989 59.479,148.333 60.024 M178.464 59.950 C 178.316 60.115,178.070 60.587,177.917 61.000 C 177.765 61.413,177.530 61.954,177.396 62.204 C 177.262 62.454,177.082 63.283,176.995 64.046 C 176.775 65.983,176.550 67.087,176.262 67.644 C 176.126 67.906,175.889 69.050,175.734 70.186 C 175.579 71.321,175.357 72.400,175.239 72.583 C 174.958 73.020,174.500 75.283,174.500 76.230 C 174.500 76.669,174.295 77.488,174.000 78.224 C 173.693 78.990,173.498 79.783,173.494 80.278 C 173.488 81.156,173.202 82.404,172.679 83.833 C 172.495 84.337,172.342 85.168,172.339 85.678 C 172.333 86.602,171.943 88.240,171.640 88.612 C 171.552 88.720,171.331 89.872,171.149 91.172 C 170.966 92.473,170.707 93.704,170.573 93.909 C 170.440 94.113,170.213 95.098,170.071 96.098 C 169.928 97.098,169.674 98.329,169.507 98.833 C 168.808 100.939,168.737 101.626,169.169 102.086 L 169.558 102.500 174.188 102.500 C 180.185 102.500,180.154 102.518,180.594 98.750 C 180.815 96.865,180.554 97.000,183.967 97.000 L 186.943 97.000 187.138 97.846 C 187.245 98.311,187.334 99.155,187.334 99.721 C 187.337 102.434,187.483 102.503,193.212 102.491 C 199.066 102.477,199.174 102.427,198.463 100.052 C 198.221 99.244,197.945 97.779,197.850 96.795 C 197.734 95.598,197.563 94.784,197.333 94.333 C 197.095 93.866,196.938 93.085,196.822 91.788 C 196.729 90.759,196.474 89.317,196.253 88.583 C 196.032 87.850,195.732 86.313,195.586 85.167 C 195.440 84.021,195.219 82.746,195.096 82.333 C 194.750 81.178,194.505 79.886,194.337 78.333 C 194.253 77.554,194.040 76.500,193.862 75.991 C 193.496 74.939,193.391 74.366,193.176 72.250 C 193.092 71.425,192.873 70.412,192.688 69.998 C 192.473 69.515,192.296 68.591,192.194 67.415 C 192.106 66.407,191.876 65.115,191.683 64.542 C 191.489 63.969,191.251 62.929,191.153 62.231 C 190.784 59.577,191.272 59.760,184.424 59.700 C 179.121 59.654,178.714 59.671,178.464 59.950 M216.731 59.930 C 215.985 60.298,216.000 59.841,216.000 81.923 C 216.000 101.076,216.009 101.641,216.319 102.023 L 216.637 102.417 221.500 102.417 L 226.363 102.417 226.685 102.019 C 227.001 101.629,227.007 101.177,226.962 81.046 L 226.917 60.471 226.449 60.069 L 225.981 59.667 221.616 59.670 C 218.031 59.674,217.157 59.720,216.731 59.930 M257.399 59.930 C 257.036 60.109,256.823 60.376,256.690 60.820 C 256.470 61.555,256.415 101.441,256.633 101.785 C 257.062 102.459,257.639 102.500,266.719 102.500 C 274.964 102.500,275.464 102.483,275.724 102.195 C 276.166 101.707,276.139 92.511,275.695 92.109 C 275.432 91.871,274.918 91.833,271.953 91.833 C 269.699 91.833,268.369 91.767,268.091 91.640 L 267.667 91.446 267.667 89.057 C 267.667 85.813,267.444 86.000,271.304 86.000 L 274.275 86.000 274.679 85.570 C 275.079 85.145,275.084 85.098,275.136 81.362 C 275.220 75.312,275.474 75.667,271.049 75.667 C 267.389 75.667,267.667 75.893,267.667 72.910 L 267.667 70.554 268.091 70.360 C 268.370 70.233,269.706 70.167,271.982 70.167 C 275.128 70.167,275.474 70.139,275.724 69.862 C 276.166 69.374,276.139 60.344,275.695 59.942 C 275.250 59.539,258.214 59.527,257.399 59.930 M139.186 60.002 C 140.447 60.240,142.478 61.266,142.589 61.723 C 142.637 61.921,142.656 64.288,142.630 66.982 C 142.574 72.872,142.612 72.774,140.984 71.151 C 138.941 69.113,135.614 69.036,134.625 71.003 C 134.233 71.783,134.234 73.436,134.626 74.005 C 135.421 75.157,136.518 76.211,138.639 77.856 C 139.621 78.619,141.167 80.183,141.167 80.415 C 141.167 80.519,141.390 80.819,141.664 81.080 C 141.937 81.342,142.289 81.900,142.447 82.320 C 142.604 82.740,142.871 83.275,143.041 83.509 C 144.133 85.022,144.047 93.433,142.924 94.833 C 142.814 94.971,142.567 95.505,142.376 96.020 C 142.184 96.535,141.834 97.151,141.597 97.388 C 141.360 97.624,141.167 97.929,141.167 98.064 C 141.167 98.200,140.942 98.471,140.667 98.667 C 140.392 98.862,140.167 99.117,140.167 99.233 C 140.167 99.349,139.973 99.547,139.736 99.674 C 139.499 99.801,139.163 100.104,138.990 100.347 C 138.817 100.590,138.451 100.882,138.177 100.996 C 137.902 101.110,137.638 101.328,137.589 101.482 C 137.213 102.667,130.562 103.474,128.999 102.524 C 128.685 102.333,128.088 102.127,127.672 102.067 C 127.231 102.003,126.449 101.672,125.793 101.271 L 124.670 100.583 124.679 94.917 C 124.684 91.364,124.744 89.390,124.839 89.625 C 124.947 89.896,125.127 90.000,125.483 90.000 C 125.833 90.000,126.009 90.099,126.085 90.338 C 126.144 90.524,126.382 90.800,126.614 90.952 C 126.847 91.105,127.248 91.440,127.506 91.698 C 127.763 91.956,128.083 92.167,128.215 92.167 C 128.347 92.167,128.644 92.315,128.875 92.497 C 129.942 93.336,132.611 92.988,133.502 91.893 C 134.297 90.915,134.617 89.314,134.118 88.804 C 134.000 88.682,133.798 88.329,133.671 88.018 C 133.453 87.483,132.579 86.541,131.260 85.417 C 130.701 84.940,130.327 84.587,129.733 83.975 C 129.587 83.824,129.390 83.626,129.297 83.537 C 128.985 83.237,128.129 82.376,127.938 82.170 C 127.835 82.058,127.541 81.754,127.286 81.495 C 127.031 81.235,126.706 80.631,126.564 80.152 C 126.421 79.673,126.162 79.087,125.987 78.849 C 125.659 78.403,125.434 77.526,125.176 75.689 C 125.094 75.105,124.946 74.546,124.847 74.447 C 124.630 74.230,124.603 71.559,124.815 71.428 C 124.897 71.377,125.093 70.604,125.250 69.710 C 125.536 68.077,125.939 66.833,126.180 66.833 C 126.251 66.833,126.434 66.406,126.585 65.885 C 126.737 65.363,127.045 64.744,127.269 64.510 C 127.493 64.275,127.993 63.738,128.380 63.316 C 128.767 62.894,129.364 62.243,129.706 61.869 C 130.049 61.496,130.499 61.139,130.706 61.076 C 130.914 61.013,131.318 60.786,131.604 60.571 C 132.507 59.896,136.877 59.568,139.186 60.002 M251.161 60.058 C 252.467 60.334,252.516 60.563,252.460 66.250 L 252.417 70.750 251.870 70.803 C 251.480 70.840,251.185 70.738,250.837 70.446 C 249.830 69.598,245.531 69.637,244.376 70.505 C 243.361 71.267,242.681 72.044,242.484 72.667 C 242.382 72.987,242.084 73.702,241.821 74.254 C 240.686 76.635,240.751 86.369,241.910 87.662 C 242.036 87.802,242.191 88.198,242.255 88.542 C 242.318 88.886,242.554 89.336,242.778 89.542 C 243.002 89.748,243.351 90.151,243.553 90.438 C 243.755 90.725,244.245 91.231,244.642 91.563 L 245.365 92.167 247.474 92.166 C 249.733 92.166,249.708 92.173,251.394 91.085 C 251.819 90.810,252.167 90.491,252.167 90.376 C 252.167 89.979,252.474 90.168,252.571 90.625 C 252.756 91.499,252.377 98.033,252.096 98.813 C 251.952 99.214,251.828 99.814,251.821 100.146 C 251.800 101.193,251.358 101.713,250.237 102.010 C 249.694 102.154,248.884 102.436,248.437 102.636 C 247.323 103.135,244.839 103.144,243.500 102.653 C 242.996 102.468,242.186 102.205,241.701 102.068 C 241.216 101.931,240.674 101.674,240.497 101.497 C 240.319 101.319,239.929 101.072,239.629 100.946 C 239.329 100.821,238.371 100.009,237.500 99.141 C 235.341 96.991,234.940 96.533,234.480 95.686 C 234.262 95.285,233.955 94.722,233.797 94.436 C 233.640 94.151,233.431 93.635,233.333 93.292 C 233.234 92.948,233.094 92.667,233.021 92.667 C 232.877 92.667,232.451 91.379,232.193 90.167 C 232.105 89.754,231.875 88.892,231.682 88.250 C 230.910 85.690,231.043 75.816,231.878 73.667 C 232.110 73.071,232.381 72.140,232.480 71.597 C 232.579 71.055,232.798 70.455,232.966 70.264 C 233.134 70.073,233.401 69.487,233.559 68.963 C 233.718 68.438,233.945 67.950,234.063 67.879 C 234.182 67.808,234.481 67.319,234.728 66.792 C 234.974 66.265,235.241 65.833,235.319 65.833 C 235.398 65.833,235.579 65.590,235.721 65.292 C 236.039 64.628,237.346 63.167,237.621 63.167 C 237.731 63.167,237.905 63.010,238.008 62.819 C 238.110 62.628,238.445 62.367,238.752 62.238 C 239.060 62.110,239.410 61.865,239.531 61.695 C 239.651 61.525,240.140 61.256,240.616 61.099 C 241.092 60.942,241.658 60.674,241.873 60.504 C 242.634 59.906,248.995 59.600,251.161 60.058 M166.399 60.837 C 166.789 61.814,166.789 68.020,166.399 68.997 L 166.130 69.667 162.524 69.672 C 157.882 69.679,158.266 69.398,158.197 72.836 C 158.124 76.507,157.932 76.333,162.034 76.334 L 165.083 76.335 165.375 76.848 C 165.628 77.293,165.667 77.840,165.667 81.004 C 165.667 85.560,166.014 85.167,161.992 85.167 L 159.058 85.167 158.654 85.597 C 158.258 86.018,158.250 86.086,158.250 88.943 C 158.250 92.660,157.839 92.333,162.514 92.333 L 166.130 92.333 166.399 93.003 C 166.765 93.919,166.800 101.515,166.439 101.814 C 166.275 101.951,163.769 101.991,157.398 101.960 L 148.583 101.917 148.540 81.500 C 148.508 66.597,148.547 60.960,148.685 60.625 L 148.874 60.167 157.502 60.167 L 166.130 60.167 166.399 60.837 M189.615 60.457 C 190.446 60.801,190.667 61.208,190.667 62.402 C 190.667 63.560,190.913 64.826,191.311 65.708 C 191.507 66.144,191.676 67.026,191.748 68.000 C 191.871 69.648,192.167 71.210,192.461 71.762 C 192.645 72.106,192.922 73.856,193.092 75.750 C 193.150 76.392,193.334 77.217,193.500 77.583 C 193.818 78.286,194.075 79.646,194.255 81.583 C 194.314 82.225,194.549 83.313,194.777 84.000 C 195.050 84.823,195.236 85.876,195.322 87.085 C 195.421 88.476,195.544 89.099,195.829 89.659 C 196.105 90.200,196.243 90.865,196.346 92.148 C 196.490 93.952,196.776 95.423,197.055 95.795 C 197.142 95.912,197.349 97.037,197.514 98.295 C 197.679 99.554,197.864 100.854,197.925 101.184 C 198.024 101.719,197.993 101.797,197.643 101.890 C 197.091 102.038,188.958 102.022,188.729 101.872 C 188.292 101.587,187.833 100.400,187.833 99.552 C 187.833 96.520,187.610 96.333,183.981 96.333 C 180.437 96.333,180.000 96.626,180.000 98.998 C 180.000 99.172,179.938 99.352,179.862 99.399 C 179.786 99.446,179.629 99.919,179.514 100.451 C 179.167 102.050,179.649 101.911,174.269 101.961 C 168.902 102.011,169.076 102.054,169.636 100.808 C 170.031 99.930,170.333 98.557,170.333 97.644 C 170.333 97.273,170.554 96.321,170.823 95.527 C 171.108 94.686,171.381 93.411,171.478 92.475 C 171.569 91.590,171.792 90.503,171.974 90.058 C 172.311 89.232,172.562 88.025,172.763 86.250 C 172.825 85.700,173.011 84.983,173.175 84.657 C 173.339 84.331,173.597 83.169,173.747 82.074 C 173.897 80.979,174.159 79.783,174.330 79.417 C 174.691 78.642,175.000 77.087,175.000 76.048 C 175.000 75.643,175.191 74.870,175.432 74.296 C 175.715 73.624,175.915 72.740,176.009 71.738 C 176.093 70.857,176.325 69.753,176.557 69.137 C 176.779 68.549,177.046 67.396,177.151 66.575 C 177.255 65.755,177.521 64.446,177.741 63.667 C 177.961 62.887,178.271 61.781,178.430 61.208 L 178.719 60.167 183.816 60.167 C 188.281 60.167,189.000 60.203,189.615 60.457 M226.140 60.811 C 226.479 61.942,226.411 101.768,226.070 101.899 C 225.727 102.030,217.533 102.027,217.042 101.895 L 216.667 101.794 216.667 81.498 L 216.667 61.201 217.256 60.684 L 217.845 60.167 221.896 60.167 L 225.947 60.167 226.140 60.811 M275.464 60.458 C 275.529 60.619,275.583 62.625,275.583 64.917 C 275.583 70.275,276.086 69.667,271.661 69.667 C 266.651 69.667,266.846 69.532,266.839 73.013 C 266.831 76.399,266.620 76.232,271.000 76.304 C 274.979 76.369,274.548 75.856,274.631 80.633 C 274.716 85.575,275.021 85.167,271.238 85.167 C 266.922 85.167,266.830 85.247,266.839 89.033 C 266.846 92.461,266.659 92.333,271.661 92.333 C 275.012 92.333,275.355 92.360,275.464 92.625 C 275.529 92.785,275.583 94.942,275.583 97.417 L 275.583 101.917 266.783 101.960 C 260.907 101.989,257.876 101.945,257.658 101.829 C 257.138 101.550,257.149 61.848,257.670 60.827 L 258.007 60.167 266.675 60.167 C 274.774 60.167,275.352 60.186,275.464 60.458 M184.198 72.542 C 184.100 72.931,183.978 73.617,183.926 74.065 C 183.870 74.563,183.645 75.165,183.351 75.608 C 182.917 76.265,182.859 76.519,182.760 78.210 C 182.589 81.126,182.310 83.381,182.073 83.748 C 181.478 84.673,181.468 87.827,182.059 88.206 C 182.351 88.393,184.884 88.356,185.457 88.157 C 186.338 87.849,186.426 86.140,185.692 83.583 C 185.513 82.958,185.300 80.211,185.009 74.750 C 184.850 71.775,184.578 71.035,184.198 72.542 M184.931 81.279 C 185.054 83.371,185.226 85.458,185.315 85.917 C 185.541 87.093,185.162 87.500,183.841 87.500 C 182.149 87.500,181.957 87.152,182.483 85.028 C 182.657 84.325,182.845 83.150,182.901 82.417 C 183.177 78.838,183.341 78.023,183.878 77.571 C 184.634 76.936,184.687 77.124,184.931 81.279 " stroke="none" fill="#6ee2e7" fill-rule="evenodd"></path><path id="path2" d="M51.167 8.083 L 51.167 8.667 48.344 8.667 L 45.521 8.667 45.469 9.208 L 45.417 9.750 43.708 9.797 L 42.000 9.845 42.000 10.317 C 42.000 10.821,41.545 10.994,40.208 10.998 C 39.718 11.000,39.667 11.047,39.667 11.500 C 39.667 11.985,39.643 12.000,38.875 12.002 C 37.640 12.006,37.333 12.136,37.333 12.657 C 37.333 13.083,37.275 13.117,36.292 13.262 C 35.324 13.406,35.246 13.449,35.197 13.875 C 35.161 14.191,35.049 14.333,34.836 14.333 C 34.245 14.333,34.000 14.531,34.000 15.007 C 34.000 15.418,33.930 15.486,33.458 15.531 C 32.984 15.577,32.910 15.650,32.865 16.115 C 32.820 16.578,32.745 16.654,32.282 16.699 C 31.816 16.744,31.743 16.818,31.698 17.292 C 31.656 17.726,31.572 17.833,31.273 17.833 C 30.685 17.833,30.500 18.160,30.500 19.200 L 30.500 20.167 29.917 20.167 C 29.361 20.167,29.333 20.194,29.333 20.750 C 29.333 21.248,29.277 21.333,28.950 21.333 C 28.365 21.333,28.167 21.651,28.167 22.593 C 28.167 23.419,28.146 23.458,27.625 23.607 L 27.083 23.762 27.036 25.381 L 26.988 27.000 26.512 27.000 C 25.901 27.000,25.833 27.199,25.833 29.003 L 25.833 30.478 25.377 30.531 C 24.733 30.605,24.688 31.025,24.676 36.947 L 24.667 41.978 24.208 42.031 C 23.765 42.082,23.750 42.116,23.750 43.083 C 23.750 44.050,23.765 44.085,24.208 44.136 L 24.667 44.189 24.669 85.719 C 24.671 130.220,24.635 128.000,25.353 128.000 L 25.833 128.000 25.833 129.729 C 25.833 132.084,25.922 132.456,26.512 132.586 C 26.968 132.686,26.987 132.731,27.034 133.803 L 27.083 134.917 27.618 134.968 L 28.152 135.020 28.201 136.135 L 28.250 137.250 28.792 137.302 L 29.333 137.354 29.333 138.427 L 29.333 139.500 29.917 139.500 C 30.472 139.500,30.500 139.528,30.500 140.083 C 30.500 140.637,30.529 140.667,31.075 140.667 L 31.651 140.667 31.700 141.708 C 31.749 142.721,31.765 142.754,32.284 142.907 C 32.678 143.023,32.830 143.175,32.867 143.485 C 32.904 143.797,33.055 143.945,33.449 144.058 C 33.851 144.172,33.994 144.317,34.033 144.647 C 34.079 145.046,34.172 145.096,35.125 145.238 C 36.109 145.383,36.167 145.417,36.167 145.845 C 36.167 146.299,36.420 146.500,36.993 146.500 C 37.189 146.500,37.325 146.665,37.387 146.978 C 37.494 147.513,37.833 147.661,38.958 147.664 C 39.634 147.667,39.667 147.690,39.667 148.167 L 39.667 148.667 40.833 148.667 L 42.000 148.667 42.000 149.244 L 42.000 149.822 43.708 149.869 L 45.417 149.917 45.469 150.458 L 45.521 151.000 47.750 151.000 L 49.979 151.000 50.031 151.542 L 50.083 152.083 199.780 152.125 C 335.703 152.163,349.500 152.143,349.738 151.905 C 349.882 151.761,350.000 151.500,350.000 151.326 C 350.000 151.034,350.166 151.006,352.208 150.963 L 354.417 150.917 354.575 150.381 L 354.732 149.845 356.325 149.797 L 357.917 149.750 357.968 149.216 L 358.020 148.681 359.135 148.632 C 360.200 148.586,360.252 148.564,360.301 148.145 C 360.348 147.742,360.430 147.699,361.354 147.594 C 362.272 147.490,362.372 147.439,362.528 146.990 C 362.648 146.648,362.810 146.500,363.066 146.500 C 363.536 146.500,363.833 146.201,363.833 145.727 C 363.833 145.428,363.941 145.344,364.375 145.302 C 364.849 145.257,364.923 145.184,364.968 144.718 C 365.013 144.255,365.088 144.180,365.551 144.135 C 366.017 144.090,366.090 144.016,366.136 143.542 C 366.181 143.065,366.247 143.000,366.677 143.000 C 367.125 143.000,367.167 142.951,367.167 142.417 C 367.167 141.861,367.194 141.833,367.750 141.833 C 368.306 141.833,368.333 141.806,368.333 141.250 C 368.333 140.694,368.361 140.667,368.917 140.667 C 369.472 140.667,369.500 140.639,369.500 140.083 C 369.500 139.586,369.556 139.500,369.883 139.500 C 370.467 139.500,370.667 139.182,370.667 138.251 C 370.667 137.437,370.689 137.396,371.208 137.243 C 371.735 137.088,371.751 137.055,371.799 136.064 C 371.847 135.074,371.864 135.039,372.382 134.891 L 372.917 134.738 372.964 133.119 C 373.010 131.562,373.027 131.500,373.389 131.500 C 374.082 131.500,374.167 131.224,374.167 128.978 L 374.167 126.855 374.618 126.803 C 375.348 126.718,375.336 127.603,375.292 79.201 L 375.250 32.929 374.713 32.775 L 374.176 32.621 374.130 30.436 L 374.083 28.250 373.547 28.198 L 373.011 28.146 372.964 26.448 L 372.917 24.750 372.375 24.698 L 371.833 24.646 371.833 23.591 C 371.833 22.492,371.727 22.333,370.986 22.333 C 370.704 22.333,370.667 22.207,370.667 21.250 L 370.667 20.167 370.083 20.167 C 369.528 20.167,369.500 20.139,369.500 19.583 C 369.500 19.028,369.472 19.000,368.917 19.000 L 368.333 19.000 368.333 18.033 C 368.333 16.994,368.148 16.667,367.561 16.667 C 367.279 16.667,367.176 16.556,367.136 16.208 C 367.095 15.855,366.960 15.714,366.542 15.591 C 366.132 15.470,366.000 15.337,366.000 15.045 C 366.000 14.588,365.463 14.333,364.500 14.333 C 363.894 14.333,363.851 14.301,363.802 13.792 C 363.757 13.320,363.682 13.243,363.227 13.199 C 362.805 13.158,362.687 13.058,362.611 12.681 C 362.515 12.198,362.002 12.007,360.792 12.002 C 360.394 12.000,360.333 11.934,360.333 11.500 C 360.333 11.015,360.310 11.000,359.542 10.998 C 358.348 10.994,358.026 10.863,357.968 10.358 C 357.917 9.918,357.911 9.916,356.298 9.869 L 354.680 9.821 354.571 9.244 L 354.463 8.667 351.659 8.667 L 348.854 8.667 348.802 8.125 L 348.750 7.583 199.958 7.542 L 51.167 7.500 51.167 8.083 M138.906 58.892 C 139.227 59.190,139.599 59.310,140.444 59.389 C 141.299 59.469,141.658 59.586,141.987 59.894 C 142.223 60.115,142.656 60.416,142.948 60.563 C 144.018 61.103,144.000 60.985,144.000 67.360 C 144.000 73.752,143.967 74.000,143.125 74.000 C 142.431 74.000,142.254 73.872,140.387 72.019 L 138.857 70.500 137.428 70.500 C 136.216 70.500,136.000 70.541,136.000 70.773 C 136.000 70.924,135.775 71.412,135.500 71.859 C 134.913 72.813,134.879 73.096,135.336 73.216 C 135.520 73.264,135.781 73.567,135.916 73.890 C 136.051 74.212,136.301 74.520,136.472 74.574 C 136.643 74.629,136.867 74.857,136.969 75.082 C 137.071 75.307,137.336 75.536,137.557 75.592 C 137.778 75.647,138.043 75.878,138.146 76.105 C 138.250 76.332,138.556 76.595,138.827 76.689 C 139.098 76.784,139.367 77.011,139.426 77.195 C 139.484 77.378,139.750 77.604,140.017 77.697 C 140.318 77.803,140.541 78.023,140.605 78.279 C 140.662 78.506,140.885 78.758,141.100 78.840 C 141.315 78.921,141.598 79.246,141.730 79.561 C 141.862 79.877,142.112 80.180,142.285 80.235 C 142.459 80.290,142.765 80.672,142.965 81.084 C 143.165 81.496,143.393 81.833,143.471 81.833 C 143.713 81.833,143.994 82.635,144.102 83.631 C 144.169 84.253,144.357 84.810,144.644 85.236 C 145.080 85.884,145.083 85.915,145.083 89.001 L 145.083 92.112 144.625 92.773 C 144.343 93.181,144.166 93.655,144.166 94.009 C 144.164 94.826,143.854 95.860,143.492 96.252 C 143.322 96.437,143.064 96.871,142.920 97.216 C 142.776 97.562,142.472 97.929,142.245 98.032 C 142.019 98.136,141.833 98.351,141.833 98.511 C 141.833 99.070,139.467 101.493,138.916 101.497 C 138.706 101.499,138.499 101.686,138.360 102.000 C 138.227 102.300,138.013 102.500,137.825 102.500 C 137.653 102.500,137.241 102.738,136.910 103.028 C 135.650 104.134,128.802 104.205,127.519 103.125 C 127.157 102.820,126.727 102.668,125.990 102.582 C 125.205 102.491,124.841 102.353,124.440 101.995 L 123.917 101.528 123.869 95.160 C 123.828 89.622,123.856 88.741,124.081 88.396 C 124.524 87.721,125.473 87.961,125.745 88.818 C 125.800 88.991,126.021 89.178,126.235 89.231 C 126.459 89.287,126.713 89.543,126.832 89.831 C 126.947 90.107,127.157 90.333,127.299 90.333 C 127.614 90.333,128.167 90.811,128.167 91.083 C 128.167 91.577,131.533 91.899,132.572 91.504 C 132.974 91.352,133.000 91.272,132.998 90.212 C 132.995 88.374,132.872 87.921,132.316 87.711 C 131.958 87.576,131.833 87.420,131.833 87.105 C 131.833 86.758,131.734 86.663,131.285 86.579 C 130.936 86.513,130.618 86.299,130.410 85.988 C 130.230 85.720,130.025 85.501,129.953 85.500 C 129.633 85.499,126.178 81.766,126.079 81.314 C 126.021 81.049,125.767 80.626,125.515 80.374 C 125.144 80.003,125.035 79.707,124.946 78.832 C 124.854 77.923,124.763 77.690,124.376 77.377 L 123.917 77.004 123.917 72.987 L 123.917 68.971 124.345 68.603 C 124.676 68.318,124.816 67.972,124.963 67.076 C 125.106 66.205,125.254 65.829,125.558 65.566 C 125.781 65.372,126.012 64.990,126.072 64.716 C 126.134 64.437,126.599 63.785,127.130 63.234 C 127.652 62.693,128.282 61.935,128.530 61.551 C 128.778 61.166,129.229 60.727,129.532 60.573 C 129.835 60.420,130.274 60.117,130.508 59.899 C 130.822 59.605,131.208 59.473,131.987 59.392 C 132.743 59.313,133.166 59.172,133.479 58.896 C 134.157 58.299,138.263 58.296,138.906 58.892 M250.348 58.848 C 250.575 59.075,251.047 59.246,251.708 59.339 C 253.347 59.571,253.250 59.156,253.250 65.905 C 253.250 71.467,253.232 71.818,252.933 72.149 C 252.513 72.612,251.975 72.593,251.546 72.100 C 251.354 71.880,250.985 71.653,250.724 71.595 C 250.463 71.537,249.996 71.267,249.686 70.995 C 248.701 70.132,246.045 70.298,245.250 71.272 C 245.158 71.385,244.896 71.500,244.668 71.530 C 244.391 71.565,244.167 71.762,244.000 72.119 C 243.861 72.413,243.617 72.751,243.458 72.869 C 243.275 73.004,243.065 73.598,242.890 74.478 C 242.702 75.416,242.498 75.977,242.264 76.195 C 241.933 76.503,241.914 76.712,241.865 80.638 L 241.813 84.757 242.235 85.379 C 242.488 85.752,242.733 86.451,242.846 87.125 C 243.038 88.264,243.261 88.761,243.844 89.344 C 244.022 89.522,244.167 89.778,244.167 89.914 C 244.167 90.051,244.429 90.272,244.750 90.406 C 245.130 90.565,245.333 90.761,245.333 90.971 C 245.333 91.584,248.948 91.782,249.366 91.191 C 249.615 90.838,250.524 90.333,250.913 90.333 C 251.057 90.333,251.247 90.144,251.334 89.914 C 251.710 88.925,253.074 89.085,253.272 90.140 C 253.332 90.464,253.342 93.065,253.293 95.920 C 253.183 102.314,253.200 102.264,251.037 102.664 C 250.413 102.779,250.043 102.959,249.767 103.279 C 249.014 104.154,242.683 104.070,241.699 103.172 C 241.408 102.905,240.893 102.650,240.523 102.587 C 240.121 102.519,239.680 102.288,239.391 101.993 C 239.130 101.727,238.776 101.507,238.603 101.505 C 238.431 101.502,238.052 101.248,237.762 100.941 C 237.472 100.633,237.069 100.293,236.867 100.185 C 236.665 100.077,236.500 99.834,236.500 99.646 C 236.500 99.424,236.335 99.242,236.027 99.126 C 235.747 99.020,235.478 98.747,235.369 98.460 C 235.268 98.193,235.027 97.932,234.833 97.881 C 234.621 97.826,234.376 97.529,234.220 97.140 C 234.077 96.783,233.821 96.416,233.650 96.324 C 233.477 96.232,233.226 95.764,233.079 95.261 C 232.936 94.767,232.721 94.326,232.602 94.280 C 232.234 94.139,231.833 93.072,231.833 92.233 C 231.833 91.558,231.750 91.346,231.299 90.881 L 230.764 90.329 230.674 87.785 C 230.591 85.444,230.553 85.209,230.208 84.839 C 229.544 84.127,229.699 78.094,230.393 77.637 C 230.489 77.573,230.618 76.431,230.684 75.053 C 230.823 72.146,230.740 72.571,231.265 72.084 C 231.601 71.772,231.726 71.449,231.829 70.621 C 231.965 69.523,232.267 68.833,232.612 68.833 C 232.721 68.833,232.895 68.421,233.000 67.917 C 233.180 67.052,233.506 66.500,233.839 66.500 C 233.920 66.500,234.065 66.212,234.159 65.860 C 234.273 65.438,234.473 65.156,234.749 65.031 C 234.979 64.926,235.167 64.731,235.167 64.596 C 235.167 64.238,235.835 63.167,236.058 63.166 C 236.164 63.166,236.391 62.956,236.563 62.699 C 236.915 62.173,237.704 61.667,238.171 61.667 C 238.342 61.667,238.580 61.467,238.699 61.223 C 238.836 60.944,239.163 60.695,239.578 60.552 C 239.942 60.428,240.436 60.138,240.675 59.909 C 241.020 59.578,241.345 59.472,242.263 59.390 C 242.897 59.333,243.642 59.166,243.917 59.018 C 245.114 58.376,249.753 58.253,250.348 58.848 M167.273 59.894 L 167.750 60.371 167.750 64.932 L 167.750 69.492 167.288 69.955 L 166.827 70.417 162.955 70.500 L 159.083 70.583 159.083 73.000 L 159.083 75.417 162.750 75.515 C 164.767 75.568,166.433 75.625,166.454 75.640 C 167.047 76.070,167.303 84.119,166.764 85.409 C 166.376 86.337,166.092 86.408,162.417 86.500 L 159.083 86.583 159.083 89.000 L 159.083 91.417 162.940 91.500 L 166.796 91.583 167.273 92.060 L 167.750 92.537 167.801 97.147 L 167.852 101.758 167.413 102.170 L 166.973 102.583 157.500 102.583 L 148.027 102.583 147.594 102.177 L 147.162 101.770 147.206 81.071 L 147.250 60.371 147.667 59.955 C 148.275 59.349,147.993 59.364,157.773 59.392 L 166.796 59.417 167.273 59.894 M190.906 59.708 C 191.023 59.868,191.167 60.462,191.227 61.028 C 191.286 61.595,191.441 62.176,191.572 62.321 C 192.010 62.805,192.155 63.478,192.320 65.807 C 192.445 67.569,192.561 68.255,192.807 68.685 C 193.239 69.442,193.458 70.563,193.583 72.667 C 193.663 74.013,193.757 74.493,193.987 74.750 C 194.407 75.216,194.485 75.610,194.664 78.157 C 194.783 79.850,194.883 80.431,195.071 80.536 C 195.465 80.757,195.675 81.759,195.781 83.917 C 195.863 85.596,195.941 86.024,196.267 86.588 C 196.660 87.268,196.996 89.317,196.999 91.055 C 197.000 91.580,197.171 92.250,197.491 92.979 C 197.908 93.929,198.003 94.420,198.125 96.262 C 198.250 98.137,198.321 98.497,198.658 98.953 C 199.265 99.773,199.271 102.138,198.667 102.448 C 198.223 102.676,189.388 102.768,188.119 102.559 C 187.236 102.413,187.096 102.061,187.000 99.750 L 186.917 97.750 183.967 97.705 L 181.017 97.659 180.934 98.205 C 180.888 98.505,180.808 99.421,180.755 100.241 C 180.597 102.714,180.620 102.705,173.952 102.635 C 168.259 102.576,168.668 102.709,168.679 100.917 C 168.690 99.151,168.899 98.152,169.328 97.804 C 169.658 97.537,169.713 97.287,169.824 95.538 C 169.946 93.626,170.144 92.891,170.608 92.617 C 170.761 92.526,170.834 92.126,170.837 91.367 C 170.842 89.550,171.101 88.196,171.573 87.515 C 171.910 87.028,172.000 86.697,172.000 85.940 C 172.000 84.392,172.323 82.630,172.703 82.097 C 172.956 81.744,173.088 81.204,173.189 80.117 C 173.381 78.034,173.488 77.560,173.879 77.063 C 174.147 76.723,174.250 76.249,174.359 74.857 C 174.549 72.430,174.616 72.117,175.038 71.664 C 175.353 71.326,175.422 71.005,175.518 69.427 C 175.632 67.544,175.864 66.561,176.271 66.231 C 176.422 66.110,176.533 65.510,176.595 64.481 C 176.714 62.495,176.956 61.384,177.325 61.122 C 177.485 61.009,177.710 60.630,177.825 60.280 C 178.130 59.349,178.206 59.339,184.722 59.380 C 190.186 59.414,190.712 59.441,190.906 59.708 M227.109 59.917 L 227.583 60.417 227.628 81.094 L 227.672 101.770 227.239 102.177 L 226.807 102.583 221.945 102.634 C 216.419 102.692,216.129 102.665,215.859 102.073 C 215.578 101.457,215.603 60.992,215.884 60.167 C 216.152 59.382,216.300 59.363,221.943 59.392 L 226.635 59.417 227.109 59.917 M275.605 59.433 C 276.265 59.610,276.333 60.125,276.333 64.935 C 276.333 71.056,276.785 70.494,271.871 70.497 L 268.158 70.500 268.204 72.958 L 268.250 75.417 271.621 75.500 C 276.186 75.613,275.989 75.367,275.996 80.989 C 276.002 86.334,275.962 86.382,271.441 86.500 L 268.250 86.583 268.204 89.042 L 268.158 91.500 271.704 91.502 C 275.688 91.505,275.885 91.532,276.146 92.105 C 276.524 92.933,276.395 101.939,276.000 102.333 C 275.662 102.671,259.002 102.870,257.117 102.558 C 255.924 102.361,255.999 103.794,256.007 81.467 C 256.015 58.824,255.963 59.790,257.193 59.499 C 257.827 59.349,275.062 59.287,275.605 59.433 M184.125 79.257 C 183.965 79.471,183.833 79.701,183.833 79.768 C 183.833 79.835,183.719 80.017,183.579 80.171 C 183.351 80.423,183.135 82.541,182.942 86.417 C 182.917 86.915,182.920 86.917,183.833 86.917 L 184.750 86.917 184.686 83.167 C 184.613 78.977,184.569 78.665,184.125 79.257 " stroke="none" fill="#04ccd4" fill-rule="evenodd"></path><path id="path3" d="M133.479 58.896 C 133.166 59.172,132.743 59.313,131.987 59.392 C 131.208 59.473,130.822 59.605,130.508 59.899 C 130.274 60.117,129.835 60.420,129.532 60.573 C 129.229 60.727,128.778 61.166,128.530 61.551 C 128.282 61.935,127.652 62.693,127.130 63.234 C 126.599 63.785,126.134 64.437,126.072 64.716 C 126.012 64.990,125.781 65.372,125.558 65.566 C 125.254 65.829,125.106 66.205,124.963 67.076 C 124.816 67.972,124.676 68.318,124.345 68.603 L 123.917 68.971 123.917 72.987 L 123.917 77.004 124.376 77.377 C 124.763 77.690,124.854 77.923,124.946 78.832 C 125.035 79.707,125.144 80.003,125.515 80.374 C 125.767 80.626,126.021 81.049,126.079 81.314 C 126.178 81.766,129.633 85.499,129.953 85.500 C 130.025 85.501,130.230 85.720,130.410 85.988 C 130.618 86.299,130.936 86.513,131.285 86.579 C 131.734 86.663,131.833 86.758,131.833 87.105 C 131.833 87.420,131.958 87.576,132.316 87.711 C 132.872 87.921,132.995 88.374,132.998 90.212 C 133.000 91.272,132.974 91.352,132.572 91.504 C 131.533 91.899,128.167 91.577,128.167 91.083 C 128.167 90.811,127.614 90.333,127.299 90.333 C 127.157 90.333,126.947 90.107,126.832 89.831 C 126.713 89.543,126.459 89.287,126.235 89.231 C 126.021 89.178,125.800 88.991,125.745 88.818 C 125.473 87.961,124.524 87.721,124.081 88.396 C 123.856 88.741,123.828 89.622,123.869 95.160 L 123.917 101.528 124.440 101.995 C 124.841 102.353,125.205 102.491,125.990 102.582 C 126.727 102.668,127.157 102.820,127.519 103.125 C 128.802 104.205,135.650 104.134,136.910 103.028 C 137.241 102.738,137.653 102.500,137.825 102.500 C 138.013 102.500,138.227 102.300,138.360 102.000 C 138.499 101.686,138.706 101.499,138.916 101.497 C 139.467 101.493,141.833 99.070,141.833 98.511 C 141.833 98.351,142.019 98.136,142.245 98.032 C 142.472 97.929,142.776 97.562,142.920 97.216 C 143.064 96.871,143.322 96.437,143.492 96.252 C 143.854 95.860,144.164 94.826,144.166 94.009 C 144.166 93.655,144.343 93.181,144.625 92.773 L 145.083 92.112 145.083 89.001 C 145.083 85.915,145.080 85.884,144.644 85.236 C 144.357 84.810,144.169 84.253,144.102 83.631 C 143.994 82.635,143.713 81.833,143.471 81.833 C 143.393 81.833,143.165 81.496,142.965 81.084 C 142.765 80.672,142.459 80.290,142.285 80.235 C 142.112 80.180,141.862 79.877,141.730 79.561 C 141.598 79.246,141.315 78.921,141.100 78.840 C 140.885 78.758,140.662 78.506,140.605 78.279 C 140.541 78.023,140.318 77.803,140.017 77.697 C 139.750 77.604,139.484 77.378,139.426 77.195 C 139.367 77.011,139.098 76.784,138.827 76.689 C 138.556 76.595,138.250 76.332,138.146 76.105 C 138.043 75.878,137.778 75.647,137.557 75.592 C 137.336 75.536,137.071 75.307,136.969 75.082 C 136.867 74.857,136.643 74.629,136.472 74.574 C 136.301 74.520,136.051 74.212,135.916 73.890 C 135.781 73.567,135.520 73.264,135.336 73.216 C 134.879 73.096,134.913 72.813,135.500 71.859 C 135.775 71.412,136.000 70.924,136.000 70.773 C 136.000 70.541,136.216 70.500,137.428 70.500 L 138.857 70.500 140.387 72.019 C 142.254 73.872,142.431 74.000,143.125 74.000 C 143.967 74.000,144.000 73.752,144.000 67.360 C 144.000 60.985,144.018 61.103,142.948 60.563 C 142.656 60.416,142.223 60.115,141.987 59.894 C 141.658 59.586,141.299 59.469,140.444 59.389 C 139.599 59.310,139.227 59.190,138.906 58.892 C 138.263 58.296,134.157 58.299,133.479 58.896 M244.833 58.645 C 244.604 58.703,244.192 58.871,243.917 59.018 C 243.642 59.166,242.897 59.333,242.263 59.390 C 241.345 59.472,241.020 59.578,240.675 59.909 C 240.436 60.138,239.942 60.428,239.578 60.552 C 239.163 60.695,238.836 60.944,238.699 61.223 C 238.580 61.467,238.342 61.667,238.171 61.667 C 237.704 61.667,236.915 62.173,236.563 62.699 C 236.391 62.956,236.164 63.166,236.058 63.166 C 235.835 63.167,235.167 64.238,235.167 64.596 C 235.167 64.731,234.979 64.926,234.749 65.031 C 234.473 65.156,234.273 65.438,234.159 65.860 C 234.065 66.212,233.920 66.500,233.839 66.500 C 233.506 66.500,233.180 67.052,233.000 67.917 C 232.895 68.421,232.721 68.833,232.612 68.833 C 232.267 68.833,231.965 69.523,231.829 70.621 C 231.726 71.449,231.601 71.772,231.265 72.084 C 230.740 72.571,230.823 72.146,230.684 75.053 C 230.618 76.431,230.489 77.573,230.393 77.637 C 229.699 78.094,229.544 84.127,230.208 84.839 C 230.553 85.209,230.591 85.444,230.674 87.785 L 230.764 90.329 231.299 90.881 C 231.750 91.346,231.833 91.558,231.833 92.233 C 231.833 93.072,232.234 94.139,232.602 94.280 C 232.721 94.326,232.936 94.767,233.079 95.261 C 233.226 95.764,233.477 96.232,233.650 96.324 C 233.821 96.416,234.077 96.783,234.220 97.140 C 234.376 97.529,234.621 97.826,234.833 97.881 C 235.027 97.932,235.268 98.193,235.369 98.460 C 235.478 98.747,235.747 99.020,236.027 99.126 C 236.335 99.242,236.500 99.424,236.500 99.646 C 236.500 99.834,236.665 100.077,236.867 100.185 C 237.069 100.293,237.472 100.633,237.762 100.941 C 238.052 101.248,238.431 101.502,238.603 101.505 C 238.776 101.507,239.130 101.727,239.391 101.993 C 239.680 102.288,240.121 102.519,240.523 102.587 C 240.893 102.650,241.408 102.905,241.699 103.172 C 242.683 104.070,249.014 104.154,249.767 103.279 C 250.043 102.959,250.413 102.779,251.037 102.664 C 253.200 102.264,253.183 102.314,253.293 95.920 C 253.342 93.065,253.332 90.464,253.272 90.140 C 253.074 89.085,251.710 88.925,251.334 89.914 C 251.247 90.144,251.057 90.333,250.913 90.333 C 250.524 90.333,249.615 90.838,249.366 91.191 C 248.948 91.782,245.333 91.584,245.333 90.971 C 245.333 90.761,245.130 90.565,244.750 90.406 C 244.429 90.272,244.167 90.051,244.167 89.914 C 244.167 89.778,244.022 89.522,243.844 89.344 C 243.261 88.761,243.038 88.264,242.846 87.125 C 242.733 86.451,242.488 85.752,242.235 85.379 L 241.813 84.757 241.865 80.638 C 241.914 76.712,241.933 76.503,242.264 76.195 C 242.498 75.977,242.702 75.416,242.890 74.478 C 243.065 73.598,243.275 73.004,243.458 72.869 C 243.617 72.751,243.861 72.413,244.000 72.119 C 244.167 71.762,244.391 71.565,244.668 71.530 C 244.896 71.500,245.158 71.385,245.250 71.272 C 246.045 70.298,248.701 70.132,249.686 70.995 C 249.996 71.267,250.463 71.537,250.724 71.595 C 250.985 71.653,251.354 71.880,251.546 72.100 C 251.975 72.593,252.513 72.612,252.933 72.149 C 253.232 71.818,253.250 71.467,253.250 65.905 C 253.250 59.156,253.347 59.571,251.708 59.339 C 251.047 59.246,250.575 59.075,250.348 58.848 C 249.993 58.493,246.015 58.346,244.833 58.645 M140.432 59.665 C 140.807 59.772,141.325 60.042,141.583 60.264 C 141.841 60.485,142.134 60.669,142.234 60.672 C 142.544 60.682,143.154 61.277,143.331 61.744 C 143.597 62.444,143.557 73.079,143.287 73.303 C 142.986 73.552,141.685 72.711,140.515 71.510 C 138.759 69.707,136.371 69.582,135.250 71.234 C 134.289 72.650,134.891 73.967,137.464 76.085 C 138.131 76.634,138.947 77.327,139.276 77.625 C 139.606 77.923,139.937 78.167,140.012 78.167 C 140.086 78.167,140.281 78.392,140.443 78.667 C 140.606 78.942,140.819 79.167,140.917 79.167 C 141.015 79.167,141.234 79.410,141.405 79.708 C 141.575 80.006,141.890 80.408,142.104 80.600 C 142.319 80.793,142.628 81.243,142.791 81.600 C 142.955 81.958,143.231 82.462,143.405 82.720 C 143.579 82.979,143.786 83.608,143.866 84.118 C 143.946 84.628,144.159 85.483,144.339 86.017 C 144.798 87.378,144.788 89.966,144.318 91.852 C 144.127 92.621,143.905 93.646,143.826 94.130 C 143.747 94.615,143.533 95.201,143.351 95.432 C 143.168 95.664,142.931 96.131,142.823 96.469 C 142.715 96.807,142.426 97.308,142.180 97.583 C 141.935 97.858,141.631 98.288,141.507 98.539 C 141.382 98.789,141.142 99.038,140.973 99.092 C 140.805 99.145,140.667 99.263,140.667 99.354 C 140.667 99.587,139.008 101.152,138.458 101.437 C 138.206 101.568,138.000 101.744,138.000 101.827 C 138.000 101.911,137.381 102.300,136.625 102.691 L 135.250 103.403 132.279 103.465 L 129.308 103.527 128.650 103.092 C 128.288 102.852,127.623 102.586,127.172 102.501 C 126.721 102.415,126.104 102.226,125.801 102.080 C 123.876 101.153,123.958 101.497,124.027 94.669 C 124.080 89.375,124.103 89.013,124.406 88.678 L 124.729 88.322 125.323 88.901 C 125.863 89.428,126.724 90.232,127.833 91.244 C 129.213 92.504,133.074 92.388,133.354 91.078 C 133.729 89.328,133.344 88.073,132.077 86.917 C 128.985 84.093,126.495 81.492,126.229 80.808 C 126.075 80.409,125.847 79.965,125.724 79.820 C 125.600 79.675,125.364 79.026,125.200 78.377 C 125.035 77.729,124.793 77.069,124.663 76.912 C 124.433 76.636,124.288 75.797,124.070 73.500 C 123.951 72.245,124.343 69.697,124.742 69.127 C 124.884 68.925,125.000 68.591,125.000 68.385 C 125.000 67.867,125.494 66.461,125.749 66.254 C 125.865 66.160,126.095 65.708,126.262 65.250 C 126.470 64.677,126.893 64.088,127.616 63.365 C 128.194 62.787,128.667 62.228,128.667 62.125 C 128.667 61.900,129.957 60.667,130.192 60.667 C 130.282 60.667,130.594 60.486,130.886 60.266 C 131.380 59.894,132.168 59.605,133.167 59.432 C 133.991 59.289,139.765 59.474,140.432 59.665 M148.417 59.453 C 148.233 59.501,147.896 59.727,147.667 59.955 L 147.250 60.371 147.206 81.071 L 147.162 101.770 147.594 102.177 L 148.027 102.583 157.500 102.583 L 166.973 102.583 167.413 102.170 L 167.852 101.758 167.801 97.147 L 167.750 92.537 167.273 92.060 L 166.796 91.583 162.940 91.500 L 159.083 91.417 159.083 89.000 L 159.083 86.583 162.417 86.500 C 166.092 86.408,166.376 86.337,166.764 85.409 C 167.303 84.119,167.047 76.070,166.454 75.640 C 166.433 75.625,164.767 75.568,162.750 75.515 L 159.083 75.417 159.083 73.000 L 159.083 70.583 162.955 70.500 L 166.827 70.417 167.288 69.955 L 167.750 69.492 167.750 64.932 L 167.750 60.371 167.273 59.894 L 166.796 59.417 157.773 59.392 C 152.810 59.378,148.600 59.405,148.417 59.453 M178.392 59.493 C 178.188 59.579,177.943 59.918,177.825 60.280 C 177.710 60.630,177.485 61.009,177.325 61.122 C 176.956 61.384,176.714 62.495,176.595 64.481 C 176.533 65.510,176.422 66.110,176.271 66.231 C 175.864 66.561,175.632 67.544,175.518 69.427 C 175.422 71.005,175.353 71.326,175.038 71.664 C 174.616 72.117,174.549 72.430,174.359 74.857 C 174.250 76.249,174.147 76.723,173.879 77.063 C 173.488 77.560,173.381 78.034,173.189 80.117 C 173.088 81.204,172.956 81.744,172.703 82.097 C 172.323 82.630,172.000 84.392,172.000 85.940 C 172.000 86.697,171.910 87.028,171.573 87.515 C 171.101 88.196,170.842 89.550,170.837 91.367 C 170.834 92.126,170.761 92.526,170.608 92.617 C 170.144 92.891,169.946 93.626,169.824 95.538 C 169.713 97.287,169.658 97.537,169.328 97.804 C 168.899 98.152,168.690 99.151,168.679 100.917 C 168.668 102.709,168.259 102.576,173.952 102.635 C 180.620 102.705,180.597 102.714,180.755 100.241 C 180.808 99.421,180.888 98.505,180.934 98.205 L 181.017 97.659 183.967 97.705 L 186.917 97.750 187.000 99.750 C 187.096 102.061,187.236 102.413,188.119 102.559 C 189.388 102.768,198.223 102.676,198.667 102.448 C 199.271 102.138,199.265 99.773,198.658 98.953 C 198.321 98.497,198.250 98.137,198.125 96.262 C 198.003 94.420,197.908 93.929,197.491 92.979 C 197.171 92.250,197.000 91.580,196.999 91.055 C 196.996 89.317,196.660 87.268,196.267 86.588 C 195.941 86.024,195.863 85.596,195.781 83.917 C 195.675 81.759,195.465 80.757,195.071 80.536 C 194.883 80.431,194.783 79.850,194.664 78.157 C 194.485 75.610,194.407 75.216,193.987 74.750 C 193.757 74.493,193.663 74.013,193.583 72.667 C 193.458 70.563,193.239 69.442,192.807 68.685 C 192.561 68.255,192.445 67.569,192.320 65.807 C 192.155 63.478,192.010 62.805,191.572 62.321 C 191.441 62.176,191.286 61.595,191.227 61.028 C 191.045 59.292,191.557 59.422,184.722 59.380 C 181.437 59.359,178.589 59.410,178.392 59.493 M216.667 59.476 C 216.188 59.564,216.048 59.688,215.884 60.167 C 215.603 60.992,215.578 101.457,215.859 102.073 C 216.129 102.665,216.419 102.692,221.945 102.634 L 226.807 102.583 227.239 102.177 L 227.672 101.770 227.628 81.094 L 227.583 60.417 227.109 59.917 L 226.635 59.417 221.943 59.392 C 219.362 59.379,216.987 59.416,216.667 59.476 M251.912 59.680 C 252.980 60.062,252.995 60.148,252.998 65.786 C 253.000 70.168,252.964 70.899,252.719 71.411 C 252.453 71.968,252.167 72.191,252.167 71.840 C 252.167 71.752,251.877 71.601,251.522 71.506 C 251.168 71.411,250.672 71.126,250.420 70.875 C 249.854 70.309,245.508 70.147,245.112 70.677 C 245.004 70.820,244.673 71.080,244.375 71.255 C 244.077 71.429,243.833 71.617,243.833 71.673 C 243.833 71.728,243.616 72.017,243.350 72.315 C 243.084 72.613,242.815 73.133,242.752 73.470 C 242.690 73.807,242.404 74.608,242.116 75.250 L 241.593 76.417 241.588 80.833 L 241.583 85.250 242.053 86.250 C 242.311 86.800,242.592 87.625,242.676 88.083 C 242.788 88.690,242.967 89.033,243.332 89.345 C 243.608 89.581,243.835 89.844,243.838 89.929 C 243.840 90.014,244.211 90.446,244.663 90.888 L 245.484 91.693 247.648 91.638 C 249.748 91.585,249.827 91.570,250.290 91.125 C 250.553 90.873,250.857 90.667,250.966 90.667 C 251.075 90.667,251.365 90.442,251.610 90.167 C 252.935 88.679,253.194 89.588,252.987 95.000 C 252.734 101.643,252.595 102.098,250.733 102.422 C 250.376 102.484,249.783 102.734,249.417 102.976 C 248.477 103.597,243.362 103.663,242.552 103.064 C 242.290 102.871,241.655 102.590,241.143 102.441 C 240.630 102.292,240.112 102.051,239.991 101.906 C 239.871 101.761,239.467 101.488,239.094 101.299 C 238.072 100.782,234.333 97.055,234.333 96.554 C 234.333 96.469,234.119 96.103,233.857 95.741 C 233.595 95.379,233.248 94.728,233.086 94.294 C 232.923 93.860,232.691 93.423,232.570 93.322 C 232.449 93.222,232.224 92.565,232.071 91.862 C 231.917 91.159,231.699 90.471,231.586 90.333 C 230.952 89.563,230.585 85.026,230.717 79.583 C 230.830 74.929,231.013 73.539,231.653 72.500 C 231.738 72.362,231.921 71.748,232.061 71.135 C 232.201 70.522,232.502 69.735,232.731 69.385 C 232.959 69.036,233.201 68.526,233.268 68.251 C 233.335 67.977,233.602 67.460,233.862 67.101 C 234.121 66.743,234.333 66.359,234.333 66.248 C 234.333 66.137,234.596 65.768,234.917 65.428 C 235.237 65.088,235.500 64.715,235.500 64.599 C 235.500 64.483,235.706 64.193,235.958 63.955 C 236.210 63.716,236.503 63.422,236.608 63.302 C 237.092 62.747,237.837 62.160,238.392 61.895 C 238.726 61.735,239.000 61.522,239.000 61.422 C 239.000 61.192,239.757 60.750,240.417 60.594 C 240.692 60.529,241.089 60.314,241.301 60.117 C 242.101 59.369,250.122 59.039,251.912 59.680 M257.193 59.499 C 255.963 59.790,256.015 58.824,256.007 81.467 C 255.999 103.794,255.924 102.361,257.117 102.558 C 259.002 102.870,275.662 102.671,276.000 102.333 C 276.395 101.939,276.524 92.933,276.146 92.105 C 275.885 91.532,275.688 91.505,271.704 91.502 L 268.158 91.500 268.204 89.042 L 268.250 86.583 271.441 86.500 C 275.962 86.382,276.002 86.334,275.996 80.989 C 275.989 75.367,276.186 75.613,271.621 75.500 L 268.250 75.417 268.204 72.958 L 268.158 70.500 271.871 70.497 C 276.785 70.494,276.333 71.056,276.333 64.935 C 276.333 60.125,276.265 59.610,275.605 59.433 C 275.062 59.287,257.827 59.349,257.193 59.499 M166.683 60.014 L 167.083 60.361 167.083 64.945 L 167.083 69.529 166.690 69.848 C 166.330 70.139,165.993 70.167,162.752 70.167 C 158.443 70.167,158.810 69.888,158.870 73.106 L 158.917 75.583 162.083 75.667 C 166.789 75.790,166.500 75.436,166.500 81.092 L 166.500 84.810 165.939 85.405 L 165.377 86.000 162.305 86.000 C 158.522 86.000,158.833 85.730,158.833 89.016 C 158.833 92.158,158.373 91.833,162.829 91.833 C 165.994 91.833,166.331 91.861,166.690 92.152 L 167.083 92.470 167.132 97.134 L 167.181 101.798 166.735 102.149 C 166.294 102.496,166.186 102.500,157.470 102.500 L 148.652 102.500 148.238 102.087 L 147.825 101.673 147.871 81.022 L 147.917 60.371 148.333 60.024 C 148.989 59.479,166.055 59.470,166.683 60.014 M190.409 59.993 C 190.807 60.324,190.947 60.743,191.153 62.231 C 191.251 62.929,191.489 63.969,191.683 64.542 C 191.876 65.115,192.106 66.407,192.194 67.415 C 192.296 68.591,192.473 69.515,192.688 69.998 C 192.873 70.412,193.092 71.425,193.176 72.250 C 193.391 74.366,193.496 74.939,193.862 75.991 C 194.040 76.500,194.253 77.554,194.337 78.333 C 194.505 79.886,194.750 81.178,195.096 82.333 C 195.219 82.746,195.440 84.021,195.586 85.167 C 195.732 86.313,196.032 87.850,196.253 88.583 C 196.474 89.317,196.729 90.759,196.822 91.788 C 196.938 93.085,197.095 93.866,197.333 94.333 C 197.563 94.784,197.734 95.598,197.850 96.795 C 197.945 97.779,198.221 99.244,198.463 100.052 C 199.174 102.427,199.066 102.477,193.212 102.491 C 187.483 102.503,187.337 102.434,187.334 99.721 C 187.334 99.155,187.245 98.311,187.138 97.846 L 186.943 97.000 183.967 97.000 C 180.554 97.000,180.815 96.865,180.594 98.750 C 180.154 102.518,180.185 102.500,174.188 102.500 L 169.558 102.500 169.169 102.086 C 168.737 101.626,168.808 100.939,169.507 98.833 C 169.674 98.329,169.928 97.098,170.071 96.098 C 170.213 95.098,170.440 94.113,170.573 93.909 C 170.707 93.704,170.966 92.473,171.149 91.172 C 171.331 89.872,171.552 88.720,171.640 88.612 C 171.943 88.240,172.333 86.602,172.339 85.678 C 172.342 85.168,172.495 84.337,172.679 83.833 C 173.202 82.404,173.488 81.156,173.494 80.278 C 173.498 79.783,173.693 78.990,174.000 78.224 C 174.295 77.488,174.500 76.669,174.500 76.230 C 174.500 75.283,174.958 73.020,175.239 72.583 C 175.357 72.400,175.579 71.321,175.734 70.186 C 175.889 69.050,176.126 67.906,176.262 67.644 C 176.550 67.087,176.775 65.983,176.995 64.046 C 177.082 63.283,177.262 62.454,177.396 62.204 C 177.530 61.954,177.765 61.413,177.917 61.000 C 178.452 59.554,177.999 59.644,184.424 59.700 C 189.114 59.741,190.167 59.793,190.409 59.993 M226.449 60.069 L 226.917 60.471 226.962 81.046 C 227.007 101.177,227.001 101.629,226.685 102.019 L 226.363 102.417 221.500 102.417 L 216.637 102.417 216.319 102.023 C 215.994 101.623,215.799 64.138,216.106 61.201 C 216.265 59.677,216.273 59.675,221.616 59.670 L 225.981 59.667 226.449 60.069 M275.695 59.942 C 276.139 60.344,276.166 69.374,275.724 69.862 C 275.474 70.139,275.128 70.167,271.982 70.167 C 269.706 70.167,268.370 70.233,268.091 70.360 L 267.667 70.554 267.667 72.910 C 267.667 75.893,267.389 75.667,271.049 75.667 C 275.474 75.667,275.220 75.312,275.136 81.362 C 275.084 85.098,275.079 85.145,274.679 85.570 L 274.275 86.000 271.304 86.000 C 267.444 86.000,267.667 85.813,267.667 89.057 L 267.667 91.446 268.091 91.640 C 268.369 91.767,269.699 91.833,271.953 91.833 C 274.918 91.833,275.432 91.871,275.695 92.109 C 276.139 92.511,276.166 101.707,275.724 102.195 C 275.464 102.483,274.964 102.500,266.719 102.500 C 257.639 102.500,257.062 102.459,256.633 101.785 C 256.415 101.441,256.470 61.555,256.690 60.820 C 257.041 59.650,256.827 59.675,266.654 59.670 C 274.553 59.667,275.420 59.693,275.695 59.942 M183.878 77.571 C 183.341 78.023,183.177 78.838,182.901 82.417 C 182.845 83.150,182.657 84.325,182.483 85.028 C 181.957 87.152,182.149 87.500,183.841 87.500 C 185.162 87.500,185.541 87.093,185.315 85.917 C 185.226 85.458,185.054 83.371,184.931 81.279 C 184.687 77.124,184.634 76.936,183.878 77.571 M184.686 83.167 L 184.750 86.917 183.833 86.917 C 182.920 86.917,182.917 86.915,182.942 86.417 C 183.135 82.541,183.351 80.423,183.579 80.171 C 183.719 80.017,183.833 79.835,183.833 79.768 C 183.833 79.701,183.965 79.471,184.125 79.257 C 184.569 78.665,184.613 78.977,184.686 83.167 " stroke="none" fill="#37d9dc" fill-rule="evenodd"></path></g></svg>