<svg id="svg" version="1.1" xmlns="http://www.w3.org/2000/svg" xmlns:xlink="http://www.w3.org/1999/xlink" width="400" height="399.7917751171265" viewBox="0, 0, 400,399.7917751171265"><g id="svgg"><path id="path0" d="M33.619 161.739 C 33.690 162.054,38.453 179.787,44.205 201.145 L 54.663 239.979 65.934 240.033 C 74.840 240.076,77.227 240.032,77.306 239.825 C 77.361 239.681,80.429 228.272,84.124 214.472 C 87.819 200.672,90.899 189.316,90.970 189.238 C 91.041 189.159,94.242 200.544,98.085 214.537 L 105.071 239.979 116.401 239.979 L 127.731 239.979 138.301 200.729 C 144.114 179.141,148.873 161.408,148.875 161.322 C 148.878 161.236,144.216 161.166,138.514 161.166 L 128.146 161.166 121.931 187.767 C 118.513 202.397,115.653 214.543,115.575 214.758 C 115.486 215.002,114.494 211.455,112.924 205.283 C 111.545 199.858,108.459 187.713,106.067 178.294 L 101.718 161.169 91.515 161.170 L 81.312 161.171 74.131 188.029 C 70.181 202.802,66.900 214.888,66.840 214.888 C 66.779 214.888,64.068 202.918,60.815 188.287 C 57.562 173.657,54.859 161.569,54.809 161.426 C 54.738 161.223,52.409 161.166,44.105 161.166 L 33.491 161.166 33.619 161.739 M182.753 161.322 C 182.702 161.408,176.176 179.038,168.251 200.499 C 160.326 221.960,153.793 239.646,153.734 239.801 C 153.643 240.036,155.347 240.083,163.931 240.083 L 174.237 240.083 175.285 237.012 C 175.862 235.323,177.102 231.715,178.040 228.995 L 179.746 224.050 194.274 224.050 L 208.803 224.050 209.851 227.121 C 210.427 228.811,211.667 232.418,212.605 235.138 L 214.312 240.083 224.827 240.083 C 234.921 240.083,235.339 240.068,235.243 239.702 C 235.188 239.492,228.650 221.735,220.713 200.243 L 206.284 161.166 194.565 161.166 C 188.120 161.166,182.804 161.236,182.753 161.322 M243.207 168.142 L 243.207 175.117 249.662 175.117 L 256.117 175.117 256.117 200.625 L 256.117 226.132 249.662 226.132 L 243.207 226.132 243.207 233.108 L 243.207 240.083 266.320 240.083 L 289.433 240.083 289.433 233.108 L 289.433 226.132 282.978 226.132 L 276.523 226.132 276.523 200.625 L 276.523 175.117 282.978 175.117 L 289.433 175.117 289.433 168.142 L 289.433 161.166 266.320 161.166 L 243.207 161.166 243.207 168.142 M298.178 168.766 L 298.178 176.366 310.463 176.366 L 322.749 176.366 322.749 208.225 L 322.749 240.083 333.056 240.083 L 343.363 240.083 343.363 208.225 L 343.363 176.366 355.648 176.366 L 367.933 176.366 367.933 168.766 L 367.933 161.166 333.056 161.166 L 298.178 161.166 298.178 168.766 M199.063 195.456 C 201.640 202.976,203.778 209.253,203.815 209.405 C 203.871 209.633,202.174 209.682,194.289 209.682 C 189.013 209.682,184.695 209.618,184.695 209.539 C 184.695 209.248,194.173 181.785,194.274 181.785 C 194.331 181.785,196.486 187.937,199.063 195.456 " stroke="none" fill="#fbfbfb" fill-rule="evenodd"></path><path id="path1" d="M62.415 62.207 L 5.414 119.209 5.414 199.896 L 5.414 280.583 62.416 337.585 L 119.417 394.586 200.000 394.586 L 280.583 394.586 337.585 337.584 L 394.586 280.583 394.586 199.896 L 394.586 119.208 337.584 62.207 L 280.583 5.206 200.000 5.206 L 119.417 5.206 62.415 62.207 M54.809 161.426 C 54.859 161.569,57.562 173.657,60.815 188.287 C 64.068 202.918,66.779 214.888,66.840 214.888 C 66.900 214.888,70.181 202.802,74.131 188.029 L 81.312 161.171 91.515 161.170 L 101.718 161.169 106.067 178.294 C 108.459 187.713,111.545 199.858,112.924 205.283 C 114.494 211.455,115.486 215.002,115.575 214.758 C 115.653 214.543,118.513 202.397,121.931 187.767 L 128.146 161.166 138.514 161.166 C 144.216 161.166,148.878 161.236,148.875 161.322 C 148.873 161.408,144.114 179.141,138.301 200.729 L 127.731 239.979 116.401 239.979 L 105.071 239.979 98.085 214.537 C 94.242 200.544,91.041 189.159,90.970 189.238 C 90.899 189.316,87.819 200.672,84.124 214.472 C 80.429 228.272,77.361 239.681,77.306 239.825 C 77.227 240.032,74.840 240.076,65.934 240.033 L 54.663 239.979 44.205 201.145 C 38.453 179.787,33.690 162.054,33.619 161.739 L 33.491 161.166 44.105 161.166 C 52.409 161.166,54.738 161.223,54.809 161.426 M220.713 200.243 C 228.650 221.735,235.188 239.492,235.243 239.702 C 235.339 240.068,234.921 240.083,224.827 240.083 L 214.312 240.083 212.605 235.138 C 211.667 232.418,210.427 228.811,209.851 227.121 L 208.803 224.050 194.274 224.050 L 179.746 224.050 178.040 228.995 C 177.102 231.715,175.862 235.323,175.285 237.012 L 174.237 240.083 163.931 240.083 C 155.347 240.083,153.643 240.036,153.734 239.801 C 153.793 239.646,160.326 221.960,168.251 200.499 C 176.176 179.038,182.702 161.408,182.753 161.322 C 182.804 161.236,188.120 161.166,194.565 161.166 L 206.284 161.166 220.713 200.243 M289.433 168.142 L 289.433 175.117 282.978 175.117 L 276.523 175.117 276.523 200.625 L 276.523 226.132 282.978 226.132 L 289.433 226.132 289.433 233.108 L 289.433 240.083 266.320 240.083 L 243.207 240.083 243.207 233.108 L 243.207 226.132 249.662 226.132 L 256.117 226.132 256.117 200.625 L 256.117 175.117 249.662 175.117 L 243.207 175.117 243.207 168.142 L 243.207 161.166 266.320 161.166 L 289.433 161.166 289.433 168.142 M367.933 168.766 L 367.933 176.366 355.648 176.366 L 343.363 176.366 343.363 208.225 L 343.363 240.083 333.056 240.083 L 322.749 240.083 322.749 208.225 L 322.749 176.366 310.463 176.366 L 298.178 176.366 298.178 168.766 L 298.178 161.166 333.056 161.166 L 367.933 161.166 367.933 168.766 M189.433 195.590 C 186.827 203.183,184.695 209.460,184.695 209.539 C 184.695 209.618,189.013 209.682,194.289 209.682 C 202.174 209.682,203.871 209.633,203.815 209.405 C 203.610 208.559,194.361 181.785,194.274 181.785 C 194.217 181.785,192.038 187.998,189.433 195.590 " stroke="none" fill="#c4242c" fill-rule="evenodd"></path></g></svg>